<svg width="1535" height="218" viewBox="0 0 1535 218" fill="none" xmlns="http://www.w3.org/2000/svg">
<path d="M0 3.67415H38.712V218H0V3.67415ZM108.873 37.3539H50.9425V3.67415H205.516V37.3539H147.585V218H108.873V37.3539ZM299.394 168.093H224.166L211.262 218H172.55L219.499 47.1517C222.794 34.9045 226.271 25.4129 229.932 18.677C233.593 11.941 237.894 7.1442 242.836 4.28652C247.961 1.42884 254.276 0 261.78 0C269.285 0 275.508 1.42884 280.45 4.28652C285.392 7.1442 289.693 11.941 293.354 18.677C297.198 25.4129 300.767 34.9045 304.061 47.1517L351.01 218H312.298L299.394 168.093ZM290.883 135.944L267.82 47.764C266.539 42.4569 264.526 39.8034 261.78 39.8034C259.035 39.8034 257.021 42.4569 255.74 47.764L232.678 135.944H290.883ZM416.875 218C393.447 218 376.607 212.285 366.357 200.854C356.291 189.423 351.257 172.89 351.257 151.253V3.67415H389.969V151.253C389.969 162.479 392.166 170.848 396.558 176.36C400.951 181.667 407.724 184.32 416.875 184.32H478.375V218H416.875ZM492.062 3.67415H512.104C522.171 3.67415 530.225 5.20504 536.265 8.26684C542.305 11.3287 547.521 16.2275 551.914 22.9635C556.307 29.4953 561.432 39.3951 567.289 52.6629L583.213 88.486L599.138 52.6629C604.995 39.3951 610.12 29.4953 614.513 22.9635C618.905 16.2275 624.122 11.3287 630.162 8.26684C636.202 5.20504 644.256 3.67415 654.323 3.67415H674.365V218H639.222V48.6826C637.026 48.6826 635.196 49.8052 633.731 52.0506C632.267 54.2959 630.071 58.2762 627.142 63.9916L583.213 154.927L539.285 63.9916C536.356 58.2762 534.16 54.2959 532.696 52.0506C531.231 49.8052 529.401 48.5805 527.205 48.3764V218H492.062V3.67415ZM764.139 218C739.796 218 722.316 212.285 711.7 200.854C701.084 189.423 695.776 172.89 695.776 151.253V70.4214C695.776 48.7847 701.084 32.2509 711.7 20.8202C722.316 9.38951 739.796 3.67415 764.139 3.67415H828.385V37.3539H764.139C754.073 37.3539 746.568 40.0075 741.626 45.3146C736.867 50.6217 734.488 58.9906 734.488 70.4214V93.9972H816.305V127.677H734.488V151.253C734.488 162.479 736.867 170.848 741.626 176.36C746.568 181.667 754.073 184.32 764.139 184.32H828.934V218H764.139ZM1003.62 3.67415V167.48C1003.62 184.014 1000.6 196.567 994.56 205.14C988.52 213.713 978.819 218 965.457 218H938.277L881.715 71.9523V218H845.474V3.67415H889.128L958.868 181.258H959.417C962.529 181.258 964.634 179.83 965.732 176.972C966.83 173.91 967.379 168.501 967.379 160.744V3.67415H1003.62ZM1139.62 168.093H1064.4L1051.49 218H1012.78L1059.73 47.1517C1063.02 34.9045 1066.5 25.4129 1070.16 18.677C1073.82 11.941 1078.12 7.1442 1083.07 4.28652C1088.19 1.42884 1094.51 0 1102.01 0C1109.52 0 1115.74 1.42884 1120.68 4.28652C1125.62 7.1442 1129.92 11.941 1133.58 18.677C1137.43 25.4129 1141 34.9045 1144.29 47.1517L1191.24 218H1152.53L1139.62 168.093ZM1131.11 135.944L1108.05 47.764C1106.77 42.4569 1104.76 39.8034 1102.01 39.8034C1099.27 39.8034 1097.25 42.4569 1095.97 47.764L1072.91 135.944H1131.11ZM1359.39 218H1318.48L1305.85 170.542C1303.29 160.744 1300.72 153.192 1298.16 147.885C1295.6 142.374 1292.12 138.189 1287.73 135.331C1283.34 132.474 1277.48 131.045 1270.16 131.045H1242.43V218H1203.71V3.67415H1281.41C1304.84 3.67415 1322.14 8.87921 1333.3 19.2893C1344.47 29.4953 1350.05 45.5187 1350.05 67.3596C1350.05 81.4438 1346.67 92.7725 1339.89 101.346C1333.3 109.919 1324.15 115.43 1312.44 117.879C1321.77 121.349 1328.82 127.371 1333.58 135.944C1338.34 144.517 1342.73 156.152 1346.76 170.848L1359.39 218ZM1282.51 97.3652C1290.93 97.3652 1297.8 94.9157 1303.1 90.0169C1308.59 84.9139 1311.34 77.3614 1311.34 67.3596C1311.34 57.3577 1308.59 49.9073 1303.1 45.0084C1297.8 39.9054 1290.93 37.3539 1282.51 37.3539H1242.43V97.3652H1282.51ZM1483.38 168.093H1408.16L1395.25 218H1356.54L1403.49 47.1517C1406.78 34.9045 1410.26 25.4129 1413.92 18.677C1417.58 11.941 1421.88 7.1442 1426.83 4.28652C1431.95 1.42884 1438.27 0 1445.77 0C1453.27 0 1459.5 1.42884 1464.44 4.28652C1469.38 7.1442 1473.68 11.941 1477.34 18.677C1481.19 25.4129 1484.76 34.9045 1488.05 47.1517L1535 218H1496.29L1483.38 168.093ZM1474.87 135.944L1451.81 47.764C1450.53 42.4569 1448.52 39.8034 1445.77 39.8034C1443.02 39.8034 1441.01 42.4569 1439.73 47.764L1416.67 135.944H1474.87Z" fill="black"/>
</svg>
