<svg width="4424" height="5872" viewBox="0 0 4424 5872" fill="none" xmlns="http://www.w3.org/2000/svg">
<g filter="url(#filter0_d_130_22)">
<path fill-rule="evenodd" clip-rule="evenodd" d="M1736.97 3156.84C1913.66 3156.84 2057.39 3012.67 2057.39 2836.42C2057.39 2659.73 1913.22 2516 1736.97 2516C1560.28 2516 1416.55 2659.73 1416.55 2836.42C1416.55 3012.67 1560.71 3156.84 1736.97 3156.84Z" fill="white"/>
</g>
<path fill-rule="evenodd" clip-rule="evenodd" d="M1736.97 3156.84C1913.66 3156.84 2057.39 3012.67 2057.39 2836.42C2057.39 2659.73 1913.22 2516 1736.97 2516C1560.28 2516 1416.55 2659.73 1416.55 2836.42C1416.55 3012.67 1560.71 3156.84 1736.97 3156.84Z" fill="url(#paint0_radial_130_22)"/>
<path d="M1759.35 3155.84C1823.03 3151.5 1886.17 3126.9 1936.68 3086.52C2046.92 2998.51 2086.91 2847.89 2034.68 2718.05C2004.56 2642.94 1949.57 2583.75 1876.82 2548.1C1831.05 2525.73 1788.82 2516 1736.73 2516C1684.64 2516 1642.41 2525.73 1596.63 2548.1C1497.97 2596.51 1432.6 2688.19 1418.13 2798.16C1416.02 2814.35 1416.02 2858.42 1418.13 2874.46C1433.78 2993.51 1510.73 3092.04 1622.28 3135.58C1650.04 3146.37 1684.11 3153.74 1717 3155.97C1737.78 3157.42 1737.12 3157.42 1759.35 3155.84ZM1731.86 3147.81C1730.42 3146.1 1727.92 3142.29 1726.34 3139.27C1723.58 3133.74 1717 3112.56 1717 3109.14C1717 3107.69 1720.81 3107.3 1736.73 3107.3C1752.65 3107.3 1756.46 3107.69 1756.46 3109.14C1756.46 3112.56 1749.88 3133.74 1747.12 3139.27C1743.57 3146.24 1739.49 3150.71 1736.73 3150.71C1735.55 3150.71 1733.31 3149.39 1731.86 3147.81ZM1748.83 3148.47C1753.31 3139.66 1757.38 3129.4 1760.15 3119.67L1763.43 3107.56L1774.09 3106.78C1780.01 3106.38 1790.93 3105.59 1798.56 3105.19L1812.37 3104.27L1806.45 3111.25C1792.37 3128.08 1776.06 3140.71 1761.59 3146.1C1753.04 3149.26 1747.91 3150.18 1748.83 3148.47ZM1713.18 3146.63C1698.58 3141.63 1679.77 3126.9 1664.91 3108.74L1661.22 3104.27L1674.9 3105.19C1682.53 3105.59 1693.45 3106.38 1699.37 3106.78L1710.03 3107.56L1713.31 3119.67C1716.08 3129.4 1720.16 3139.66 1724.63 3148.47C1725.42 3150.05 1721.73 3149.52 1713.18 3146.63ZM1778.03 3145.05C1786.58 3139.66 1801.32 3126.51 1808.29 3118.08C1820.26 3103.22 1821.71 3102.04 1826.05 3102.04C1829.21 3102.04 1844.2 3099.67 1872.22 3094.8L1876.82 3094.01L1870.25 3100.06C1862.09 3107.69 1839.34 3123.09 1827.23 3129.13C1815 3135.32 1806.71 3138.47 1791.98 3142.95C1778.3 3146.9 1773.96 3147.68 1778.03 3145.05ZM1682.01 3142.95C1666.88 3138.61 1658.72 3135.45 1646.23 3129.13C1634.12 3123.09 1611.37 3107.69 1603.21 3100.06L1596.63 3094.01L1601.24 3094.8C1629.26 3099.67 1644.25 3102.04 1647.41 3102.04C1651.75 3102.04 1653.07 3103.22 1665.43 3118.35C1672.54 3126.9 1686.61 3139.53 1695.42 3145.05C1699.5 3147.55 1695.82 3147.03 1682.01 3142.95ZM1618.6 3127.82C1601.37 3120.85 1594 3117.17 1576.64 3106.9C1564.01 3099.41 1541.12 3083.09 1532.18 3075.07C1527.83 3071.12 1527.7 3071.12 1543.36 3077.57C1549.54 3080.07 1561.25 3084.15 1569.53 3086.64C1583.48 3090.86 1585.19 3091.78 1593.21 3099.01C1609.92 3114.01 1624.52 3124.14 1642.94 3133.48C1648.99 3136.5 1653.86 3139.27 1653.86 3139.53C1653.86 3140.45 1632.28 3133.35 1618.6 3127.82ZM1833.68 3132.43C1849.6 3124.01 1862.36 3115.06 1877.62 3101.77C1889.72 3091.12 1890.38 3090.72 1904.45 3086.52C1912.34 3084.15 1923.92 3080.07 1930.1 3077.57C1945.76 3071.12 1945.63 3071.12 1941.28 3075.07C1923.26 3091.25 1891.29 3111.51 1866.96 3122.56C1852.88 3128.88 1825.92 3138.87 1822.89 3138.87C1822.1 3138.87 1826.97 3135.98 1833.68 3132.43ZM1715.16 3100.85C1713.18 3097.83 1702.53 3028.77 1702.53 3019.43C1702.53 3018.24 1710.95 3017.85 1736.73 3017.85C1765.54 3017.85 1770.93 3018.11 1770.93 3019.69C1770.93 3029.03 1760.28 3097.83 1758.3 3100.85C1757.91 3101.51 1748.17 3102.04 1736.73 3102.04C1725.29 3102.04 1715.55 3101.51 1715.16 3100.85ZM1766.46 3092.3C1769.35 3078.62 1772.38 3057.97 1774.75 3036.92L1776.98 3017.19L1793.3 3016.27C1802.37 3015.87 1819.34 3014.43 1831.18 3013.24C1843.02 3011.93 1853.02 3011.4 1853.41 3011.8C1854.73 3013.11 1843.94 3044.29 1836.18 3061.26C1832.37 3069.68 1826.45 3081.25 1823.03 3087.17L1816.58 3097.83L1803.95 3098.75C1796.98 3099.14 1790.4 3099.8 1789.35 3099.93C1788.29 3100.2 1782.25 3100.46 1776.06 3100.59L1764.62 3100.72L1766.46 3092.3ZM1665.56 3098.62L1656.75 3097.69L1650.44 3087.17C1647.02 3081.25 1640.96 3069.55 1637.28 3061.26C1629.65 3044.55 1618.73 3013.11 1620.05 3011.8C1620.44 3011.27 1629.91 3011.93 1640.96 3013.11C1652.01 3014.3 1667.93 3015.48 1676.22 3016.01C1698.58 3017.06 1696.74 3016.01 1697.79 3028.63C1698.84 3042.05 1704.37 3079.81 1707 3092.04L1708.84 3101.12L1691.61 3100.33C1682.01 3099.8 1670.3 3099.01 1665.56 3098.62ZM1824.87 3095.98C1824.87 3095.46 1826.97 3091.65 1829.47 3087.44C1838.55 3072.57 1852.88 3038.37 1858.41 3018.24C1860.38 3011.27 1861.17 3009.95 1864.2 3009.43C1866.04 3009.04 1874.98 3007.46 1883.93 3006.01C1901.69 3002.98 1910.63 3001.14 1930.63 2996.01C1937.73 2994.17 1943.92 2992.98 1944.31 2993.38C1946.54 2995.75 1925.37 3035.61 1911.68 3054.68C1902.87 3067.05 1889.19 3083.36 1885.9 3085.33C1883.8 3086.52 1861.17 3091.25 1842.62 3094.14C1825.39 3096.91 1824.87 3097.04 1824.87 3095.98ZM1623.6 3092.83C1614.52 3091.38 1602.68 3089.15 1597.29 3087.83C1588.21 3085.59 1586.77 3084.81 1580.85 3078.49C1570.72 3067.84 1556.12 3047.58 1547.44 3032.32C1538.36 3016.53 1528.1 2994.57 1529.15 2993.51C1529.54 2993.12 1535.73 2994.17 1542.83 2996.01C1562.83 3001.14 1571.77 3002.98 1589.53 3006.01C1598.47 3007.46 1607.42 3009.04 1609.26 3009.43C1612.29 3009.95 1613.08 3011.27 1615.05 3018.24C1620.57 3038.37 1634.91 3072.57 1643.99 3087.44C1646.49 3091.65 1648.59 3095.59 1648.59 3095.98C1648.59 3096.51 1646.62 3096.64 1644.25 3096.25C1642.02 3095.85 1632.68 3094.27 1623.6 3092.83ZM1901.69 3077.05C1916.82 3060.21 1932.87 3034.69 1945.23 3007.46L1953.39 2989.83L1967.73 2984.83C1985.22 2978.65 2011.13 2966.02 2020.74 2958.78C2024.68 2955.76 2028.24 2953.65 2028.5 2954.05C2029.95 2955.36 2009.56 2993.78 1999.43 3009.04C1975.49 3044.81 1962.86 3056.79 1936.81 3068.76C1926.81 3073.36 1902.09 3082.17 1898.66 3082.31C1897.74 3082.31 1899.06 3079.94 1901.69 3077.05ZM1563.35 3078.89C1540.59 3071.92 1517.97 3060.47 1506.66 3050.08C1491.26 3035.87 1467.72 3002.06 1453.77 2973.65C1448.51 2963.13 1444.57 2954.31 1444.96 2954.05C1445.22 2953.79 1449.3 2956.28 1453.91 2959.57C1465.22 2967.46 1489.95 2979.57 1506.66 2985.09L1520.07 2989.56L1524.02 2998.77C1536.12 3026.53 1550.86 3051.13 1567.17 3071.26C1572.17 3077.31 1575.85 3082.31 1575.32 3082.31C1574.8 3082.31 1569.4 3080.73 1563.35 3078.89ZM1711.47 3011.8L1701.61 3010.88L1700.03 2991.67C1698.45 2972.07 1695.95 2931.69 1695.95 2925.77V2922.48H1736.73H1777.51V2926.43C1777.51 2932.21 1775.14 2969.7 1773.43 2991.8L1771.85 3011.14L1764.48 3011.66C1750.54 3012.46 1721.34 3012.59 1711.47 3011.8ZM1778.03 3004.43C1779.48 2991.93 1781.32 2964.97 1782.25 2943.39L1783.16 2922.21L1805.66 2920.64C1826.18 2919.19 1852.23 2916.56 1866.83 2914.45L1872.62 2913.53L1871.7 2921.29C1868.67 2946.29 1861.83 2984.96 1857.75 2999.56C1856.57 3003.77 1855.78 3004.43 1851.31 3005.22C1842.1 3006.67 1796.45 3010.61 1784.22 3011.01L1777.25 3011.27L1778.03 3004.43ZM1670.3 3009.95C1648.99 3008.38 1618.21 3004.96 1617.29 3004.03C1614.13 3001.01 1599.4 2916.69 1601.63 2914.45C1601.9 2914.19 1611.63 2914.98 1623.07 2916.43C1634.52 2917.87 1654.38 2919.71 1667.14 2920.64L1690.29 2922.21L1691.21 2943.39C1692.14 2964.97 1693.98 2991.93 1695.42 3004.43L1696.21 3011.27H1692.53C1690.43 3011.27 1680.43 3010.61 1670.3 3009.95ZM1863.54 3000.48C1866.3 2990.75 1873.67 2951.02 1875.51 2936.02C1876.69 2926.43 1877.88 2917.22 1878.28 2915.77C1878.67 2913.27 1880.51 2912.61 1891.56 2910.64C1911.03 2907.22 1938.39 2901.16 1953.52 2896.83C1960.89 2894.59 1967.59 2892.88 1968.25 2892.88C1970.09 2892.88 1969.83 2896.83 1966.93 2914.58C1962.46 2940.5 1952.33 2978.38 1948.25 2984.04C1946.28 2986.8 1914.71 2994.96 1886.69 2999.96C1863.28 3004.17 1862.49 3004.17 1863.54 3000.48ZM1585.06 2999.43C1555.72 2994.17 1527.31 2986.8 1525.2 2983.91C1523.1 2981.15 1517.97 2964.84 1513.1 2945.76C1508.63 2928.4 1502.97 2894.72 1504.29 2893.41C1504.68 2892.88 1511.52 2894.33 1519.28 2896.56C1535.2 2901.16 1562.43 2907.22 1581.9 2910.64C1592.95 2912.61 1594.79 2913.27 1595.19 2915.77C1595.58 2917.22 1596.76 2926.56 1597.95 2936.29C1599.79 2951.15 1606.5 2986.94 1609.79 2999.83C1610.97 3004.3 1612.02 3004.3 1585.06 2999.43ZM1956.81 2980.09C1957.2 2978.78 1959.57 2970.62 1962.07 2961.81C1966.67 2946.16 1971.8 2922.08 1975.09 2900.91L1976.8 2889.86L1990.61 2884.33C2014.69 2874.86 2034.55 2863.81 2046.52 2853.15L2051.12 2849.21V2853.28C2051.12 2869.33 2044.55 2906.56 2037.97 2927.34C2034.42 2938.79 2033.37 2940.5 2027.44 2945.89C2014.03 2958 2000.22 2966.02 1975.49 2975.89C1957.99 2982.99 1955.75 2983.52 1956.81 2980.09ZM1496.4 2975.23C1471.14 2964.97 1447.99 2950.5 1440.62 2940.24C1434.83 2932.34 1424.97 2887.88 1422.86 2860.65L1421.94 2848.81L1426.68 2853.02C1438.91 2863.81 1458.64 2874.73 1482.85 2884.33L1496.66 2889.86L1498.37 2900.91C1501.66 2922.08 1506.79 2946.16 1511.39 2961.81C1513.89 2970.62 1516.26 2978.78 1516.65 2980.09C1517.71 2983.52 1515.34 2982.99 1496.4 2975.23ZM1695.42 2907.61C1695.03 2902.75 1694.64 2878.81 1694.64 2854.47V2810.01H1736.73H1778.83V2854.47C1778.83 2878.81 1778.43 2902.75 1778.03 2907.61L1777.12 2916.56L1757.25 2916.82C1746.33 2917.08 1728.18 2917.08 1716.87 2916.82L1696.35 2916.43L1695.42 2907.61ZM1784.74 2864.33C1785.27 2835.52 1785.8 2811.32 1786.06 2810.53C1786.32 2809.61 1792.64 2808.82 1802.11 2808.3C1810.66 2807.77 1828.29 2806.19 1841.31 2804.61C1854.33 2803.03 1867.35 2801.72 1870.25 2801.59L1875.51 2801.46V2836.32C1875.51 2882.88 1874.06 2907.09 1871.04 2907.88C1867.62 2908.93 1821.84 2913.8 1803.82 2915.11C1794.74 2915.64 1786.58 2916.29 1785.67 2916.43C1784.22 2916.56 1784.09 2907.22 1784.74 2864.33ZM1649.25 2913.14C1625.18 2911.03 1601.63 2908.14 1600.71 2907.22C1599.4 2905.9 1597.16 2847.5 1597.55 2825.79L1597.95 2801.46L1603.21 2801.59C1606.1 2801.72 1619.13 2803.03 1632.15 2804.61C1645.17 2806.19 1663.06 2807.77 1671.88 2808.3L1688.06 2809.09V2829.08C1688.06 2840 1688.45 2864.07 1688.98 2882.62L1689.77 2916.16L1681.35 2915.64C1676.74 2915.38 1662.27 2914.19 1649.25 2913.14ZM1880.24 2890.25C1880.9 2881.17 1881.43 2857.1 1881.56 2836.71V2799.48L1884.46 2798.82C1886.03 2798.43 1893.53 2796.98 1901.16 2795.54C1918.66 2791.98 1941.81 2786.2 1957.33 2781.33L1969.43 2777.51L1970.09 2780.93C1973.38 2796.72 1974.04 2850.79 1971.28 2878.01L1970.49 2886.04L1951.28 2891.43C1940.76 2894.33 1929.05 2897.48 1925.5 2898.27C1917.34 2900.11 1879.59 2907.09 1879.19 2906.82C1879.06 2906.69 1879.46 2899.19 1880.24 2890.25ZM1550.59 2898.8C1545.46 2897.61 1532.7 2894.33 1522.18 2891.43L1502.84 2886.04L1502.05 2877.36C1499.55 2848.42 1500.08 2799.22 1503.37 2781.59L1504.16 2777.51L1516.13 2781.33C1532.18 2786.33 1555.06 2792.12 1572.96 2795.54C1580.85 2797.11 1588.48 2798.69 1589.66 2798.96C1591.77 2799.61 1591.9 2802.9 1591.9 2837.23C1591.9 2858.02 1592.29 2878.28 1592.56 2882.23C1592.95 2886.3 1593.61 2893.54 1594 2898.27L1594.66 2906.95L1577.3 2903.93C1567.69 2902.22 1555.59 2899.85 1550.59 2898.8ZM1977.98 2843.29C1978.12 2820.92 1977.59 2796.59 1977.07 2788.96L1975.88 2775.01L1988.38 2769.62C2004.03 2762.91 2020.74 2753.18 2028.76 2745.94C2032.31 2742.79 2035.34 2740.29 2035.87 2740.29C2037.05 2740.29 2041.91 2757.52 2045.21 2773.83C2049.54 2795.4 2051.39 2813.42 2050.86 2829.08L2050.47 2842.1L2041 2850.13C2028.9 2860.13 2012.98 2869.2 1993.38 2877.22C1984.96 2880.78 1978.12 2883.54 1977.98 2883.67C1977.98 2883.67 1977.98 2865.52 1977.98 2843.29ZM1473.51 2874.46C1458.12 2867.89 1442.99 2858.94 1432.07 2849.73L1422.99 2842.1L1422.6 2830.4C1422.07 2815.4 1424.18 2794.09 1428.25 2773.83C1431.54 2757.52 1436.41 2740.29 1437.59 2740.29C1438.12 2740.29 1441.15 2742.79 1444.7 2745.94C1452.72 2753.18 1469.43 2762.91 1485.08 2769.62L1497.45 2775.01L1496.4 2789.48C1495.87 2797.51 1495.34 2821.98 1495.47 2843.81L1495.61 2883.41L1490.21 2881.43C1487.19 2880.25 1479.69 2877.1 1473.51 2874.46ZM1700.55 2803.82L1694.24 2803.03L1695.16 2773.3C1696.08 2741.21 1698.19 2699.51 1699.24 2690.96L1699.9 2685.69H1736.73H1773.56L1774.22 2690.96C1775.27 2699.51 1777.38 2741.21 1778.3 2773.44L1779.22 2803.3L1774.75 2803.82C1767.12 2804.74 1707.13 2804.74 1700.55 2803.82ZM1784.87 2800.53C1784.48 2798.82 1784.09 2789.22 1784.09 2779.09C1784.09 2762.39 1783.16 2741.47 1780.67 2699.9L1779.74 2685.3L1786.85 2684.51C1825.26 2680.7 1837.63 2679.25 1847.1 2677.67C1853.15 2676.49 1858.28 2675.83 1858.41 2676.09C1859.6 2677.14 1867.09 2716.74 1869.46 2733.71C1872.62 2756.86 1875.64 2792.51 1874.46 2793.83C1873.14 2795.01 1854.86 2797.51 1829.34 2800.01C1785.53 2804.22 1785.93 2804.22 1784.87 2800.53ZM1643.99 2800.01C1617.94 2797.51 1601.63 2795.27 1599.79 2794.09C1596.5 2792.12 1602.42 2737.13 1609.92 2699.64C1612.42 2687.01 1614.66 2676.35 1614.92 2676.09C1615.18 2675.96 1620.31 2676.49 1626.36 2677.67C1635.83 2679.25 1648.2 2680.7 1686.61 2684.51L1693.71 2685.3L1692.79 2699.9C1690.56 2737.39 1689.37 2763.44 1689.37 2779.75C1689.37 2805.4 1690.29 2803.82 1675.03 2802.77C1668.06 2802.24 1654.12 2801.06 1643.99 2800.01ZM1880.9 2790.01C1880.64 2788.3 1879.72 2778.17 1878.93 2767.25C1876.82 2738.97 1870.91 2701.09 1864.99 2678.33C1864.2 2674.91 1864.33 2674.78 1874.46 2672.54C1889.19 2669.38 1911.95 2662.94 1923.79 2658.6L1934.05 2654.91L1937.86 2662.41C1943.39 2673.59 1950.49 2692.14 1955.75 2709.5C1960.75 2726.08 1968.25 2760.68 1968.25 2767.52C1968.25 2771.73 1968.12 2771.73 1956.02 2775.67C1940.76 2780.54 1926.29 2784.35 1904.45 2788.96C1882.88 2793.69 1881.69 2793.69 1880.9 2790.01ZM1572.69 2789.75C1552.57 2785.54 1532.83 2780.54 1517.44 2775.67C1505.34 2771.73 1505.21 2771.73 1505.21 2767.52C1505.21 2760.68 1512.71 2726.08 1517.71 2709.5C1522.97 2692.14 1530.07 2673.59 1535.6 2662.41L1539.41 2654.91L1549.67 2658.6C1561.51 2662.94 1584.27 2669.38 1599 2672.67C1608.47 2674.64 1609.26 2675.04 1608.6 2677.67C1603.61 2695.69 1596.5 2740.81 1594.53 2767.78C1592.82 2790.93 1592.42 2792.9 1590.19 2792.9C1589.27 2792.9 1581.37 2791.46 1572.69 2789.75ZM1972.2 2753.31C1966.67 2722.53 1955.88 2687.14 1944.83 2663.59L1939.57 2652.41L1949.44 2647.41C1954.83 2644.52 1962.73 2639.52 1967.07 2636.1L1974.7 2629.92L1982.85 2640.05C2000.48 2661.88 2019.56 2694.64 2029.55 2720.69L2034.16 2732.79L2030.47 2736.6C2025.87 2741.47 2013.37 2750.42 2003.37 2756.07C1995.09 2760.68 1975.88 2769.36 1975.22 2768.7C1974.96 2768.57 1973.65 2761.6 1972.2 2753.31ZM1481.66 2761.86C1467.72 2755.28 1450.09 2743.97 1443.65 2737.26L1439.3 2732.79L1443.91 2720.69C1453.91 2694.64 1472.98 2661.88 1490.61 2640.05L1498.76 2629.92L1506.52 2636.1C1510.73 2639.52 1518.63 2644.52 1524.15 2647.41L1534.02 2652.41L1530.73 2659.12C1518.23 2683.59 1506.13 2724.24 1499.42 2764.23C1498.37 2769.88 1499.55 2770.02 1481.66 2761.86ZM1700.55 2672.93C1702.4 2655.44 1706.61 2617.95 1707.53 2612.03L1708.45 2605.45H1736.73H1765.01L1765.93 2612.03C1766.85 2617.95 1771.06 2655.44 1772.91 2672.93L1773.56 2679.77H1736.73H1699.9L1700.55 2672.93ZM1777.64 2661.75C1776.72 2652.41 1774.88 2635.84 1773.43 2624.79C1772.11 2613.74 1770.93 2604.4 1770.93 2604.14C1770.93 2603.74 1773.69 2603.48 1777.12 2603.48C1782.38 2603.48 1797.11 2601.51 1825 2597.3L1829.6 2596.64L1834.99 2608.21C1843.94 2627.68 1858.02 2668.2 1856.3 2669.78C1854.46 2671.62 1802.9 2678.06 1787.9 2678.33L1779.22 2678.46L1777.64 2661.75ZM1662.01 2676.49C1641.89 2674.38 1618.21 2670.83 1617.15 2669.78C1615.44 2668.2 1629.52 2627.68 1638.46 2608.21L1643.86 2596.64L1648.46 2597.3C1676.35 2601.51 1691.08 2603.48 1696.21 2603.48C1699.77 2603.48 1702.53 2603.74 1702.53 2604.14C1702.53 2604.4 1701.34 2613.74 1700.03 2624.79C1698.58 2635.84 1696.74 2652.41 1695.82 2661.75L1694.24 2678.46H1687.79C1684.24 2678.46 1672.67 2677.54 1662.01 2676.49ZM1862.49 2667.67C1852.88 2636.36 1846.97 2620.18 1835.92 2596.24C1835.65 2595.45 1840.26 2593.48 1846.31 2591.9C1852.36 2590.19 1862.22 2586.77 1868.41 2584.4L1879.46 2579.93L1883.93 2584.14C1896.16 2595.72 1916.95 2623.47 1927.47 2642.02L1931.68 2649.52L1927.34 2651.36C1919.05 2654.78 1892.74 2662.67 1878.8 2665.83C1862.09 2669.78 1863.01 2669.65 1862.49 2667.67ZM1590.58 2664.78C1576.77 2661.49 1548.88 2652.94 1544.28 2650.57C1542.04 2649.52 1542.31 2648.86 1546.12 2641.89C1556.91 2622.95 1577.3 2595.72 1589.53 2584.14L1594 2579.93L1605.05 2584.4C1611.23 2586.77 1621.1 2590.19 1627.15 2591.9C1633.2 2593.48 1637.81 2595.45 1637.54 2596.24C1626.49 2620.18 1620.84 2635.58 1610.97 2667.67C1610.71 2668.59 1609.26 2668.99 1607.55 2668.72C1605.84 2668.33 1598.21 2666.62 1590.58 2664.78ZM1932.6 2639.39C1922.34 2620.97 1901.16 2592.82 1889.45 2581.9C1887.22 2579.67 1885.38 2577.69 1885.38 2577.17C1885.38 2576.38 1898.01 2566.65 1899.19 2566.65C1900.63 2566.65 1923.13 2582.3 1933.39 2590.46C1946.54 2600.85 1969.57 2623.08 1969.57 2625.31C1969.57 2626.24 1967.2 2628.87 1964.17 2631.1C1958.91 2635.31 1939.57 2646.89 1937.86 2646.89C1937.34 2646.89 1934.97 2643.47 1932.6 2639.39ZM1524.68 2641.1C1512.58 2634.26 1503.89 2627.55 1503.89 2625.18C1503.89 2620.32 1548.09 2582.43 1567.56 2570.72L1574.93 2566.38L1581.51 2571.38C1585.06 2574.14 1588.08 2576.64 1588.08 2576.91C1588.08 2577.17 1583.87 2582.04 1578.61 2587.56C1566.77 2600.19 1553.88 2617.55 1544.01 2634.13C1539.81 2641.1 1535.99 2646.89 1535.46 2646.89C1535.07 2646.89 1530.2 2644.26 1524.68 2641.1ZM1714.5 2598.74C1709.5 2597.69 1709.5 2597.43 1713.84 2575.99C1717.79 2556.38 1724.76 2534.68 1729.49 2527.31C1732.13 2522.97 1733.57 2521.92 1736.73 2521.92C1739.89 2521.92 1741.33 2522.97 1743.97 2527.31C1748.7 2534.68 1755.67 2556.38 1759.62 2575.99C1763.83 2596.51 1763.83 2597.82 1760.01 2598.61C1755.28 2599.53 1718.97 2599.66 1714.5 2598.74ZM1766.59 2580.85C1762.25 2558.88 1757.51 2542.18 1752.38 2531.26C1750.28 2526.66 1748.7 2522.71 1748.96 2522.45C1749.1 2522.31 1753.7 2523.5 1758.96 2525.34C1781.72 2532.97 1802.77 2552.18 1820.79 2581.51C1823.68 2586.25 1825.65 2590.46 1825.13 2590.72C1822.76 2592.17 1784.61 2597.56 1774.09 2598.08L1770.14 2598.22L1766.59 2580.85ZM1687.4 2596.9C1674.11 2595.45 1649.78 2591.64 1648.33 2590.72C1647.8 2590.46 1649.78 2586.25 1652.67 2581.51C1670.69 2552.18 1691.74 2532.97 1714.5 2525.34C1719.76 2523.5 1724.36 2522.31 1724.5 2522.45C1724.76 2522.71 1723.18 2526.66 1721.08 2531.26C1715.95 2542.18 1711.21 2558.88 1706.87 2580.85C1704.11 2594.27 1702.92 2598.22 1701.34 2598.22C1700.16 2598.22 1693.85 2597.56 1687.4 2596.9ZM1827.23 2580.59C1815.79 2560.86 1796.72 2539.55 1781.72 2529.81C1777.9 2527.44 1774.88 2525.34 1774.88 2525.21C1774.88 2524.55 1790.66 2528.63 1800.4 2531.79C1821.71 2538.76 1849.6 2554.41 1866.7 2569.01C1870.51 2572.17 1873.27 2575.33 1872.62 2575.99C1870.12 2578.35 1839.21 2588.74 1834.08 2588.88C1832.89 2589.01 1829.86 2585.32 1827.23 2580.59ZM1621.89 2584.14C1616.23 2582.43 1608.87 2579.8 1605.58 2578.35C1598.47 2575.33 1598.61 2575.06 1613.08 2564.01C1625.44 2554.67 1641.1 2545.2 1653.33 2539.55C1664.12 2534.68 1684.9 2527.71 1692.66 2526.39L1697.92 2525.6L1688.72 2532.05C1673.46 2542.97 1655.04 2564.28 1644.91 2582.83C1641.62 2589.01 1641.36 2589.14 1636.89 2588.35C1634.26 2587.82 1627.55 2585.98 1621.89 2584.14ZM1872.09 2565.99C1861.44 2556.91 1846.97 2547.31 1832.23 2539.42C1817.89 2531.79 1819.6 2531.65 1839.86 2538.63C1857.36 2544.68 1885.51 2557.57 1891.82 2562.3C1893.27 2563.36 1882.75 2571.91 1879.85 2571.91C1879.46 2571.91 1875.91 2569.28 1872.09 2565.99ZM1585.98 2567.43C1583.22 2564.94 1581.11 2562.7 1581.51 2562.44C1588.48 2556.52 1642.28 2533.76 1648.99 2533.76C1649.91 2533.76 1646.09 2536.26 1640.7 2539.15C1627.81 2546.12 1611.76 2556.91 1601.9 2565.2C1597.55 2568.88 1593.34 2571.91 1592.56 2571.91C1591.77 2571.91 1588.87 2569.93 1585.98 2567.43Z" fill="black" fill-opacity="0.1"/>
<path d="M1865.08 2986.94C1865.96 2986.94 1866.84 2986.94 1867.28 2986.94C1868.16 2987.38 1869.04 2987.82 1869.92 2988.26C1872.11 3007.16 1862.88 3038.36 1849.26 3046.71C1847.5 3045.84 1845.3 3044.96 1843.55 3044.08C1843.11 3040.56 1843.98 3013.31 1845.3 3010.23C1850.14 3001 1861.13 3000.56 1865.08 2986.94ZM1990.35 2833.11C1991.67 2833.54 1992.99 2833.98 1994.31 2834.42C1996.5 2840.14 1997.38 2846.29 1994.75 2851.13C1993.43 2851.13 1992.11 2851.13 1990.79 2851.57C1990.79 2851.13 1990.79 2850.69 1990.79 2849.81C1988.59 2845.85 1989.03 2837.06 1990.35 2833.11ZM2036.94 2817.28C2038.26 2818.16 2039.14 2818.6 2040.46 2819.48C2040.46 2821.24 2040.02 2823.44 2040.02 2825.19C2039.58 2825.19 2039.58 2825.19 2039.14 2825.19C2038.26 2825.19 2037.38 2825.19 2036.94 2825.19C2036.94 2824.75 2036.94 2824.31 2036.94 2823.44C2036.5 2822.12 2036.06 2820.8 2035.62 2819.48C2036.06 2819.04 2036.5 2818.16 2036.94 2817.28ZM2040.9 2752.23C2040.02 2757.06 2041.78 2760.14 2042.65 2764.97C2043.09 2764.97 2043.09 2764.97 2043.53 2764.97C2042.65 2760.58 2041.78 2756.62 2040.9 2752.23ZM1714.76 2760.58C1713.44 2762.78 1711.68 2764.54 1710.37 2766.73C1710.81 2767.61 1711.24 2768.49 1711.24 2768.93C1711.68 2768.93 1712.12 2769.37 1713 2769.37C1713.88 2768.93 1714.32 2768.93 1715.2 2768.49C1716.08 2766.73 1716.96 2764.54 1717.84 2762.78C1717.84 2762.34 1717.84 2761.9 1717.84 2761.02C1716.96 2761.02 1716.08 2760.58 1714.76 2760.58ZM1605.76 2756.18C1605.76 2757.06 1605.76 2758.38 1606.2 2759.26C1607.07 2759.26 1608.39 2759.26 1609.27 2758.82C1609.27 2757.94 1609.27 2756.62 1608.83 2755.74C1607.95 2755.74 1607.07 2755.74 1605.76 2756.18ZM1738.5 2725.86C1739.38 2725.86 1740.69 2725.86 1741.57 2725.42C1741.57 2726.3 1741.57 2727.18 1741.57 2727.61C1741.57 2728.05 1741.13 2728.93 1741.13 2729.37C1740.69 2729.37 1740.69 2729.37 1740.25 2729.37C1739.81 2729.37 1739.38 2729.37 1738.5 2729.37C1738.5 2728.49 1738.5 2727.17 1738.5 2725.86ZM1637.84 2728.49C1643.56 2727.61 1645.75 2727.61 1648.39 2730.69C1648.39 2731.57 1647.95 2732.45 1647.95 2733.33C1647.51 2733.77 1647.07 2733.77 1646.63 2734.21C1641.8 2734.21 1640.04 2732.89 1637.4 2730.25C1637.4 2729.81 1637.84 2728.93 1637.84 2728.49ZM1618.5 2716.63C1619.38 2716.63 1620.7 2716.63 1621.58 2716.19C1622.02 2717.07 1622.46 2717.94 1622.46 2718.38C1621.58 2720.58 1620.7 2722.78 1619.82 2724.98C1619.38 2724.98 1618.94 2724.98 1618.06 2724.98C1618.06 2724.98 1618.06 2724.98 1617.62 2724.54C1618.06 2721.9 1618.06 2719.26 1618.5 2716.63ZM1618.5 2708.71C1620.26 2709.59 1618.94 2708.71 1620.26 2710.03C1619.82 2709.59 1619.38 2709.15 1618.5 2708.71ZM1747.73 2656.85C1743.77 2659.49 1739.81 2661.68 1735.42 2664.32C1735.42 2664.76 1735.42 2664.76 1735.42 2665.2C1736.3 2667.4 1737.18 2669.16 1738.5 2671.35C1738.06 2671.79 1737.62 2671.79 1737.18 2672.23C1735.42 2672.67 1733.66 2673.11 1731.46 2673.55C1729.27 2668.72 1724.43 2663.44 1718.72 2665.64C1711.68 2669.16 1705.97 2682.34 1704.65 2690.69C1707.73 2692.89 1709.05 2693.77 1707.73 2696.85C1706.85 2698.61 1705.97 2699.04 1704.65 2700.36C1704.65 2700.8 1704.65 2701.24 1704.65 2702.12C1705.53 2702.56 1705.97 2702.56 1705.97 2703C1716.96 2700.8 1723.55 2691.57 1733.66 2688.06C1746.85 2683.66 1764.87 2695.53 1773.66 2681.46C1773.66 2680.58 1773.66 2679.7 1773.66 2679.27C1765.75 2675.75 1757.4 2672.23 1749.48 2668.28C1749.04 2665.2 1750.8 2663 1750.8 2656.85C1749.92 2656.85 1749.04 2656.85 1747.73 2656.85ZM1807.94 2640.15C1800.91 2646.3 1794.76 2649.38 1788.6 2655.97C1789.04 2662.12 1789.92 2663 1792.56 2666.08C1800.03 2670.91 1807.06 2675.31 1814.54 2680.14C1814.54 2681.02 1814.1 2682.34 1814.1 2683.22C1811.02 2684.54 1811.02 2683.66 1809.7 2686.74C1812.34 2689.81 1814.54 2693.33 1816.73 2696.41C1826.84 2696.85 1833.44 2699.48 1842.23 2694.21C1842.23 2693.33 1842.23 2692.45 1842.23 2692.01C1837.83 2687.62 1834.75 2682.78 1829.92 2678.83C1829.92 2677.95 1829.92 2677.07 1829.92 2676.63C1831.24 2675.31 1833 2674.43 1834.31 2673.11C1833 2671.79 1833.44 2671.79 1831.68 2670.91C1823.33 2668.72 1812.34 2665.64 1809.7 2656.85C1811.46 2656.85 1812.78 2656.41 1814.54 2656.41C1816.73 2656.85 1818.93 2657.29 1821.13 2657.29C1822.89 2655.09 1825.08 2652.89 1826.84 2650.26C1826.84 2649.82 1826.84 2649.82 1826.84 2649.38C1821.13 2644.1 1818.05 2640.15 1807.94 2640.15ZM1571.03 2654.21C1572.35 2654.21 1573.67 2654.21 1574.99 2653.77C1574.99 2654.65 1574.99 2655.97 1575.43 2656.85C1570.15 2662.12 1570.59 2667.84 1561.36 2670.91C1561.36 2670.47 1561.36 2670.47 1561.36 2670.04C1564 2664.76 1568.84 2659.93 1571.03 2654.21ZM1578.07 2672.23C1577.63 2663.88 1581.14 2662.12 1584.66 2657.29C1582.9 2652.01 1579.82 2650.26 1582.02 2644.1C1583.34 2642.34 1584.66 2640.15 1586.42 2638.39C1586.86 2638.39 1587.3 2638.39 1588.17 2638.39C1588.61 2638.83 1589.49 2639.27 1589.93 2639.71C1589.05 2648.94 1595.65 2662.12 1595.21 2663C1594.33 2666.08 1593.45 2667.4 1590.81 2669.16C1586.42 2669.6 1582.46 2670.91 1578.07 2672.23ZM1573.67 2611.58C1574.99 2611.58 1576.31 2611.58 1577.63 2611.14C1577.63 2612.02 1577.19 2613.34 1577.19 2614.21C1572.79 2616.41 1567.96 2618.61 1563.56 2620.81C1563.12 2620.37 1563.12 2619.93 1562.68 2619.49C1562.68 2619.05 1563.12 2618.61 1563.12 2617.73C1566.64 2615.97 1570.15 2613.77 1573.67 2611.58ZM1705.97 2597.51C1705.09 2600.15 1705.09 2599.27 1705.53 2602.35C1705.97 2602.79 1706.85 2603.23 1707.29 2603.67C1709.05 2603.23 1710.81 2602.79 1712.56 2602.35C1712.56 2601.47 1712.56 2600.15 1712.12 2599.27C1711.68 2598.83 1710.81 2598.39 1710.37 2597.95C1709.49 2597.51 1707.73 2597.51 1705.97 2597.51ZM1819.81 2553.56C1819.81 2554.88 1820.25 2556.2 1820.25 2557.51C1821.13 2557.95 1822.01 2558.39 1822.89 2558.83C1823.33 2558.39 1823.77 2557.51 1824.21 2557.07C1822.45 2555.32 1822.45 2554.44 1819.81 2553.56ZM1672.57 2552.24C1675.2 2553.56 1673.88 2552.24 1675.2 2555.32C1673.44 2556.63 1671.69 2557.95 1669.93 2558.83C1663.34 2556.63 1669.05 2554.44 1672.57 2552.24ZM1766.19 2541.25C1767.94 2541.69 1770.14 2542.13 1771.9 2542.57C1771.9 2543.01 1771.46 2543.89 1771.46 2544.33C1767.94 2546.09 1766.63 2547.4 1764.87 2550.48C1765.75 2552.68 1766.63 2554.44 1767.94 2556.63C1767.51 2556.63 1767.51 2556.63 1767.07 2556.63C1764.43 2556.2 1761.79 2555.32 1759.15 2554.88C1758.28 2546.53 1762.23 2545.65 1766.19 2541.25ZM1818.93 2529.38C1816.73 2529.82 1816.29 2535.54 1815.41 2538.61C1814.1 2543.45 1812.34 2544.33 1807.94 2546.53C1803.99 2545.65 1800.47 2545.21 1796.51 2544.33C1795.64 2545.21 1795.2 2546.09 1794.32 2546.97C1795.64 2550.92 1796.95 2551.36 1798.71 2553.56C1782.89 2560.59 1765.75 2561.47 1751.24 2571.14C1749.04 2569.82 1746.85 2568.5 1744.65 2566.74C1743.33 2568.94 1743.33 2569.82 1744.21 2572.46C1738.5 2577.73 1729.71 2580.37 1724.43 2586.08C1719.16 2585.64 1717.4 2583.89 1714.32 2581.25C1714.32 2580.37 1714.32 2579.05 1713.88 2578.17C1720.04 2577.29 1726.63 2576.41 1732.78 2575.97C1732.78 2574.66 1732.34 2573.34 1732.34 2572.02C1678.72 2558.83 1652.35 2595.31 1620.26 2616.41C1620.26 2620.81 1619.82 2624.76 1619.82 2629.16C1627.29 2627.84 1627.73 2624.32 1634.33 2622.13C1634.77 2622.13 1634.77 2622.13 1635.21 2622.13C1636.96 2626.08 1638.72 2630.04 1640.04 2633.55C1640.48 2634.43 1640.92 2635.31 1640.92 2635.75C1652.79 2631.8 1651.03 2619.93 1660.7 2615.53C1659.38 2610.7 1658.5 2611.58 1656.74 2608.06C1659.82 2601.03 1673.44 2587.84 1682.24 2586.08C1682.68 2586.08 1682.68 2586.08 1683.11 2586.08C1683.55 2586.96 1684.43 2587.4 1684.87 2588.28C1682.24 2594 1676.08 2595.75 1673.01 2601.47C1673.01 2603.67 1673.44 2605.86 1673.44 2607.62C1681.36 2610.26 1688.39 2604.98 1697.18 2603.23C1697.62 2604.1 1698.5 2604.54 1698.94 2605.42C1695.42 2609.82 1688.39 2609.38 1682.68 2612.46C1680.92 2614.65 1681.8 2616.85 1682.68 2621.25C1679.6 2621.69 1676.96 2621.69 1673.88 2622.13C1670.37 2624.76 1667.29 2634.43 1664.65 2637.95C1650.59 2638.83 1644.44 2644.1 1629.49 2645.86C1625.97 2641.03 1627.73 2639.71 1629.93 2634.43C1629.49 2633.99 1629.49 2633.55 1629.05 2633.11C1628.17 2633.11 1627.29 2633.11 1626.85 2633.11C1623.78 2637.95 1623.78 2641.03 1624.22 2647.62C1610.15 2656.85 1589.49 2681.9 1572.79 2683.66C1572.35 2684.54 1571.91 2685.42 1571.47 2686.3C1574.99 2688.93 1577.19 2690.25 1580.26 2694.21C1579.38 2699.04 1578.51 2703.88 1577.63 2708.71C1570.59 2713.55 1558.73 2712.67 1551.25 2716.63C1549.5 2729.81 1546.42 2735.97 1547.74 2749.59C1553.45 2749.59 1553.89 2752.23 1556.97 2752.67C1572.79 2755.74 1576.75 2733.33 1581.14 2725.86C1585.54 2718.38 1592.13 2714.43 1596.09 2705.64C1600.04 2705.2 1604 2704.76 1607.95 2704.76C1612.79 2703 1614.55 2697.73 1620.7 2695.53C1626.41 2700.36 1649.27 2715.31 1650.59 2721.02C1651.03 2721.46 1651.47 2721.46 1652.35 2721.9C1654.11 2718.38 1654.54 2718.38 1652.35 2714.87C1653.67 2712.23 1653.67 2712.67 1656.74 2711.35C1657.18 2710.91 1657.18 2710.03 1657.62 2709.59C1647.51 2705.2 1636.08 2701.68 1632.13 2690.25C1632.57 2689.37 1633.01 2688.5 1633.45 2687.62C1634.77 2687.18 1636.08 2686.3 1637.4 2685.86C1647.07 2689.81 1655.42 2696.85 1665.97 2701.24C1668.61 2713.55 1675.2 2715.31 1679.16 2726.3C1679.6 2726.3 1680.48 2726.74 1680.92 2727.17C1681.8 2727.17 1683.11 2727.17 1683.99 2726.74C1685.31 2721.9 1685.75 2721.02 1687.95 2717.5C1684.87 2713.99 1683.11 2713.11 1682.24 2706.96C1687.51 2703.88 1689.27 2701.24 1697.62 2700.8C1704.21 2712.23 1705.53 2721.46 1720.48 2723.66C1721.79 2721.9 1723.55 2720.14 1724.87 2718.38C1729.27 2719.26 1733.66 2719.7 1737.62 2720.58C1742.45 2719.26 1742.89 2715.75 1750.8 2714.87C1754.32 2724.1 1753.88 2735.53 1749.92 2744.32C1745.09 2753.99 1739.81 2747.83 1731.02 2750.03C1726.19 2751.35 1725.75 2756.18 1718.72 2755.74C1706.85 2755.31 1689.27 2749.15 1680.04 2751.79C1677.84 2753.55 1676.08 2755.31 1673.88 2757.06C1673.88 2760.58 1673.88 2760.58 1675.2 2763.22C1673.88 2764.98 1672.57 2767.17 1670.81 2769.37C1666.85 2768.93 1655.42 2767.61 1651.47 2765.41C1649.27 2763.66 1647.51 2761.46 1645.31 2759.7C1635.64 2757.5 1632.13 2759.7 1624.22 2756.62C1624.66 2750.03 1625.1 2746.07 1625.1 2740.36C1623.34 2739.04 1621.58 2738.16 1619.82 2736.84C1611.47 2742.56 1600.92 2741.24 1591.69 2744.76C1578.07 2750.03 1574.99 2759.7 1556.09 2759.7C1552.13 2764.54 1544.66 2773.77 1542.46 2779.04C1541.58 2785.63 1540.71 2791.79 1540.27 2798.38C1536.75 2802.34 1532.79 2806.29 1529.28 2810.69C1526.2 2822.56 1523.12 2833.98 1520.05 2845.85C1521.81 2852.44 1524 2859.04 1525.76 2865.19C1526.2 2873.54 1526.64 2882.33 1527.08 2890.68C1534.55 2913.1 1557.41 2934.63 1576.31 2944.3C1579.82 2942.55 1583.34 2940.35 1586.86 2938.59C1590.81 2938.59 1594.77 2939.03 1598.72 2939.03C1614.55 2935.07 1617.62 2915.29 1635.21 2936.83C1639.6 2935.95 1643.56 2935.07 1647.95 2934.19C1662.9 2942.98 1651.91 2955.29 1661.14 2966.72C1669.93 2978.15 1684.87 2984.3 1693.22 2996.61C1696.3 3001 1701.58 3008.91 1702.45 3012.43C1704.21 3018.58 1700.7 3027.38 1703.33 3034.85C1707.29 3044.08 1756.52 3084.95 1767.07 3089.35C1807.94 3082.32 1789.92 3062.98 1809.26 3049.79C1810.14 3042.32 1807.06 3039.24 1805.31 3032.65C1810.58 3024.74 1825.08 3016.83 1827.28 3007.6C1832.56 2982.54 1806.18 2971.55 1817.17 2945.18C1830.8 2913.54 1865.08 2895.52 1862.01 2849.37C1861.57 2848.93 1860.69 2848.49 1860.25 2848.05C1849.26 2853.32 1838.27 2858.6 1827.28 2863.43C1820.69 2858.16 1822.89 2856.4 1818.05 2850.69C1810.14 2845.85 1801.79 2841.02 1793.44 2835.74C1791.68 2831.79 1789.48 2827.39 1787.72 2823.44C1784.65 2820.8 1781.57 2818.6 1778.49 2816.4C1776.3 2811.13 1774.54 2805.41 1772.34 2800.14C1761.79 2788.71 1750.8 2775.08 1741.13 2761.9C1741.13 2761.46 1741.13 2761.46 1741.13 2761.02C1744.65 2761.9 1745.97 2764.1 1748.17 2766.73C1749.92 2765.85 1751.68 2764.97 1753.44 2763.66C1763.99 2773.77 1774.1 2783.88 1784.65 2793.99C1785.09 2797.06 1785.53 2799.7 1785.97 2802.78C1790.8 2810.69 1803.99 2816.84 1810.14 2824.75C1813.22 2833.11 1816.29 2841.46 1819.37 2849.37C1825.08 2853.32 1838.27 2840.14 1841.79 2837.94C1863.32 2823.87 1887.5 2803.22 1891.01 2776.4C1891.45 2767.61 1874.31 2767.17 1870.36 2757.94C1869.04 2757.94 1867.72 2757.5 1866.4 2757.5C1864.64 2761.9 1863.32 2765.85 1859.37 2768.49C1856.29 2769.37 1853.65 2770.25 1850.58 2770.69C1850.14 2770.69 1850.14 2770.69 1849.7 2770.69C1847.94 2768.05 1847.06 2767.17 1846.62 2762.34C1843.11 2761.46 1843.55 2763.22 1840.47 2762.78C1834.31 2756.62 1828.16 2750.47 1822.01 2744.32C1822.01 2743.44 1822.01 2742.12 1821.57 2741.24C1824.21 2739.92 1826.84 2738.6 1829.04 2737.28C1841.79 2746.51 1850.14 2757.06 1868.16 2748.27C1885.74 2761.46 1893.65 2753.99 1916.07 2749.15C1921.78 2752.67 1932.33 2759.26 1933.65 2767.61C1937.17 2769.81 1937.17 2771.57 1942.88 2771.57C1944.2 2769.81 1945.96 2768.05 1947.28 2766.29C1950.35 2776.4 1953.87 2786.51 1956.95 2796.62C1962.22 2809.37 1971.45 2821.68 1974.97 2837.5C1975.85 2838.38 1976.72 2838.82 1977.6 2839.7C1978.48 2839.7 1979.36 2839.7 1979.8 2839.7C1983.76 2831.35 1988.15 2820.8 1985.95 2807.17C1985.08 2802.78 1984.2 2798.82 1983.32 2794.43C1985.08 2785.19 1994.31 2771.57 1997.38 2761.9C1997.38 2758.82 1997.38 2756.18 1997.38 2753.11C2000.46 2750.91 2003.98 2748.27 2007.05 2746.07C2009.25 2754.43 2014.08 2757.94 2017.6 2764.97C2018.48 2769.37 2019.36 2773.33 2020.24 2777.72C2020.68 2778.6 2021.56 2779.04 2022 2779.92C2022.88 2779.04 2024.19 2778.16 2025.07 2777.28C2025.51 2777.72 2026.39 2777.72 2026.83 2778.16C2028.59 2785.63 2030.35 2793.11 2032.11 2801.02C2032.55 2801.46 2033.42 2801.46 2033.86 2801.9C2035.18 2799.26 2034.74 2798.38 2038.26 2796.62C2039.14 2803.22 2040.9 2808.93 2046.61 2808.05C2047.49 2827.83 2047.93 2852.44 2043.09 2869.15C2043.09 2869.59 2043.09 2870.03 2043.09 2870.91C2042.65 2871.34 2042.22 2871.34 2041.78 2871.78C2040.9 2866.51 2040.02 2861.24 2038.7 2855.96C2040.02 2855.96 2041.34 2855.52 2042.65 2855.52C2043.53 2848.05 2043.09 2837.5 2041.34 2829.15C2039.58 2829.15 2038.26 2828.71 2036.5 2828.71C2036.94 2834.86 2036.94 2841.02 2037.38 2847.17C2036.94 2847.17 2036.94 2847.17 2036.5 2847.17C2035.18 2844.97 2033.86 2843.21 2032.98 2841.02C2032.11 2841.02 2031.23 2840.58 2030.35 2840.58C2025.51 2848.93 2036.06 2864.31 2034.74 2875.3C2034.3 2881.01 2034.3 2886.73 2033.86 2892C2034.74 2893.76 2035.62 2895.52 2036.5 2897.28L2037.82 2903.43L2043.53 2899.47C2061.55 2834.86 2051.01 2743.44 2021.56 2687.18C1984.2 2612.9 1914.75 2548.28 1818.93 2529.38Z" fill="#8E8E8E"/>
<path d="M258.479 2760.27C258.479 2751.33 257.921 2744.22 256.805 2738.91C255.967 2733.61 253.874 2729.42 250.524 2726.35C247.174 2723.28 242.428 2721.18 236.287 2720.07C230.145 2718.95 222.05 2718.11 212 2717.56V2707.93H353.951V2717.56C343.902 2717.84 335.806 2718.67 329.665 2720.07C323.523 2721.18 318.777 2723.28 315.428 2726.35C312.078 2729.42 309.845 2733.75 308.728 2739.33C307.611 2744.63 307.053 2751.61 307.053 2760.27V2972.98C307.053 2981.64 307.611 2988.76 308.728 2994.34C310.124 2999.64 312.496 3003.83 315.846 3006.9C319.196 3009.97 323.942 3012.21 330.083 3013.6C336.225 3014.72 344.181 3015.42 353.951 3015.7V3024.49H212V3015.7C222.05 3015.42 230.145 3014.72 236.287 3013.6C242.428 3012.21 247.034 3009.97 250.105 3006.9C253.455 3003.83 255.688 2999.64 256.805 2994.34C257.921 2989.04 258.479 2981.92 258.479 2972.98V2760.27ZM458.635 2728.02C445.236 2728.02 434.209 2728.72 425.555 2730.12C417.18 2731.51 410.201 2734.44 404.618 2738.91C399.314 2743.38 394.987 2749.66 391.637 2757.75C388.567 2765.57 385.636 2776.04 382.844 2789.16H371.119L374.051 2707.93H643.717L646.649 2789.16H634.924C632.129 2776.04 629.061 2765.57 625.712 2757.75C622.64 2749.66 618.452 2743.38 613.148 2738.91C607.844 2734.44 600.865 2731.51 592.212 2730.12C583.558 2728.72 572.391 2728.02 558.713 2728.02H533.17V2972.98C533.17 2981.64 533.728 2988.62 534.845 2993.92C535.962 2999.23 538.055 3003.41 541.126 3006.48C544.476 3009.55 549.082 3011.79 554.944 3013.18C561.085 3014.3 569.042 3015.14 578.812 3015.7V3024.49H439.792V3015.7C449.563 3015.14 457.379 3014.3 463.241 3013.18C469.103 3011.79 473.57 3009.41 476.641 3006.06C479.99 3002.44 482.084 2997.55 482.922 2991.41C484.038 2985.27 484.597 2977.17 484.597 2967.12V2728.02H458.635ZM993.358 3024.49H871.509V3015.7C875.694 3015.7 879.183 3015.7 881.978 3015.7C884.768 3015.42 887.001 3015.14 888.676 3014.86C890.631 3014.3 892.305 3013.88 893.703 3013.6C895.096 3013.04 896.494 3012.35 897.887 3011.51C900.12 3010.11 901.798 3008.44 902.914 3006.48C904.308 3004.25 905.006 3002.02 905.006 2999.78C905.006 2991.97 901.935 2981.08 895.795 2967.12L875.694 2921.48H750.914L728.72 2977.17C727.604 2980.24 726.624 2983.45 725.789 2986.8C725.231 2989.87 724.95 2992.94 724.95 2996.01C724.95 3002.44 727.464 3007.32 732.487 3010.67C737.514 3014.02 745.887 3015.7 757.612 3015.7V3024.49H662.558V3015.7C668.421 3015.42 673.448 3014.44 677.632 3012.76C681.82 3011.09 686.008 3007.6 690.196 3002.3C694.384 2996.71 698.85 2988.9 703.596 2978.85C708.619 2968.52 714.899 2954.56 722.436 2936.97L821.678 2702.48H830.889L950.228 2973.82C954.139 2982.75 957.488 2989.87 960.279 2995.18C963.351 3000.48 966.422 3004.67 969.49 3007.74C972.562 3010.53 975.911 3012.49 979.541 3013.6C983.448 3014.72 988.058 3015.42 993.358 3015.7V3024.49ZM869.414 2902.22L814.141 2770.32L758.868 2902.22H869.414ZM1282.71 2941.58L1259.26 3024.49H1002.57V3015.7C1011.23 3015.14 1018.21 3014.16 1023.51 3012.76C1029.09 3011.37 1033.28 3009.14 1036.07 3006.06C1039.14 3002.99 1041.23 2998.81 1042.35 2993.5C1043.47 2988.2 1044.03 2981.36 1044.03 2972.98V2760.27C1044.03 2751.89 1043.47 2745.05 1042.35 2739.75C1041.52 2734.44 1039.56 2730.26 1036.49 2727.19C1033.42 2724.12 1029.09 2721.88 1023.51 2720.49C1018.21 2719.09 1011.23 2718.11 1002.57 2717.56V2707.93H1136.99V2717.56C1127.49 2718.11 1119.82 2719.09 1113.95 2720.49C1108.1 2721.6 1103.63 2723.84 1100.55 2727.19C1097.49 2730.26 1095.39 2734.44 1094.27 2739.75C1093.16 2745.05 1092.6 2751.89 1092.6 2760.27V2986.38C1092.6 2990.57 1093.02 2994.06 1093.86 2996.85C1094.97 2999.36 1097.07 3001.32 1100.14 3002.71C1103.21 3004.11 1107.4 3005.09 1112.7 3005.65C1118 3005.92 1125.12 3006.06 1134.06 3006.06H1165.88C1186.26 3006.06 1203.14 3003.69 1216.54 2998.95C1230.22 2994.2 1241.39 2986.94 1250.05 2977.17C1253.39 2973.26 1256.61 2968.38 1259.67 2962.52C1263.03 2956.65 1266.65 2949.67 1270.56 2941.58H1282.71Z" fill="black"/>
<path d="M2382.09 3019.13H2375.09L2256.91 2760.95V2949.96C2256.91 2962.04 2257.46 2971.92 2258.55 2979.6C2259.93 2987.02 2262.26 2992.92 2265.55 2997.31C2268.85 3001.7 2273.38 3004.86 2279.14 3006.78C2284.91 3008.7 2292.32 3009.94 2301.38 3010.49V3019.13H2191.02V3010.49C2200.63 3009.66 2208.32 3008.43 2214.08 3006.78C2220.12 3004.86 2224.65 3001.7 2227.67 2997.31C2230.97 2992.92 2233.16 2987.02 2234.26 2979.6C2235.36 2971.92 2235.91 2962.04 2235.91 2949.96V2759.31C2235.91 2750.8 2235.36 2743.93 2234.26 2738.72C2233.44 2733.5 2231.38 2729.38 2228.08 2726.36C2225.06 2723.34 2220.67 2721.29 2214.91 2720.19C2209.14 2718.82 2201.46 2717.85 2191.85 2717.31V2707.83H2284.91L2393.2 2945.43L2497.79 2707.83H2590.85V2717.31C2582.07 2717.85 2575.07 2718.82 2569.86 2720.19C2564.64 2721.56 2560.52 2723.76 2557.5 2726.78C2554.48 2729.8 2552.42 2733.91 2551.32 2739.13C2550.5 2744.34 2550.09 2751.07 2550.09 2759.31V2968.49C2550.09 2976.72 2550.64 2983.45 2551.74 2988.66C2552.83 2993.88 2554.76 2998 2557.5 3001.02C2560.52 3004.04 2564.64 3006.23 2569.86 3007.6C2575.34 3008.98 2582.34 3009.94 2590.85 3010.49V3019.13H2459.09V3010.49C2468.42 3009.94 2475.83 3008.98 2481.32 3007.6C2487.09 3006.23 2491.48 3003.9 2494.5 3000.6C2497.52 2997.04 2499.44 2992.37 2500.26 2986.6C2501.36 2980.56 2501.91 2972.6 2501.91 2962.72V2749.84L2382.09 3019.13ZM2863.04 3019.13H2609.39V3010.49C2617.89 3009.94 2624.76 3008.98 2629.97 3007.6C2635.46 3006.23 2639.58 3004.04 2642.33 3001.02C2645.35 2998 2647.4 2993.88 2648.5 2988.66C2649.6 2983.45 2650.15 2976.72 2650.15 2968.49V2759.31C2650.15 2751.07 2649.6 2744.34 2648.5 2739.13C2647.68 2733.91 2645.76 2729.8 2642.74 2726.78C2639.72 2723.76 2635.46 2721.56 2629.97 2720.19C2624.76 2718.82 2617.89 2717.85 2609.39 2717.31V2707.83H2858.92L2859.74 2775.37H2848.62C2846.43 2764.66 2843.96 2756.15 2841.21 2749.84C2838.47 2743.25 2834.49 2738.17 2829.27 2734.6C2824.33 2731.03 2817.6 2728.7 2809.09 2727.6C2800.86 2726.5 2790.15 2725.95 2776.97 2725.95H2713.56C2707.25 2725.95 2702.99 2726.91 2700.8 2728.83C2698.87 2730.76 2697.91 2735.15 2697.91 2742.01V2846.19H2769.97C2779.58 2846.19 2787.41 2845.64 2793.44 2844.54C2799.49 2843.44 2804.29 2841.39 2807.86 2838.37C2811.7 2835.07 2814.59 2830.54 2816.5 2824.78C2818.43 2819.01 2820.21 2811.33 2821.86 2801.72H2832.97V2910.84H2821.86C2820.21 2900.96 2818.43 2893.13 2816.5 2887.37C2814.59 2881.33 2811.84 2876.8 2808.27 2873.78C2804.7 2870.48 2799.9 2868.29 2793.86 2867.19C2787.82 2866.09 2779.86 2865.54 2769.97 2865.54H2697.91V2981.66C2697.91 2986.33 2698.19 2989.76 2698.74 2991.96C2699.29 2994.15 2700.25 2995.8 2701.62 2996.9C2703.82 2998.27 2709.03 2999.51 2717.27 3000.6C2725.78 3001.43 2735.8 3001.84 2747.33 3001.84H2760.5C2777.25 3001.84 2791.25 3001.02 2802.51 2999.37C2814.03 2997.72 2823.78 2994.57 2831.74 2989.9C2839.98 2985.23 2847.11 2978.92 2853.15 2970.96C2859.19 2963 2865.09 2952.56 2870.86 2939.66H2884.45L2863.04 3019.13ZM3170.22 3024.49L2962.27 2765.89V2949.96C2962.27 2962.04 2962.82 2971.92 2963.92 2979.6C2965.29 2987.02 2967.62 2992.92 2970.92 2997.31C2974.21 3001.7 2978.74 3004.86 2984.51 3006.78C2990.27 3008.7 2997.69 3009.94 3006.74 3010.49V3019.13H2896.39V3010.49C2906 3009.66 2913.69 3008.43 2919.45 3006.78C2925.49 3004.86 2930.02 3001.7 2933.04 2997.31C2936.33 2992.92 2938.53 2987.02 2939.62 2979.6C2940.72 2971.92 2941.27 2962.04 2941.27 2949.96V2743.25C2936.61 2737.76 2932.62 2733.36 2929.33 2730.07C2926.04 2726.5 2922.74 2723.89 2919.45 2722.25C2916.15 2720.32 2912.72 2719.09 2909.15 2718.54C2905.59 2717.72 2901.33 2717.31 2896.39 2717.31V2707.83H2976.69L3157.45 2935.54V2777.01C3157.45 2748.46 3152.92 2730.89 3143.87 2724.31C3140.3 2722.11 3136.32 2720.6 3131.92 2719.78C3127.81 2718.68 3121.35 2717.85 3112.57 2717.31V2707.83H3222.51V2717.31C3213.73 2717.85 3207.14 2718.82 3202.75 2720.19C3198.63 2721.56 3195.06 2723.34 3192.04 2725.54C3182.71 2731.58 3178.04 2748.74 3178.04 2777.01V3024.49H3170.22ZM3562.64 3019.13H3442.81V3010.49C3446.93 3010.49 3450.36 3010.49 3453.11 3010.49C3455.85 3010.21 3458.05 3009.94 3459.69 3009.66C3461.62 3009.11 3463.26 3008.7 3464.64 3008.43C3466.01 3007.88 3467.38 3007.19 3468.75 3006.37C3470.95 3005 3472.6 3003.35 3473.69 3001.43C3475.07 2999.23 3475.75 2997.04 3475.75 2994.84C3475.75 2987.15 3472.73 2976.45 3466.69 2962.72L3446.93 2917.84H3324.22L3302.4 2972.6C3301.3 2975.62 3300.34 2978.78 3299.51 2982.07C3298.97 2985.09 3298.69 2988.11 3298.69 2991.13C3298.69 2997.45 3301.16 3002.25 3306.1 3005.55C3311.04 3008.84 3319.28 3010.49 3330.81 3010.49V3019.13H3237.34V3010.49C3243.1 3010.21 3248.04 3009.25 3252.16 3007.6C3256.28 3005.96 3260.39 3002.53 3264.51 2997.31C3268.63 2991.82 3273.02 2984.13 3277.69 2974.25C3282.63 2964.09 3288.81 2950.37 3296.22 2933.07L3393.81 2702.48H3402.87L3520.23 2969.31C3524.07 2978.09 3527.36 2985.09 3530.11 2990.31C3533.13 2995.53 3536.15 2999.64 3539.17 3002.66C3542.18 3005.41 3545.48 3007.33 3549.05 3008.43C3552.89 3009.53 3557.42 3010.21 3562.64 3010.49V3019.13ZM3440.75 2898.9L3386.4 2769.19L3332.04 2898.9H3440.75ZM3875.59 3019.13H3799.82L3687.81 2874.19L3661.88 2875.43V2968.49C3661.88 2976.72 3662.29 2983.45 3663.11 2988.66C3664.21 2993.88 3666.27 2998.13 3669.29 3001.43C3672.3 3004.45 3676.56 3006.64 3682.05 3008.02C3687.54 3009.11 3694.82 3009.94 3703.87 3010.49V3019.13H3573.75V3010.49C3582.54 3009.66 3589.54 3008.57 3594.76 3007.19C3600.24 3005.82 3604.36 3003.49 3607.11 3000.19C3609.85 2996.9 3611.64 2992.37 3612.46 2986.6C3613.28 2980.56 3613.7 2972.6 3613.7 2962.72V2759.31C3613.7 2751.07 3613.28 2744.48 3612.46 2739.54C3611.64 2734.33 3609.85 2730.21 3607.11 2727.19C3604.36 2724.17 3600.24 2721.97 3594.76 2720.6C3589.54 2719.23 3582.54 2718.13 3573.75 2717.31V2707.83H3703.46C3726.52 2707.83 3747.11 2710.99 3765.23 2717.31C3783.62 2723.34 3797.21 2731.58 3805.99 2742.01C3811.76 2748.33 3816.02 2755.74 3818.76 2764.25C3821.5 2772.48 3822.88 2781.4 3822.88 2791.01C3822.88 2812.42 3816.15 2829.31 3802.7 2841.66C3789.52 2854.01 3767.97 2863.21 3738.05 2869.25L3834.82 2988.66C3841.41 2996.35 3847.58 3001.7 3853.35 3004.72C3859.39 3007.74 3866.8 3009.66 3875.59 3010.49V3019.13ZM3661.88 2858.13C3672.85 2857.86 3682.33 2857.44 3690.29 2856.9C3698.52 2856.35 3705.66 2855.52 3711.7 2854.43C3718.01 2853.05 3723.78 2851.41 3728.99 2849.48C3734.21 2847.56 3739.56 2845.09 3745.05 2842.07C3753.56 2837.41 3760.15 2830.54 3764.82 2821.48C3769.48 2812.15 3771.82 2801.58 3771.82 2789.78C3771.82 2767.54 3764.82 2751.34 3750.82 2741.19C3737.09 2730.76 3715.13 2725.54 3684.93 2725.54C3675.6 2725.54 3669.42 2726.78 3666.4 2729.25C3663.38 2731.44 3661.88 2735.84 3661.88 2742.42V2858.13ZM4212 3019.13H4092.17V3010.49C4096.29 3010.49 4099.72 3010.49 4102.47 3010.49C4105.22 3010.21 4107.41 3009.94 4109.06 3009.66C4110.98 3009.11 4112.63 3008.7 4114 3008.43C4115.37 3007.88 4116.75 3007.19 4118.12 3006.37C4120.31 3005 4121.96 3003.35 4123.06 3001.43C4124.43 2999.23 4125.12 2997.04 4125.12 2994.84C4125.12 2987.15 4122.1 2976.45 4116.06 2962.72L4096.29 2917.84H3973.58L3951.76 2972.6C3950.66 2975.62 3949.7 2978.78 3948.88 2982.07C3948.33 2985.09 3948.06 2988.11 3948.06 2991.13C3948.06 2997.45 3950.53 3002.25 3955.47 3005.55C3960.41 3008.84 3968.64 3010.49 3980.17 3010.49V3019.13H3886.7V3010.49C3892.47 3010.21 3897.41 3009.25 3901.52 3007.6C3905.64 3005.96 3909.76 3002.53 3913.88 2997.31C3918 2991.82 3922.39 2984.13 3927.06 2974.25C3932 2964.09 3938.17 2950.37 3945.58 2933.07L4043.18 2702.48H4052.23L4169.59 2969.31C4173.43 2978.09 4176.73 2985.09 4179.47 2990.31C4182.49 2995.53 4185.51 2999.64 4188.53 3002.66C4191.55 3005.41 4194.84 3007.33 4198.41 3008.43C4202.26 3009.53 4206.78 3010.21 4212 3010.49V3019.13ZM4090.12 2898.9L4035.76 2769.19L3981.41 2898.9H4090.12Z" fill="black"/>
<path d="M228.272 3354.84C222.719 3354.84 218.586 3354.26 215.874 3353.1C213.291 3351.88 212 3350.03 212 3347.54V3244.5C212 3241.96 213.291 3240.1 215.874 3238.94C218.586 3237.79 222.719 3237.21 228.272 3237.21C233.955 3237.21 238.087 3237.79 240.67 3238.94C243.253 3240.1 244.545 3241.96 244.545 3244.5V3347.54C244.545 3350.03 243.253 3351.88 240.67 3353.1C238.087 3354.26 233.955 3354.84 228.272 3354.84ZM341.4 3354.84C330.552 3354.84 325.128 3352.4 325.128 3347.54V3244.33C325.128 3239.47 330.552 3237.03 341.4 3237.03C348.504 3237.03 354.444 3238.6 359.223 3241.72L450.657 3303.41L443.683 3303.93L535.892 3241.72C540.284 3238.6 546.87 3237.03 555.652 3237.03C564.435 3237.03 568.825 3239.47 568.825 3244.33V3347.54C568.825 3352.4 563.4 3354.84 552.552 3354.84C541.704 3354.84 536.28 3352.4 536.28 3347.54V3258.93L546.353 3260.49L464.992 3314.18C460.215 3317.31 453.628 3318.87 445.232 3318.87C439.421 3318.87 434.127 3317.31 429.348 3314.18L347.987 3260.49L357.673 3261.71V3347.54C357.673 3352.4 352.249 3354.84 341.4 3354.84ZM665.651 3354.84C654.802 3354.84 649.378 3352.4 649.378 3347.54V3244.33C649.378 3239.47 654.802 3237.03 665.651 3237.03H756.311C779.944 3237.03 798.026 3239.87 810.552 3245.55C823.209 3251.16 829.536 3259.27 829.536 3269.87V3275.08C829.536 3285.68 823.209 3293.82 810.552 3299.5C798.026 3305.11 779.944 3307.92 756.311 3307.92H681.923V3347.54C681.923 3352.4 676.499 3354.84 665.651 3354.84ZM681.923 3293.33H756.311C771.033 3293.33 781.494 3291.94 787.693 3289.16C793.892 3286.38 796.991 3281.69 796.991 3275.08V3269.87C796.991 3263.33 793.892 3258.67 787.693 3255.88C781.494 3253.05 771.033 3251.63 756.311 3251.63H681.923V3293.33ZM964.474 3354.84C934.899 3354.84 913.009 3351.68 898.804 3345.37C884.726 3339 877.688 3329.18 877.688 3315.92V3275.78C877.688 3262.4 884.79 3252.58 898.997 3246.33C913.203 3240.02 935.029 3236.92 964.474 3237.03H1010.97C1040.67 3237.03 1062.56 3240.19 1076.64 3246.5C1090.71 3252.82 1097.75 3262.63 1097.75 3275.95V3315.92C1097.75 3329.18 1090.71 3339 1076.64 3345.37C1062.56 3351.68 1040.67 3354.84 1010.97 3354.84H964.474ZM964.474 3340.24H1010.97C1024.78 3340.24 1035.63 3339.52 1043.51 3338.07C1051.39 3336.56 1056.94 3334.04 1060.17 3330.51C1063.53 3326.98 1065.21 3322.11 1065.21 3315.92V3275.95C1065.21 3269.81 1063.53 3264.98 1060.17 3261.45C1056.94 3257.91 1051.39 3255.39 1043.51 3253.89C1035.63 3252.38 1024.78 3251.63 1010.97 3251.63H964.474C950.784 3251.57 940 3252.27 932.123 3253.71C924.245 3255.16 918.627 3257.65 915.27 3261.18C911.911 3264.72 910.233 3269.58 910.233 3275.78V3315.92C910.233 3322.11 911.847 3326.98 915.076 3330.51C918.433 3334.04 924.051 3336.56 931.929 3338.07C939.806 3339.52 950.654 3340.24 964.474 3340.24ZM1337.78 3355.18C1333.52 3356.4 1329.45 3356.78 1325.58 3356.31C1321.7 3355.85 1318.41 3354.66 1315.7 3352.75L1255.65 3307.92H1201.4V3347.54C1201.4 3352.4 1195.98 3354.84 1185.13 3354.84C1174.28 3354.84 1168.86 3352.4 1168.86 3347.54V3244.33C1168.86 3239.47 1174.28 3237.03 1185.13 3237.03H1275.79C1299.43 3237.03 1317.51 3239.87 1330.03 3245.55C1342.69 3251.16 1349.02 3259.27 1349.02 3269.87V3275.08C1349.02 3284.29 1344.24 3291.65 1334.68 3297.15C1325.13 3302.6 1311.31 3305.98 1293.23 3307.32L1343.98 3345.28C1348.89 3349.33 1346.82 3352.64 1337.78 3355.18ZM1201.4 3293.33H1275.79C1290.51 3293.33 1300.98 3291.94 1307.17 3289.16C1313.37 3286.38 1316.47 3281.69 1316.47 3275.08V3269.87C1316.47 3263.33 1313.37 3258.67 1307.17 3255.88C1300.98 3253.05 1290.51 3251.63 1275.79 3251.63H1201.4V3293.33ZM1482.09 3354.84C1476.67 3354.84 1472.6 3354.23 1469.89 3353.01C1467.17 3351.8 1465.82 3349.97 1465.82 3347.54V3251.8H1390.66C1385.23 3251.8 1381.16 3251.19 1378.45 3249.98C1375.74 3248.76 1374.38 3246.94 1374.38 3244.5C1374.38 3242.07 1375.74 3240.25 1378.45 3239.03C1381.16 3237.81 1385.23 3237.21 1390.66 3237.21H1573.53C1578.95 3237.21 1583.02 3237.81 1585.73 3239.03C1588.44 3240.25 1589.8 3242.07 1589.8 3244.5C1589.8 3246.94 1588.44 3248.76 1585.73 3249.98C1583.02 3251.19 1578.95 3251.8 1573.53 3251.8H1498.36V3347.54C1498.36 3349.86 1496.94 3351.65 1494.1 3352.92C1491.39 3354.2 1487.38 3354.84 1482.09 3354.84ZM1779.53 3354.84C1768.68 3354.84 1763.26 3352.4 1763.26 3347.54V3244.33C1763.26 3239.47 1768.68 3237.03 1779.53 3237.03H1918.62C1929.47 3237.03 1934.89 3239.47 1934.89 3244.33C1934.89 3249.2 1929.47 3251.63 1918.62 3251.63H1795.8V3288.12H1872.9C1883.75 3288.12 1889.17 3290.55 1889.17 3295.41C1889.17 3300.28 1883.75 3302.71 1872.9 3302.71H1795.8V3340.24H1918.62C1929.47 3340.24 1934.89 3342.67 1934.89 3347.54C1934.89 3352.4 1929.47 3354.84 1918.62 3354.84H1779.53ZM1989.73 3353.27C1981.07 3350.61 1979.78 3347.19 1985.85 3343.02L2056.75 3296.11L1981.98 3248.85C1976.17 3245.03 1977.59 3241.61 1986.24 3238.6C1995.15 3235.87 2002.64 3236.51 2008.71 3240.51L2078.06 3284.12L2147.8 3240.51C2154.53 3236.63 2162 3236.11 2170.28 3238.94C2179.05 3241.84 2180.35 3245.2 2174.15 3249.02L2097.82 3296.63L2171.05 3342.85C2177.11 3346.84 2175.7 3350.32 2166.79 3353.27C2157.88 3355.99 2150.38 3355.36 2144.31 3351.36L2076.9 3308.79L2012.59 3351.53C2006.65 3355.3 1999.03 3355.88 1989.73 3353.27ZM2255.49 3354.84C2244.64 3354.84 2239.22 3352.4 2239.22 3347.54V3244.33C2239.22 3239.47 2244.64 3237.03 2255.49 3237.03H2346.15C2369.79 3237.03 2387.88 3239.87 2400.39 3245.55C2413.06 3251.16 2419.38 3259.27 2419.38 3269.87V3275.08C2419.38 3285.68 2413.06 3293.82 2400.39 3299.5C2387.88 3305.11 2369.79 3307.92 2346.15 3307.92H2271.76V3347.54C2271.76 3352.4 2266.34 3354.84 2255.49 3354.84ZM2271.76 3293.33H2346.15C2360.87 3293.33 2371.33 3291.94 2377.53 3289.16C2383.73 3286.38 2386.83 3281.69 2386.83 3275.08V3269.87C2386.83 3263.33 2383.73 3258.67 2377.53 3255.88C2371.33 3253.05 2360.87 3251.63 2346.15 3251.63H2271.76V3293.33ZM2554.32 3354.84C2524.74 3354.84 2502.85 3351.68 2488.65 3345.37C2474.57 3339 2467.54 3329.18 2467.54 3315.92V3275.78C2467.54 3262.4 2474.64 3252.58 2488.84 3246.33C2503.04 3240.02 2524.88 3236.92 2554.32 3237.03H2600.81C2630.51 3237.03 2652.4 3240.19 2666.48 3246.5C2680.57 3252.82 2687.6 3262.63 2687.6 3275.95V3315.92C2687.6 3329.18 2680.57 3339 2666.48 3345.37C2652.4 3351.68 2630.51 3354.84 2600.81 3354.84H2554.32ZM2554.32 3340.24H2600.81C2614.63 3340.24 2625.47 3339.52 2633.36 3338.07C2641.24 3336.56 2646.78 3334.04 2650.02 3330.51C2653.37 3326.98 2655.05 3322.11 2655.05 3315.92V3275.95C2655.05 3269.81 2653.37 3264.98 2650.02 3261.45C2646.78 3257.91 2641.24 3255.39 2633.36 3253.89C2625.47 3252.38 2614.63 3251.63 2600.81 3251.63H2554.32C2540.62 3251.57 2529.85 3252.27 2521.97 3253.71C2514.09 3255.16 2508.47 3257.65 2505.12 3261.18C2501.77 3264.72 2500.08 3269.58 2500.08 3275.78V3315.92C2500.08 3322.11 2501.69 3326.98 2504.92 3330.51C2508.27 3334.04 2513.89 3336.56 2521.78 3338.07C2529.66 3339.52 2540.51 3340.24 2554.32 3340.24ZM2927.63 3355.18C2923.37 3356.4 2919.3 3356.78 2915.43 3356.31C2911.56 3355.85 2908.26 3354.66 2905.55 3352.75L2845.5 3307.92H2791.26V3347.54C2791.26 3352.4 2785.83 3354.84 2774.98 3354.84C2764.14 3354.84 2758.71 3352.4 2758.71 3347.54V3244.33C2758.71 3239.47 2764.14 3237.03 2774.98 3237.03H2865.64C2889.28 3237.03 2907.35 3239.87 2919.89 3245.55C2932.54 3251.16 2938.87 3259.27 2938.87 3269.87V3275.08C2938.87 3284.29 2934.09 3291.65 2924.54 3297.15C2914.98 3302.6 2901.15 3305.98 2883.08 3307.32L2933.83 3345.28C2938.73 3349.33 2936.68 3352.64 2927.63 3355.18ZM2791.26 3293.33H2865.64C2880.37 3293.33 2890.83 3291.94 2897.03 3289.16C2903.23 3286.38 2906.33 3281.69 2906.33 3275.08V3269.87C2906.33 3263.33 2903.23 3258.67 2897.03 3255.88C2890.83 3253.05 2880.37 3251.63 2865.64 3251.63H2791.26V3293.33ZM3071.93 3354.84C3066.51 3354.84 3062.44 3354.23 3059.73 3353.01C3057.02 3351.8 3055.66 3349.97 3055.66 3347.54V3251.8H2980.5C2975.08 3251.8 2971.01 3251.19 2968.3 3249.98C2965.58 3248.76 2964.23 3246.94 2964.23 3244.5C2964.23 3242.07 2965.58 3240.25 2968.3 3239.03C2971.01 3237.81 2975.08 3237.21 2980.5 3237.21H3163.37C3168.79 3237.21 3172.86 3237.81 3175.57 3239.03C3178.29 3240.25 3179.64 3242.07 3179.64 3244.5C3179.64 3246.94 3178.29 3248.76 3175.57 3249.98C3172.86 3251.19 3168.79 3251.8 3163.37 3251.8H3088.21V3347.54C3088.21 3349.86 3086.79 3351.65 3083.95 3352.92C3081.23 3354.2 3077.24 3354.84 3071.93 3354.84Z" fill="#8E8E8E"/>
<path d="M4196.81 3221.77H3275.11C3266.74 3221.77 3259.95 3228.57 3259.95 3236.94C3259.95 3245.32 3266.74 3252.11 3275.11 3252.11H4196.81C4205.19 3252.11 4211.98 3245.32 4211.98 3236.94C4211.98 3228.57 4205.19 3221.77 4196.81 3221.77Z" fill="url(#paint1_linear_130_22)"/>
<rect width="4424" height="5872" fill="white" fill-opacity="0.9"/>
<defs>
<filter id="filter0_d_130_22" x="1412.55" y="2514" width="648.842" height="648.838" filterUnits="userSpaceOnUse" color-interpolation-filters="sRGB">
<feFlood flood-opacity="0" result="BackgroundImageFix"/>
<feColorMatrix in="SourceAlpha" type="matrix" values="0 0 0 0 0 0 0 0 0 0 0 0 0 0 0 0 0 0 127 0" result="hardAlpha"/>
<feOffset dy="2"/>
<feGaussianBlur stdDeviation="2"/>
<feComposite in2="hardAlpha" operator="out"/>
<feColorMatrix type="matrix" values="0 0 0 0 0 0 0 0 0 0 0 0 0 0 0 0 0 0 0.1 0"/>
<feBlend mode="normal" in2="BackgroundImageFix" result="effect1_dropShadow_130_22"/>
<feBlend mode="normal" in="SourceGraphic" in2="effect1_dropShadow_130_22" result="shape"/>
</filter>
<radialGradient id="paint0_radial_130_22" cx="0" cy="0" r="1" gradientUnits="userSpaceOnUse" gradientTransform="translate(1736.97 2836.42) rotate(90) scale(320.419 320.421)">
<stop offset="0.652428" stop-color="white" stop-opacity="0"/>
<stop offset="1" stop-color="#D7D7D7"/>
</radialGradient>
<linearGradient id="paint1_linear_130_22" x1="3259.95" y1="3236.94" x2="4211.98" y2="3236.94" gradientUnits="userSpaceOnUse">
<stop offset="0.333333" stop-color="#009246"/>
<stop offset="0.333334" stop-color="white"/>
<stop offset="0.666666" stop-color="white"/>
<stop offset="0.666667" stop-color="#FF0000"/>
</linearGradient>
</defs>
</svg>
