<svg width="1010" height="346" viewBox="0 0 1010 346" fill="none" xmlns="http://www.w3.org/2000/svg">
<path d="M379.853 261.06C379.007 261.06 378.378 260.863 377.965 260.47C377.572 260.057 377.375 259.428 377.375 258.582V223.599C377.375 222.734 377.572 222.105 377.965 221.711C378.378 221.318 379.007 221.121 379.853 221.121C380.718 221.121 381.347 221.318 381.741 221.711C382.134 222.105 382.33 222.734 382.33 223.599V258.582C382.33 259.428 382.134 260.057 381.741 260.47C381.347 260.863 380.718 261.06 379.853 261.06ZM397.078 261.06C395.427 261.06 394.601 260.234 394.601 258.582V223.54C394.601 221.888 395.427 221.062 397.078 221.062C398.16 221.062 399.065 221.593 399.792 222.655L413.715 243.598L412.653 243.775L426.693 222.655C427.362 221.593 428.365 221.062 429.702 221.062C431.039 221.062 431.708 221.888 431.708 223.54V258.582C431.708 260.234 430.882 261.06 429.23 261.06C427.578 261.06 426.752 260.234 426.752 258.582V228.496L428.286 229.027L415.897 247.256C415.17 248.318 414.167 248.848 412.889 248.848C412.004 248.848 411.198 248.318 410.47 247.256L398.081 229.027L399.556 229.44V258.582C399.556 260.234 398.73 261.06 397.078 261.06ZM446.451 261.06C444.799 261.06 443.973 260.234 443.973 258.582V223.54C443.973 221.888 444.799 221.062 446.451 221.062H460.256C463.854 221.062 466.608 222.026 468.515 223.953C470.442 225.861 471.406 228.614 471.406 232.212V233.982C471.406 237.581 470.442 240.344 468.515 242.271C466.608 244.178 463.854 245.132 460.256 245.132H448.929V258.582C448.929 260.234 448.103 261.06 446.451 261.06ZM448.929 240.176H460.256C462.498 240.176 464.09 239.704 465.034 238.761C465.978 237.817 466.45 236.224 466.45 233.982V232.212C466.45 229.99 465.978 228.407 465.034 227.463C464.09 226.5 462.498 226.018 460.256 226.018H448.929V240.176ZM491.952 261.06C487.449 261.06 484.116 259.989 481.953 257.845C479.809 255.682 478.738 252.349 478.738 247.846V234.218C478.738 229.675 479.819 226.342 481.982 224.219C484.145 222.075 487.469 221.023 491.952 221.062H499.032C503.554 221.062 506.887 222.134 509.031 224.278C511.174 226.421 512.246 229.754 512.246 234.277V247.846C512.246 252.349 511.174 255.682 509.031 257.845C506.887 259.989 503.554 261.06 499.032 261.06H491.952ZM491.952 256.105H499.032C501.136 256.105 502.787 255.859 503.987 255.367C505.186 254.856 506.032 254.001 506.523 252.801C507.035 251.601 507.291 249.95 507.291 247.846V234.277C507.291 232.193 507.035 230.551 506.523 229.351C506.032 228.151 505.186 227.296 503.987 226.785C502.787 226.274 501.136 226.018 499.032 226.018H491.952C489.868 225.998 488.226 226.234 487.026 226.726C485.827 227.217 484.971 228.063 484.46 229.263C483.949 230.462 483.693 232.114 483.693 234.218V247.846C483.693 249.95 483.939 251.601 484.431 252.801C484.942 254.001 485.797 254.856 486.997 255.367C488.196 255.859 489.848 256.105 491.952 256.105ZM548.795 261.178C548.146 261.591 547.527 261.719 546.937 261.562C546.347 261.404 545.845 261.001 545.432 260.352L536.288 245.132H528.029V258.582C528.029 260.234 527.203 261.06 525.551 261.06C523.9 261.06 523.074 260.234 523.074 258.582V223.54C523.074 221.888 523.9 221.062 525.551 221.062H539.356C542.955 221.062 545.708 222.026 547.615 223.953C549.542 225.861 550.506 228.614 550.506 232.212V233.982C550.506 237.109 549.778 239.606 548.323 241.474C546.868 243.323 544.764 244.473 542.011 244.925L549.739 257.816C550.486 259.192 550.172 260.313 548.795 261.178ZM528.029 240.176H539.356C541.598 240.176 543.191 239.704 544.134 238.761C545.078 237.817 545.55 236.224 545.55 233.982V232.212C545.55 229.99 545.078 228.407 544.134 227.463C543.191 226.5 541.598 226.018 539.356 226.018H528.029V240.176ZM570.768 261.06C569.942 261.06 569.323 260.854 568.91 260.441C568.497 260.028 568.291 259.408 568.291 258.582V226.077H556.846C556.02 226.077 555.4 225.87 554.988 225.457C554.575 225.044 554.368 224.425 554.368 223.599C554.368 222.773 554.575 222.154 554.988 221.741C555.4 221.328 556.02 221.121 556.846 221.121H584.691C585.517 221.121 586.136 221.328 586.549 221.741C586.962 222.154 587.169 222.773 587.169 223.599C587.169 224.425 586.962 225.044 586.549 225.457C586.136 225.87 585.517 226.077 584.691 226.077H573.246V258.582C573.246 259.369 573.03 259.979 572.597 260.411C572.184 260.844 571.575 261.06 570.768 261.06ZM616.059 261.06C614.407 261.06 613.581 260.234 613.581 258.582V223.54C613.581 221.888 614.407 221.062 616.059 221.062H637.237C638.889 221.062 639.715 221.888 639.715 223.54C639.715 225.192 638.889 226.018 637.237 226.018H618.536V238.407H630.276C631.928 238.407 632.754 239.232 632.754 240.884C632.754 242.536 631.928 243.362 630.276 243.362H618.536V256.105H637.237C638.889 256.105 639.715 256.931 639.715 258.582C639.715 260.234 638.889 261.06 637.237 261.06H616.059ZM648.065 260.529C646.747 259.625 646.551 258.464 647.475 257.049L658.271 241.12L646.885 225.074C646 223.776 646.217 222.616 647.534 221.593C648.891 220.669 650.032 220.885 650.956 222.242L661.516 237.05L672.135 222.242C673.158 220.925 674.297 220.748 675.557 221.711C676.893 222.695 677.09 223.835 676.146 225.133L664.524 241.297L675.675 256.99C676.598 258.347 676.382 259.526 675.026 260.529C673.669 261.453 672.527 261.237 671.604 259.88L661.339 245.427L651.546 259.939C650.641 261.217 649.481 261.414 648.065 260.529ZM688.532 261.06C686.88 261.06 686.054 260.234 686.054 258.582V223.54C686.054 221.888 686.88 221.062 688.532 221.062H702.337C705.935 221.062 708.69 222.026 710.596 223.953C712.525 225.861 713.487 228.614 713.487 232.212V233.982C713.487 237.581 712.525 240.344 710.596 242.271C708.69 244.178 705.935 245.132 702.337 245.132H691.01V258.582C691.01 260.234 690.184 261.06 688.532 261.06ZM691.01 240.176H702.337C704.579 240.176 706.171 239.704 707.115 238.761C708.059 237.817 708.531 236.224 708.531 233.982V232.212C708.531 229.99 708.059 228.407 707.115 227.463C706.171 226.5 704.579 226.018 702.337 226.018H691.01V240.176ZM734.034 261.06C729.53 261.06 726.197 259.989 724.035 257.845C721.89 255.682 720.82 252.349 720.82 247.846V234.218C720.82 229.675 721.902 226.342 724.064 224.219C726.226 222.075 729.551 221.023 734.034 221.062H741.113C745.635 221.062 748.968 222.134 751.113 224.278C753.257 226.421 754.328 229.754 754.328 234.277V247.846C754.328 252.349 753.257 255.682 751.113 257.845C748.968 259.989 745.635 261.06 741.113 261.06H734.034ZM734.034 256.105H741.113C743.217 256.105 744.868 255.859 746.069 255.367C747.269 254.856 748.113 254.001 748.606 252.801C749.116 251.601 749.373 249.95 749.373 247.846V234.277C749.373 232.193 749.116 230.551 748.606 229.351C748.113 228.151 747.269 227.296 746.069 226.785C744.868 226.274 743.217 226.018 741.113 226.018H734.034C731.949 225.998 730.309 226.234 729.108 226.726C727.908 227.217 727.052 228.063 726.542 229.263C726.032 230.462 725.775 232.114 725.775 234.218V247.846C725.775 249.95 726.02 251.601 726.512 252.801C727.023 254.001 727.878 254.856 729.079 255.367C730.279 255.859 731.931 256.105 734.034 256.105ZM790.878 261.178C790.229 261.591 789.609 261.719 789.019 261.562C788.429 261.404 787.928 261.001 787.515 260.352L778.371 245.132H770.112V258.582C770.112 260.234 769.286 261.06 767.634 261.06C765.982 261.06 765.156 260.234 765.156 258.582V223.54C765.156 221.888 765.982 221.062 767.634 221.062H781.439C785.037 221.062 787.789 222.026 789.698 223.953C791.624 225.861 792.589 228.614 792.589 232.212V233.982C792.589 237.109 791.86 239.606 790.406 241.474C788.952 243.323 786.845 244.473 784.093 244.925L791.822 257.816C792.568 259.192 792.255 260.313 790.878 261.178ZM770.112 240.176H781.439C783.68 240.176 785.273 239.704 786.217 238.761C787.161 237.817 787.633 236.224 787.633 233.982V232.212C787.633 229.99 787.161 228.407 786.217 227.463C785.273 226.5 783.68 226.018 781.439 226.018H770.112V240.176ZM812.85 261.06C812.024 261.06 811.405 260.854 810.992 260.441C810.579 260.028 810.372 259.408 810.372 258.582V226.077H798.927C798.102 226.077 797.482 225.87 797.069 225.457C796.656 225.044 796.45 224.425 796.45 223.599C796.45 222.773 796.656 222.154 797.069 221.741C797.482 221.328 798.102 221.121 798.927 221.121H826.773C827.598 221.121 828.218 221.328 828.631 221.741C829.044 222.154 829.25 222.773 829.25 223.599C829.25 224.425 829.044 225.044 828.631 225.457C828.218 225.87 827.598 226.077 826.773 226.077H815.328V258.582C815.328 259.369 815.112 259.979 814.679 260.411C814.266 260.844 813.658 261.06 812.85 261.06Z" fill="#8E8E8E"/>
<path d="M386.747 96.3991C386.747 93.1028 386.634 90.476 386.409 88.5188C386.24 86.5616 385.818 85.0164 385.142 83.8833C384.467 82.7502 383.51 81.9776 382.272 81.5656C381.034 81.1536 379.401 80.8445 377.375 80.6385V77.0846H405.996V80.6385C403.97 80.7415 402.338 81.0505 401.1 81.5656C399.861 81.9776 398.904 82.7502 398.229 83.8833C397.553 85.0164 397.103 86.6131 396.878 88.6734C396.653 90.6306 396.54 93.2058 396.54 96.3991V174.893C396.54 178.087 396.653 180.713 396.878 182.774C397.159 184.731 397.638 186.276 398.313 187.409C398.989 188.542 399.946 189.366 401.184 189.881C402.422 190.293 404.026 190.551 405.996 190.654V193.899H377.375V190.654C379.401 190.551 381.034 190.293 382.272 189.881C383.51 189.366 384.439 188.542 385.058 187.409C385.733 186.276 386.184 184.731 386.409 182.774C386.634 180.816 386.747 178.19 386.747 174.893V96.3991ZM427.104 84.5014C424.402 84.5014 422.179 84.7589 420.434 85.274C418.745 85.789 417.338 86.8706 416.212 88.5188C415.143 90.1669 414.27 92.4847 413.595 95.472C412.976 98.3563 412.385 102.219 411.822 107.061H409.458L410.049 77.0846H464.421L465.012 107.061H462.648C462.085 102.219 461.466 98.3563 460.791 95.472C460.172 92.4847 459.327 90.1669 458.258 88.5188C457.188 86.8706 455.781 85.789 454.036 85.274C452.292 84.7589 450.04 84.5014 447.282 84.5014H442.132V174.893C442.132 178.087 442.245 180.662 442.47 182.619C442.695 184.576 443.117 186.121 443.736 187.254C444.411 188.387 445.34 189.212 446.522 189.727C447.761 190.139 449.365 190.448 451.335 190.654V193.899H423.304V190.654C425.274 190.448 426.85 190.139 428.032 189.727C429.214 189.212 430.115 188.336 430.734 187.1C431.409 185.761 431.832 183.958 432 181.692C432.226 179.426 432.338 176.438 432.338 172.73V84.5014H427.104ZM534.919 193.899H510.351V190.654C511.194 190.654 511.898 190.654 512.461 190.654C513.024 190.551 513.474 190.448 513.812 190.345C514.206 190.139 514.544 189.984 514.826 189.881C515.107 189.675 515.388 189.418 515.669 189.109C516.119 188.594 516.458 187.976 516.683 187.254C516.964 186.43 517.105 185.606 517.105 184.782C517.105 181.898 516.485 177.88 515.247 172.73L511.194 155.888H486.035L481.56 176.438C481.335 177.571 481.138 178.756 480.969 179.992C480.857 181.125 480.8 182.258 480.8 183.392C480.8 185.761 481.307 187.564 482.32 188.8C483.334 190.036 485.022 190.654 487.386 190.654V193.899H468.22V190.654C469.402 190.551 470.416 190.19 471.26 189.572C472.104 188.954 472.948 187.666 473.793 185.709C474.637 183.649 475.538 180.765 476.495 177.056C477.507 173.245 478.774 168.094 480.293 161.605L500.303 75.0759H502.161L526.223 175.202C527.011 178.498 527.687 181.125 528.249 183.082C528.869 185.04 529.488 186.585 530.106 187.718C530.726 188.748 531.401 189.469 532.133 189.881C532.921 190.293 533.85 190.551 534.919 190.654V193.899ZM509.928 148.78L498.784 100.108L487.639 148.78H509.928ZM593.26 163.304L588.532 193.899H536.777V190.654C538.522 190.448 539.929 190.087 540.998 189.572C542.124 189.057 542.968 188.233 543.531 187.1C544.15 185.967 544.572 184.422 544.797 182.464C545.022 180.507 545.135 177.983 545.135 174.893V96.3991C545.135 93.3088 545.022 90.785 544.797 88.8279C544.629 86.8706 544.234 85.3255 543.615 84.1924C542.997 83.0592 542.124 82.2352 540.998 81.7201C539.929 81.2051 538.522 80.8445 536.777 80.6385V77.0846H563.878V80.6385C561.964 80.8445 560.416 81.2051 559.234 81.7201C558.053 82.1322 557.152 82.9562 556.533 84.1924C555.914 85.3255 555.492 86.8706 555.266 88.8279C555.041 90.785 554.929 93.3088 554.929 96.3991V179.838C554.929 181.383 555.013 182.67 555.182 183.701C555.407 184.628 555.829 185.349 556.448 185.864C557.068 186.379 557.912 186.739 558.982 186.945C560.051 187.048 561.486 187.1 563.287 187.1H569.704C573.813 187.1 577.218 186.224 579.92 184.473C582.678 182.722 584.93 180.044 586.674 176.438C587.35 174.996 587.997 173.193 588.616 171.03C589.292 168.867 590.023 166.292 590.811 163.304H593.26ZM634.798 193.899H633.363L609.132 97.0172V167.94C609.132 172.472 609.245 176.181 609.47 179.065C609.751 181.846 610.23 184.061 610.906 185.709C611.581 187.357 612.509 188.542 613.691 189.263C614.874 189.984 616.393 190.448 618.251 190.654V193.899H595.624V190.654C597.594 190.345 599.169 189.881 600.351 189.263C601.59 188.542 602.519 187.357 603.138 185.709C603.813 184.061 604.263 181.846 604.488 179.065C604.714 176.181 604.826 172.472 604.826 167.94V96.3991C604.826 93.2058 604.714 90.6306 604.488 88.6734C604.32 86.7161 603.897 85.171 603.222 84.0378C602.603 82.9047 601.703 82.1322 600.52 81.7201C599.338 81.2051 597.762 80.8445 595.792 80.6385V77.0846H614.874L637.078 166.24L658.523 77.0846H677.604V80.6385C675.803 80.8445 674.367 81.2051 673.298 81.7201C672.229 82.2352 671.385 83.0592 670.765 84.1924C670.146 85.3255 669.724 86.8706 669.499 88.8279C669.33 90.785 669.246 93.3088 669.246 96.3991V174.893C669.246 177.983 669.358 180.507 669.583 182.464C669.808 184.422 670.203 185.967 670.765 187.1C671.385 188.233 672.229 189.057 673.298 189.572C674.424 190.087 675.859 190.448 677.604 190.654V193.899H650.587V190.654C652.5 190.448 654.021 190.087 655.146 189.572C656.328 189.057 657.228 188.182 657.848 186.945C658.467 185.606 658.861 183.855 659.03 181.692C659.255 179.426 659.367 176.438 659.367 172.73V92.8453L634.798 193.899ZM733.412 193.899H681.403V190.654C683.149 190.448 684.556 190.087 685.624 189.572C686.751 189.057 687.595 188.233 688.158 187.1C688.777 185.967 689.199 184.422 689.424 182.464C689.649 180.507 689.762 177.983 689.762 174.893V96.3991C689.762 93.3088 689.649 90.785 689.424 88.8279C689.256 86.8706 688.861 85.3255 688.242 84.1924C687.623 83.0592 686.751 82.2352 685.624 81.7201C684.556 81.2051 683.149 80.8445 681.403 80.6385V77.0846H732.567L732.736 102.425H730.457C730.006 98.4078 729.5 95.2144 728.937 92.8453C728.374 90.373 727.557 88.4673 726.489 87.1282C725.475 85.789 724.096 84.9134 722.351 84.5014C720.663 84.0893 718.468 83.8833 715.766 83.8833H702.764C701.47 83.8833 700.597 84.2439 700.147 84.9649C699.752 85.686 699.556 87.3342 699.556 89.9094V129.002H714.331C716.3 129.002 717.905 128.796 719.143 128.384C720.382 127.972 721.366 127.199 722.098 126.066C722.886 124.83 723.477 123.13 723.871 120.967C724.265 118.804 724.631 115.92 724.969 112.314H727.248V153.261H724.969C724.631 149.553 724.265 146.617 723.871 144.454C723.477 142.187 722.914 140.488 722.182 139.354C721.45 138.118 720.466 137.294 719.227 136.882C717.989 136.47 716.357 136.264 714.331 136.264H699.556V179.838C699.556 181.589 699.612 182.877 699.724 183.701C699.837 184.525 700.034 185.143 700.315 185.555C700.766 186.07 701.835 186.533 703.524 186.945C705.268 187.254 707.323 187.409 709.687 187.409H712.389C715.822 187.409 718.693 187.1 721 186.482C723.364 185.864 725.362 184.679 726.995 182.928C728.684 181.177 730.147 178.808 731.385 175.82C732.623 172.833 733.834 168.919 735.016 164.077H737.802L733.412 193.899ZM796.395 195.907L753.759 98.8713V167.94C753.759 172.472 753.871 176.181 754.097 179.065C754.378 181.846 754.856 184.061 755.532 185.709C756.208 187.357 757.136 188.542 758.318 189.263C759.5 189.984 761.02 190.448 762.877 190.654V193.899H740.25V190.654C742.221 190.345 743.796 189.881 744.978 189.263C746.217 188.542 747.145 187.357 747.764 185.709C748.44 184.061 748.89 181.846 749.115 179.065C749.34 176.181 749.453 172.472 749.453 167.94V90.373C748.496 88.3127 747.68 86.6646 747.005 85.4285C746.329 84.0893 745.653 83.1107 744.978 82.4927C744.303 81.7716 743.599 81.3081 742.867 81.102C742.136 80.793 741.264 80.6385 740.25 80.6385V77.0846H756.714L793.778 162.532V103.043C793.778 92.3303 792.85 85.7375 790.992 83.2653C790.26 82.4412 789.444 81.8746 788.543 81.5656C787.699 81.1536 786.377 80.8445 784.575 80.6385V77.0846H807.118V80.6385C805.317 80.8445 803.966 81.2051 803.066 81.7201C802.221 82.2352 801.489 82.9047 800.87 83.7288C798.957 85.9951 798 92.4332 798 103.043V195.907H796.395ZM876.856 193.899H852.288V190.654C853.131 190.654 853.835 190.654 854.398 190.654C854.961 190.551 855.411 190.448 855.749 190.345C856.143 190.139 856.481 189.984 856.762 189.881C857.043 189.675 857.325 189.418 857.606 189.109C858.057 188.594 858.395 187.976 858.62 187.254C858.901 186.43 859.042 185.606 859.042 184.782C859.042 181.898 858.422 177.88 857.184 172.73L853.131 155.888H827.972L823.497 176.438C823.272 177.571 823.075 178.756 822.906 179.992C822.794 181.125 822.737 182.258 822.737 183.392C822.737 185.761 823.244 187.564 824.257 188.8C825.27 190.036 826.958 190.654 829.323 190.654V193.899H810.157V190.654C811.339 190.551 812.353 190.19 813.196 189.572C814.041 188.954 814.885 187.666 815.73 185.709C816.574 183.649 817.474 180.765 818.431 177.056C819.444 173.245 820.711 168.094 822.231 161.605L842.24 75.0759H844.097L868.16 175.202C868.948 178.498 869.623 181.125 870.186 183.082C870.805 185.04 871.425 186.585 872.043 187.718C872.663 188.748 873.338 189.469 874.07 189.881C874.858 190.293 875.787 190.551 876.856 190.654V193.899ZM851.865 148.78L840.72 100.108L829.576 148.78H851.865ZM941.022 193.899H925.487L902.523 139.509L897.203 139.973V174.893C897.203 177.983 897.288 180.507 897.457 182.464C897.682 184.422 898.104 186.018 898.723 187.254C899.342 188.387 900.215 189.212 901.34 189.727C902.466 190.139 903.958 190.448 905.815 190.654V193.899H879.136V190.654C880.937 190.345 882.372 189.933 883.441 189.418C884.567 188.903 885.412 188.027 885.975 186.791C886.537 185.555 886.903 183.855 887.072 181.692C887.241 179.426 887.325 176.438 887.325 172.73V96.3991C887.325 93.3088 887.241 90.8365 887.072 88.9823C886.903 87.0252 886.537 85.48 885.975 84.3469C885.412 83.2138 884.567 82.3897 883.441 81.8746C882.372 81.3596 880.937 80.9475 879.136 80.6385V77.0846H905.731C910.458 77.0846 914.681 78.2692 918.395 80.6385C922.167 82.9047 924.952 85.995 926.754 89.9094C927.936 92.2787 928.808 95.06 929.371 98.2533C929.934 101.344 930.215 104.692 930.215 108.297C930.215 116.332 928.836 122.667 926.078 127.302C923.376 131.938 918.958 135.389 912.823 137.655L932.663 182.464C934.015 185.349 935.281 187.357 936.463 188.491C937.702 189.624 939.221 190.345 941.022 190.654V193.899ZM897.203 133.483C899.455 133.38 901.397 133.225 903.029 133.019C904.717 132.813 906.181 132.504 907.419 132.092C908.714 131.577 909.896 130.959 910.965 130.238C912.035 129.517 913.133 128.59 914.258 127.457C916.003 125.706 917.354 123.13 918.311 119.731C919.267 116.229 919.746 112.263 919.746 107.833C919.746 99.4895 918.311 93.4118 915.44 89.6005C912.626 85.686 908.123 83.7288 901.931 83.7288C900.018 83.7288 898.751 84.1924 898.132 85.1195C897.513 85.9435 897.203 87.5917 897.203 90.064V133.483ZM1010 193.899H985.431V190.654C986.276 190.654 986.979 190.654 987.542 190.654C988.105 190.551 988.556 190.448 988.893 190.345C989.287 190.139 989.625 189.984 989.906 189.881C990.188 189.675 990.469 189.418 990.751 189.109C991.201 188.594 991.539 187.976 991.764 187.254C992.045 186.43 992.186 185.606 992.186 184.782C992.186 181.898 991.567 177.88 990.329 172.73L986.276 155.888H961.116L956.641 176.438C956.416 177.571 956.219 178.756 956.05 179.992C955.938 181.125 955.882 182.258 955.882 183.392C955.882 185.761 956.388 187.564 957.401 188.8C958.414 190.036 960.103 190.654 962.467 190.654V193.899H943.302V190.654C944.484 190.551 945.497 190.19 946.341 189.572C947.186 188.954 948.03 187.666 948.874 185.709C949.718 183.649 950.619 180.765 951.575 177.056C952.589 173.245 953.855 168.094 955.375 161.605L975.385 75.0759H977.242L1001.3 175.202C1002.09 178.498 1002.77 181.125 1003.33 183.082C1003.95 185.04 1004.57 186.585 1005.19 187.718C1005.81 188.748 1006.48 189.469 1007.21 189.881C1008 190.293 1008.93 190.551 1010 190.654V193.899ZM985.01 148.78L973.865 100.108L962.721 148.78H985.01Z" fill="black"/>
<path d="M1006.84 217.869H845.065C843.319 217.869 841.902 219.285 841.902 221.032C841.902 222.779 843.319 224.195 845.065 224.195H1006.84C1008.58 224.195 1010 222.779 1010 221.032C1010 219.285 1008.58 217.869 1006.84 217.869Z" fill="url(#paint0_linear_112_123)"/>
<g filter="url(#filter0_d_112_123)">
<path fill-rule="evenodd" clip-rule="evenodd" d="M172.274 330.486C261.759 330.486 334.549 257.474 334.549 168.214C334.549 78.7289 261.536 5.93896 172.274 5.93896C82.7899 5.93896 10 78.7289 10 168.214C10 257.474 83.0125 330.486 172.274 330.486Z" fill="white"/>
</g>
<path fill-rule="evenodd" clip-rule="evenodd" d="M172.274 330.486C261.759 330.486 334.549 257.474 334.549 168.214C334.549 78.7289 261.536 5.93896 172.274 5.93896C82.7899 5.93896 10 78.7289 10 168.214C10 257.474 83.0125 330.486 172.274 330.486Z" fill="url(#paint1_radial_112_123)"/>
<path d="M183.612 329.981C215.858 327.782 247.834 315.325 273.417 294.873C329.245 250.302 349.497 174.021 323.048 108.268C307.793 70.2276 279.946 40.2484 243.104 22.1943C219.92 10.8689 198.535 5.93896 172.155 5.93896C145.772 5.93896 124.387 10.8689 101.203 22.1943C51.238 46.7107 18.1275 93.145 10.7994 148.839C9.73355 157.035 9.73355 179.353 10.7994 187.48C18.7272 247.771 57.7001 297.671 114.194 319.721C128.251 325.184 145.506 328.915 162.161 330.048C172.687 330.78 172.353 330.78 183.612 329.981ZM169.689 325.916C168.956 325.05 167.69 323.118 166.891 321.587C165.492 318.789 162.161 308.062 162.161 306.33C162.161 305.597 164.093 305.397 172.155 305.397C180.215 305.397 182.147 305.597 182.147 306.33C182.147 308.062 178.815 318.789 177.417 321.587C175.619 325.117 173.553 327.383 172.155 327.383C171.554 327.383 170.421 326.715 169.689 325.916ZM178.283 326.25C180.549 321.787 182.613 316.589 184.013 311.661L185.678 305.531L191.074 305.132C194.072 304.932 199.601 304.531 203.466 304.331L210.46 303.866L207.464 307.396C200.334 315.924 192.073 322.319 184.745 325.05C180.416 326.649 177.816 327.116 178.283 326.25ZM160.229 325.317C152.834 322.786 143.307 315.325 135.779 306.129L133.914 303.866L140.842 304.331C144.706 304.531 150.236 304.932 153.234 305.132L158.63 305.531L160.296 311.661C161.695 316.589 163.76 321.787 166.025 326.25C166.425 327.049 164.559 326.782 160.229 325.317ZM193.073 324.518C197.402 321.787 204.864 315.125 208.396 310.86C214.458 303.331 215.19 302.732 217.389 302.732C218.988 302.732 226.583 301.533 240.773 299.069L243.104 298.668L239.774 301.733C235.642 305.597 224.118 313.393 217.988 316.456C211.793 319.588 207.595 321.186 200.133 323.452C193.206 325.451 191.007 325.849 193.073 324.518ZM144.44 323.452C136.779 321.253 132.648 319.654 126.319 316.456C120.19 313.393 108.665 305.597 104.534 301.733L101.203 298.668L103.535 299.069C117.725 301.533 125.32 302.732 126.919 302.732C129.117 302.732 129.783 303.331 136.046 310.993C139.643 315.325 146.772 321.72 151.235 324.518C153.3 325.783 151.435 325.518 144.44 323.452ZM112.329 315.79C103.602 312.26 99.8708 310.394 91.077 305.197C84.6813 301.401 73.0895 293.138 68.5593 289.076C66.3607 287.077 66.2942 287.077 74.222 290.34C77.3531 291.607 83.2823 293.673 87.4794 294.937C94.5411 297.07 95.4072 297.537 99.471 301.201C107.932 308.796 115.327 313.925 124.654 318.655C127.718 320.186 130.183 321.587 130.183 321.72C130.183 322.185 119.257 318.588 112.329 315.79ZM221.254 318.123C229.314 313.858 235.776 309.328 243.505 302.599C249.633 297.203 249.967 297.003 257.094 294.873C261.092 293.673 266.955 291.607 270.085 290.34C278.014 287.077 277.947 287.077 275.748 289.076C266.621 297.27 250.432 307.53 238.109 313.126C230.979 316.324 217.322 321.386 215.791 321.386C215.39 321.386 217.855 319.922 221.254 318.123ZM161.228 302.134C160.229 300.6 154.833 265.625 154.833 260.895C154.833 260.296 159.096 260.096 172.155 260.096C186.744 260.096 189.475 260.229 189.475 261.029C189.475 265.759 184.08 300.6 183.08 302.134C182.88 302.465 177.949 302.732 172.155 302.732C166.358 302.732 161.428 302.465 161.228 302.134ZM187.209 297.802C188.676 290.875 190.208 280.415 191.408 269.757L192.541 259.762L200.801 259.297C205.398 259.096 213.992 258.364 219.987 257.763C225.984 257.097 231.046 256.83 231.246 257.031C231.912 257.699 226.449 273.487 222.518 282.08C220.588 286.345 217.59 292.206 215.858 295.204L212.592 300.6L206.197 301.067C202.667 301.268 199.334 301.599 198.802 301.666C198.268 301.8 195.205 301.933 192.073 302L186.277 302.067L187.209 297.802ZM136.112 301.001L131.649 300.533L128.451 295.204C126.719 292.206 123.654 286.278 121.789 282.08C117.925 273.619 112.396 257.699 113.062 257.031C113.261 256.766 118.058 257.097 123.654 257.699C129.251 258.297 137.312 258.896 141.509 259.163C152.834 259.695 151.901 259.163 152.434 265.558C152.967 272.354 155.765 291.473 157.098 297.671L158.03 302.267L149.303 301.867C144.44 301.599 138.511 301.201 136.112 301.001ZM216.79 299.667C216.79 299.402 217.855 297.47 219.121 295.338C223.718 287.809 230.979 270.489 233.777 260.296C234.776 256.766 235.177 256.098 236.709 255.833C237.641 255.633 242.171 254.834 246.701 254.099C255.696 252.568 260.226 251.635 270.352 249.037C273.949 248.104 277.081 247.503 277.282 247.704C278.413 248.904 267.688 269.089 260.758 278.75C256.295 285.011 249.368 293.272 247.701 294.272C246.637 294.873 235.177 297.27 225.783 298.735C217.055 300.135 216.79 300.202 216.79 299.667ZM114.86 298.069C110.264 297.337 104.268 296.204 101.536 295.538C96.9396 294.405 96.2068 294.007 93.2089 290.808C88.0791 285.412 80.6841 275.152 76.2873 267.424C71.6904 259.43 66.4941 248.305 67.027 247.771C67.2269 247.57 70.358 248.104 73.9556 249.037C84.0819 251.635 88.612 252.568 97.6058 254.099C102.136 254.834 106.666 255.633 107.599 255.833C109.131 256.098 109.531 256.766 110.53 260.296C113.328 270.489 120.59 287.809 125.187 295.338C126.452 297.47 127.518 299.469 127.518 299.667C127.518 299.934 126.519 300.001 125.32 299.801C124.187 299.601 119.457 298.801 114.86 298.069ZM255.696 290.076C263.358 281.548 271.485 268.624 277.747 254.834L281.878 245.905L289.14 243.374C297.999 240.242 311.124 233.847 315.987 230.183C317.986 228.652 319.785 227.585 319.918 227.786C320.651 228.451 310.324 247.904 305.196 255.633C293.071 273.752 286.675 279.816 273.484 285.877C268.42 288.21 255.897 292.673 254.163 292.74C253.697 292.74 254.363 291.54 255.696 290.076ZM84.3483 291.008C72.823 287.478 61.3643 281.681 55.6348 276.417C47.8403 269.222 35.9152 252.102 28.8535 237.711C26.1887 232.382 24.19 227.919 24.3899 227.786C24.5233 227.652 26.5885 228.916 28.92 230.584C34.6495 234.579 47.174 240.71 55.6348 243.508L62.4301 245.772L64.4288 250.435C70.5578 264.492 78.0194 276.951 86.2802 287.144C88.8119 290.209 90.6772 292.74 90.4108 292.74C90.1443 292.74 87.4128 291.941 84.3483 291.008ZM159.363 257.031L154.366 256.565L153.567 246.838C152.767 236.912 151.502 216.46 151.502 213.461V211.796H172.155H192.805V213.795C192.805 216.727 191.608 235.712 190.742 246.905L189.941 256.699L186.21 256.964C179.149 257.365 164.359 257.431 159.363 257.031ZM193.073 253.3C193.805 246.971 194.738 233.315 195.205 222.388L195.67 211.663L207.063 210.864C217.456 210.131 230.647 208.798 238.042 207.732L240.974 207.266L240.506 211.195C238.975 223.855 235.509 243.441 233.445 250.836C232.844 252.968 232.446 253.3 230.18 253.701C225.516 254.433 202.399 256.432 196.205 256.632L192.674 256.766L193.073 253.3ZM138.511 256.098C127.718 255.299 112.129 253.567 111.663 253.1C110.064 251.568 102.602 208.865 103.735 207.732C103.868 207.598 108.798 207.999 114.594 208.731C120.39 209.464 130.45 210.396 136.912 210.864L148.637 211.663L149.103 222.388C149.57 233.315 150.502 246.971 151.235 253.3L151.635 256.766H149.769C148.704 256.766 143.64 256.432 138.511 256.098ZM236.377 251.301C237.775 246.373 241.506 226.252 242.438 218.657C243.037 213.795 243.638 209.132 243.839 208.397C244.037 207.133 244.969 206.799 250.565 205.8C260.427 204.068 274.283 201.003 281.945 198.805C285.676 197.672 289.073 196.807 289.407 196.807C290.339 196.807 290.206 198.805 288.739 207.798C286.475 220.923 281.344 240.109 279.278 242.974C278.281 244.374 262.292 248.503 248.101 251.036C236.243 253.166 235.843 253.166 236.377 251.301ZM95.3407 250.769C80.4842 248.104 66.0943 244.374 65.0285 242.907C63.9625 241.509 61.3643 233.248 58.8992 223.587C56.6343 214.795 53.7694 197.739 54.4357 197.074C54.6356 196.807 58.0999 197.539 62.0305 198.672C70.0915 201.003 83.8819 204.068 93.7417 205.8C99.3379 206.799 100.271 207.133 100.47 208.397C100.67 209.132 101.27 213.862 101.87 218.79C102.802 226.319 106.2 244.44 107.865 250.969C108.465 253.233 108.998 253.233 95.3407 250.769ZM283.61 240.975C283.811 240.309 285.008 236.18 286.275 231.715C288.605 223.788 291.205 211.596 292.87 200.871L293.736 195.275L300.73 192.477C312.922 187.68 322.984 182.084 329.045 176.688L331.376 174.689V176.753C331.376 184.882 328.046 203.734 324.715 214.261C322.917 220.057 322.383 220.923 319.384 223.654C312.59 229.785 305.594 233.847 293.071 238.844C284.209 242.442 283.076 242.709 283.61 240.975ZM50.4385 238.51C37.6475 233.315 25.9223 225.987 22.1915 220.789C19.2601 216.791 14.2637 194.276 13.1976 180.483L12.7313 174.489L15.1298 176.621C21.3254 182.084 31.3185 187.613 43.5766 192.477L50.5718 195.275L51.4379 200.871C53.1034 211.596 55.7016 223.788 58.0333 231.715C59.299 236.18 60.4981 240.309 60.698 240.975C61.2309 242.709 60.0318 242.442 50.4385 238.51ZM151.235 204.268C151.035 201.804 150.836 189.679 150.836 177.354V154.835H172.155H193.473V177.354C193.473 189.679 193.273 201.804 193.073 204.268L192.607 208.798L182.546 208.932C177.016 209.065 167.824 209.065 162.094 208.932L151.701 208.731L151.235 204.268ZM196.469 182.349C196.737 167.76 197.004 155.501 197.137 155.103C197.271 154.635 200.467 154.237 205.264 153.97C209.594 153.702 218.522 152.903 225.118 152.104C231.714 151.305 238.307 150.639 239.774 150.573L242.438 150.506V168.16C242.438 191.742 241.706 204.001 240.172 204.402C238.44 204.934 215.257 207.4 206.13 208.066C201.534 208.333 197.402 208.664 196.937 208.731C196.205 208.798 196.138 204.068 196.469 182.349ZM127.851 207.066C115.66 206 103.735 204.535 103.269 204.068C102.602 203.402 101.47 173.823 101.67 162.829L101.87 150.506L104.534 150.573C106 150.639 112.595 151.305 119.191 152.104C125.786 152.903 134.846 153.702 139.31 153.97L147.504 154.37V164.496C147.504 170.026 147.704 182.217 147.971 191.611L148.37 208.598L144.107 208.333C141.775 208.199 134.447 207.598 127.851 207.066ZM244.836 195.473C245.17 190.876 245.437 178.685 245.504 168.358V149.506L246.968 149.173C247.767 148.972 251.565 148.24 255.429 147.508C264.291 145.709 276.015 142.777 283.877 140.312L290.006 138.38L290.339 140.112C292.004 148.106 292.336 175.488 290.938 189.278L290.538 193.343L280.812 196.074C275.483 197.539 269.553 199.137 267.755 199.538C263.623 200.471 244.504 204.001 244.304 203.867C244.237 203.801 244.437 200.003 244.836 195.473ZM77.886 199.805C75.2878 199.204 68.8258 197.539 63.4961 196.074L53.7029 193.343L53.3033 188.944C52.0374 174.288 52.3038 149.373 53.9693 140.446L54.3691 138.38L60.4316 140.312C68.5594 142.844 80.1512 145.776 89.2116 147.508C93.2089 148.307 97.0727 149.106 97.6724 149.239C98.7382 149.573 98.805 151.238 98.805 168.625C98.805 179.152 99.0049 189.412 99.138 191.411C99.3379 193.476 99.6709 197.14 99.8708 199.538L100.204 203.934L91.41 202.403C86.5467 201.537 80.4176 200.337 77.886 199.805ZM294.335 171.691C294.402 160.365 294.135 148.04 293.87 144.175L293.269 137.115L299.6 134.383C307.526 130.986 315.987 126.055 320.052 122.391C321.851 120.793 323.382 119.527 323.649 119.527C324.248 119.527 326.712 128.254 328.379 136.515C330.576 147.441 331.509 156.567 331.244 164.496L331.044 171.092L326.247 175.154C320.119 180.218 312.056 184.815 302.131 188.878C297.866 190.678 294.402 192.076 294.335 192.143C294.335 192.143 294.335 182.95 294.335 171.691ZM38.8466 187.48C31.0521 184.15 23.3907 179.617 17.8611 174.954L13.2644 171.092L13.0645 165.162C12.7981 157.567 13.8639 146.775 15.9291 136.515C17.5946 128.254 20.0597 119.527 20.6592 119.527C20.9256 119.527 22.458 120.793 24.2568 122.391C28.3206 126.055 36.7813 130.986 44.7092 134.383L50.9716 137.115L50.4385 144.442C50.172 148.507 49.9056 160.899 49.9721 171.958L50.0389 192.01L47.3074 191.01C45.775 190.411 41.9777 188.813 38.8466 187.48ZM153.833 151.704L150.636 151.305L151.102 136.248C151.568 119.993 152.634 98.8745 153.167 94.5441L153.5 91.8793H172.155H190.809L191.14 94.5441C191.675 98.8745 192.739 119.993 193.206 136.315L193.671 151.439L191.408 151.704C187.543 152.171 157.164 152.171 153.833 151.704ZM196.536 150.038C196.338 149.173 196.138 144.309 196.138 139.18C196.138 130.719 195.67 120.126 194.406 99.0742L193.938 91.6794L197.536 91.2797C216.989 89.3477 223.253 88.6149 228.05 87.8153C231.113 87.2159 233.71 86.8827 233.777 87.016C234.378 87.5489 238.176 107.602 239.373 116.196C240.974 127.921 242.505 145.976 241.906 146.642C241.239 147.24 231.978 148.507 219.054 149.771C196.87 151.904 197.07 151.904 196.536 150.038ZM125.187 149.771C111.996 148.507 103.735 147.374 102.802 146.775C101.137 145.776 104.134 117.928 107.932 98.9411C109.198 92.5456 110.33 87.1491 110.463 87.016C110.597 86.9494 113.195 87.2159 116.259 87.8153C121.056 88.6149 127.318 89.3477 146.772 91.2797L150.369 91.6794L149.903 99.0742C148.77 118.061 148.171 131.252 148.171 139.513C148.171 152.505 148.637 151.704 140.909 151.171C137.378 150.904 130.316 150.306 125.187 149.771ZM245.17 144.709C245.036 143.843 244.571 138.713 244.17 133.184C243.104 118.861 240.108 99.6739 237.109 88.1486C236.709 86.4163 236.775 86.3498 241.906 85.2172C249.368 83.6182 260.892 80.3538 266.889 78.1554L272.084 76.2901L274.016 80.0874C276.814 85.7503 280.412 95.1437 283.076 103.938C285.609 112.332 289.407 129.853 289.407 133.317C289.407 135.449 289.34 135.449 283.21 137.448C275.483 139.913 268.153 141.845 257.094 144.175C246.169 146.575 245.57 146.575 245.17 144.709ZM89.0783 144.576C78.8855 142.444 68.8924 139.913 61.0978 137.448C54.9688 135.449 54.902 135.449 54.902 133.317C54.902 129.853 58.6996 112.332 61.2309 103.938C63.8959 95.1437 67.4933 85.7503 70.2914 80.0874L72.2233 76.2901L77.4197 78.1554C83.4156 80.3538 94.9409 83.6182 102.402 85.284C107.199 86.2832 107.599 86.4831 107.266 87.8153C104.734 96.9424 101.137 119.793 100.137 133.45C99.2713 145.175 99.0714 146.174 97.9389 146.174C97.4725 146.174 93.4753 145.442 89.0783 144.576ZM291.403 126.122C288.605 110.533 283.143 92.6121 277.547 80.687L274.882 75.0244L279.879 72.4927C282.611 71.0271 286.609 68.4955 288.806 66.7633L292.67 63.6322L296.802 68.762C305.728 79.8209 315.389 96.4095 320.45 109.6L322.783 115.729L320.918 117.661C318.585 120.126 312.257 124.657 307.192 127.521C302.996 129.853 293.269 134.25 292.937 133.917C292.804 133.85 292.138 130.319 291.403 126.122ZM42.9772 130.452C35.9152 127.121 26.9881 121.392 23.7237 117.994L21.5253 115.729L23.857 109.6C28.92 96.4095 38.5802 79.8209 47.5073 68.762L51.6376 63.6322L55.5683 66.7633C57.7001 68.4955 61.6973 71.0271 64.4954 72.4927L69.492 75.0244L67.8263 78.4219C61.4974 90.8133 55.3684 111.399 51.9708 131.652C51.4379 134.516 52.0374 134.583 42.9772 130.452ZM153.833 85.4171C154.766 76.5565 156.898 57.5697 157.364 54.5717L157.83 51.2408H172.155H186.477L186.944 54.5717C187.41 57.5697 189.542 76.5565 190.475 85.4171L190.809 88.8814H172.155H153.5L153.833 85.4171ZM192.872 79.7544C192.407 75.0244 191.474 66.6302 190.742 61.034C190.074 55.4379 189.475 50.7079 189.475 50.5745C189.475 50.3749 190.873 50.2415 192.607 50.2415C195.272 50.2415 202.733 49.2423 216.857 47.1104L219.188 46.7772L221.919 52.6398C226.449 62.4996 233.579 83.0188 232.711 83.8181C231.778 84.7508 205.665 88.0152 198.07 88.1486L193.671 88.2151L192.872 79.7544ZM134.314 87.2159C124.121 86.1499 112.129 84.3513 111.596 83.8181C110.73 83.0188 117.858 62.4996 122.388 52.6398L125.12 46.7772L127.452 47.1104C141.575 49.2423 149.037 50.2415 151.635 50.2415C153.434 50.2415 154.833 50.3749 154.833 50.5745C154.833 50.7079 154.233 55.4379 153.567 61.034C152.834 66.6302 151.901 75.0244 151.435 79.7544L150.636 88.2151H147.371C145.572 88.2151 139.71 87.7488 134.314 87.2159ZM235.843 82.7523C230.979 66.8966 227.983 58.7023 222.387 46.5773C222.253 46.1778 224.584 45.1783 227.649 44.3789C230.714 43.5128 235.709 41.7808 238.841 40.5816L244.437 38.3164L246.701 40.4483C252.898 46.3109 263.423 60.3678 268.754 69.7612L270.884 73.5585L268.687 74.4912C264.489 76.2235 251.166 80.2207 244.103 81.8196C235.642 83.8181 236.11 83.7516 235.843 82.7523ZM98.1387 81.2865C91.1436 79.621 77.0201 75.2908 74.6884 74.0917C73.5558 73.5585 73.6891 73.2255 75.6211 69.6947C81.0839 60.1013 91.41 46.3109 97.6058 40.4483L99.8708 38.3164L105.467 40.5816C108.598 41.7808 113.595 43.5128 116.659 44.3789C119.724 45.1783 122.055 46.1778 121.922 46.5773C116.326 58.7023 113.461 66.4968 108.465 82.7523C108.332 83.2187 107.599 83.4186 106.733 83.2852C105.867 83.0854 102.003 82.2192 98.1387 81.2865ZM271.352 68.429C266.156 59.1021 255.429 44.8453 249.499 39.3157C248.368 38.1833 247.436 37.1839 247.436 36.9174C247.436 36.5176 253.831 31.5877 254.43 31.5877C255.162 31.5877 266.555 39.5156 271.752 43.6461C278.413 48.909 290.072 60.1679 290.072 61.3005C290.072 61.7668 288.872 63.0993 287.341 64.2319C284.677 66.3637 274.882 72.2263 274.016 72.2263C273.749 72.2263 272.552 70.494 271.352 68.429ZM64.7618 69.2949C58.6328 65.8308 54.236 62.433 54.236 61.2339C54.236 58.7688 76.6203 39.5824 86.4801 33.653L90.2109 31.4546L93.5419 33.9862C95.3407 35.3853 96.8728 36.651 96.8728 36.7843C96.8728 36.9174 94.741 39.3825 92.0763 42.1805C86.0803 48.576 79.5515 57.3698 74.5551 65.764C72.4232 69.2949 70.4913 72.2263 70.2248 72.2263C70.0249 72.2263 67.5599 70.8938 64.7618 69.2949ZM160.895 47.8432C158.364 47.3103 158.364 47.177 160.562 36.3179C162.561 26.3914 166.092 15.399 168.49 11.6682C169.822 9.46983 170.554 8.93693 172.155 8.93693C173.753 8.93693 174.486 9.46983 175.819 11.6682C178.216 15.399 181.747 26.3914 183.746 36.3179C185.878 46.7107 185.878 47.3769 183.946 47.7765C181.546 48.2428 163.16 48.3096 160.895 47.8432ZM187.276 38.7828C185.079 27.6573 182.679 19.1965 180.082 13.6669C179.015 11.3352 178.216 9.33649 178.35 9.20338C178.417 9.13682 180.747 9.73628 183.412 10.669C194.938 14.5331 205.598 24.2595 214.725 39.116C216.189 41.5143 217.189 43.6461 216.922 43.7792C215.724 44.5123 196.405 47.2436 191.074 47.51L189.075 47.5768L187.276 38.7828ZM147.171 46.9105C140.443 46.1777 128.118 44.2456 127.385 43.7792C127.118 43.6461 128.118 41.5143 129.584 39.116C138.711 24.2595 149.37 14.5331 160.895 10.669C163.56 9.73628 165.892 9.13682 165.958 9.20338C166.092 9.33649 165.292 11.3352 164.226 13.6669C161.628 19.1965 159.23 27.6573 157.031 38.7828C155.632 45.5781 155.033 47.5768 154.233 47.5768C153.634 47.5768 150.436 47.2435 147.171 46.9105ZM217.988 38.6497C212.194 28.6565 202.533 17.864 194.938 12.9341C193.006 11.735 191.474 10.669 191.474 10.6024C191.474 10.2692 199.468 12.3345 204.398 13.9334C215.19 17.4643 229.314 25.3921 237.975 32.7871C239.907 34.3858 241.305 35.9847 240.974 36.3179C239.707 37.5171 224.052 42.78 221.454 42.8466C220.853 42.9133 219.321 41.048 217.988 38.6497ZM113.994 40.4483C111.13 39.5824 107.399 38.2499 105.733 37.5171C102.136 35.9847 102.203 35.8516 109.531 30.2555C115.793 25.5255 123.721 20.7287 129.917 17.864C135.38 15.399 145.906 11.8681 149.836 11.2019L152.501 10.8023L147.838 14.0667C140.11 19.5961 130.783 30.3886 125.653 39.782C123.987 42.9133 123.854 42.9799 121.589 42.5801C120.257 42.3137 116.859 41.381 113.994 40.4483ZM240.707 31.2547C235.311 26.6578 227.983 21.7947 220.521 17.7975C213.258 13.9334 214.124 13.8668 224.383 17.3977C233.245 20.4622 247.502 26.9911 250.699 29.3893C251.431 29.9222 246.102 34.2527 244.638 34.2527C244.437 34.2527 242.639 32.9202 240.707 31.2547ZM95.807 31.9875C94.408 30.7218 93.342 29.5892 93.5419 29.4559C97.0727 26.4581 124.32 14.9326 127.718 14.9326C128.185 14.9326 126.253 16.1986 123.521 17.6641C116.992 21.195 108.865 26.6578 103.868 30.8549C101.67 32.7203 99.5378 34.2527 99.138 34.2527C98.7382 34.2527 97.2726 33.2534 95.807 31.9875Z" fill="black" fill-opacity="0.1"/>
<path d="M237.158 244.442C237.603 244.442 238.049 244.442 238.271 244.442C238.716 244.664 239.162 244.887 239.607 245.109C240.72 254.681 236.045 270.486 229.145 274.715C228.254 274.27 227.141 273.825 226.251 273.379C226.028 271.599 226.473 257.798 227.141 256.239C229.59 251.565 235.155 251.342 237.158 244.442ZM300.599 166.534C301.267 166.757 301.935 166.979 302.602 167.202C303.715 170.096 304.161 173.212 302.825 175.661C302.157 175.661 301.489 175.661 300.822 175.883C300.822 175.661 300.822 175.438 300.822 174.993C299.709 172.989 299.931 168.537 300.599 166.534ZM324.194 158.521C324.862 158.966 325.307 159.188 325.975 159.634C325.975 160.524 325.753 161.637 325.753 162.527C325.53 162.527 325.53 162.527 325.307 162.527C324.862 162.527 324.417 162.527 324.194 162.527C324.194 162.305 324.194 162.082 324.194 161.637C323.972 160.969 323.749 160.301 323.527 159.634C323.749 159.411 323.972 158.966 324.194 158.521ZM326.198 125.575C325.753 128.023 326.643 129.582 327.088 132.03C327.311 132.03 327.311 132.03 327.533 132.03C327.088 129.804 326.643 127.801 326.198 125.575ZM161.029 129.804C160.362 130.917 159.471 131.808 158.803 132.921C159.026 133.366 159.249 133.811 159.249 134.034C159.471 134.034 159.694 134.256 160.139 134.256C160.584 134.034 160.807 134.034 161.252 133.811C161.697 132.921 162.142 131.808 162.588 130.917C162.588 130.695 162.588 130.472 162.588 130.027C162.142 130.027 161.697 129.804 161.029 129.804ZM105.825 127.578C105.825 128.023 105.825 128.691 106.047 129.136C106.493 129.136 107.16 129.136 107.606 128.914C107.606 128.469 107.606 127.801 107.383 127.356C106.938 127.356 106.493 127.356 105.825 127.578ZM173.05 112.219C173.495 112.219 174.163 112.219 174.608 111.996C174.608 112.441 174.608 112.887 174.608 113.109C174.608 113.332 174.385 113.777 174.385 114C174.163 114 174.163 114 173.94 114C173.717 114 173.495 114 173.05 114C173.05 113.554 173.05 112.887 173.05 112.219ZM122.075 113.554C124.968 113.109 126.081 113.109 127.417 114.667C127.417 115.113 127.194 115.558 127.194 116.003C126.972 116.226 126.749 116.226 126.526 116.448C124.078 116.448 123.187 115.78 121.852 114.445C121.852 114.222 122.075 113.777 122.075 113.554ZM112.28 107.544C112.725 107.544 113.393 107.544 113.838 107.322C114.061 107.767 114.284 108.212 114.284 108.435C113.838 109.548 113.393 110.661 112.948 111.774C112.725 111.774 112.503 111.774 112.058 111.774C112.058 111.774 112.058 111.774 111.835 111.551C112.058 110.215 112.058 108.88 112.28 107.544ZM112.28 103.537C113.171 103.983 112.503 103.537 113.171 104.205C112.948 103.983 112.725 103.76 112.28 103.537ZM177.724 77.2708C175.721 78.6064 173.717 79.7194 171.491 81.0549C171.491 81.2775 171.491 81.2775 171.491 81.5002C171.937 82.6131 172.382 83.5035 173.05 84.6165C172.827 84.8391 172.604 84.8391 172.382 85.0617C171.491 85.2843 170.601 85.5069 169.488 85.7295C168.375 83.2809 165.927 80.6097 163.033 81.7227C159.471 83.5035 156.577 90.1815 155.91 94.4109C157.468 95.5239 158.136 95.9691 157.468 97.5273C157.023 98.4179 156.577 98.6403 155.91 99.3081C155.91 99.5307 155.91 99.7533 155.91 100.198C156.355 100.421 156.577 100.421 156.577 100.644C162.142 99.5307 165.481 94.8561 170.601 93.0753C177.279 90.8493 186.406 96.8595 190.858 89.7363C190.858 89.2911 190.858 88.8459 190.858 88.6233C186.851 86.8425 182.621 85.062 178.615 83.0583C178.392 81.5001 179.282 80.3872 179.282 77.2708C178.837 77.2708 178.392 77.2708 177.724 77.2708ZM208.22 68.812C204.659 71.9284 201.542 73.4866 198.426 76.8256C198.649 79.9419 199.094 80.3872 200.429 81.9453C204.214 84.3939 207.775 86.6199 211.559 89.0685C211.559 89.5137 211.337 90.1815 211.337 90.6267C209.779 91.2945 209.779 90.8493 209.111 92.4075C210.446 93.9657 211.559 95.7465 212.672 97.3047C217.792 97.5273 221.131 98.8629 225.583 96.1917C225.583 95.7465 225.583 95.3013 225.583 95.0787C223.357 92.8527 221.799 90.4041 219.35 88.4007C219.35 87.9555 219.35 87.5103 219.35 87.2877C220.018 86.6199 220.908 86.1745 221.576 85.5069C220.908 84.8391 221.131 84.8391 220.241 84.3939C216.011 83.2809 210.446 81.7227 209.111 77.2708C210.001 77.2708 210.669 77.0482 211.559 77.0482C212.672 77.2708 213.785 77.4934 214.898 77.4934C215.789 76.3804 216.902 75.2674 217.792 73.9318C217.792 73.7092 217.792 73.7092 217.792 73.4866C214.898 70.8154 213.34 68.812 208.22 68.812ZM88.2395 75.9352C88.9072 75.9352 89.5751 75.9352 90.2428 75.7126C90.2428 76.1578 90.2428 76.8256 90.4654 77.2708C87.7943 79.942 88.0169 82.8355 83.3423 84.3939C83.3423 84.1713 83.3423 84.1713 83.3423 83.9487C84.6779 81.2775 87.1265 78.829 88.2395 75.9352ZM91.801 85.0617C91.5784 80.8324 93.3592 79.942 95.14 77.4934C94.2496 74.8222 92.6914 73.9318 93.8044 70.8154C94.4722 69.925 95.14 68.812 96.0304 67.9216C96.253 67.9216 96.4756 67.9216 96.9208 67.9216C97.1434 68.1442 97.5886 68.3668 97.8112 68.5894C97.366 73.264 100.705 79.942 100.482 80.3872C100.037 81.9454 99.592 82.6131 98.2564 83.5035C96.0304 83.7261 94.027 84.3939 91.801 85.0617ZM89.5751 54.3431C90.2428 54.3431 90.9106 54.3431 91.5784 54.1205C91.5784 54.5657 91.3558 55.2335 91.3558 55.6787C89.1299 56.7917 86.6813 57.9046 84.4553 59.0176C84.2327 58.795 84.2327 58.5724 84.0101 58.3498C84.0101 58.1272 84.2327 57.9046 84.2327 57.4594C86.0135 56.569 87.7943 55.4561 89.5751 54.3431ZM156.577 47.2199C156.132 48.5555 156.132 48.1103 156.355 49.6685C156.577 49.8911 157.023 50.1137 157.245 50.3363C158.136 50.1137 159.026 49.8911 159.916 49.6685C159.916 49.2233 159.916 48.5555 159.694 48.1103C159.471 47.8877 159.026 47.6651 158.803 47.4425C158.358 47.2199 157.468 47.2199 156.577 47.2199ZM214.23 24.96C214.23 25.6278 214.453 26.2956 214.453 26.9634C214.898 27.186 215.344 27.4086 215.789 27.6312C216.011 27.4086 216.234 26.9634 216.456 26.7408C215.566 25.8504 215.566 25.4052 214.23 24.96ZM139.66 24.2922C140.995 24.96 140.328 24.2922 140.995 25.8504C140.105 26.5182 139.215 27.186 138.324 27.6312C134.985 26.5182 137.879 25.4052 139.66 24.2922ZM187.073 18.7272C187.964 18.9498 189.077 19.1724 189.967 19.395C189.967 19.6176 189.745 20.0628 189.745 20.2854C187.964 21.1758 187.296 21.8436 186.406 23.4018C186.851 24.5148 187.296 25.4052 187.964 26.5182C187.741 26.5182 187.741 26.5182 187.519 26.5182C186.183 26.2956 184.847 25.8504 183.512 25.6278C183.067 21.3984 185.07 20.9532 187.073 18.7272ZM213.785 12.717C212.672 12.9396 212.45 15.8334 212.005 17.3916C211.337 19.8402 210.446 20.2854 208.22 21.3984C206.217 20.9532 204.436 20.7306 202.433 20.2854C201.988 20.7306 201.765 21.1758 201.32 21.621C201.988 23.6244 202.655 23.847 203.546 24.96C195.532 28.5216 186.851 28.9668 179.505 33.864C178.392 33.1962 177.279 32.5284 176.166 31.638C175.498 32.751 175.498 33.1962 175.943 34.5317C173.05 37.2029 168.598 38.5385 165.927 41.4323C163.255 41.2097 162.365 40.3193 160.807 38.9837C160.807 38.5385 160.807 37.8707 160.584 37.4255C163.701 36.9803 167.04 36.5351 170.156 36.3125C170.156 35.6447 169.933 34.9769 169.933 34.3092C142.776 27.6312 129.42 46.1069 113.171 56.7917C113.171 59.0176 112.948 61.021 112.948 63.247C116.732 62.5792 116.955 60.7984 120.294 59.6854C120.516 59.6854 120.516 59.6854 120.739 59.6854C121.629 61.6888 122.52 63.6922 123.188 65.473C123.41 65.9182 123.633 66.3634 123.633 66.586C129.643 64.5826 128.752 58.5724 133.65 56.3465C132.982 53.8979 132.537 54.3431 131.646 52.5623C133.204 49.0007 140.105 42.3227 144.557 41.4323C144.78 41.4323 144.78 41.4323 145.002 41.4323C145.225 41.8775 145.67 42.1001 145.893 42.5453C144.557 45.4391 141.441 46.3295 139.882 49.2233C139.882 50.3363 140.105 51.4493 140.105 52.3397C144.112 53.6753 147.673 51.0041 152.125 50.1137C152.348 50.5589 152.793 50.7815 153.016 51.2267C151.235 53.4527 147.673 53.2301 144.78 54.7883C143.889 55.9013 144.334 57.0142 144.78 59.2402C143.221 59.4628 141.886 59.4628 140.328 59.6854C138.547 61.021 136.989 65.9182 135.653 67.699C128.53 68.1442 125.413 70.8154 117.845 71.7058C116.064 69.2572 116.955 68.5894 118.068 65.9182C117.845 65.6956 117.845 65.473 117.623 65.2504C117.177 65.2504 116.732 65.2504 116.51 65.2504C114.951 67.699 114.951 69.2572 115.174 72.5962C108.051 77.2708 97.5886 89.9589 89.1299 90.8493C88.9073 91.2945 88.6847 91.7395 88.4621 92.1849C90.2428 93.5203 91.3558 94.1883 92.914 96.1917C92.4688 98.6403 92.0236 101.089 91.5784 103.537C88.0169 105.986 82.0067 105.541 78.2225 107.544C77.3321 114.222 75.7739 117.339 76.4417 124.239C79.3355 124.239 79.5581 125.575 81.1163 125.797C89.1299 127.356 91.1332 116.003 93.3592 112.219C95.5852 108.435 98.9242 106.431 100.928 101.979C102.931 101.757 104.934 101.534 106.938 101.534C109.386 100.644 110.277 97.9725 113.393 96.8595C116.287 99.3081 127.862 106.876 128.53 109.77C128.752 109.993 128.975 109.993 129.42 110.215C130.311 108.435 130.533 108.435 129.42 106.654C130.088 105.318 130.088 105.541 131.646 104.873C131.869 104.65 131.869 104.205 132.091 103.983C126.972 101.757 121.184 99.9759 119.181 94.1883C119.403 93.7431 119.626 93.2979 119.849 92.8527C120.516 92.6301 121.184 92.1849 121.852 91.9623C126.749 93.9659 130.978 97.5273 136.321 99.7533C137.656 105.986 140.995 106.876 142.999 112.441C143.221 112.441 143.667 112.664 143.889 112.887C144.334 112.887 145.002 112.887 145.447 112.664C146.115 110.215 146.338 109.77 147.451 107.989C145.893 106.209 145.002 105.763 144.557 102.647C147.228 101.089 148.119 99.7533 152.348 99.5307C155.687 105.318 156.355 109.993 163.923 111.106C164.591 110.215 165.481 109.325 166.149 108.435C168.375 108.88 170.601 109.102 172.604 109.548C175.053 108.88 175.276 107.099 179.282 106.654C181.063 111.328 180.841 117.116 178.837 121.568C176.389 126.465 173.717 123.349 169.266 124.462C166.817 125.13 166.594 127.578 163.033 127.356C157.023 127.133 148.119 124.017 143.444 125.352C142.331 126.243 141.441 127.133 140.328 128.023C140.328 129.804 140.328 129.804 140.995 131.14C140.328 132.03 139.66 133.143 138.769 134.256C136.766 134.034 130.978 133.366 128.975 132.253C127.862 131.362 126.972 130.249 125.859 129.359C120.962 128.246 119.181 129.359 115.174 127.801C115.397 124.462 115.619 122.458 115.619 119.565C114.729 118.897 113.838 118.452 112.948 117.784C108.719 120.678 103.376 120.01 98.7016 121.791C91.801 124.462 90.2428 129.359 80.6711 129.359C78.6677 131.808 74.8835 136.482 73.7705 139.153C73.3253 142.492 72.8801 145.61 72.6575 148.949C70.8767 150.952 68.8733 152.956 67.0925 155.182C65.5344 161.192 63.9762 166.979 62.418 172.989C63.3084 176.328 64.4214 179.667 65.3118 182.784C65.5344 187.013 65.757 191.465 65.9795 195.695C69.7637 207.045 81.3389 217.952 90.9106 222.849C92.6914 221.959 94.4722 220.846 96.253 219.956C98.2564 219.956 100.26 220.178 102.263 220.178C110.277 218.175 111.835 208.158 120.739 219.065C122.965 218.62 124.968 218.175 127.194 217.73C134.763 222.182 129.198 228.414 133.872 234.202C138.324 239.99 145.893 243.106 150.122 249.339C151.68 251.565 154.351 255.572 154.797 257.352C155.687 260.469 153.906 264.921 155.242 268.705C157.245 273.379 182.176 294.081 187.519 296.307C208.22 292.746 199.094 282.951 208.888 276.273C209.333 272.489 207.775 270.931 206.885 267.592C209.556 263.585 216.902 259.578 218.015 254.904C220.686 242.216 207.33 236.651 212.895 223.295C219.795 207.268 237.158 198.143 235.6 174.77C235.377 174.548 234.932 174.325 234.71 174.102C229.145 176.774 223.58 179.445 218.015 181.893C214.676 179.222 215.789 178.332 213.34 175.438C209.333 172.989 205.104 170.541 200.875 167.87C199.984 165.866 198.871 163.64 197.981 161.637C196.423 160.301 194.864 159.188 193.306 158.075C192.193 155.404 191.303 152.51 190.19 149.839C184.847 144.052 179.282 137.15 174.385 130.472C174.385 130.249 174.385 130.249 174.385 130.027C176.166 130.472 176.834 131.585 177.947 132.921C178.837 132.475 179.728 132.03 180.618 131.362C185.96 136.482 191.08 141.602 196.423 146.723C196.645 148.281 196.868 149.617 197.09 151.175C199.539 155.182 206.217 158.298 209.333 162.305C210.892 166.534 212.45 170.763 214.008 174.77C216.902 176.774 223.58 170.096 225.36 168.983C236.268 161.86 248.511 151.397 250.292 137.818C250.514 133.366 241.833 133.143 239.829 128.469C239.162 128.469 238.494 128.246 237.826 128.246C236.936 130.472 236.268 132.475 234.264 133.811C232.706 134.256 231.371 134.701 229.812 134.924C229.59 134.924 229.59 134.924 229.367 134.924C228.477 133.588 228.032 133.143 227.809 130.695C226.028 130.249 226.251 131.14 224.693 130.917C221.576 127.801 218.46 124.684 215.343 121.568C215.343 121.123 215.344 120.455 215.121 120.01C216.456 119.342 217.792 118.674 218.905 118.006C225.36 122.681 229.59 128.023 238.716 123.571C247.62 130.249 251.627 126.465 262.98 124.017C265.873 125.797 271.216 129.136 271.884 133.366C273.664 134.479 273.664 135.369 276.558 135.369C277.226 134.479 278.116 133.588 278.784 132.698C280.342 137.818 282.123 142.938 283.681 148.058C286.353 154.514 291.027 160.747 292.808 168.76C293.253 169.203 293.698 169.428 294.144 169.873C294.589 169.873 295.034 169.873 295.257 169.873C297.26 165.644 299.486 160.301 298.373 153.401C297.928 151.175 297.483 149.171 297.037 146.945C297.928 142.27 302.602 135.369 304.161 130.472C304.161 128.914 304.161 127.578 304.161 126.02C305.719 124.907 307.5 123.571 309.058 122.458C310.171 126.688 312.619 128.469 314.4 132.03C314.845 134.256 315.29 136.26 315.736 138.486C315.958 138.931 316.403 139.153 316.626 139.599C317.071 139.153 317.739 138.708 318.184 138.263C318.407 138.486 318.852 138.486 319.075 138.708C319.965 142.492 320.855 146.278 321.746 150.284C321.968 150.507 322.414 150.507 322.636 150.73C323.304 149.394 323.081 148.949 324.862 148.058C325.307 151.397 326.198 154.291 329.092 153.846C329.537 163.863 329.759 176.328 327.311 184.787C327.311 185.01 327.311 185.232 327.311 185.678C327.088 185.9 326.866 185.9 326.643 186.123C326.198 183.452 325.753 180.78 325.085 178.109C325.753 178.109 326.42 177.887 327.088 177.887C327.533 174.102 327.311 168.76 326.42 164.531C325.53 164.531 324.862 164.308 323.972 164.308C324.194 167.424 324.194 170.541 324.417 173.657C324.194 173.657 324.194 173.657 323.972 173.657C323.304 172.544 322.636 171.654 322.191 170.541C321.746 170.541 321.301 170.318 320.855 170.318C318.407 174.548 323.749 182.339 323.081 187.904C322.859 190.797 322.859 193.691 322.636 196.362C323.081 197.253 323.527 198.143 323.972 199.034L324.64 202.15L327.533 200.147C336.66 167.424 331.318 121.123 316.403 92.6301C297.483 55.0109 262.312 22.2888 213.785 12.717Z" fill="#8E8E8E"/>
<defs>
<filter id="filter0_d_112_123" x="0" y="0.938965" width="344.549" height="344.547" filterUnits="userSpaceOnUse" color-interpolation-filters="sRGB">
<feFlood flood-opacity="0" result="BackgroundImageFix"/>
<feColorMatrix in="SourceAlpha" type="matrix" values="0 0 0 0 0 0 0 0 0 0 0 0 0 0 0 0 0 0 127 0" result="hardAlpha"/>
<feOffset dy="5"/>
<feGaussianBlur stdDeviation="5"/>
<feComposite in2="hardAlpha" operator="out"/>
<feColorMatrix type="matrix" values="0 0 0 0 0 0 0 0 0 0 0 0 0 0 0 0 0 0 0.1 0"/>
<feBlend mode="normal" in2="BackgroundImageFix" result="effect1_dropShadow_112_123"/>
<feBlend mode="normal" in="SourceGraphic" in2="effect1_dropShadow_112_123" result="shape"/>
</filter>
<linearGradient id="paint0_linear_112_123" x1="841.902" y1="221.032" x2="1010" y2="221.032" gradientUnits="userSpaceOnUse">
<stop offset="0.333333" stop-color="#009246"/>
<stop offset="0.333334" stop-color="white"/>
<stop offset="0.666666" stop-color="white"/>
<stop offset="0.666667" stop-color="#FF0000"/>
</linearGradient>
<radialGradient id="paint1_radial_112_123" cx="0" cy="0" r="1" gradientUnits="userSpaceOnUse" gradientTransform="translate(172.274 168.213) rotate(90) scale(162.274 162.274)">
<stop offset="0.652428" stop-color="white" stop-opacity="0"/>
<stop offset="1" stop-color="#D7D7D7"/>
</radialGradient>
</defs>
</svg>
