<svg width="1040" height="1294" viewBox="0 0 1040 1294" fill="none" xmlns="http://www.w3.org/2000/svg">
<path d="M36.6538 1293C35.2469 1293 34.1999 1292.67 33.5128 1292.01C32.8584 1291.33 32.5312 1290.28 32.5312 1288.87V1230.67C32.5312 1229.23 32.8584 1228.18 33.5128 1227.53C34.1999 1226.87 35.2469 1226.54 36.6538 1226.54C38.0935 1226.54 39.1405 1226.87 39.7949 1227.53C40.4492 1228.18 40.7764 1229.23 40.7764 1230.67V1288.87C40.7764 1290.28 40.4492 1291.33 39.7949 1292.01C39.1405 1292.67 38.0935 1293 36.6538 1293ZM65.3148 1293C62.5664 1293 61.1922 1291.62 61.1922 1288.87V1230.57C61.1922 1227.82 62.5664 1226.45 65.3148 1226.45C67.1144 1226.45 68.6195 1227.33 69.83 1229.1L92.9948 1263.94L91.228 1264.24L114.589 1229.1C115.702 1227.33 117.371 1226.45 119.595 1226.45C121.821 1226.45 122.933 1227.82 122.933 1230.57V1288.87C122.933 1291.62 121.558 1293 118.81 1293C116.062 1293 114.687 1291.62 114.687 1288.87V1238.81L117.24 1239.7L96.6266 1270.03C95.4164 1271.79 93.7477 1272.68 91.6206 1272.68C90.1483 1272.68 88.807 1271.79 87.5962 1270.03L66.9835 1239.7L69.4374 1240.38V1288.87C69.4374 1291.62 68.0632 1293 65.3148 1293ZM147.464 1293C144.715 1293 143.341 1291.62 143.341 1288.87V1230.57C143.341 1227.82 144.715 1226.45 147.464 1226.45H170.432C176.42 1226.45 181.001 1228.05 184.174 1231.26C187.381 1234.43 188.984 1239.01 188.984 1245V1247.94C188.984 1253.93 187.381 1258.53 184.174 1261.73C181.001 1264.91 176.42 1266.49 170.432 1266.49H151.586V1288.87C151.586 1291.62 150.212 1293 147.464 1293ZM151.586 1258.25H170.432C174.162 1258.25 176.812 1257.46 178.383 1255.89C179.953 1254.32 180.739 1251.67 180.739 1247.94V1245C180.739 1241.3 179.953 1238.67 178.383 1237.1C176.812 1235.49 174.162 1234.69 170.432 1234.69H151.586V1258.25ZM223.17 1293C215.678 1293 210.132 1291.21 206.533 1287.65C202.966 1284.05 201.183 1278.5 201.183 1271.01V1248.34C201.183 1240.78 202.982 1235.23 206.582 1231.7C210.181 1228.13 215.71 1226.38 223.17 1226.45H234.949C242.474 1226.45 248.02 1228.23 251.587 1231.8C255.153 1235.36 256.936 1240.91 256.936 1248.43V1271.01C256.936 1278.5 255.153 1284.05 251.587 1287.65C248.02 1291.21 242.474 1293 234.949 1293H223.17ZM223.17 1284.75H234.949C238.45 1284.75 241.198 1284.34 243.194 1283.52C245.19 1282.67 246.597 1281.25 247.415 1279.25C248.266 1277.26 248.691 1274.51 248.691 1271.01V1248.43C248.691 1244.97 248.266 1242.23 247.415 1240.24C246.597 1238.24 245.19 1236.82 243.194 1235.97C241.198 1235.12 238.45 1234.69 234.949 1234.69H223.17C219.702 1234.66 216.97 1235.05 214.974 1235.87C212.978 1236.69 211.555 1238.09 210.704 1240.09C209.853 1242.09 209.428 1244.83 209.428 1248.34V1271.01C209.428 1274.51 209.837 1277.26 210.655 1279.25C211.506 1281.25 212.929 1282.67 214.925 1283.52C216.921 1284.34 219.669 1284.75 223.17 1284.75ZM317.748 1293.19C316.668 1293.88 315.637 1294.09 314.656 1293.83C313.674 1293.57 312.84 1292.9 312.153 1291.82L296.939 1266.49H283.197V1288.87C283.197 1291.62 281.822 1293 279.074 1293C276.326 1293 274.951 1291.62 274.951 1288.87V1230.57C274.951 1227.82 276.326 1226.45 279.074 1226.45H302.043C308.03 1226.45 312.611 1228.05 315.785 1231.26C318.991 1234.43 320.594 1239.01 320.594 1245V1247.94C320.594 1253.14 319.384 1257.3 316.963 1260.41C314.542 1263.48 311.041 1265.4 306.46 1266.15L319.318 1287.6C320.562 1289.89 320.038 1291.75 317.748 1293.19ZM283.197 1258.25H302.043C305.773 1258.25 308.423 1257.46 309.993 1255.89C311.564 1254.32 312.349 1251.67 312.349 1247.94V1245C312.349 1241.3 311.564 1238.67 309.993 1237.1C308.423 1235.49 305.773 1234.69 302.043 1234.69H283.197V1258.25ZM354.308 1293C352.934 1293 351.903 1292.65 351.216 1291.97C350.529 1291.28 350.186 1290.25 350.186 1288.87V1234.79H331.143C329.769 1234.79 328.738 1234.45 328.051 1233.76C327.364 1233.07 327.021 1232.04 327.021 1230.67C327.021 1229.29 327.364 1228.26 328.051 1227.58C328.738 1226.89 329.769 1226.54 331.143 1226.54H377.473C378.847 1226.54 379.878 1226.89 380.565 1227.58C381.252 1228.26 381.596 1229.29 381.596 1230.67C381.596 1232.04 381.252 1233.07 380.565 1233.76C379.878 1234.45 378.847 1234.79 377.473 1234.79H358.431V1288.87C358.431 1290.18 358.071 1291.2 357.351 1291.92C356.664 1292.64 355.65 1293 354.308 1293ZM429.664 1293C426.916 1293 425.542 1291.62 425.542 1288.87V1230.57C425.542 1227.82 426.916 1226.45 429.664 1226.45H464.902C467.651 1226.45 469.025 1227.82 469.025 1230.57C469.025 1233.32 467.651 1234.69 464.902 1234.69H433.787V1255.3H453.32C456.068 1255.3 457.443 1256.68 457.443 1259.43C457.443 1262.18 456.068 1263.55 453.32 1263.55H433.787V1284.75H464.902C467.651 1284.75 469.025 1286.13 469.025 1288.87C469.025 1291.62 467.651 1293 464.902 1293H429.664ZM482.918 1292.11C480.726 1290.61 480.399 1288.68 481.937 1286.32L499.899 1259.82L480.955 1233.12C479.483 1230.96 479.842 1229.03 482.035 1227.33C484.292 1225.79 486.19 1226.15 487.728 1228.41L505.298 1253.05L522.967 1228.41C524.67 1226.22 526.564 1225.92 528.66 1227.53C530.883 1229.16 531.212 1231.06 529.641 1233.22L510.304 1260.11L528.856 1286.22C530.392 1288.48 530.034 1290.44 527.776 1292.11C525.519 1293.65 523.619 1293.29 522.083 1291.03L505.003 1266.98L488.709 1291.13C487.204 1293.26 485.274 1293.59 482.918 1292.11ZM550.249 1293C547.501 1293 546.127 1291.62 546.127 1288.87V1230.57C546.127 1227.82 547.501 1226.45 550.249 1226.45H573.218C579.206 1226.45 583.789 1228.05 586.96 1231.26C590.17 1234.43 591.77 1239.01 591.77 1245V1247.94C591.77 1253.93 590.17 1258.53 586.96 1261.73C583.789 1264.91 579.206 1266.49 573.218 1266.49H554.372V1288.87C554.372 1291.62 552.998 1293 550.249 1293ZM554.372 1258.25H573.218C576.948 1258.25 579.598 1257.46 581.169 1255.89C582.739 1254.32 583.524 1251.67 583.524 1247.94V1245C583.524 1241.3 582.739 1238.67 581.169 1237.1C579.598 1235.49 576.948 1234.69 573.218 1234.69H554.372V1258.25ZM625.958 1293C618.463 1293 612.917 1291.21 609.32 1287.65C605.752 1284.05 603.97 1278.5 603.97 1271.01V1248.34C603.97 1240.78 605.772 1235.23 609.369 1231.7C612.966 1228.13 618.498 1226.38 625.958 1226.45H637.736C645.26 1226.45 650.806 1228.23 654.374 1231.8C657.942 1235.36 659.724 1240.91 659.724 1248.43V1271.01C659.724 1278.5 657.942 1284.05 654.374 1287.65C650.806 1291.21 645.26 1293 637.736 1293H625.958ZM625.958 1284.75H637.736C641.236 1284.75 643.984 1284.34 645.982 1283.52C647.979 1282.67 649.383 1281.25 650.202 1279.25C651.051 1277.26 651.478 1274.51 651.478 1271.01V1248.43C651.478 1244.97 651.051 1242.23 650.202 1240.24C649.383 1238.24 647.979 1236.82 645.982 1235.97C643.984 1235.12 641.236 1234.69 637.736 1234.69H625.958C622.488 1234.66 619.759 1235.05 617.761 1235.87C615.764 1236.69 614.341 1238.09 613.492 1240.09C612.643 1242.09 612.216 1244.83 612.216 1248.34V1271.01C612.216 1274.51 612.623 1277.26 613.443 1279.25C614.292 1281.25 615.715 1282.67 617.712 1283.52C619.71 1284.34 622.458 1284.75 625.958 1284.75ZM720.537 1293.19C719.457 1293.88 718.426 1294.09 717.445 1293.83C716.463 1293.57 715.629 1292.9 714.942 1291.82L699.727 1266.49H685.985V1288.87C685.985 1291.62 684.611 1293 681.863 1293C679.114 1293 677.74 1291.62 677.74 1288.87V1230.57C677.74 1227.82 679.114 1226.45 681.863 1226.45H704.831C710.819 1226.45 715.398 1228.05 718.573 1231.26C721.778 1234.43 723.383 1239.01 723.383 1245V1247.94C723.383 1253.14 722.171 1257.3 719.751 1260.41C717.332 1263.48 713.828 1265.4 709.249 1266.15L722.107 1287.6C723.349 1289.89 722.829 1291.75 720.537 1293.19ZM685.985 1258.25H704.831C708.561 1258.25 711.212 1257.46 712.782 1255.89C714.353 1254.32 715.138 1251.67 715.138 1247.94V1245C715.138 1241.3 714.353 1238.67 712.782 1237.1C711.212 1235.49 708.561 1234.69 704.831 1234.69H685.985V1258.25ZM757.095 1293C755.721 1293 754.69 1292.65 754.003 1291.97C753.316 1291.28 752.972 1290.25 752.972 1288.87V1234.79H733.93C732.556 1234.79 731.525 1234.45 730.838 1233.76C730.151 1233.07 729.807 1232.04 729.807 1230.67C729.807 1229.29 730.151 1228.26 730.838 1227.58C731.525 1226.89 732.556 1226.54 733.93 1226.54H780.26C781.634 1226.54 782.665 1226.89 783.352 1227.58C784.039 1228.26 784.383 1229.29 784.383 1230.67C784.383 1232.04 784.039 1233.07 783.352 1233.76C782.665 1234.45 781.634 1234.79 780.26 1234.79H761.218V1288.87C761.218 1290.18 760.859 1291.2 760.138 1291.92C759.451 1292.64 758.44 1293 757.095 1293Z" fill="#8E8E8E"/>
<path d="M46.9691 1103.72C46.9691 1100.95 46.7957 1098.73 46.4488 1097.09C46.1888 1095.44 45.5384 1094.14 44.4978 1093.19C43.4572 1092.23 41.9831 1091.58 40.0754 1091.23C38.1677 1090.89 35.653 1090.63 32.5312 1090.45V1087.46H76.6254V1090.45C73.5036 1090.54 70.9889 1090.8 69.0813 1091.23C67.1735 1091.58 65.6993 1092.23 64.6588 1093.19C63.6182 1094.14 62.9245 1095.48 62.5777 1097.22C62.2308 1098.86 62.0574 1101.03 62.0574 1103.72V1169.8C62.0574 1172.49 62.2308 1174.7 62.5777 1176.43C63.0112 1178.08 63.7483 1179.38 64.7889 1180.33C65.8294 1181.29 67.3036 1181.98 69.2112 1182.41C71.119 1182.76 73.5903 1182.98 76.6254 1183.06V1185.8H32.5312V1183.06C35.653 1182.98 38.1677 1182.76 40.0754 1182.41C41.9831 1181.98 43.4139 1181.29 44.3677 1180.33C45.4083 1179.38 46.102 1178.08 46.4488 1176.43C46.7957 1174.78 46.9691 1172.57 46.9691 1169.8V1103.72ZM109.143 1093.71C104.981 1093.71 101.556 1093.92 98.8675 1094.36C96.266 1094.79 94.0982 1095.7 92.3639 1097.09C90.7163 1098.47 89.3722 1100.43 88.3317 1102.94C87.3779 1105.37 86.4674 1108.62 85.6003 1112.7H81.9582L82.8688 1087.46H166.635L167.545 1112.7H163.903C163.035 1108.62 162.082 1105.37 161.042 1102.94C160.088 1100.43 158.787 1098.47 157.139 1097.09C155.492 1095.7 153.324 1094.79 150.636 1094.36C147.948 1093.92 144.479 1093.71 140.23 1093.71H132.296V1169.8C132.296 1172.49 132.469 1174.65 132.816 1176.3C133.163 1177.95 133.813 1179.25 134.767 1180.2C135.808 1181.16 137.238 1181.85 139.059 1182.28C140.967 1182.63 143.439 1182.89 146.473 1183.06V1185.8H103.29V1183.06C106.325 1182.89 108.753 1182.63 110.574 1182.28C112.395 1181.85 113.782 1181.11 114.736 1180.07C115.777 1178.95 116.427 1177.43 116.687 1175.52C117.034 1173.61 117.207 1171.1 117.207 1167.98V1093.71H109.143ZM275.243 1185.8H237.394V1183.06C238.693 1183.06 239.777 1183.06 240.645 1183.06C241.512 1182.98 242.206 1182.89 242.726 1182.8C243.333 1182.63 243.853 1182.5 244.287 1182.41C244.72 1182.24 245.154 1182.02 245.587 1181.76C246.281 1181.33 246.802 1180.81 247.149 1180.2C247.582 1179.51 247.799 1178.82 247.799 1178.12C247.799 1175.69 246.845 1172.31 244.937 1167.98L238.693 1153.8H199.933L193.039 1171.1C192.692 1172.05 192.388 1173.05 192.129 1174.09C191.955 1175.04 191.868 1176 191.868 1176.95C191.868 1178.95 192.649 1180.46 194.209 1181.5C195.771 1182.54 198.372 1183.06 202.014 1183.06V1185.8H172.487V1183.06C174.308 1182.98 175.87 1182.67 177.17 1182.15C178.471 1181.63 179.772 1180.55 181.073 1178.9C182.373 1177.17 183.761 1174.74 185.235 1171.62C186.795 1168.41 188.746 1164.07 191.087 1158.61L221.915 1085.77H224.776L261.846 1170.06C263.061 1172.83 264.101 1175.04 264.968 1176.69C265.922 1178.34 266.876 1179.64 267.829 1180.59C268.783 1181.46 269.824 1182.07 270.951 1182.41C272.165 1182.76 273.597 1182.98 275.243 1183.06V1185.8ZM236.743 1147.81L219.573 1106.84L202.404 1147.81H236.743ZM365.123 1160.04L357.839 1185.8H278.106V1183.06C280.794 1182.89 282.962 1182.59 284.609 1182.15C286.343 1181.72 287.644 1181.03 288.511 1180.07C289.465 1179.12 290.115 1177.82 290.462 1176.17C290.808 1174.52 290.982 1172.4 290.982 1169.8V1103.72C290.982 1101.12 290.808 1098.99 290.462 1097.35C290.202 1095.7 289.595 1094.4 288.641 1093.45C287.688 1092.49 286.343 1091.8 284.609 1091.36C282.962 1090.93 280.794 1090.63 278.106 1090.45V1087.46H319.858V1090.45C316.91 1090.63 314.525 1090.93 312.704 1091.36C310.884 1091.71 309.496 1092.4 308.541 1093.45C307.588 1094.4 306.937 1095.7 306.591 1097.35C306.244 1098.99 306.07 1101.12 306.07 1103.72V1173.96C306.07 1175.26 306.2 1176.34 306.461 1177.21C306.808 1177.99 307.458 1178.6 308.412 1179.03C309.366 1179.47 310.667 1179.77 312.314 1179.94C313.961 1180.03 316.172 1180.07 318.948 1180.07H328.833C335.163 1180.07 340.409 1179.34 344.571 1177.86C348.821 1176.39 352.29 1174.13 354.977 1171.1C356.018 1169.88 357.016 1168.37 357.969 1166.55C359.01 1164.72 360.136 1162.56 361.351 1160.04H365.123ZM429.118 1185.8H426.906L389.577 1104.24V1163.94C389.577 1167.76 389.75 1170.88 390.097 1173.31C390.53 1175.65 391.267 1177.51 392.308 1178.9C393.348 1180.29 394.779 1181.29 396.6 1181.89C398.421 1182.5 400.762 1182.89 403.624 1183.06V1185.8H368.765V1183.06C371.8 1182.8 374.227 1182.41 376.048 1181.89C377.957 1181.29 379.387 1180.29 380.342 1178.9C381.382 1177.51 382.075 1175.65 382.422 1173.31C382.769 1170.88 382.942 1167.76 382.942 1163.94V1103.72C382.942 1101.03 382.769 1098.86 382.422 1097.22C382.163 1095.57 381.512 1094.27 380.471 1093.32C379.517 1092.36 378.13 1091.71 376.309 1091.36C374.488 1090.93 372.059 1090.63 369.025 1090.45V1087.46H398.421L432.63 1162.51L465.668 1087.46H495.064V1090.45C492.289 1090.63 490.077 1090.93 488.43 1091.36C486.783 1091.8 485.482 1092.49 484.528 1093.45C483.574 1094.4 482.924 1095.7 482.577 1097.35C482.317 1098.99 482.187 1101.12 482.187 1103.72V1169.8C482.187 1172.4 482.36 1174.52 482.707 1176.17C483.054 1177.82 483.661 1179.12 484.528 1180.07C485.482 1181.03 486.783 1181.72 488.43 1182.15C490.165 1182.59 492.376 1182.89 495.064 1183.06V1185.8H453.441V1183.06C456.389 1182.89 458.731 1182.59 460.465 1182.15C462.286 1181.72 463.673 1180.98 464.627 1179.94C465.581 1178.82 466.188 1177.34 466.448 1175.52C466.795 1173.61 466.968 1171.1 466.968 1167.98V1100.73L429.118 1185.8ZM581.041 1185.8H500.917V1183.06C503.606 1182.89 505.773 1182.59 507.42 1182.15C509.155 1181.72 510.456 1181.03 511.323 1180.07C512.277 1179.12 512.927 1177.82 513.274 1176.17C513.62 1174.52 513.794 1172.4 513.794 1169.8V1103.72C513.794 1101.12 513.62 1098.99 513.274 1097.35C513.014 1095.7 512.407 1094.4 511.453 1093.45C510.498 1092.49 509.155 1091.8 507.42 1091.36C505.773 1090.93 503.606 1090.63 500.917 1090.45V1087.46H579.74L580 1108.79H576.488C575.795 1105.41 575.014 1102.72 574.147 1100.73C573.28 1098.65 572.022 1097.04 570.375 1095.92C568.814 1094.79 566.69 1094.05 564.002 1093.71C561.4 1093.36 558.018 1093.19 553.856 1093.19H533.825C531.831 1093.19 530.486 1093.49 529.793 1094.1C529.186 1094.7 528.882 1096.09 528.882 1098.26V1131.17H551.645C554.679 1131.17 557.151 1130.99 559.059 1130.65C560.967 1130.3 562.484 1129.65 563.611 1128.69C564.825 1127.65 565.735 1126.22 566.343 1124.4C566.95 1122.58 567.513 1120.15 568.034 1117.12H571.545V1151.59H568.034C567.513 1148.47 566.95 1145.99 566.343 1144.17C565.735 1142.27 564.869 1140.83 563.741 1139.88C562.613 1138.84 561.097 1138.15 559.188 1137.8C557.281 1137.45 554.767 1137.28 551.645 1137.28H528.882V1173.96C528.882 1175.43 528.969 1176.52 529.142 1177.21C529.315 1177.9 529.62 1178.42 530.052 1178.77C530.747 1179.21 532.394 1179.6 534.995 1179.94C537.683 1180.2 540.849 1180.33 544.491 1180.33H548.654C553.942 1180.33 558.365 1180.07 561.92 1179.55C565.562 1179.03 568.64 1178.03 571.155 1176.56C573.757 1175.09 576.011 1173.09 577.919 1170.58C579.826 1168.06 581.691 1164.77 583.512 1160.69H587.804L581.041 1185.8ZM678.073 1187.49L612.387 1105.8V1163.94C612.387 1167.76 612.561 1170.88 612.909 1173.31C613.341 1175.65 614.079 1177.51 615.119 1178.9C616.16 1180.29 617.591 1181.29 619.412 1181.89C621.233 1182.5 623.574 1182.89 626.436 1183.06V1185.8H591.576V1183.06C594.612 1182.8 597.039 1182.41 598.86 1181.89C600.769 1181.29 602.199 1180.29 603.152 1178.9C604.194 1177.51 604.887 1175.65 605.234 1173.31C605.581 1170.88 605.754 1167.76 605.754 1163.94V1098.65C604.28 1096.91 603.023 1095.53 601.982 1094.49C600.942 1093.36 599.901 1092.53 598.86 1092.01C597.82 1091.41 596.736 1091.02 595.609 1090.84C594.481 1090.58 593.138 1090.45 591.576 1090.45V1087.46H616.94L674.042 1159.39V1109.31C674.042 1100.3 672.611 1094.75 669.749 1092.66C668.622 1091.97 667.365 1091.49 665.977 1091.23C664.676 1090.89 662.639 1090.63 659.864 1090.45V1087.46H694.593V1090.45C691.818 1090.63 689.737 1090.93 688.35 1091.36C687.049 1091.8 685.921 1092.36 684.967 1093.05C682.02 1094.96 680.545 1100.38 680.545 1109.31V1187.49H678.073ZM802.032 1185.8H764.181V1183.06C765.481 1183.06 766.565 1183.06 767.433 1183.06C768.3 1182.98 768.993 1182.89 769.513 1182.8C770.121 1182.63 770.641 1182.5 771.075 1182.41C771.508 1182.24 771.942 1182.02 772.375 1181.76C773.069 1181.33 773.59 1180.81 773.936 1180.2C774.369 1179.51 774.586 1178.82 774.586 1178.12C774.586 1175.69 773.632 1172.31 771.725 1167.98L765.481 1153.8H726.721L719.827 1171.1C719.48 1172.05 719.176 1173.05 718.916 1174.09C718.743 1175.04 718.656 1176 718.656 1176.95C718.656 1178.95 719.436 1180.46 720.997 1181.5C722.558 1182.54 725.159 1183.06 728.801 1183.06V1185.8H699.275V1183.06C701.096 1182.98 702.658 1182.67 703.957 1182.15C705.258 1181.63 706.559 1180.55 707.86 1178.9C709.161 1177.17 710.548 1174.74 712.022 1171.62C713.583 1168.41 715.534 1164.07 717.876 1158.61L748.702 1085.77H751.563L788.635 1170.06C789.848 1172.83 790.889 1175.04 791.755 1176.69C792.71 1178.34 793.664 1179.64 794.617 1180.59C795.571 1181.46 796.611 1182.07 797.739 1182.41C798.954 1182.76 800.384 1182.98 802.032 1183.06V1185.8ZM763.53 1147.81L746.361 1106.84L729.192 1147.81H763.53ZM900.885 1185.8H876.953L841.573 1140.01L833.378 1140.4V1169.8C833.378 1172.4 833.509 1174.52 833.769 1176.17C834.115 1177.82 834.766 1179.16 835.719 1180.2C836.674 1181.16 838.018 1181.85 839.752 1182.28C841.486 1182.63 843.784 1182.89 846.646 1183.06V1185.8H805.543V1183.06C808.318 1182.8 810.53 1182.46 812.176 1182.02C813.911 1181.59 815.212 1180.85 816.079 1179.81C816.946 1178.77 817.51 1177.34 817.771 1175.52C818.03 1173.61 818.16 1171.1 818.16 1167.98V1103.72C818.16 1101.12 818.03 1099.04 817.771 1097.48C817.51 1095.83 816.946 1094.53 816.079 1093.58C815.212 1092.62 813.911 1091.93 812.176 1091.49C810.53 1091.06 808.318 1090.71 805.543 1090.45V1087.46H846.516C853.799 1087.46 860.304 1088.46 866.026 1090.45C871.836 1092.36 876.128 1094.96 878.904 1098.26C880.725 1100.25 882.068 1102.59 882.935 1105.28C883.803 1107.88 884.236 1110.7 884.236 1113.74C884.236 1120.5 882.112 1125.83 877.862 1129.74C873.7 1133.64 866.893 1136.54 857.441 1138.45L888.008 1176.17C890.09 1178.6 892.04 1180.29 893.861 1181.24C895.77 1182.2 898.111 1182.8 900.885 1183.06V1185.8ZM833.378 1134.94C836.847 1134.85 839.839 1134.72 842.354 1134.55C844.954 1134.37 847.21 1134.11 849.117 1133.77C851.111 1133.33 852.932 1132.81 854.58 1132.21C856.228 1131.6 857.919 1130.82 859.653 1129.87C862.341 1128.39 864.422 1126.22 865.897 1123.36C867.37 1120.41 868.107 1117.07 868.107 1113.35C868.107 1106.32 865.897 1101.21 861.474 1098C857.138 1094.7 850.201 1093.05 840.662 1093.05C837.714 1093.05 835.763 1093.45 834.809 1094.23C833.856 1094.92 833.378 1096.31 833.378 1098.39V1134.94ZM1007.15 1185.8H969.303V1183.06C970.603 1183.06 971.687 1183.06 972.554 1183.06C973.421 1182.98 974.116 1182.89 974.636 1182.8C975.242 1182.63 975.762 1182.5 976.196 1182.41C976.63 1182.24 977.063 1182.02 977.497 1181.76C978.191 1181.33 978.711 1180.81 979.058 1180.2C979.492 1179.51 979.709 1178.82 979.709 1178.12C979.709 1175.69 978.755 1172.31 976.847 1167.98L970.603 1153.8H931.842L924.948 1171.1C924.601 1172.05 924.298 1173.05 924.038 1174.09C923.864 1175.04 923.778 1176 923.778 1176.95C923.778 1178.95 924.558 1180.46 926.119 1181.5C927.68 1182.54 930.282 1183.06 933.924 1183.06V1185.8H904.398V1183.06C906.219 1182.98 907.779 1182.67 909.08 1182.15C910.381 1181.63 911.682 1180.55 912.982 1178.9C914.282 1177.17 915.671 1174.74 917.144 1171.62C918.705 1168.41 920.656 1164.07 922.997 1158.61L953.825 1085.77H956.686L993.756 1170.06C994.97 1172.83 996.011 1175.04 996.878 1176.69C997.832 1178.34 998.785 1179.64 999.739 1180.59C1000.69 1181.46 1001.73 1182.07 1002.86 1182.41C1004.08 1182.76 1005.51 1182.98 1007.15 1183.06V1185.8ZM968.653 1147.81L951.483 1106.84L934.314 1147.81H968.653Z" fill="black"/>
<g filter="url(#filter0_d_112_115)">
<path fill-rule="evenodd" clip-rule="evenodd" d="M519.998 1010.9C795.719 1010.9 1020 785.93 1020 510.903C1020 235.182 795.033 10.9021 519.998 10.9021C244.28 10.9021 20 235.182 20 510.903C20 785.93 244.966 1010.9 519.998 1010.9Z" fill="white"/>
</g>
<path fill-rule="evenodd" clip-rule="evenodd" d="M519.998 1010.9C795.719 1010.9 1020 785.93 1020 510.903C1020 235.182 795.033 10.9021 519.998 10.9021C244.28 10.9021 20 235.182 20 510.903C20 785.93 244.966 1010.9 519.998 1010.9Z" fill="url(#paint0_radial_112_115)"/>
<path d="M554.933 1009.34C654.289 1002.56 752.814 964.182 831.641 901.164C1003.66 763.832 1066.06 528.797 984.563 326.198C937.561 208.988 851.758 116.616 738.239 60.9879C666.806 26.0921 600.914 10.9021 519.631 10.9021C438.341 10.9021 372.45 26.0921 301.015 60.9879C147.063 136.528 45.0425 279.601 22.463 451.204C19.179 476.458 19.179 545.224 22.463 570.265C46.8903 756.033 166.973 909.785 341.043 977.727C384.355 994.559 437.52 1006.05 488.838 1009.55C521.271 1011.8 520.242 1011.8 554.933 1009.34ZM512.033 996.815C509.775 994.147 505.876 988.194 503.412 983.475C499.101 974.854 488.838 941.802 488.838 936.466C488.838 934.209 494.791 933.592 519.631 933.592C544.467 933.592 550.42 934.209 550.42 936.466C550.42 941.802 540.153 974.854 535.845 983.475C530.304 994.353 523.939 1001.34 519.631 1001.34C517.78 1001.34 514.288 999.278 512.033 996.815ZM538.513 997.844C545.496 984.092 551.854 968.077 556.168 952.892L561.298 934.003L577.924 932.775C587.162 932.158 604.199 930.924 616.106 930.306L637.656 928.873L628.424 939.751C606.456 966.026 581.003 985.732 558.424 994.147C545.084 999.072 537.073 1000.51 538.513 997.844ZM482.885 994.97C460.1 987.172 430.747 964.181 407.55 935.848L401.803 928.873L423.151 930.306C435.057 930.924 452.094 932.158 461.332 932.775L477.959 934.003L483.09 952.892C487.401 968.077 493.764 984.092 500.743 997.844C501.975 1000.31 496.227 999.483 482.885 994.97ZM584.083 992.508C597.423 984.092 620.413 963.564 631.298 950.423C649.974 927.227 652.231 925.382 659.007 925.382C663.932 925.382 687.334 921.685 731.058 914.092L738.239 912.858L727.979 922.302C715.249 934.209 679.741 958.228 660.852 967.666C641.765 977.316 628.829 982.241 605.839 989.223C584.494 995.382 577.718 996.609 584.083 992.508ZM434.236 989.223C410.63 982.446 397.903 977.522 378.402 967.666C359.517 958.228 324.006 934.209 311.279 922.302L301.015 912.858L308.2 914.092C351.922 921.685 375.323 925.382 380.25 925.382C387.024 925.382 389.076 927.227 408.372 950.835C419.456 964.182 441.42 983.887 455.173 992.508C461.537 996.404 455.789 995.588 434.236 989.223ZM335.295 965.615C308.405 954.737 296.91 948.99 269.814 932.974C250.108 921.28 214.391 895.821 200.433 883.304C193.659 877.144 193.454 877.144 217.881 887.199C227.528 891.102 245.797 897.467 258.729 901.362C280.488 907.933 283.157 909.374 295.678 920.663C321.748 944.065 344.533 959.867 373.271 974.442C382.713 979.161 390.308 983.475 390.308 983.887C390.308 985.32 356.644 974.236 335.295 965.615ZM670.914 972.803C695.75 959.662 715.66 945.704 739.474 924.97C758.356 908.345 759.385 907.727 781.346 901.164C793.665 897.467 811.731 891.102 821.374 887.199C845.805 877.144 845.599 877.144 838.822 883.304C810.702 908.55 760.818 940.162 722.848 957.405C700.88 967.261 658.802 982.858 654.083 982.858C652.848 982.858 660.441 978.345 670.914 972.803ZM485.964 923.537C482.885 918.811 466.258 811.047 466.258 796.472C466.258 794.627 479.395 794.01 519.631 794.01C564.583 794.01 572.999 794.421 572.999 796.884C572.999 811.458 556.374 918.811 553.294 923.537C552.677 924.559 537.485 925.382 519.631 925.382C501.77 925.382 486.58 924.559 485.964 923.537ZM566.017 910.19C570.537 888.845 575.256 856.616 578.953 823.777L582.444 792.981L607.896 791.548C622.06 790.93 648.541 788.674 667.012 786.822C685.489 784.771 701.086 783.948 701.703 784.565C703.754 786.623 686.922 835.272 674.81 861.747C668.863 874.888 659.625 892.947 654.289 902.186L644.227 918.811L624.522 920.251C613.644 920.869 603.376 921.891 601.737 922.096C600.091 922.508 590.653 922.919 581.003 923.125L563.143 923.331L566.017 910.19ZM408.577 920.046L394.824 918.605L384.971 902.186C379.634 892.947 370.192 874.682 364.444 861.747C352.538 835.677 335.501 786.623 337.553 784.565C338.169 783.749 352.949 784.771 370.192 786.623C387.435 788.468 412.272 790.313 425.204 791.136C460.1 792.775 457.226 791.136 458.868 810.841C460.511 831.781 469.132 890.69 473.237 909.785L476.111 923.948L449.221 922.714C434.236 921.891 415.967 920.663 408.577 920.046ZM657.162 915.937C657.162 915.121 660.441 909.168 664.344 902.597C678.507 879.401 700.88 826.033 709.501 794.627C712.581 783.749 713.815 781.692 718.534 780.875C721.408 780.258 735.366 777.796 749.323 775.533C777.039 770.814 790.997 767.94 822.197 759.936C833.281 757.062 842.931 755.21 843.548 755.827C847.032 759.524 813.987 821.719 792.636 851.486C778.884 870.78 757.54 896.232 752.403 899.312C749.124 901.164 713.815 908.55 684.872 913.064C657.979 917.378 657.162 917.583 657.162 915.937ZM343.096 911.013C328.932 908.756 310.458 905.265 302.041 903.214C287.878 899.723 285.62 898.496 276.383 888.64C260.577 872.014 237.792 840.402 224.244 816.589C210.08 791.959 194.069 757.679 195.711 756.033C196.327 755.416 205.975 757.062 217.06 759.936C248.261 767.94 262.219 770.814 289.931 775.533C303.889 777.796 317.847 780.258 320.721 780.875C325.443 781.692 326.674 783.749 329.753 794.627C338.375 826.033 360.749 879.401 374.913 902.597C378.813 909.168 382.097 915.327 382.097 915.937C382.097 916.76 379.018 916.966 375.323 916.349C371.834 915.732 357.26 913.269 343.096 911.013ZM777.039 886.383C800.647 860.107 825.688 820.286 844.982 777.796L857.711 750.286L880.084 742.487C907.382 732.837 947.821 713.132 962.808 701.842C968.967 697.124 974.508 693.838 974.92 694.456C977.177 696.506 945.359 756.445 929.556 780.258C892.197 836.088 872.492 854.771 831.847 873.448C816.244 880.635 777.656 894.387 772.313 894.593C770.88 894.593 772.931 890.896 777.039 886.383ZM249.082 889.257C213.57 878.379 178.264 860.519 160.61 844.298C136.593 822.131 99.8499 769.38 78.0913 725.039C69.8807 708.619 63.7223 694.867 64.3382 694.456C64.749 694.044 71.1125 697.94 78.2964 703.077C95.95 715.388 134.541 734.277 160.61 742.899L181.547 749.874L187.706 764.243C206.591 807.556 229.581 845.944 255.035 877.35C262.835 886.795 268.583 894.593 267.762 894.593C266.941 894.593 258.524 892.131 249.082 889.257ZM480.216 784.565L464.821 783.132L462.358 753.159C459.895 722.576 455.994 659.558 455.994 650.32V645.189H519.631H583.26V651.349C583.26 660.381 579.57 718.88 576.902 753.365L574.433 783.543L562.937 784.36C541.182 785.594 495.612 785.8 480.216 784.565ZM584.083 773.07C586.339 753.571 589.213 711.493 590.654 677.823L592.087 644.778L627.19 642.316C659.213 640.059 699.858 635.951 722.643 632.665L731.676 631.232L730.235 643.338C725.516 682.343 714.837 742.693 708.479 765.478C706.628 772.048 705.4 773.07 698.418 774.305C684.049 776.561 612.821 782.72 593.733 783.338L582.855 783.749L584.083 773.07ZM415.967 781.692C382.713 779.229 334.68 773.893 333.242 772.453C328.316 767.734 305.326 636.156 308.816 632.665C309.226 632.254 324.416 633.488 342.275 635.745C360.133 638.002 391.129 640.875 411.04 642.316L447.168 644.778L448.605 677.823C450.042 711.493 452.915 753.571 455.173 773.07L456.405 783.749H450.657C447.374 783.749 431.773 782.72 415.967 781.692ZM717.512 766.911C721.82 751.726 733.315 689.73 736.189 666.328C738.034 651.349 739.885 636.979 740.503 634.716C741.113 630.82 743.987 629.792 761.23 626.712C791.614 621.376 834.309 611.932 857.917 605.162C869.412 601.671 879.879 599.003 880.907 599.003C883.781 599.003 883.37 605.162 878.85 632.871C871.875 673.31 856.065 732.425 849.7 741.253C846.628 745.567 797.361 758.29 753.637 766.095C717.101 772.659 715.866 772.659 717.512 766.911ZM282.952 765.272C237.176 757.062 192.838 745.567 189.554 741.047C186.269 736.74 178.264 711.287 170.668 681.52C163.689 654.428 154.862 601.877 156.915 599.826C157.531 599.003 168.205 601.259 180.316 604.75C205.154 611.932 247.645 621.376 278.025 626.712C295.268 629.792 298.142 630.82 298.757 634.716C299.373 636.979 301.22 651.554 303.068 666.74C305.942 689.936 316.41 745.773 321.542 765.889C323.39 772.864 325.032 772.864 282.952 765.272ZM863.047 735.094C863.665 733.043 867.355 720.32 871.257 706.561C878.438 682.137 886.449 644.572 891.58 611.527L894.248 594.284L915.798 585.663C953.363 570.882 984.365 553.639 1003.04 537.014L1010.22 530.855V537.213C1010.22 562.261 999.961 620.347 989.701 652.782C984.159 670.642 982.513 673.31 973.274 681.726C952.341 700.615 930.784 713.132 892.197 728.53C864.892 739.613 861.401 740.436 863.047 735.094ZM144.599 727.501C105.187 711.493 69.0597 688.914 57.5645 672.899C48.5323 660.58 33.1372 591.204 29.8525 548.708L28.4157 530.237L35.8059 536.808C54.8958 553.639 85.6866 570.676 123.456 585.663L145.01 594.284L147.678 611.527C152.81 644.572 160.816 682.137 168 706.561C171.9 720.32 175.595 733.043 176.211 735.094C177.853 740.436 174.158 739.613 144.599 727.501ZM455.173 621.993C454.557 614.401 453.942 577.041 453.942 539.064V469.682H519.631H585.317V539.064C585.317 577.041 584.7 614.401 584.083 621.993L582.649 635.951L551.648 636.362C534.611 636.774 506.286 636.774 488.633 636.362L456.61 635.745L455.173 621.993ZM594.549 554.455C595.372 509.503 596.195 471.732 596.607 470.505C597.018 469.064 606.867 467.837 621.648 467.014C634.988 466.191 662.499 463.728 682.821 461.266C703.143 458.804 723.459 456.753 727.979 456.547L736.189 456.341V510.738C736.189 583.399 733.932 621.17 729.206 622.405C723.87 624.044 652.437 631.643 624.316 633.694C610.153 634.517 597.423 635.539 595.99 635.745C593.733 635.951 593.527 621.376 594.549 554.455ZM383.124 630.615C345.559 627.329 308.816 622.816 307.379 621.376C305.326 619.325 301.836 528.187 302.452 494.311L303.068 456.341L311.279 456.547C315.794 456.753 336.116 458.804 356.439 461.266C376.76 463.728 404.677 466.191 418.43 467.014L443.678 468.248V499.449C443.678 516.486 444.294 554.051 445.115 582.995L446.347 635.333L433.21 634.517C426.025 634.106 403.445 632.254 383.124 630.615ZM743.575 594.894C744.604 580.731 745.427 543.166 745.633 511.348V453.262L750.146 452.233C752.608 451.616 764.309 449.359 776.216 447.103C803.521 441.561 839.646 432.528 863.87 424.933L882.752 418.98L883.781 424.317C888.912 448.948 889.934 533.317 885.626 575.807L884.392 588.331L854.426 596.746C838.006 601.259 819.735 606.184 814.193 607.418C801.463 610.292 742.554 621.17 741.936 620.759C741.73 620.553 742.348 608.852 743.575 594.894ZM229.17 608.242C221.165 606.39 201.254 601.259 184.832 596.746L154.657 588.331L153.426 574.778C149.525 529.62 150.347 452.85 155.478 425.344L156.71 418.98L175.39 424.933C200.433 432.733 236.15 441.767 264.067 447.103C276.383 449.565 288.288 452.027 290.136 452.439C293.42 453.468 293.626 458.598 293.626 512.171C293.626 544.606 294.242 576.218 294.652 582.377C295.268 588.742 296.294 600.032 296.91 607.418L297.936 620.964L270.84 616.246C255.856 613.578 236.971 609.881 229.17 608.242ZM896.093 521.616C896.298 486.719 895.475 448.742 894.659 436.835L892.807 415.08L912.314 406.664C936.738 396.195 962.807 381.005 975.331 369.715C980.873 364.789 985.592 360.889 986.415 360.889C988.26 360.889 995.853 387.779 1000.99 413.232C1007.76 446.897 1010.63 475.018 1009.82 499.449L1009.2 519.771L994.419 532.288C975.537 547.892 950.695 562.055 920.112 574.572C906.971 580.121 896.298 584.428 896.093 584.634C896.093 584.634 896.093 556.307 896.093 521.616ZM108.882 570.265C84.8656 560.004 61.2593 546.04 44.2216 531.671L30.0583 519.771L29.4424 501.499C28.6214 478.097 31.9054 444.846 38.2689 413.232C43.4006 387.779 50.9959 360.889 52.843 360.889C53.664 360.889 58.3855 364.789 63.928 369.715C76.4493 381.005 102.519 396.195 126.946 406.664L146.242 415.08L144.599 437.658C143.778 450.182 142.957 488.365 143.162 522.439L143.368 584.222L134.951 581.143C130.23 579.298 118.53 574.373 108.882 570.265ZM463.179 460.031L453.326 458.804L454.763 412.411C456.2 362.326 459.484 297.255 461.127 283.912L462.153 275.701H519.631H577.107L578.129 283.912C579.776 297.255 583.054 362.326 584.494 412.616L585.928 459.215L578.953 460.031C567.046 461.472 473.443 461.472 463.179 460.031ZM594.755 454.901C594.145 452.233 593.527 437.247 593.527 421.443C593.527 395.374 592.087 362.736 588.191 297.87L586.751 275.085L597.835 273.854C657.773 267.901 677.073 265.643 691.854 263.179C701.291 261.332 709.296 260.306 709.501 260.716C711.353 262.358 723.054 324.145 726.744 350.625C731.676 386.752 736.394 442.384 734.549 444.435C732.492 446.28 703.959 450.182 664.138 454.078C595.784 460.649 596.401 460.649 594.755 454.901ZM374.913 454.078C334.269 450.182 308.816 446.691 305.942 444.846C300.81 441.767 310.047 355.962 321.748 297.46C325.648 277.754 329.137 261.127 329.548 260.716C329.958 260.511 337.964 261.332 347.406 263.179C362.186 265.643 381.481 267.901 441.42 273.854L452.505 275.085L451.068 297.87C447.579 356.372 445.731 397.016 445.731 422.47C445.731 462.501 447.168 460.032 423.356 458.392C412.477 457.569 390.718 455.724 374.913 454.078ZM744.604 438.481C744.193 435.812 742.759 420.006 741.525 402.969C738.239 358.836 729.007 299.718 719.769 264.206C718.534 258.869 718.74 258.664 734.549 255.174C757.54 250.247 793.047 240.189 811.525 233.415L827.533 227.668L833.486 239.368C842.108 256.817 853.191 285.76 861.401 312.855C869.207 338.719 880.907 392.706 880.907 403.379C880.907 409.948 880.702 409.948 861.813 416.106C838.006 423.702 815.421 429.654 781.346 436.835C747.684 444.229 745.839 444.229 744.604 438.481ZM263.656 438.07C232.25 431.501 201.459 423.702 177.443 416.106C158.558 409.948 158.352 409.948 158.352 403.379C158.352 392.706 170.053 338.719 177.853 312.855C186.064 285.76 197.148 256.817 205.77 239.368L211.722 227.668L227.733 233.415C246.208 240.189 281.72 250.247 304.71 255.38C319.489 258.459 320.721 259.074 319.695 263.179C311.895 291.302 300.81 361.71 297.731 403.79C295.063 439.915 294.447 442.994 290.957 442.994C289.52 442.994 277.204 440.738 263.656 438.07ZM887.06 381.21C878.438 333.177 861.607 277.959 844.364 241.216L836.154 223.768L851.552 215.967C859.968 211.452 872.286 203.651 879.056 198.314L890.962 188.666L903.692 204.472C931.196 238.547 960.962 289.66 976.559 330.303L983.747 349.188L978 355.141C970.812 362.736 951.312 376.695 935.709 385.521C922.78 392.706 892.807 406.253 891.785 405.227C891.374 405.022 889.323 394.143 887.06 381.21ZM121.609 394.553C99.8499 384.289 72.3437 366.636 62.2854 356.167L55.5117 349.188L62.6962 330.303C78.2963 289.66 108.061 238.547 135.567 204.472L148.294 188.666L160.405 198.314C166.973 203.651 179.29 211.452 187.911 215.967L203.307 223.768L198.174 234.236C178.674 272.417 159.789 335.845 149.32 398.247C147.678 407.075 149.525 407.28 121.609 394.553ZM463.179 255.79C466.053 228.489 472.622 169.987 474.058 160.749L475.495 150.486H519.631H563.76L565.201 160.749C566.634 169.987 573.205 228.489 576.079 255.79L577.107 266.464H519.631H462.153L463.179 255.79ZM583.466 238.342C582.032 223.768 579.158 197.904 576.902 180.661C574.844 163.418 572.999 148.844 572.999 148.433C572.999 147.818 577.306 147.407 582.649 147.407C590.859 147.407 613.85 144.328 657.368 137.76L664.549 136.733L672.965 154.797C686.922 185.177 708.891 248.4 706.216 250.863C703.342 253.737 622.883 263.795 599.481 264.206L585.928 264.411L583.466 238.342ZM403.035 261.332C371.629 258.048 334.68 252.506 333.037 250.863C330.369 248.4 352.333 185.177 366.291 154.797L374.707 136.733L381.892 137.76C425.409 144.328 448.4 147.407 456.405 147.407C461.948 147.407 466.258 147.818 466.258 148.433C466.258 148.844 464.411 163.418 462.358 180.661C460.1 197.904 457.226 223.768 455.789 238.342L453.326 264.411H443.268C437.725 264.411 419.662 262.974 403.035 261.332ZM715.866 247.579C700.88 198.725 691.648 173.476 674.405 136.117C673.994 134.886 681.175 131.806 690.619 129.343C700.064 126.675 715.455 121.338 725.105 117.643L742.348 110.664L749.323 117.232C768.418 135.296 800.846 178.608 817.272 207.551L823.836 219.251L817.067 222.125C804.131 227.463 763.082 239.779 741.319 244.705C715.249 250.863 716.689 250.658 715.866 247.579ZM291.573 243.063C270.019 237.931 226.502 224.589 219.318 220.894C215.828 219.251 216.239 218.225 222.192 207.346C239.024 177.787 270.84 135.296 289.931 117.232L296.91 110.664L314.153 117.643C323.8 121.338 339.196 126.675 348.638 129.343C358.081 131.806 365.265 134.886 364.854 136.117C347.611 173.476 338.785 197.493 323.39 247.579C322.979 249.016 320.721 249.632 318.052 249.221C315.384 248.605 303.478 245.937 291.573 243.063ZM825.276 203.446C809.268 174.708 776.216 130.78 757.944 113.742C754.46 110.253 751.586 107.174 751.586 106.353C751.586 105.121 771.292 89.931 773.136 89.931C775.393 89.931 810.496 114.358 826.511 127.085C847.032 143.301 882.958 177.992 882.958 181.482C882.958 182.919 879.261 187.024 874.543 190.514C866.333 197.083 836.154 215.146 833.486 215.146C832.663 215.146 828.973 209.809 825.276 203.446ZM188.732 206.114C169.847 195.441 156.3 184.972 156.3 181.277C156.3 173.681 225.27 114.564 255.65 96.2945L267.146 89.5208L277.409 97.3213C282.952 101.632 287.672 105.532 287.672 105.943C287.672 106.353 281.104 113.948 272.893 122.57C254.419 142.275 234.302 169.371 218.907 195.235C212.338 206.114 206.386 215.146 205.565 215.146C204.949 215.146 197.353 211.041 188.732 206.114ZM484.938 140.017C477.138 138.375 477.138 137.965 483.911 104.506C490.07 73.92 500.949 40.0503 508.339 28.5551C512.444 21.7814 514.7 20.1394 519.631 20.1394C524.556 20.1394 526.812 21.7814 530.921 28.5551C538.308 40.0503 549.186 73.92 555.345 104.506C561.915 136.528 561.915 138.581 555.962 139.812C548.568 141.249 491.917 141.454 484.938 140.017ZM566.223 112.1C559.453 77.8205 552.059 51.7512 544.055 34.7135C540.77 27.529 538.308 21.3706 538.719 20.9604C538.925 20.7553 546.106 22.6024 554.316 25.4762C589.83 37.3822 622.677 67.3514 650.798 113.127C655.311 120.517 658.39 127.085 657.567 127.495C653.877 129.754 594.35 138.17 577.924 138.991L571.765 139.196L566.223 112.1ZM442.652 137.144C421.919 134.886 383.945 128.932 381.687 127.495C380.865 127.085 383.945 120.517 388.461 113.127C416.583 67.3514 449.426 37.3822 484.938 25.4762C493.149 22.6024 500.333 20.7553 500.538 20.9604C500.949 21.3706 498.485 27.529 495.201 34.7135C487.196 51.7512 479.806 77.8205 473.032 112.1C468.721 133.038 466.874 139.196 464.411 139.196C462.564 139.196 452.71 138.17 442.652 137.144ZM660.852 111.69C642.999 80.8994 613.232 47.6456 589.83 32.4556C583.877 28.7608 579.158 25.4762 579.158 25.2711C579.158 24.2444 603.788 30.6079 618.98 35.5345C652.231 46.4138 695.75 70.8411 722.437 93.6265C728.39 98.5524 732.698 103.479 731.676 104.506C727.773 108.201 679.536 124.417 671.531 124.622C669.68 124.827 664.961 119.08 660.852 111.69ZM340.427 117.232C331.6 114.564 320.105 110.458 314.973 108.201C303.889 103.479 304.094 103.069 326.674 85.826C345.969 71.252 370.397 56.4721 389.487 47.6456C406.319 40.0503 438.752 29.171 450.863 27.1182L459.074 25.887L444.705 35.9453C420.893 52.9824 392.155 86.2362 376.349 115.179C371.218 124.827 370.808 125.033 363.828 123.801C359.723 122.98 349.254 120.106 340.427 117.232ZM730.853 88.9049C714.227 74.741 691.648 59.7568 668.658 47.4406C646.278 35.5345 648.946 35.3294 680.557 46.2087C707.862 55.6511 751.792 75.7677 761.641 83.1573C763.898 84.7993 747.478 98.1423 742.965 98.1423C742.348 98.1423 736.806 94.0366 730.853 88.9049ZM284.388 91.1628C280.078 87.2629 276.793 83.7732 277.409 83.3624C288.288 74.1258 372.244 38.6134 382.713 38.6134C384.15 38.6134 378.197 42.5139 369.781 47.0297C349.664 57.909 324.622 74.741 309.226 87.6731C302.452 93.4207 295.884 98.1423 294.652 98.1423C293.42 98.1423 288.904 95.0634 284.388 91.1628Z" fill="black" fill-opacity="0.1"/>
<path d="M719.918 745.776C721.29 745.776 722.662 745.776 723.347 745.776C724.719 746.462 726.091 747.148 727.463 747.833C730.892 777.326 716.489 826.023 695.227 839.054C692.483 837.683 689.054 836.311 686.31 834.939C685.624 829.452 686.996 786.928 689.054 782.127C696.598 767.724 713.745 767.038 719.918 745.776ZM915.391 505.728C917.449 506.414 919.507 507.099 921.564 507.785C924.994 516.702 926.365 526.304 922.25 533.848C920.193 533.848 918.135 533.848 916.077 534.534C916.077 533.848 916.077 533.162 916.077 531.791C912.648 525.618 913.334 511.9 915.391 505.728ZM988.094 481.036C990.152 482.408 991.523 483.094 993.581 484.466C993.581 487.209 992.895 490.638 992.895 493.382C992.209 493.382 992.209 493.382 991.523 493.382C990.152 493.382 988.78 493.382 988.094 493.382C988.094 492.696 988.094 492.01 988.094 490.638C987.408 488.581 986.722 486.523 986.036 484.466C986.722 483.78 987.408 482.408 988.094 481.036ZM994.267 379.524C992.895 387.068 995.638 391.869 997.01 399.414C997.696 399.414 997.696 399.414 998.382 399.414C997.01 392.555 995.638 386.382 994.267 379.524ZM485.35 392.555C483.292 395.985 480.549 398.728 478.491 402.158C479.177 403.529 479.863 404.901 479.863 405.587C480.549 405.587 481.235 406.273 482.606 406.273C483.978 405.587 484.664 405.587 486.036 404.901C487.408 402.158 488.779 398.728 490.151 395.985C490.151 395.299 490.151 394.614 490.151 393.242C488.779 393.242 487.408 392.555 485.35 392.555ZM315.254 385.697C315.254 387.068 315.254 389.126 315.94 390.498C317.311 390.498 319.369 390.498 320.741 389.813C320.741 388.441 320.741 386.383 320.055 385.011C318.683 385.011 317.311 385.011 315.254 385.697ZM522.387 338.371C523.759 338.371 525.816 338.371 527.188 337.686C527.188 339.057 527.188 340.43 527.188 341.115C527.188 341.801 526.502 343.173 526.502 343.858C525.816 343.858 525.816 343.858 525.13 343.858C524.445 343.858 523.759 343.858 522.387 343.858C522.387 342.487 522.387 340.429 522.387 338.371ZM365.322 342.487C374.239 341.115 377.668 341.115 381.783 345.916C381.783 347.288 381.097 348.66 381.097 350.031C380.412 350.717 379.726 350.718 379.04 351.403C371.495 351.403 368.752 349.345 364.637 345.23C364.637 344.544 365.322 343.173 365.322 342.487ZM335.144 323.968C336.516 323.968 338.573 323.968 339.945 323.282C340.631 324.654 341.317 326.026 341.317 326.712C339.945 330.141 338.573 333.57 337.202 337C336.516 337 335.83 337 334.458 337C334.458 337 334.458 337 333.772 336.314C334.458 332.199 334.458 328.083 335.144 323.968ZM335.144 311.622C337.888 312.994 335.83 311.622 337.888 313.68C337.202 312.995 336.516 312.308 335.144 311.622ZM536.79 230.69C530.617 234.805 524.445 238.234 517.586 242.349C517.586 243.035 517.586 243.035 517.586 243.721C518.958 247.151 520.329 249.894 522.387 253.323C521.701 254.009 521.015 254.009 520.329 254.695C517.586 255.381 514.842 256.067 511.413 256.753C507.984 249.208 500.439 240.978 491.523 244.407C480.549 249.894 471.633 270.47 469.575 283.502C474.376 286.931 476.434 288.303 474.376 293.104C473.004 295.848 471.633 296.533 469.575 298.591C469.575 299.277 469.575 299.963 469.575 301.334C470.947 302.02 471.633 302.02 471.633 302.706C488.779 299.277 499.067 284.873 514.842 279.387C535.419 272.528 563.539 291.046 577.257 269.098C577.257 267.727 577.257 266.355 577.257 265.669C564.911 260.182 551.879 254.696 539.534 248.522C538.848 243.721 541.591 240.292 541.591 230.69C540.22 230.69 538.848 230.69 536.79 230.69ZM630.755 204.627C619.781 214.229 610.179 219.03 600.576 229.318C601.262 238.92 602.634 240.292 606.749 245.093C618.409 252.638 629.383 259.496 641.043 267.041C641.043 268.413 640.357 270.47 640.357 271.842C635.556 273.9 635.556 272.528 633.498 277.329C637.613 282.13 641.043 287.617 644.472 292.418C660.247 293.104 670.535 297.219 684.253 288.989C684.253 287.617 684.253 286.245 684.253 285.559C677.394 278.701 672.593 271.156 665.048 264.983C665.048 263.611 665.048 262.24 665.048 261.554C667.106 259.496 669.849 258.124 671.907 256.067C669.849 254.009 670.535 254.009 667.792 252.638C654.76 249.208 637.613 244.407 633.498 230.69C636.242 230.69 638.299 230.004 641.043 230.004C644.472 230.69 647.902 231.376 651.331 231.376C654.074 227.946 657.504 224.517 660.247 220.402C660.247 219.716 660.247 219.716 660.247 219.03C651.331 210.799 646.53 204.627 630.755 204.627ZM261.07 226.574C263.128 226.574 265.185 226.574 267.243 225.889C267.243 227.26 267.243 229.318 267.929 230.69C259.698 238.92 260.384 247.836 245.981 252.638C245.981 251.952 245.981 251.952 245.981 251.266C250.096 243.035 257.641 235.491 261.07 226.574ZM272.044 254.695C271.358 241.664 276.845 238.92 282.332 231.376C279.588 223.145 274.787 220.402 278.217 210.799C280.274 208.056 282.332 204.626 285.075 201.883C285.761 201.883 286.447 201.883 287.819 201.883C288.505 202.569 289.877 203.255 290.562 203.941C289.191 218.344 299.479 238.92 298.793 240.292C297.421 245.093 296.049 247.151 291.934 249.894C285.075 250.58 278.903 252.638 272.044 254.695ZM265.185 160.045C267.243 160.045 269.3 160.045 271.358 159.359C271.358 160.731 270.672 162.788 270.672 164.16C263.813 167.589 256.269 171.019 249.41 174.448C248.724 173.762 248.724 173.076 248.038 172.391C248.038 171.705 248.724 171.019 248.724 169.647C254.211 166.904 259.698 163.474 265.185 160.045ZM471.633 138.097C470.261 142.212 470.261 140.84 470.947 145.642C471.633 146.327 473.004 147.013 473.69 147.699C476.434 147.013 479.177 146.327 481.921 145.642C481.921 144.27 481.921 142.212 481.235 140.84C480.549 140.155 479.177 139.469 478.491 138.783C477.12 138.097 474.376 138.097 471.633 138.097ZM649.273 69.5098C649.273 71.5674 649.959 73.625 649.959 75.6826C651.331 76.3685 652.703 77.0544 654.074 77.7403C654.76 77.0544 655.446 75.6826 656.132 74.9968C653.388 72.2533 653.388 70.8815 649.273 69.5098ZM419.506 67.4522C423.621 69.5098 421.564 67.4522 423.622 72.2533C420.878 74.3109 418.135 76.3685 415.391 77.7403C405.103 74.3109 414.019 70.8815 419.506 67.4522ZM565.597 50.3054C568.34 50.9913 571.77 51.6771 574.513 52.363C574.513 53.0489 573.827 54.4206 573.827 55.1065C568.34 57.85 566.283 59.9076 563.539 64.7087C564.911 68.1381 566.283 70.8815 568.34 74.3109C567.655 74.3109 567.655 74.3109 566.969 74.3109C562.853 73.625 558.738 72.2533 554.623 71.5674C553.251 58.5358 559.424 57.1641 565.597 50.3054ZM647.902 31.7869C644.472 32.4727 643.786 41.3891 642.415 46.1902C640.357 53.7347 637.613 55.1065 630.755 58.5358C624.582 57.1641 619.095 56.4782 612.922 55.1065C611.55 56.4782 610.864 57.85 609.493 59.2217C611.55 65.3946 613.608 66.0804 616.351 69.5098C591.66 80.4837 564.911 81.8555 542.277 96.9447C538.848 94.8871 535.419 92.8294 531.989 90.086C529.932 93.5153 529.932 94.887 531.303 99.0023C522.387 107.233 508.67 111.348 500.439 120.264C492.209 119.578 489.465 116.835 484.664 112.72C484.664 111.348 484.664 109.29 483.978 107.919C493.58 106.547 503.868 105.175 513.471 104.489C513.471 102.432 512.785 100.374 512.785 98.3164C429.108 77.7403 387.956 134.668 337.888 167.589C337.888 174.448 337.202 180.621 337.202 187.48C348.861 185.422 349.547 179.935 359.835 176.506C360.521 176.506 360.521 176.506 361.207 176.506C363.951 182.679 366.694 188.851 368.752 194.338C369.438 195.71 370.124 197.082 370.124 197.768C388.642 191.595 385.899 173.076 400.988 166.218C398.93 158.673 397.558 160.045 394.815 154.558C399.616 143.584 420.878 123.008 434.595 120.264C435.281 120.264 435.281 120.264 435.967 120.264C436.653 121.636 438.025 122.322 438.711 123.694C434.595 132.61 424.993 135.353 420.192 144.27C420.192 147.699 420.878 151.129 420.878 153.872C433.224 157.987 444.198 149.757 457.915 147.013C458.601 148.385 459.973 149.071 460.659 150.443C455.172 157.301 444.198 156.615 435.281 161.417C432.538 164.846 433.91 168.275 435.281 175.134C430.48 175.82 426.365 175.82 421.564 176.506C416.077 180.621 411.276 195.71 407.161 201.197C385.213 202.569 375.61 210.799 352.291 213.543C346.804 205.998 349.547 203.941 352.977 195.71C352.291 195.024 352.291 194.338 351.605 193.653C350.233 193.653 348.862 193.653 348.176 193.653C343.375 201.197 343.374 205.998 344.06 216.286C322.112 230.69 289.877 269.784 263.813 272.528C263.128 273.9 262.442 275.271 261.756 276.643C267.243 280.758 270.672 282.816 275.473 288.989C274.101 296.533 272.73 304.078 271.358 311.622C260.384 319.167 241.865 317.795 230.206 323.968C227.462 344.544 222.661 354.147 224.719 375.409C233.635 375.409 234.321 379.524 239.122 380.21C263.813 385.011 269.986 350.031 276.845 338.371C283.704 326.712 293.992 320.539 300.165 306.821C306.337 306.136 312.51 305.45 318.683 305.45C326.228 302.706 328.971 294.476 338.573 291.046C347.49 298.591 383.155 321.911 385.213 330.827C385.899 331.513 386.584 331.513 387.956 332.199C390.7 326.712 391.386 326.712 387.956 321.225C390.014 317.109 390.014 317.795 394.815 315.738C395.501 315.052 395.501 313.68 396.187 312.994C380.412 306.136 362.579 300.649 356.406 282.816C357.092 281.444 357.778 280.072 358.464 278.701C360.521 278.015 362.579 276.643 364.637 275.957C379.726 282.131 392.757 293.104 409.218 299.963C413.333 319.167 423.621 321.911 429.794 339.057C430.48 339.057 431.852 339.743 432.538 340.429C433.91 340.429 435.967 340.429 437.339 339.743C439.397 332.199 440.082 330.827 443.512 325.34C438.711 319.853 435.967 318.481 434.595 308.879C442.826 304.078 445.569 299.963 458.601 299.277C468.889 317.109 470.947 331.513 494.266 334.942C496.324 332.199 499.067 329.455 501.125 326.712C507.984 328.083 514.842 328.769 521.015 330.141C528.56 328.083 529.246 322.596 541.591 321.225C547.078 335.628 546.393 353.461 540.22 367.178C532.675 382.267 524.445 372.665 510.727 376.094C503.183 378.152 502.497 385.697 491.523 385.011C473.004 384.325 445.569 374.723 431.166 378.838C427.737 381.582 424.993 384.325 421.564 387.068C421.564 392.555 421.564 392.556 423.622 396.671C421.564 399.415 419.506 402.843 416.763 406.273C410.59 405.587 392.757 403.53 386.584 400.101C383.155 397.356 380.412 393.927 376.982 391.184C361.893 387.754 356.406 391.184 344.06 386.383C344.746 376.095 345.432 369.922 345.432 361.005C342.689 358.948 339.945 357.576 337.202 355.518C324.17 364.435 307.709 362.377 293.306 367.864C272.044 376.094 267.243 391.184 237.75 391.184C231.577 398.728 219.918 413.131 216.488 421.362C215.116 431.65 213.745 441.256 213.059 451.544C207.572 457.717 201.399 463.889 195.912 470.748C191.111 489.267 186.31 507.099 181.509 525.618C184.252 535.906 187.682 546.194 190.425 555.796C191.111 568.828 191.797 582.545 192.483 595.577C204.143 630.549 239.808 664.157 269.3 679.246C274.787 676.503 280.274 673.073 285.761 670.33C291.934 670.33 298.107 671.016 304.28 671.016C328.971 664.843 333.772 633.979 361.207 667.586C368.066 666.215 374.239 664.843 381.097 663.471C404.417 677.189 387.27 696.393 401.674 714.226C415.391 732.058 438.711 741.661 451.742 760.865C456.543 767.724 464.774 780.07 466.146 785.556C468.889 795.159 463.402 808.876 467.517 820.536C473.69 834.939 550.508 898.725 566.969 905.584C630.755 894.61 602.634 864.432 632.812 843.856C634.184 832.196 629.383 827.395 626.64 817.106C634.87 804.761 657.504 792.415 660.933 778.012C669.164 738.917 628.011 721.77 645.158 680.618C666.42 631.235 719.918 603.121 715.117 531.105C714.431 530.419 713.059 529.733 712.373 529.047C695.227 537.278 678.08 545.508 660.933 553.053C650.645 544.822 654.074 542.079 646.53 533.162C634.184 525.618 621.153 518.073 608.121 509.843C605.377 503.67 601.948 496.811 599.205 490.638C594.404 486.523 589.602 483.094 584.801 479.665C581.372 471.434 578.629 462.518 575.199 454.287C558.738 436.455 541.591 415.189 526.502 394.613C526.502 393.927 526.502 393.927 526.502 393.242C531.989 394.614 534.047 398.042 537.476 402.158C540.22 400.786 542.963 399.414 545.707 397.356C562.168 413.131 577.943 428.907 594.404 444.685C595.089 449.486 595.775 453.601 596.461 458.402C604.006 470.748 624.582 480.35 634.184 492.696C638.985 505.728 643.786 518.759 648.587 531.105C657.504 537.278 678.08 516.702 683.567 513.272C717.175 491.324 754.897 459.088 760.384 417.247C761.07 403.53 734.321 402.843 728.148 388.44C726.091 388.44 724.033 387.754 721.976 387.754C719.232 394.613 717.175 400.786 711.002 404.901C706.201 406.273 702.085 407.645 697.284 408.33C696.598 408.33 696.598 408.33 695.913 408.33C693.169 404.215 691.797 402.843 691.111 395.299C685.625 393.927 686.31 396.671 681.509 395.985C671.907 386.382 662.305 376.78 652.703 367.178C652.703 365.806 652.703 363.749 652.017 362.377C656.132 360.319 660.247 358.262 663.677 356.204C683.567 370.607 696.598 387.068 724.719 373.351C752.154 393.927 764.5 382.267 799.479 374.723C808.396 380.21 824.857 390.498 826.914 403.53C832.401 406.959 832.401 409.702 841.317 409.702C843.375 406.959 846.118 404.215 848.176 401.472C852.977 417.247 858.464 433.022 863.265 448.8C871.496 468.691 885.899 487.895 891.386 512.586C892.758 513.951 894.13 514.644 895.501 516.016C896.873 516.016 898.245 516.016 898.931 516.016C905.103 502.984 911.962 486.523 908.533 465.261C907.161 458.402 905.789 452.23 904.418 445.371C907.161 430.965 921.564 409.702 926.365 394.613C926.365 389.812 926.365 385.697 926.365 380.896C931.167 377.466 936.654 373.351 941.455 369.922C944.884 382.953 952.429 388.44 957.916 399.414C959.287 406.273 960.659 412.446 962.031 419.304C962.717 420.676 964.088 421.362 964.774 422.734C966.146 421.362 968.204 419.99 969.575 418.618C970.261 419.304 971.633 419.304 972.319 419.99C975.062 431.65 977.806 443.313 980.549 455.659C981.235 456.345 982.607 456.345 983.293 457.031C985.35 452.915 984.664 451.544 990.151 448.8C991.523 459.088 994.267 468.005 1003.18 466.633C1004.55 497.497 1005.24 535.906 997.696 561.969C997.696 562.655 997.696 563.341 997.696 564.713C997.01 565.398 996.324 565.398 995.638 566.084C994.267 557.854 992.895 549.623 990.837 541.393C992.895 541.393 994.953 540.707 997.01 540.707C998.382 529.047 997.696 512.586 994.953 499.555C992.209 499.555 990.151 498.869 987.408 498.869C988.094 508.471 988.094 518.073 988.78 527.676C988.094 527.676 988.094 527.676 987.408 527.676C985.35 524.246 983.293 521.503 981.921 518.073C980.549 518.073 979.178 517.387 977.806 517.387C970.261 530.419 986.722 554.425 984.665 571.571C983.979 580.488 983.979 589.404 983.293 597.634C984.664 600.378 986.036 603.121 987.408 605.865L989.466 615.467L998.382 609.294C1026.5 508.471 1010.04 365.806 964.088 278.015C905.789 162.102 797.422 61.2793 647.902 31.7869Z" fill="#8E8E8E"/>
<path d="M1000.19 1219.43H805.267C801.422 1219.43 798.306 1222.55 798.306 1226.4C798.306 1230.24 801.422 1233.36 805.267 1233.36H1000.19C1004.04 1233.36 1007.15 1230.24 1007.15 1226.4C1007.15 1222.55 1004.04 1219.43 1000.19 1219.43Z" fill="url(#paint1_linear_112_115)"/>
<defs>
<filter id="filter0_d_112_115" x="0" y="0.9021" width="1040" height="1039.99" filterUnits="userSpaceOnUse" color-interpolation-filters="sRGB">
<feFlood flood-opacity="0" result="BackgroundImageFix"/>
<feColorMatrix in="SourceAlpha" type="matrix" values="0 0 0 0 0 0 0 0 0 0 0 0 0 0 0 0 0 0 127 0" result="hardAlpha"/>
<feOffset dy="10"/>
<feGaussianBlur stdDeviation="10"/>
<feComposite in2="hardAlpha" operator="out"/>
<feColorMatrix type="matrix" values="0 0 0 0 0 0 0 0 0 0 0 0 0 0 0 0 0 0 0.1 0"/>
<feBlend mode="normal" in2="BackgroundImageFix" result="effect1_dropShadow_112_115"/>
<feBlend mode="normal" in="SourceGraphic" in2="effect1_dropShadow_112_115" result="shape"/>
</filter>
<radialGradient id="paint0_radial_112_115" cx="0" cy="0" r="1" gradientUnits="userSpaceOnUse" gradientTransform="translate(519.999 510.899) rotate(90) scale(499.997 499.999)">
<stop offset="0.652428" stop-color="white" stop-opacity="0"/>
<stop offset="1" stop-color="#D7D7D7"/>
</radialGradient>
<linearGradient id="paint1_linear_112_115" x1="798.306" y1="1226.4" x2="1007.15" y2="1226.4" gradientUnits="userSpaceOnUse">
<stop offset="0.333333" stop-color="#009246"/>
<stop offset="0.333334" stop-color="white"/>
<stop offset="0.666666" stop-color="white"/>
<stop offset="0.666667" stop-color="#FF0000"/>
</linearGradient>
</defs>
</svg>
