<svg width="1000" height="1017" viewBox="0 0 1000 1017" fill="none" xmlns="http://www.w3.org/2000/svg">
<path d="M120.29 1016.15C119.167 1016.15 118.332 1015.89 117.783 1015.37C117.261 1014.82 117 1013.98 117 1012.86V966.409C117 965.26 117.261 964.425 117.783 963.903C118.332 963.38 119.167 963.119 120.29 963.119C121.439 963.119 122.274 963.38 122.797 963.903C123.319 964.425 123.58 965.26 123.58 966.409V1012.86C123.58 1013.98 123.319 1014.82 122.797 1015.37C122.274 1015.89 121.439 1016.15 120.29 1016.15ZM143.162 1016.15C140.969 1016.15 139.872 1015.05 139.872 1012.86V966.331C139.872 964.138 140.969 963.041 143.162 963.041C144.598 963.041 145.799 963.746 146.766 965.156L165.252 992.964L163.842 993.199L182.485 965.156C183.373 963.746 184.704 963.041 186.48 963.041C188.256 963.041 189.143 964.138 189.143 966.331V1012.86C189.143 1015.05 188.046 1016.15 185.853 1016.15C183.66 1016.15 182.563 1015.05 182.563 1012.86V972.911L184.6 973.616L168.15 997.82C167.184 999.23 165.853 999.935 164.155 999.935C162.98 999.935 161.91 999.23 160.944 997.82L144.494 973.616L146.452 974.164V1012.86C146.452 1015.05 145.356 1016.15 143.162 1016.15ZM208.719 1016.15C206.526 1016.15 205.429 1015.05 205.429 1012.86V966.331C205.429 964.138 206.526 963.041 208.719 963.041H227.049C231.827 963.041 235.483 964.32 238.016 966.879C240.575 969.412 241.854 973.067 241.854 977.846V980.196C241.854 984.974 240.575 988.642 238.016 991.201C235.483 993.734 231.827 995 227.049 995H212.009V1012.86C212.009 1015.05 210.913 1016.15 208.719 1016.15ZM212.009 988.42H227.049C230.026 988.42 232.141 987.794 233.394 986.54C234.647 985.287 235.274 983.172 235.274 980.196V977.846C235.274 974.895 234.647 972.793 233.394 971.54C232.141 970.26 230.026 969.621 227.049 969.621H212.009V988.42ZM269.136 1016.15C263.156 1016.15 258.731 1014.73 255.858 1011.88C253.012 1009.01 251.589 1004.58 251.589 998.604V980.509C251.589 974.477 253.025 970.052 255.898 967.232C258.77 964.386 263.183 962.989 269.136 963.041H278.536C284.541 963.041 288.967 964.464 291.813 967.31C294.659 970.156 296.082 974.582 296.082 980.587V998.604C296.082 1004.58 294.659 1009.01 291.813 1011.88C288.967 1014.73 284.541 1016.15 278.536 1016.15H269.136ZM269.136 1009.57H278.536C281.329 1009.57 283.523 1009.24 285.115 1008.59C286.708 1007.91 287.831 1006.78 288.483 1005.18C289.163 1003.59 289.502 1001.4 289.502 998.604V980.587C289.502 977.819 289.163 975.639 288.483 974.047C287.831 972.454 286.708 971.318 285.115 970.639C283.523 969.96 281.329 969.621 278.536 969.621H269.136C266.368 969.595 264.188 969.908 262.595 970.561C261.002 971.214 259.866 972.336 259.188 973.929C258.508 975.522 258.169 977.715 258.169 980.509V998.604C258.169 1001.4 258.496 1003.59 259.148 1005.18C259.827 1006.78 260.963 1007.91 262.556 1008.59C264.148 1009.24 266.342 1009.57 269.136 1009.57ZM344.611 1016.31C343.75 1016.85 342.927 1017.02 342.144 1016.82C341.361 1016.61 340.695 1016.07 340.146 1015.21L328.005 995H317.039V1012.86C317.039 1015.05 315.942 1016.15 313.749 1016.15C311.555 1016.15 310.459 1015.05 310.459 1012.86V966.331C310.459 964.138 311.555 963.041 313.749 963.041H332.078C336.857 963.041 340.512 964.32 343.045 966.879C345.604 969.412 346.883 973.067 346.883 977.846V980.196C346.883 984.347 345.917 987.663 343.985 990.144C342.053 992.598 339.259 994.126 335.603 994.726L345.865 1011.84C346.857 1013.67 346.439 1015.16 344.611 1016.31ZM317.039 988.42H332.078C335.055 988.42 337.17 987.794 338.423 986.54C339.676 985.287 340.303 983.172 340.303 980.196V977.846C340.303 974.895 339.676 972.793 338.423 971.54C337.17 970.26 335.055 969.621 332.078 969.621H317.039V988.42ZM373.788 1016.15C372.691 1016.15 371.869 1015.88 371.32 1015.33C370.772 1014.78 370.498 1013.96 370.498 1012.86V969.699H355.301C354.205 969.699 353.382 969.425 352.834 968.877C352.286 968.328 352.011 967.506 352.011 966.409C352.011 965.312 352.286 964.49 352.834 963.942C353.382 963.393 354.205 963.119 355.301 963.119H392.274C393.371 963.119 394.193 963.393 394.742 963.942C395.29 964.49 395.564 965.312 395.564 966.409C395.564 967.506 395.29 968.328 394.742 968.877C394.193 969.425 393.371 969.699 392.274 969.699H377.078V1012.86C377.078 1013.9 376.791 1014.71 376.216 1015.29C375.668 1015.86 374.858 1016.15 373.788 1016.15ZM433.924 1016.15C431.731 1016.15 430.634 1015.05 430.634 1012.86V966.331C430.634 964.138 431.731 963.041 433.924 963.041H462.045C464.239 963.041 465.335 964.138 465.335 966.331C465.335 968.524 464.239 969.621 462.045 969.621H437.214V986.07H452.802C454.995 986.07 456.092 987.167 456.092 989.36C456.092 991.554 454.995 992.65 452.802 992.65H437.214V1009.57H462.045C464.239 1009.57 465.335 1010.67 465.335 1012.86C465.335 1015.05 464.239 1016.15 462.045 1016.15H433.924ZM476.422 1015.44C474.673 1014.24 474.412 1012.7 475.639 1010.82L489.974 989.674L474.856 968.367C473.681 966.644 473.968 965.104 475.717 963.746C477.519 962.519 479.034 962.806 480.261 964.607L494.282 984.269L508.382 964.607C509.741 962.858 511.253 962.623 512.926 963.903C514.7 965.208 514.962 966.722 513.709 968.446L498.277 989.909L513.082 1010.75C514.308 1012.55 514.022 1014.11 512.22 1015.44C510.419 1016.67 508.903 1016.38 507.677 1014.58L494.047 995.392L481.044 1014.66C479.843 1016.36 478.302 1016.62 476.422 1015.44ZM530.155 1016.15C527.961 1016.15 526.865 1015.05 526.865 1012.86V966.331C526.865 964.138 527.961 963.041 530.155 963.041H548.484C553.263 963.041 556.921 964.32 559.451 966.879C562.012 969.412 563.289 973.067 563.289 977.846V980.196C563.289 984.974 562.012 988.642 559.451 991.201C556.921 993.734 553.263 995 548.484 995H533.445V1012.86C533.445 1015.05 532.348 1016.15 530.155 1016.15ZM533.445 988.42H548.484C551.461 988.42 553.576 987.794 554.829 986.54C556.083 985.287 556.709 983.172 556.709 980.196V977.846C556.709 974.895 556.083 972.793 554.829 971.54C553.576 970.26 551.461 969.621 548.484 969.621H533.445V988.42ZM590.572 1016.15C584.591 1016.15 580.166 1014.73 577.295 1011.88C574.447 1009.01 573.026 1004.58 573.026 998.604V980.509C573.026 974.477 574.463 970.052 577.334 967.232C580.205 964.386 584.619 962.989 590.572 963.041H599.972C605.976 963.041 610.402 964.464 613.249 967.31C616.097 970.156 617.518 974.582 617.518 980.587V998.604C617.518 1004.58 616.097 1009.01 613.249 1011.88C610.402 1014.73 605.976 1016.15 599.972 1016.15H590.572ZM590.572 1009.57H599.972C602.764 1009.57 604.958 1009.24 606.552 1008.59C608.146 1007.91 609.266 1006.78 609.92 1005.18C610.598 1003.59 610.938 1001.4 610.938 998.604V980.587C610.938 977.819 610.598 975.639 609.92 974.047C609.266 972.454 608.146 971.318 606.552 970.639C604.958 969.96 602.764 969.621 599.972 969.621H590.572C587.803 969.595 585.625 969.908 584.031 970.561C582.437 971.214 581.302 972.336 580.624 973.929C579.946 975.522 579.606 977.715 579.606 980.509V998.604C579.606 1001.4 579.931 1003.59 580.585 1005.18C581.262 1006.78 582.398 1007.91 583.992 1008.59C585.586 1009.24 587.78 1009.57 590.572 1009.57ZM666.049 1016.31C665.187 1016.85 664.365 1017.02 663.581 1016.82C662.798 1016.61 662.132 1016.07 661.584 1015.21L649.443 995H638.476V1012.86C638.476 1015.05 637.379 1016.15 635.186 1016.15C632.993 1016.15 631.896 1015.05 631.896 1012.86V966.331C631.896 964.138 632.993 963.041 635.186 963.041H653.516C658.294 963.041 661.948 964.32 664.482 966.879C667.04 969.412 668.321 973.067 668.321 977.846V980.196C668.321 984.347 667.353 987.663 665.422 990.144C663.491 992.598 660.695 994.126 657.041 994.726L667.302 1011.84C668.293 1013.67 667.878 1015.16 666.049 1016.31ZM638.476 988.42H653.516C656.492 988.42 658.607 987.794 659.861 986.54C661.114 985.287 661.741 983.172 661.741 980.196V977.846C661.741 974.895 661.114 972.793 659.861 971.54C658.607 970.26 656.492 969.621 653.516 969.621H638.476V988.42ZM695.224 1016.15C694.127 1016.15 693.305 1015.88 692.756 1015.33C692.208 1014.78 691.934 1013.96 691.934 1012.86V969.699H676.737C675.641 969.699 674.818 969.425 674.27 968.877C673.722 968.328 673.447 967.506 673.447 966.409C673.447 965.312 673.722 964.49 674.27 963.942C674.818 963.393 675.641 963.119 676.737 963.119H713.71C714.807 963.119 715.629 963.393 716.178 963.942C716.726 964.49 717 965.312 717 966.409C717 967.506 716.726 968.328 716.178 968.877C715.629 969.425 714.807 969.699 713.71 969.699H698.514V1012.86C698.514 1013.9 698.228 1014.71 697.652 1015.29C697.104 1015.86 696.297 1016.15 695.224 1016.15Z" fill="#8E8E8E"/>
<path d="M428.114 3.67852C416.142 7.93088 415.495 9.86379 412.583 55.48C409.023 109.988 409.347 109.601 387.02 63.5983C376.018 41.1767 366.311 21.8477 365.34 21.0745C362.428 17.5953 330.07 30.739 331.688 34.6048C332.982 36.5377 336.541 38.084 339.777 38.084C346.249 38.084 346.572 38.8572 354.338 93.7515C360.486 136.275 360.486 133.569 352.397 136.661C348.19 138.208 346.896 140.914 348.514 142.847C351.75 146.713 385.078 139.367 385.078 134.728C385.078 133.182 381.519 130.089 377.312 127.77C370.841 124.291 368.899 118.879 364.369 87.5663C361.457 67.8505 358.221 49.2948 357.574 46.5887C354.015 33.8317 360.81 45.8156 381.842 88.3392C401.581 128.157 405.464 134.342 410.641 131.25C415.171 128.157 417.113 118.106 420.349 74.8091C422.614 45.8156 425.203 23.0075 426.173 24.1672C426.82 24.9404 431.35 44.2693 435.557 67.0776C441.705 99.55 442.675 109.601 439.763 113.854C433.615 122.745 438.469 124.291 457.56 118.879C477.299 113.854 480.211 109.987 467.591 106.122C457.884 103.029 456.266 98.7766 446.559 50.0677C439.763 16.8222 439.44 13.7296 444.617 10.2503C447.529 8.31748 449.794 5.22487 449.794 3.29195C449.794 -1.34699 442.029 -0.960416 428.114 3.67852Z" fill="black"/>
<path d="M511.279 2.51575C511.279 4.44864 513.545 7.15467 516.131 8.70098C521.633 11.0205 522.279 25.3239 518.722 75.5789C517.106 103.026 515.811 107.665 510.954 107.665C504.806 107.665 499.954 113.85 503.835 116.556C505.456 117.716 522.929 119.649 542.988 121.195L579.23 123.901V108.052C579.23 90.2691 574.052 87.1765 569.525 101.867C566.934 109.984 564.348 111.531 553.668 111.531C530.372 111.531 527.781 106.892 532.633 77.1252C534.899 64.7548 534.899 64.7548 550.431 67.0745C563.377 69.3937 566.289 68.6208 566.289 63.9819C566.289 59.7291 561.436 57.4099 549.786 55.4769C534.899 53.1577 533.609 51.9976 535.225 44.2662C536.195 40.0139 537.165 31.5091 537.165 25.3239C537.165 15.2729 537.811 14.8863 553.023 14.8863C567.904 14.8863 569.2 15.6594 570.17 25.3239C571.791 41.9467 578.259 40.0139 580.2 21.8447C581.17 12.9533 581.821 5.22181 581.496 4.83522C581.17 4.44864 565.318 2.90233 546.225 1.35601C523.574 -0.190305 511.279 0.196277 511.279 2.51575Z" fill="black"/>
<path d="M645.882 21.8449C644.912 23.0047 646.208 27.2571 649.119 30.7362C654.296 37.3081 653.976 40.0141 645.562 67.8479C631.321 116.557 627.119 125.061 618.705 123.902C604.143 121.196 612.232 132.793 629.705 139.751C649.769 147.483 654.296 146.323 646.208 135.499C639.089 126.221 639.089 125.835 651.71 84.4705L662.385 48.5189L675.006 109.211C684.065 152.895 688.597 169.518 691.833 168.745C694.42 167.972 699.597 155.987 703.804 141.684C718.04 92.9755 728.395 69.0075 735.193 69.0075C746.518 69.0075 739.4 60.1163 722.247 53.1577C705.424 46.1994 699.597 49.6784 710.922 59.3429C715.779 63.5956 715.454 66.3015 707.365 94.5218C702.513 111.531 697.011 126.608 695.715 128.154C694.419 130.087 689.242 111.144 684.39 85.6302C679.858 60.503 674.681 37.6947 673.39 34.602C670.799 28.4168 648.799 17.9792 645.882 21.8449Z" fill="black"/>
<path d="M233.641 85.6343C216.815 98.3915 214.226 105.737 228.14 101.484C233.965 99.5516 237.201 104.577 253.379 139.756C263.41 161.791 271.824 181.506 271.824 183.826C271.824 186.145 269.559 188.851 266.97 190.397C261.469 192.717 260.174 200.448 265.352 200.448C267.293 200.448 282.178 191.17 299.004 179.96L329.421 159.858L323.273 145.167C315.507 127.772 310.006 126.612 311.3 143.235C311.947 153.672 310.653 157.152 301.269 164.496C295.121 169.522 288.65 173.001 286.708 172.228C281.854 170.295 249.173 99.5516 249.173 91.0466C249.173 87.5673 250.791 84.4747 252.409 84.4747C254.35 84.4747 255.644 81.7688 255.644 78.6761C255.644 70.5579 253.056 71.3313 233.641 85.6343Z" fill="black"/>
<path d="M812.198 128.549C802.493 140.146 742.631 181.123 735.508 181.123C722.892 181.123 724.508 187.695 740.365 200.066C754.927 211.277 762.365 210.503 753.956 198.519C750.72 193.881 751.365 191.175 757.513 184.989C767.542 175.325 767.868 175.325 783.074 187.309C796.991 198.133 797.961 201.612 792.784 217.849C789.872 226.353 787.932 227.899 781.459 225.966C776.927 224.42 773.37 224.807 773.37 226.74C773.37 230.219 801.198 254.573 805.079 254.573C806.375 254.573 807.671 245.295 807.671 234.085C807.991 223.26 813.168 194.653 819.316 170.686C828.38 135.12 829.671 127.003 826.114 125.07C818.996 121.977 817.375 122.75 812.198 128.549ZM807.345 160.635C804.754 171.072 802.493 180.35 802.493 181.897C802.493 187.309 794.4 184.989 786.636 176.871C782.104 172.618 780.163 167.98 781.784 166.047C785.02 162.568 809.932 142.466 811.227 142.466C811.552 142.466 809.932 150.584 807.345 160.635Z" fill="black"/>
<path d="M137.858 171.841C136.887 174.934 137.535 181.506 139.476 185.758C147.889 204.7 168.922 276.99 168.922 286.268C168.598 300.572 171.187 299.798 185.424 282.403C197.397 267.713 198.691 259.208 187.366 266.553C182.512 269.646 180.571 268.099 176.041 258.048C170.863 246.064 170.863 245.678 183.159 230.987C194.808 216.684 195.455 216.684 204.192 221.71C215.517 229.055 218.429 234.08 213.899 240.652C211.958 243.358 211.311 246.837 212.605 248.383C214.87 251.09 242.698 220.163 242.698 214.751C242.698 212.818 239.139 212.432 234.932 213.592C229.431 215.138 215.841 208.953 185.748 190.783C162.774 176.867 143.036 165.656 142.065 165.656C140.77 165.656 138.829 168.362 137.858 171.841ZM184.453 212.432C184.453 213.978 180.247 219.004 175.07 223.643L165.362 231.761L158.891 213.592C155.008 203.541 152.096 193.876 152.096 191.943C152.096 190.01 159.538 193.103 168.275 198.902C177.335 204.7 184.453 210.885 184.453 212.432Z" fill="black"/>
<path d="M898.928 206.639C897.633 208.185 897.313 213.211 898.283 217.85C899.574 224.808 896.342 229.834 879.514 245.684C843.598 279.316 838.421 282.795 833.243 277.769C830.652 275.45 827.096 274.29 825.15 275.837C823.209 277.383 826.771 285.501 835.184 297.485C848.45 316.428 855.244 319.52 852.007 304.443C850.716 299.418 853.303 292.846 859.45 285.115C870.13 271.971 872.396 271.198 876.923 281.635C879.514 287.434 878.544 294.392 872.071 312.948C862.042 342.328 862.042 343.874 871.426 354.312C881.781 365.909 884.367 365.136 881.781 350.833C880.16 342.715 881.455 331.504 885.337 317.974L891.165 297.485L906.372 299.804C919.963 301.737 922.549 300.578 929.992 292.073C942.288 277.383 941.318 261.147 926.431 239.885C919.638 230.22 911.224 218.237 907.667 213.211C904.106 208.185 900.224 205.093 898.928 206.639ZM922.874 251.096C928.052 259.214 928.372 262.693 925.46 270.811C922.224 279.316 907.017 293.233 901.194 293.233C898.603 293.233 880.16 269.265 880.16 265.786C880.16 260.76 907.342 238.725 912.194 239.885C914.785 240.658 919.638 245.684 922.874 251.096Z" fill="black"/>
<path d="M57.2999 283.174L33.0312 326.857L44.0329 337.295C57.6235 350.052 64.0949 347.346 55.3585 332.269C49.2102 321.831 49.2102 321.831 55.6816 309.461L62.1536 297.091L77.0383 309.461C120.398 344.64 126.869 351.598 124.928 360.876C121.045 378.659 128.811 374.02 140.783 350.825C153.727 325.697 154.05 319.899 141.754 329.563C134.312 335.362 132.694 334.589 101.306 309.848L68.3014 284.333L75.0964 272.35C78.9797 265.778 82.5388 259.979 82.8625 259.206C83.1861 258.433 86.7457 259.979 90.6285 262.298C94.5113 264.618 100.012 265.778 102.925 264.231C107.778 262.298 107.131 260.752 100.336 254.181C82.2152 237.171 83.5098 236.011 57.2999 283.174Z" fill="black"/>
<path d="M4.55034 401.464C-0.303356 418.086 -1.2741 424.658 1.63812 424.658C3.90318 424.658 7.46257 422.339 9.40406 419.246C13.6106 413.447 25.583 417.7 65.707 438.962C80.9154 447.08 84.1509 450.559 84.1509 458.291C84.1509 473.754 91.5933 466.408 98.3883 444.374C104.86 422.725 103.566 416.154 94.5056 425.818C89.0046 431.617 87.3868 431.617 70.8844 424.271C29.466 405.716 16.5228 396.825 17.17 388.706C18.7879 371.697 11.0219 379.429 4.55034 401.464Z" fill="black"/>
<path d="M888.892 380.593C885.976 384.072 902.479 421.57 906.04 418.864C907.656 417.704 907.981 413.839 907.011 410.746C904.745 403.401 911.218 397.602 921.247 397.602C926.75 397.602 930.631 402.241 936.779 416.545L944.868 435.873L934.193 445.538C925.129 454.043 923.188 454.816 920.277 449.791C918.336 446.698 915.099 443.992 913.158 443.992C910.892 443.992 913.159 452.883 918.011 465.254C926.425 485.742 937.75 495.407 934.193 478.784C932.897 472.598 940.341 462.161 967.843 431.234C993.73 401.854 1002.14 390.257 999.553 387.165C996.966 384.072 981.109 383.299 948.104 384.845C914.129 386.391 899.892 386.005 898.272 382.526C895.686 377.887 892.124 377.114 888.892 380.593ZM977.228 394.896C977.228 395.669 971.405 402.628 964.607 410.746L951.986 425.436L946.489 413.065C941.957 402.628 941.631 399.921 945.518 397.216C949.4 394.123 977.228 392.19 977.228 394.896Z" fill="black"/>
<g filter="url(#filter0_d_112_114)">
<path fill-rule="evenodd" clip-rule="evenodd" d="M500.112 902.223C698.142 902.223 859.226 740.646 859.226 543.114C859.226 345.084 697.65 184 500.112 184C302.084 184 141 345.084 141 543.114C141 740.646 302.577 902.223 500.112 902.223Z" fill="white"/>
</g>
<path fill-rule="evenodd" clip-rule="evenodd" d="M500.112 902.223C698.142 902.223 859.226 740.646 859.226 543.114C859.226 345.084 697.65 184 500.112 184C302.084 184 141 345.084 141 543.114C141 740.646 302.577 902.223 500.112 902.223Z" fill="url(#paint0_radial_112_114)"/>
<path d="M525.204 901.105C596.563 896.238 667.327 868.671 723.943 823.41C847.49 724.774 892.308 555.966 833.776 410.454C800.017 326.271 738.391 259.927 656.859 219.973C605.553 194.91 558.228 184 499.849 184C441.464 184 394.139 194.91 342.833 219.973C232.26 274.228 158.986 376.987 142.769 500.237C140.41 518.375 140.41 567.764 142.769 585.749C160.313 719.173 246.56 829.602 371.582 878.4C402.69 890.489 440.874 898.745 477.732 901.253C501.026 902.873 500.287 902.873 525.204 901.105ZM494.392 892.11C492.77 890.193 489.969 885.917 488.2 882.528C485.104 876.336 477.732 852.597 477.732 848.765C477.732 847.144 482.007 846.701 499.849 846.701C517.686 846.701 521.962 847.144 521.962 848.765C521.962 852.597 514.588 876.336 511.494 882.528C507.514 890.341 502.942 895.356 499.849 895.356C498.519 895.356 496.011 893.878 494.392 892.11ZM513.41 892.849C518.425 882.972 522.992 871.469 526.09 860.563L529.775 846.996L541.716 846.114C548.351 845.671 560.588 844.784 569.14 844.341L584.617 843.311L577.987 851.124C562.209 869.996 543.928 884.149 527.711 890.193C518.13 893.73 512.376 894.765 513.41 892.849ZM473.457 890.784C457.092 885.184 436.009 868.671 419.349 848.321L415.221 843.311L430.554 844.341C439.105 844.784 451.342 845.671 457.976 846.114L469.918 846.996L473.604 860.563C476.7 871.469 481.271 882.972 486.283 892.849C487.168 894.617 483.039 894.026 473.457 890.784ZM546.14 889.016C555.721 882.972 572.233 868.228 580.051 858.789C593.465 842.129 595.085 840.804 599.952 840.804C603.489 840.804 620.297 838.149 651.701 832.696L656.859 831.809L649.49 838.592C640.347 847.144 614.844 864.395 601.278 871.174C587.568 878.105 578.278 881.642 561.765 886.656C546.435 891.08 541.568 891.962 546.14 889.016ZM438.515 886.656C421.561 881.789 412.42 878.252 398.414 871.174C384.851 864.395 359.345 847.144 350.204 838.592L342.833 831.809L347.993 832.696C379.395 838.149 396.203 840.804 399.741 840.804C404.606 840.804 406.081 842.129 419.939 859.085C427.9 868.671 443.675 882.824 453.553 889.016C458.124 891.814 453.996 891.228 438.515 886.656ZM367.454 869.701C348.14 861.888 339.884 857.76 320.423 846.257C306.27 837.858 280.617 819.573 270.592 810.582C265.726 806.159 265.579 806.159 283.123 813.38C290.052 816.183 303.174 820.755 312.462 823.553C328.089 828.272 330.006 829.307 338.999 837.415C357.724 854.223 374.088 865.573 394.728 876.041C401.51 879.43 406.965 882.528 406.965 882.824C406.965 883.853 382.787 875.893 367.454 869.701ZM608.504 874.863C626.342 865.425 640.642 855.4 657.746 840.508C671.307 828.568 672.046 828.124 687.82 823.41C696.667 820.755 709.642 816.183 716.568 813.38C734.115 806.159 733.967 806.159 729.1 810.582C708.903 828.715 673.076 851.42 645.805 863.804C630.026 870.883 599.805 882.085 596.415 882.085C595.529 882.085 600.982 878.844 608.504 874.863ZM475.668 839.479C473.457 836.085 461.515 758.686 461.515 748.218C461.515 746.893 470.95 746.449 499.849 746.449C532.135 746.449 538.179 746.745 538.179 748.513C538.179 758.981 526.238 836.085 524.026 839.479C523.583 840.213 512.672 840.804 499.849 840.804C487.02 840.804 476.11 840.213 475.668 839.479ZM533.164 829.893C536.41 814.563 539.8 791.415 542.455 767.829L544.962 745.71L563.243 744.681C573.415 744.237 592.435 742.617 605.701 741.287C618.972 739.814 630.174 739.223 630.618 739.666C632.09 741.144 620.002 776.085 611.302 795.1C607.031 804.538 600.396 817.509 596.563 824.144L589.337 836.085L575.184 837.119C567.371 837.563 559.997 838.297 558.819 838.445C557.637 838.74 550.859 839.036 543.928 839.183L531.1 839.331L533.164 829.893ZM420.087 836.972L410.209 835.937L403.132 824.144C399.299 817.509 392.517 804.39 388.389 795.1C379.838 776.375 367.601 741.144 369.075 739.666C369.518 739.08 380.133 739.814 392.517 741.144C404.901 742.469 422.74 743.794 432.029 744.385C457.092 745.563 455.028 744.385 456.207 758.538C457.387 773.577 463.579 815.888 466.527 829.602L468.591 839.775L449.278 838.888C438.515 838.297 425.394 837.415 420.087 836.972ZM598.627 834.021C598.627 833.435 600.982 829.159 603.785 824.44C613.957 807.779 630.026 769.449 636.219 746.893C638.43 739.08 639.317 737.602 642.706 737.016C644.77 736.572 654.795 734.804 664.82 733.178C684.726 729.789 694.751 727.725 717.16 721.976C725.12 719.912 732.051 718.582 732.495 719.026C734.997 721.681 711.263 766.351 695.928 787.73C686.051 801.587 670.721 819.868 667.031 822.08C664.677 823.41 639.317 828.715 618.529 831.957C599.214 835.055 598.627 835.203 598.627 834.021ZM373.056 830.484C362.884 828.863 349.615 826.356 343.57 824.883C333.397 822.375 331.776 821.494 325.141 814.415C313.789 802.474 297.424 779.769 287.694 762.666C277.521 744.976 266.021 720.356 267.201 719.173C267.643 718.73 274.572 719.912 282.534 721.976C304.943 727.725 314.968 729.789 334.872 733.178C344.897 734.804 354.922 736.572 356.986 737.016C360.377 737.602 361.261 739.08 363.473 746.893C369.665 769.449 385.735 807.779 395.908 824.44C398.709 829.159 401.068 833.582 401.068 834.021C401.068 834.612 398.857 834.76 396.203 834.316C393.696 833.873 383.229 832.105 373.056 830.484ZM684.726 812.794C701.682 793.922 719.667 765.321 733.524 734.804L742.667 715.045L758.736 709.444C778.342 702.513 807.386 688.36 818.15 680.252C822.574 676.863 826.554 674.503 826.849 674.947C828.47 676.42 805.618 719.469 794.268 736.572C767.436 776.671 753.283 790.09 724.091 803.504C712.884 808.666 685.169 818.543 681.332 818.691C680.302 818.691 681.775 816.036 684.726 812.794ZM305.533 814.858C280.027 807.045 254.669 794.218 241.99 782.568C224.741 766.646 198.35 728.76 182.723 696.912C176.826 685.119 172.403 675.242 172.845 674.947C173.14 674.651 177.71 677.449 182.87 681.139C195.549 689.981 223.266 703.548 241.99 709.74L257.028 714.75L261.451 725.07C275.015 756.178 291.527 783.75 309.808 806.307C315.411 813.09 319.539 818.691 318.949 818.691C318.359 818.691 312.315 816.922 305.533 814.858ZM471.54 739.666L460.483 738.636L458.713 717.109C456.944 695.144 454.143 649.883 454.143 643.247V639.562H499.849H545.548V643.986C545.548 650.474 542.898 692.489 540.982 717.257L539.209 738.932L530.952 739.518C515.327 740.405 482.597 740.553 471.54 739.666ZM546.14 731.41C547.76 717.405 549.824 687.183 550.859 663.001L551.888 639.267L577.1 637.498C600.1 635.878 629.292 632.927 645.657 630.567L652.145 629.538L651.11 638.232C647.721 666.247 640.051 709.592 635.485 725.957C634.154 730.676 633.273 731.41 628.258 732.297C617.938 733.917 566.78 738.341 553.071 738.784L545.258 739.08L546.14 731.41ZM425.394 737.602C401.51 735.833 367.012 732.001 365.979 730.966C362.441 727.577 345.929 633.075 348.435 630.567C348.73 630.272 359.64 631.158 372.466 632.779C385.293 634.4 407.555 636.464 421.856 637.498L447.803 639.267L448.835 663.001C449.868 687.183 451.932 717.405 453.553 731.41L454.438 739.08H450.31C447.951 739.08 436.746 738.341 425.394 737.602ZM641.972 726.986C645.066 716.08 653.322 671.553 655.386 654.745C656.711 643.986 658.041 633.666 658.485 632.04C658.923 629.242 660.987 628.503 673.371 626.291C695.194 622.459 725.859 615.676 742.815 610.814C751.071 608.306 758.588 606.39 759.327 606.39C761.391 606.39 761.096 610.814 757.849 630.715C752.839 659.759 741.485 702.218 736.913 708.558C734.706 711.656 699.322 720.794 667.918 726.4C641.677 731.114 640.79 731.114 641.972 726.986ZM329.859 725.809C296.982 719.912 265.137 711.656 262.778 708.41C260.419 705.316 254.669 687.035 249.214 665.656C244.202 646.198 237.862 608.454 239.336 606.981C239.778 606.39 247.445 608.011 256.144 610.518C273.982 615.676 304.501 622.459 326.32 626.291C338.705 628.503 340.769 629.242 341.211 632.04C341.654 633.666 342.98 644.134 344.307 655.04C346.371 671.7 353.89 711.804 357.576 726.252C358.903 731.262 360.082 731.262 329.859 725.809ZM746.5 704.134C746.943 702.661 749.593 693.523 752.396 683.641C757.554 666.099 763.307 639.119 766.992 615.385L768.908 603.001L784.386 596.809C811.367 586.193 833.633 573.809 847.047 561.868L852.204 557.444V562.01C852.204 580.001 844.835 621.72 837.465 645.016C833.485 657.843 832.303 659.759 825.667 665.804C810.633 679.37 795.15 688.361 767.436 699.42C747.825 707.38 745.317 707.971 746.5 704.134ZM230.49 698.681C202.184 687.183 176.236 670.966 167.98 659.464C161.493 650.617 150.435 600.789 148.076 570.267L147.044 557.001L152.352 561.72C166.063 573.809 188.178 586.045 215.305 596.809L230.785 603.001L232.702 615.385C236.388 639.119 242.138 666.099 247.298 683.641C250.099 693.523 252.752 702.661 253.195 704.134C254.374 707.971 251.72 707.38 230.49 698.681ZM453.553 622.902C453.111 617.449 452.669 590.616 452.669 563.341V513.508H499.849H547.026V563.341C547.026 590.616 546.583 617.449 546.14 622.902L545.11 632.927L522.844 633.222C510.607 633.518 490.264 633.518 477.585 633.222L454.585 632.779L453.553 622.902ZM553.657 574.395C554.248 542.109 554.839 514.981 555.135 514.099C555.43 513.065 562.504 512.183 573.12 511.592C582.701 511.001 602.46 509.232 617.056 507.464C631.652 505.695 646.243 504.222 649.49 504.074L655.386 503.927V542.996C655.386 595.183 653.765 622.311 650.371 623.198C646.539 624.375 595.233 629.833 575.036 631.306C564.864 631.897 555.721 632.631 554.691 632.779C553.071 632.927 552.923 622.459 553.657 574.395ZM401.805 629.094C374.826 626.735 348.435 623.493 347.403 622.459C345.929 620.986 343.422 555.528 343.865 531.198L344.307 503.927L350.204 504.074C353.448 504.222 368.043 505.695 382.639 507.464C397.235 509.232 417.285 511.001 427.163 511.592L445.297 512.478V534.887C445.297 547.124 445.739 574.104 446.329 594.892L447.214 632.484L437.778 631.897C432.618 631.602 416.401 630.272 401.805 629.094ZM660.691 603.439C661.43 593.267 662.022 566.286 662.169 543.434V501.715L665.411 500.976C667.179 500.533 675.583 498.912 684.135 497.291C703.746 493.311 729.692 486.823 747.091 481.368L760.652 477.093L761.391 480.926C765.076 498.616 765.81 559.212 762.716 589.73L761.83 598.725L740.307 604.769C728.514 608.011 715.391 611.548 711.411 612.434C702.268 614.498 659.958 622.311 659.514 622.016C659.366 621.868 659.81 613.464 660.691 603.439ZM291.232 613.025C285.482 611.695 271.181 608.011 259.387 604.769L237.714 598.725L236.83 588.991C234.029 556.557 234.618 501.419 238.304 481.663L239.189 477.093L252.605 481.368C270.592 486.97 296.245 493.459 316.295 497.291C325.141 499.06 333.692 500.828 335.019 501.124C337.378 501.863 337.525 505.547 337.525 544.025C337.525 567.321 337.968 590.025 338.262 594.449C338.705 599.02 339.442 607.129 339.884 612.434L340.622 622.163L321.16 618.774C310.398 616.858 296.834 614.203 291.232 613.025ZM770.234 550.809C770.381 525.744 769.79 498.469 769.204 489.917L767.874 474.292L781.884 468.247C799.426 460.728 818.15 449.818 827.145 441.709C831.125 438.171 834.515 435.37 835.106 435.37C836.431 435.37 841.884 454.683 845.574 472.965C850.436 497.143 852.5 517.34 851.914 534.887L851.47 549.483L840.854 558.474C827.293 569.68 809.45 579.853 787.485 588.843C778.046 592.828 770.381 595.922 770.234 596.07C770.234 596.07 770.234 575.725 770.234 550.809ZM204.838 585.749C187.588 578.38 170.634 568.35 158.397 558.03L148.224 549.483L147.782 536.36C147.192 519.552 149.551 495.67 154.121 472.965C157.807 454.683 163.262 435.37 164.589 435.37C165.178 435.37 168.569 438.171 172.55 441.709C181.543 449.818 200.267 460.728 217.811 468.247L231.67 474.292L230.49 490.508C229.901 499.503 229.311 526.927 229.458 551.4L229.606 595.774L223.561 593.562C220.17 592.237 211.767 588.7 204.838 585.749ZM459.303 506.577L452.227 505.695L453.259 472.375C454.291 436.402 456.649 389.666 457.829 380.083L458.566 374.186H499.849H541.13L541.864 380.083C543.046 389.666 545.401 436.402 546.435 472.522L547.465 505.991L542.455 506.577C533.903 507.611 466.675 507.611 459.303 506.577ZM553.805 502.892C553.366 500.976 552.923 490.212 552.923 478.862C552.923 460.138 551.888 436.696 549.09 390.108L548.056 373.744L556.016 372.859C599.066 368.584 612.928 366.962 623.544 365.192C630.322 363.866 636.071 363.128 636.219 363.423C637.549 364.603 645.953 408.98 648.603 427.998C652.145 453.946 655.534 493.902 654.209 495.375C652.731 496.7 632.238 499.503 603.637 502.301C554.544 507.02 554.987 507.02 553.805 502.892ZM395.908 502.301C366.717 499.503 348.435 496.996 346.371 495.67C342.686 493.459 349.32 431.831 357.723 389.814C360.524 375.66 363.031 363.718 363.325 363.423C363.621 363.276 369.37 363.866 376.152 365.192C386.767 366.962 400.626 368.584 443.675 372.859L451.637 373.744L450.605 390.108C448.099 432.126 446.771 461.318 446.771 479.599C446.771 508.35 447.803 506.577 430.701 505.4C422.888 504.808 407.26 503.483 395.908 502.301ZM661.43 491.099C661.135 489.182 660.105 477.83 659.219 465.593C656.859 433.896 650.228 391.435 643.593 365.93C642.706 362.096 642.854 361.949 654.209 359.443C670.721 355.904 696.224 348.68 709.495 343.815L720.992 339.687L725.268 348.09C731.46 360.622 739.421 381.41 745.317 400.871C750.923 419.447 759.327 458.222 759.327 465.888C759.327 470.606 759.179 470.606 745.613 475.029C728.514 480.484 712.293 484.759 687.82 489.917C663.642 495.227 662.317 495.227 661.43 491.099ZM316 490.803C293.444 486.086 271.329 480.484 254.079 475.029C240.516 470.606 240.368 470.606 240.368 465.888C240.368 458.222 248.772 419.447 254.374 400.871C260.272 381.41 268.233 360.622 274.425 348.09L278.7 339.687L290.2 343.815C303.469 348.68 328.974 355.904 345.487 359.59C356.101 361.802 356.986 362.244 356.249 365.192C350.647 385.39 342.686 435.96 340.474 466.183C338.557 492.129 338.115 494.34 335.609 494.34C334.577 494.34 325.731 492.72 316 490.803ZM763.746 449.965C757.554 415.466 745.465 375.808 733.081 349.418L727.184 336.886L738.243 331.283C744.288 328.04 753.135 322.438 757.997 318.604L766.549 311.675L775.692 323.027C795.445 347.501 816.825 384.211 828.027 413.402L833.189 426.966L829.061 431.242C823.899 436.697 809.894 446.722 798.687 453.062C789.401 458.222 767.874 467.952 767.14 467.215C766.844 467.067 765.371 459.254 763.746 449.965ZM213.978 459.548C198.35 452.177 178.595 439.498 171.37 431.979L166.505 426.966L171.666 413.402C182.87 384.211 204.248 347.501 224.004 323.027L233.144 311.675L241.843 318.604C246.56 322.438 255.406 328.04 261.598 331.283L272.656 336.886L268.97 344.405C254.964 371.827 241.4 417.383 233.881 462.202C232.702 468.542 234.029 468.689 213.978 459.548ZM459.303 359.885C461.367 340.277 466.085 298.259 467.117 291.624L468.149 284.253H499.849H531.543L532.578 291.624C533.608 298.259 538.327 340.277 540.391 359.885L541.13 367.552H499.849H458.566L459.303 359.885ZM545.696 347.353C544.667 336.886 542.603 318.31 540.982 305.925C539.504 293.541 538.179 283.074 538.179 282.778C538.179 282.337 541.273 282.042 545.11 282.042C551.007 282.042 567.519 279.83 598.775 275.112L603.933 274.375L609.977 287.349C620.002 309.169 635.78 354.578 633.859 356.347C631.795 358.411 574.007 365.635 557.199 365.93L547.465 366.077L545.696 347.353ZM416.106 363.866C393.549 361.507 367.012 357.526 365.832 356.347C363.915 354.578 379.691 309.169 389.716 287.349L395.761 274.375L400.921 275.112C432.176 279.83 448.688 282.042 454.438 282.042C458.419 282.042 461.515 282.337 461.515 282.778C461.515 283.074 460.188 293.541 458.713 305.925C457.092 318.31 455.028 336.886 453.996 347.353L452.227 366.077H445.002C441.022 366.077 428.048 365.045 416.106 363.866ZM640.79 353.988C630.026 318.899 623.396 300.765 611.012 273.933C610.716 273.048 615.874 270.837 622.657 269.068C629.44 267.151 640.494 263.318 647.425 260.664L659.81 255.651L664.82 260.369C678.534 273.343 701.825 304.451 713.623 325.239L718.337 333.642L713.475 335.706C704.184 339.54 674.701 348.386 659.071 351.924C640.347 356.347 641.381 356.199 640.79 353.988ZM336.051 350.744C320.571 347.058 289.316 337.476 284.155 334.822C281.649 333.642 281.944 332.905 286.219 325.091C298.309 303.861 321.16 273.343 334.872 260.369L339.884 255.651L352.268 260.664C359.197 263.318 370.255 267.151 377.037 269.068C383.819 270.837 388.979 273.048 388.684 273.933C376.299 300.765 369.96 318.015 358.903 353.988C358.608 355.02 356.986 355.462 355.069 355.167C353.153 354.725 344.602 352.808 336.051 350.744ZM719.371 322.29C707.874 301.65 684.135 270.1 671.012 257.863C668.509 255.357 666.445 253.145 666.445 252.555C666.445 251.671 680.598 240.761 681.923 240.761C683.544 240.761 708.756 258.305 720.258 267.446C734.997 279.093 760.8 304.009 760.8 306.515C760.8 307.547 758.145 310.496 754.756 313.002C748.859 317.72 727.184 330.694 725.268 330.694C724.677 330.694 722.027 326.86 719.371 322.29ZM262.188 324.207C248.624 316.541 238.894 309.021 238.894 306.368C238.894 300.913 288.431 258.453 310.251 245.331L318.507 240.466L325.878 246.069C329.859 249.165 333.25 251.966 333.25 252.261C333.25 252.555 328.532 258.01 322.635 264.203C309.366 278.356 294.917 297.816 283.86 316.393C279.143 324.207 274.867 330.694 274.278 330.694C273.835 330.694 268.38 327.745 262.188 324.207ZM474.931 276.734C469.329 275.555 469.329 275.26 474.194 251.229C478.617 229.261 486.431 204.935 491.738 196.679C494.687 191.814 496.307 190.635 499.849 190.635C503.386 190.635 505.007 191.814 507.957 196.679C513.263 204.935 521.076 229.261 525.499 251.229C530.218 274.228 530.218 275.702 525.942 276.586C520.632 277.618 479.943 277.766 474.931 276.734ZM533.312 256.683C528.45 232.063 523.14 213.339 517.391 201.102C515.031 195.942 513.263 191.519 513.558 191.224C513.706 191.077 518.864 192.403 524.76 194.468C550.268 203.019 573.859 224.543 594.056 257.421C597.297 262.728 599.509 267.446 598.918 267.741C596.268 269.363 553.514 275.407 541.716 275.997L537.292 276.144L533.312 256.683ZM444.56 274.67C429.669 273.048 402.395 268.773 400.773 267.741C400.183 267.446 402.395 262.728 405.638 257.421C425.836 224.543 449.425 203.019 474.931 194.468C480.828 192.403 485.988 191.077 486.136 191.224C486.431 191.519 484.661 195.942 482.303 201.102C476.553 213.339 471.245 232.063 466.38 256.683C463.284 271.721 461.957 276.144 460.188 276.144C458.861 276.144 451.784 275.407 444.56 274.67ZM601.278 256.389C588.455 234.274 567.076 210.39 550.268 199.48C545.992 196.827 542.603 194.468 542.603 194.32C542.603 193.583 560.292 198.153 571.204 201.692C595.085 209.505 626.342 227.05 645.509 243.415C649.785 246.953 652.879 250.491 652.145 251.229C649.342 253.882 614.696 265.529 608.948 265.676C607.618 265.824 604.228 261.696 601.278 256.389ZM371.139 260.369C364.8 258.453 356.544 255.504 352.858 253.882C344.897 250.491 345.044 250.197 361.261 237.812C375.12 227.345 392.664 216.73 406.375 210.39C418.465 204.935 441.759 197.121 450.457 195.647L456.355 194.763L446.034 201.987C428.932 214.223 408.292 238.107 396.94 258.895C393.254 265.824 392.96 265.972 387.947 265.087C384.998 264.497 377.479 262.433 371.139 260.369ZM651.554 240.024C639.613 229.851 623.396 219.089 606.884 210.243C590.81 201.692 592.726 201.544 615.43 209.358C635.041 216.14 666.593 230.588 673.667 235.896C675.288 237.075 663.494 246.658 660.253 246.658C659.81 246.658 655.829 243.709 651.554 240.024ZM330.891 241.645C327.795 238.844 325.436 236.338 325.878 236.043C333.692 229.409 393.991 203.903 401.51 203.903C402.542 203.903 398.267 206.704 392.222 209.948C377.774 217.762 359.788 229.851 348.73 239.139C343.865 243.267 339.147 246.658 338.262 246.658C337.378 246.658 334.134 244.447 330.891 241.645Z" fill="black" fill-opacity="0.1"/>
<path d="M643.7 711.806C644.685 711.806 645.671 711.806 646.163 711.806C647.148 712.299 648.134 712.792 649.119 713.284C651.582 734.466 641.237 769.442 625.966 778.801C623.996 777.816 621.533 776.831 619.562 775.846C619.07 771.905 620.055 741.363 621.533 737.915C626.951 727.57 639.267 727.077 643.7 711.806ZM784.094 539.397C785.572 539.89 787.05 540.382 788.528 540.875C790.991 547.279 791.976 554.176 789.021 559.594C787.543 559.594 786.065 559.594 784.587 560.087C784.587 559.594 784.587 559.102 784.587 558.116C782.124 553.683 782.617 543.831 784.094 539.397ZM836.311 521.663C837.789 522.648 838.774 523.141 840.252 524.126C840.252 526.097 839.76 528.56 839.76 530.53C839.267 530.53 839.267 530.53 838.774 530.53C837.789 530.53 836.804 530.53 836.311 530.53C836.311 530.038 836.311 529.545 836.311 528.56C835.819 527.082 835.326 525.604 834.833 524.126C835.326 523.634 835.819 522.648 836.311 521.663ZM840.745 448.754C839.76 454.173 841.73 457.621 842.715 463.04C843.208 463.04 843.208 463.04 843.701 463.04C842.715 458.114 841.73 453.68 840.745 448.754ZM475.227 458.114C473.749 460.577 471.779 462.547 470.301 465.01C470.793 465.996 471.286 466.981 471.286 467.473C471.779 467.473 472.271 467.966 473.257 467.966C474.242 467.473 474.734 467.473 475.72 466.981C476.705 465.01 477.69 462.547 478.675 460.577C478.675 460.084 478.675 459.592 478.675 458.607C477.69 458.607 476.705 458.114 475.227 458.114ZM353.059 453.188C353.059 454.173 353.059 455.651 353.552 456.636C354.537 456.636 356.015 456.636 357 456.144C357 455.159 357 453.68 356.508 452.695C355.522 452.695 354.537 452.695 353.059 453.188ZM501.828 419.197C502.813 419.197 504.291 419.197 505.276 418.705C505.276 419.69 505.276 420.676 505.276 421.168C505.276 421.66 504.784 422.646 504.784 423.138C504.291 423.138 504.291 423.138 503.798 423.138C503.306 423.138 502.813 423.138 501.828 423.138C501.828 422.153 501.828 420.675 501.828 419.197ZM389.02 422.153C395.424 421.168 397.887 421.168 400.843 424.616C400.843 425.601 400.35 426.587 400.35 427.572C399.857 428.064 399.365 428.065 398.872 428.557C393.453 428.557 391.483 427.079 388.527 424.124C388.527 423.631 389.02 422.646 389.02 422.153ZM367.345 408.853C368.33 408.853 369.808 408.853 370.793 408.36C371.286 409.345 371.779 410.33 371.779 410.823C370.793 413.286 369.808 415.749 368.823 418.212C368.33 418.212 367.838 418.212 366.852 418.212C366.852 418.212 366.852 418.212 366.36 417.72C366.852 414.764 366.852 411.808 367.345 408.853ZM367.345 399.986C369.315 400.971 367.838 399.986 369.315 401.463C368.823 400.971 368.33 400.478 367.345 399.986ZM512.173 341.857C507.739 344.813 503.306 347.276 498.38 350.232C498.38 350.724 498.38 350.724 498.38 351.217C499.365 353.68 500.35 355.65 501.828 358.114C501.335 358.606 500.843 358.606 500.35 359.099C498.38 359.591 496.409 360.084 493.946 360.577C491.483 355.158 486.064 349.247 479.66 351.71C471.779 355.651 465.375 370.429 463.897 379.788C467.345 382.252 468.823 383.237 467.345 386.685C466.36 388.656 465.375 389.148 463.897 390.626C463.897 391.119 463.897 391.611 463.897 392.596C464.882 393.089 465.375 393.089 465.375 393.582C477.69 391.119 485.079 380.774 496.409 376.833C511.188 371.907 531.385 385.207 541.237 369.444C541.237 368.458 541.237 367.473 541.237 366.981C532.37 363.04 523.01 359.099 514.143 354.665C513.651 351.217 515.621 348.754 515.621 341.857C514.636 341.857 513.651 341.857 512.173 341.857ZM579.661 323.138C571.779 330.035 564.882 333.483 557.986 340.872C558.478 347.769 559.464 348.754 562.419 352.202C570.794 357.621 578.675 362.547 587.05 367.966C587.05 368.951 586.557 370.429 586.557 371.414C583.109 372.892 583.109 371.907 581.631 375.355C584.587 378.803 587.05 382.744 589.513 386.192C600.843 386.685 608.232 389.641 618.084 383.729C618.084 382.744 618.084 381.759 618.084 381.266C613.158 376.34 609.71 370.921 604.291 366.488C604.291 365.503 604.291 364.518 604.291 364.025C605.769 362.547 607.74 361.561 609.217 360.084C607.74 358.606 608.232 358.606 606.262 357.621C596.902 355.158 584.587 351.71 581.631 341.857C583.602 341.857 585.079 341.365 587.05 341.365C589.513 341.857 591.976 342.35 594.439 342.35C596.409 339.887 598.872 337.424 600.843 334.468C600.843 333.976 600.843 333.976 600.843 333.483C594.439 327.572 590.991 323.138 579.661 323.138ZM314.143 338.902C315.621 338.902 317.099 338.902 318.576 338.409C318.576 339.394 318.576 340.872 319.069 341.857C313.158 347.769 313.65 354.172 303.306 357.621C303.306 357.128 303.306 357.128 303.306 356.636C306.261 350.724 311.68 345.306 314.143 338.902ZM322.025 359.099C321.532 349.739 325.473 347.769 329.414 342.35C327.443 336.439 323.995 334.468 326.458 327.572C327.936 325.601 329.414 323.138 331.384 321.168C331.877 321.168 332.37 321.168 333.355 321.168C333.847 321.66 334.833 322.153 335.325 322.646C334.34 332.99 341.729 347.769 341.237 348.754C340.251 352.202 339.266 353.68 336.31 355.65C331.384 356.143 326.951 357.621 322.025 359.099ZM317.099 291.118C318.576 291.118 320.054 291.118 321.532 290.626C321.532 291.611 321.04 293.089 321.04 294.074C316.113 296.537 310.695 299 305.769 301.463C305.276 300.971 305.276 300.478 304.783 299.985C304.783 299.493 305.276 299 305.276 298.015C309.217 296.044 313.158 293.581 317.099 291.118ZM465.375 275.355C464.39 278.31 464.389 277.325 464.882 280.774C465.375 281.266 466.36 281.759 466.853 282.251C468.823 281.759 470.793 281.266 472.764 280.774C472.764 279.788 472.764 278.31 472.271 277.325C471.779 276.833 470.793 276.34 470.301 275.847C469.316 275.355 467.345 275.355 465.375 275.355ZM592.961 226.094C592.961 227.571 593.454 229.049 593.454 230.527C594.439 231.02 595.424 231.512 596.409 232.005C596.902 231.512 597.395 230.527 597.887 230.035C595.917 228.064 595.917 227.079 592.961 226.094ZM427.936 224.616C430.892 226.094 429.414 224.616 430.892 228.064C428.921 229.542 426.951 231.02 424.981 232.005C417.591 229.542 423.995 227.079 427.936 224.616ZM532.863 212.301C534.833 212.793 537.296 213.286 539.266 213.778C539.266 214.271 538.774 215.256 538.774 215.749C534.833 217.719 533.355 219.197 531.385 222.645C532.37 225.108 533.355 227.079 534.833 229.542C534.34 229.542 534.34 229.542 533.848 229.542C530.892 229.049 527.936 228.064 524.981 227.571C523.996 218.212 528.429 217.227 532.863 212.301ZM591.976 199C589.513 199.493 589.02 205.897 588.035 209.345C586.557 214.764 584.587 215.749 579.661 218.212C575.227 217.227 571.286 216.734 566.853 215.749C565.868 216.734 565.375 217.719 564.39 218.704C565.868 223.138 567.345 223.631 569.316 226.094C551.582 233.975 532.37 234.961 516.114 245.798C513.651 244.32 511.188 242.842 508.725 240.872C507.247 243.335 507.247 244.32 508.232 247.276C501.828 253.187 491.976 256.143 486.064 262.547C480.153 262.054 478.183 260.084 474.734 257.128C474.734 256.143 474.734 254.665 474.242 253.68C481.138 252.695 488.527 251.709 495.424 251.217C495.424 249.739 494.931 248.261 494.931 246.783C434.833 232.005 405.276 272.892 369.315 296.537C369.315 301.463 368.823 305.897 368.823 310.823C377.197 309.345 377.69 305.404 385.079 302.941C385.572 302.941 385.572 302.941 386.064 302.941C388.035 307.375 390.005 311.808 391.483 315.749C391.976 316.734 392.468 317.719 392.468 318.212C405.769 313.779 403.798 300.478 414.636 295.552C413.158 290.133 412.173 291.118 410.202 287.177C413.65 279.296 428.921 264.517 438.774 262.547C439.266 262.547 439.266 262.547 439.759 262.547C440.252 263.532 441.237 264.025 441.729 265.01C438.774 271.414 431.877 273.384 428.429 279.788C428.429 282.251 428.921 284.714 428.921 286.685C437.788 289.641 445.67 283.729 455.523 281.759C456.015 282.744 457 283.237 457.493 284.222C453.552 289.148 445.67 288.655 439.266 292.104C437.296 294.567 438.281 297.03 439.266 301.956C435.818 302.448 432.862 302.448 429.414 302.941C425.473 305.897 422.025 316.734 419.069 320.675C403.306 321.66 396.409 327.572 379.66 329.542C375.719 324.123 377.69 322.646 380.153 316.734C379.66 316.242 379.66 315.749 379.168 315.256C378.182 315.256 377.197 315.256 376.705 315.256C373.256 320.675 373.256 324.123 373.749 331.513C357.985 341.857 334.833 369.936 316.113 371.907C315.621 372.892 315.128 373.877 314.636 374.862C318.576 377.818 321.039 379.296 324.488 383.729C323.503 389.148 322.517 394.567 321.532 399.986C313.65 405.404 300.35 404.419 291.975 408.853C290.005 423.631 286.557 430.528 288.035 445.798C294.438 445.798 294.931 448.754 298.379 449.247C316.113 452.695 320.547 427.572 325.473 419.197C330.399 410.823 337.788 406.39 342.222 396.537C346.655 396.045 351.089 395.552 355.522 395.552C360.941 393.582 362.912 387.67 369.808 385.207C376.212 390.626 401.828 407.375 403.306 413.779C403.798 414.271 404.291 414.271 405.276 414.764C407.247 410.823 407.739 410.823 405.276 406.882C406.754 403.926 406.754 404.419 410.202 402.941C410.695 402.449 410.695 401.463 411.187 400.971C399.857 396.045 387.049 392.104 382.616 379.296C383.109 378.311 383.601 377.325 384.094 376.34C385.572 375.848 387.049 374.862 388.527 374.37C399.365 378.804 408.724 386.685 420.547 391.611C423.503 405.404 430.892 407.375 435.325 419.69C435.818 419.69 436.803 420.183 437.296 420.675C438.281 420.675 439.759 420.675 440.744 420.183C442.222 414.764 442.715 413.779 445.178 409.838C441.729 405.897 439.759 404.912 438.774 398.015C444.685 394.567 446.655 391.611 456.015 391.119C463.404 403.926 464.882 414.271 481.631 416.734C483.109 414.764 485.079 412.793 486.557 410.823C491.483 411.808 496.409 412.301 500.843 413.286C506.261 411.808 506.754 407.867 515.621 406.882C519.562 417.227 519.069 430.035 514.636 439.887C509.217 450.725 503.306 443.828 493.454 446.291C488.035 447.769 487.542 453.188 479.66 452.695C466.36 452.202 446.655 445.306 436.311 448.262C433.848 450.232 431.877 452.202 429.414 454.173C429.414 458.114 429.414 458.114 430.892 461.07C429.414 463.04 427.936 465.503 425.966 467.966C421.532 467.473 408.724 465.996 404.291 463.533C401.828 461.562 399.857 459.099 397.394 457.129C386.557 454.665 382.616 457.129 373.749 453.681C374.242 446.292 374.734 441.858 374.734 435.454C372.764 433.976 370.793 432.991 368.823 431.513C359.463 437.917 347.641 436.439 337.296 440.38C322.025 446.291 318.576 457.129 297.394 457.129C292.961 462.547 284.586 472.892 282.123 478.803C281.138 486.193 280.153 493.092 279.66 500.481C275.719 504.914 271.286 509.348 267.345 514.274C263.897 527.574 260.448 540.382 257 553.683C258.97 561.072 261.434 568.461 263.404 575.358C263.897 584.717 264.389 594.57 264.882 603.929C273.256 629.048 298.872 653.186 320.054 664.023C323.995 662.053 327.936 659.589 331.877 657.619C336.31 657.619 340.744 658.112 345.177 658.112C362.912 653.678 366.36 631.511 386.064 655.649C390.99 654.663 395.424 653.678 400.35 652.693C417.099 662.545 404.783 676.338 415.128 689.146C424.981 701.954 441.729 708.851 451.089 722.644C454.537 727.57 460.449 736.437 461.434 740.378C463.404 747.274 459.463 757.127 462.419 765.501C466.853 775.846 522.025 821.659 533.848 826.585C579.661 818.703 559.464 797.028 581.138 782.25C582.124 773.875 578.675 770.427 576.705 763.038C582.616 754.171 598.872 745.304 601.336 734.959C607.247 706.88 577.69 694.565 590.005 665.008C605.276 629.54 643.7 609.348 640.252 557.624C639.759 557.131 638.774 556.639 638.281 556.146C625.966 562.057 613.651 567.969 601.336 573.387C593.946 567.476 596.409 565.506 590.991 559.102C582.124 553.683 572.764 548.264 563.404 542.353C561.434 537.919 558.971 532.993 557 528.56C553.552 525.604 550.104 523.141 546.656 520.678C544.193 514.767 542.222 508.363 539.759 502.451C527.936 489.643 515.621 474.37 504.784 459.592C504.784 459.099 504.784 459.099 504.784 458.607C508.725 459.592 510.202 462.055 512.665 465.01C514.636 464.025 516.606 463.04 518.577 461.562C530.399 472.892 541.73 484.223 553.552 495.555C554.045 499.003 554.537 501.959 555.03 505.407C560.449 514.274 575.227 521.171 582.124 530.038C585.572 539.397 589.02 548.757 592.469 557.624C598.872 562.057 613.651 547.279 617.592 544.816C641.73 529.052 668.823 505.9 672.764 475.848C673.257 465.996 654.045 465.503 649.611 455.158C648.134 455.158 646.656 454.665 645.178 454.665C643.208 459.592 641.73 464.025 637.296 466.981C633.848 467.966 630.892 468.951 627.444 469.444C626.951 469.444 626.951 469.444 626.459 469.444C624.488 466.488 623.503 465.503 623.01 460.084C619.07 459.099 619.562 461.069 616.114 460.577C609.217 453.68 602.321 446.784 595.424 439.887C595.424 438.902 595.424 437.424 594.932 436.439C597.887 434.961 600.843 433.483 603.306 432.005C617.592 442.35 626.951 454.173 647.148 444.321C666.853 459.099 675.72 450.725 700.843 445.306C707.247 449.247 719.07 456.636 720.548 465.996C724.488 468.459 724.488 470.429 730.892 470.429C732.37 468.459 734.341 466.488 735.819 464.518C739.267 475.848 743.208 487.178 746.656 498.51C752.567 512.796 762.912 526.589 766.853 544.323C767.838 545.304 768.824 545.801 769.809 546.786C770.794 546.786 771.779 546.786 772.272 546.786C776.705 537.427 781.631 525.604 779.168 510.333C778.183 505.407 777.198 500.973 776.213 496.047C778.183 485.701 788.528 470.429 791.976 459.592C791.976 456.143 791.976 453.188 791.976 449.739C795.425 447.276 799.365 444.321 802.814 441.858C805.277 451.217 810.695 455.158 814.636 463.04C815.622 467.966 816.607 472.399 817.592 477.326C818.085 478.311 819.07 478.803 819.562 479.789C820.548 478.803 822.026 477.818 823.011 476.833C823.503 477.326 824.489 477.326 824.981 477.818C826.952 486.193 828.922 494.569 830.893 503.436C831.385 503.929 832.37 503.929 832.863 504.422C834.341 501.466 833.848 500.481 837.789 498.51C838.774 505.9 840.745 512.303 847.149 511.318C848.134 533.486 848.627 561.072 843.208 579.791C843.208 580.284 843.208 580.777 843.208 581.762C842.715 582.254 842.223 582.254 841.73 582.747C840.745 576.836 839.76 570.924 838.282 565.013C839.76 565.013 841.237 564.52 842.715 564.52C843.7 556.146 843.208 544.323 841.237 534.964C839.267 534.964 837.789 534.471 835.819 534.471C836.311 541.368 836.311 548.264 836.804 555.161C836.311 555.161 836.311 555.161 835.819 555.161C834.341 552.698 832.863 550.727 831.878 548.264C830.893 548.264 829.907 547.772 828.922 547.772C823.503 557.131 835.326 574.373 833.848 586.688C833.356 593.092 833.356 599.496 832.863 605.407C833.848 607.378 834.833 609.348 835.819 611.318L837.297 618.215L843.701 613.782C863.898 541.368 852.075 438.902 819.07 375.848C777.198 292.596 699.365 220.182 591.976 199Z" fill="#8E8E8E"/>
<path d="M877 960H737C734.239 960 732 962.239 732 965C732 967.761 734.239 970 737 970H877C879.761 970 882 967.761 882 965C882 962.239 879.761 960 877 960Z" fill="url(#paint1_linear_112_114)"/>
<defs>
<filter id="filter0_d_112_114" x="121" y="174" width="758.227" height="758.223" filterUnits="userSpaceOnUse" color-interpolation-filters="sRGB">
<feFlood flood-opacity="0" result="BackgroundImageFix"/>
<feColorMatrix in="SourceAlpha" type="matrix" values="0 0 0 0 0 0 0 0 0 0 0 0 0 0 0 0 0 0 127 0" result="hardAlpha"/>
<feOffset dy="10"/>
<feGaussianBlur stdDeviation="10"/>
<feComposite in2="hardAlpha" operator="out"/>
<feColorMatrix type="matrix" values="0 0 0 0 0 0 0 0 0 0 0 0 0 0 0 0 0 0 0.1 0"/>
<feBlend mode="normal" in2="BackgroundImageFix" result="effect1_dropShadow_112_114"/>
<feBlend mode="normal" in="SourceGraphic" in2="effect1_dropShadow_112_114" result="shape"/>
</filter>
<radialGradient id="paint0_radial_112_114" cx="0" cy="0" r="1" gradientUnits="userSpaceOnUse" gradientTransform="translate(500.113 543.111) rotate(90) scale(359.111 359.113)">
<stop offset="0.652428" stop-color="white" stop-opacity="0"/>
<stop offset="1" stop-color="#D7D7D7"/>
</radialGradient>
<linearGradient id="paint1_linear_112_114" x1="732" y1="965" x2="882" y2="965" gradientUnits="userSpaceOnUse">
<stop offset="0.333333" stop-color="#009246"/>
<stop offset="0.333334" stop-color="white"/>
<stop offset="0.666666" stop-color="white"/>
<stop offset="0.666667" stop-color="#FF0000"/>
</linearGradient>
</defs>
</svg>
