<svg width="1000" height="213" viewBox="0 0 1000 213" fill="none" xmlns="http://www.w3.org/2000/svg">
<g filter="url(#filter0_d_112_134)">
<path fill-rule="evenodd" clip-rule="evenodd" d="M381.241 162.798C425.414 162.798 461.346 126.757 461.346 82.6942C461.346 38.5209 425.304 2.58887 381.241 2.58887C337.068 2.58887 301.136 38.5209 301.136 82.6942C301.136 126.757 337.178 162.798 381.241 162.798Z" fill="white"/>
</g>
<path fill-rule="evenodd" clip-rule="evenodd" d="M381.241 162.798C425.414 162.798 461.346 126.757 461.346 82.6942C461.346 38.5209 425.304 2.58887 381.241 2.58887C337.068 2.58887 301.136 38.5209 301.136 82.6942C301.136 126.757 337.178 162.798 381.241 162.798Z" fill="url(#paint0_radial_112_134)"/>
<path d="M386.838 162.549C402.755 161.463 418.54 155.314 431.169 145.218C458.728 123.216 468.725 85.5611 455.669 53.1026C448.139 34.3243 434.392 19.5254 416.205 10.6131C404.761 5.02247 394.204 2.58887 381.182 2.58887C368.158 2.58887 357.602 5.02247 346.157 10.6131C321.492 22.7154 305.148 45.6373 301.53 73.1299C301.004 77.1758 301.004 88.1928 301.53 92.2047C305.444 121.967 324.682 146.599 352.57 157.484C359.509 160.181 368.027 162.023 376.249 162.582C381.445 162.944 381.28 162.944 386.838 162.549ZM379.965 160.543C379.603 160.115 378.978 159.161 378.583 158.405C377.893 157.024 376.249 151.729 376.249 150.874C376.249 150.512 377.202 150.413 381.182 150.413C385.161 150.413 386.115 150.512 386.115 150.874C386.115 151.729 384.47 157.024 383.78 158.405C382.892 160.148 381.872 161.267 381.182 161.267C380.885 161.267 380.326 160.937 379.965 160.543ZM384.207 160.707C385.326 158.504 386.344 155.938 387.035 153.506L387.857 150.479L390.521 150.283C392.001 150.184 394.731 149.986 396.638 149.887L400.091 149.657L398.612 151.4C395.092 155.61 391.014 158.767 387.397 160.115C385.26 160.904 383.976 161.135 384.207 160.707ZM375.295 160.247C371.644 158.998 366.942 155.314 363.225 150.775L362.305 149.657L365.725 149.887C367.632 149.986 370.362 150.184 371.842 150.283L374.506 150.479L375.328 153.506C376.018 155.938 377.038 158.504 378.156 160.707C378.353 161.102 377.432 160.97 375.295 160.247ZM391.508 159.852C393.645 158.504 397.328 155.215 399.072 153.11C402.064 149.394 402.426 149.098 403.511 149.098C404.3 149.098 408.05 148.506 415.055 147.289L416.205 147.092L414.561 148.605C412.522 150.512 406.833 154.36 403.807 155.872C400.749 157.419 398.677 158.208 394.993 159.326C391.574 160.313 390.488 160.51 391.508 159.852ZM367.501 159.326C363.719 158.24 361.68 157.452 358.556 155.872C355.53 154.36 349.841 150.512 347.802 148.605L346.157 147.092L347.308 147.289C354.313 148.506 358.062 149.098 358.852 149.098C359.937 149.098 360.266 149.394 363.357 153.176C365.133 155.314 368.652 158.471 370.855 159.852C371.875 160.477 370.954 160.346 367.501 159.326ZM351.649 155.544C347.341 153.801 345.5 152.88 341.159 150.315C338.001 148.441 332.279 144.362 330.043 142.357C328.958 141.37 328.925 141.37 332.838 142.981C334.384 143.606 337.311 144.626 339.383 145.25C342.869 146.303 343.296 146.533 345.302 148.342C349.479 152.091 353.129 154.623 357.733 156.958C359.246 157.714 360.463 158.405 360.463 158.471C360.463 158.701 355.07 156.925 351.649 155.544ZM405.419 156.696C409.398 154.59 412.588 152.354 416.403 149.032C419.428 146.369 419.593 146.27 423.111 145.218C425.085 144.626 427.979 143.606 429.524 142.981C433.438 141.37 433.405 141.37 432.32 142.357C427.814 146.402 419.823 151.466 413.739 154.229C410.22 155.808 403.478 158.306 402.722 158.306C402.525 158.306 403.741 157.583 405.419 156.696ZM375.788 148.803C375.295 148.045 372.631 130.781 372.631 128.445C372.631 128.15 374.736 128.051 381.182 128.051C388.384 128.051 389.732 128.117 389.732 128.511C389.732 130.846 387.068 148.045 386.575 148.803C386.476 148.966 384.042 149.098 381.182 149.098C378.32 149.098 375.887 148.966 375.788 148.803ZM388.613 146.664C389.338 143.245 390.094 138.081 390.686 132.82L391.245 127.886L395.323 127.656C397.592 127.558 401.835 127.196 404.794 126.899C407.754 126.571 410.253 126.439 410.352 126.538C410.68 126.868 407.984 134.662 406.043 138.903C405.09 141.008 403.61 143.902 402.755 145.382L401.143 148.045L397.987 148.276C396.244 148.375 394.599 148.539 394.336 148.572C394.072 148.638 392.56 148.704 391.014 148.737L388.153 148.77L388.613 146.664ZM363.39 148.243L361.187 148.012L359.608 145.382C358.753 143.902 357.24 140.976 356.319 138.903C354.412 134.726 351.682 126.868 352.011 126.538C352.11 126.407 354.478 126.571 357.24 126.868C360.003 127.163 363.982 127.459 366.054 127.591C371.644 127.853 371.184 127.591 371.447 130.748C371.71 134.102 373.091 143.54 373.749 146.599L374.21 148.868L369.901 148.671C367.501 148.539 364.574 148.342 363.39 148.243ZM403.216 147.585C403.216 147.454 403.741 146.5 404.366 145.448C406.635 141.732 410.22 133.181 411.601 128.15C412.094 126.407 412.292 126.077 413.048 125.947C413.509 125.848 415.745 125.453 417.981 125.091C422.421 124.335 424.658 123.874 429.656 122.592C431.432 122.132 432.978 121.835 433.077 121.934C433.635 122.526 428.341 132.49 424.92 137.259C422.717 140.35 419.297 144.428 418.474 144.921C417.949 145.218 412.292 146.402 407.655 147.125C403.347 147.816 403.216 147.849 403.216 147.585ZM352.899 146.796C350.63 146.435 347.67 145.875 346.322 145.547C344.053 144.987 343.691 144.791 342.211 143.212C339.679 140.548 336.028 135.484 333.858 131.668C331.589 127.722 329.023 122.23 329.287 121.967C329.385 121.868 330.931 122.132 332.707 122.592C337.706 123.874 339.942 124.335 344.382 125.091C346.618 125.453 348.854 125.848 349.314 125.947C350.071 126.077 350.268 126.407 350.761 128.15C352.143 133.181 355.727 141.732 357.996 145.448C358.621 146.5 359.148 147.487 359.148 147.585C359.148 147.717 358.654 147.75 358.062 147.651C357.503 147.552 355.168 147.158 352.899 146.796ZM422.421 142.85C426.204 138.641 430.215 132.261 433.306 125.453L435.346 121.046L438.93 119.797C443.304 118.25 449.782 115.093 452.183 113.285C453.17 112.529 454.058 112.002 454.124 112.101C454.486 112.43 449.388 122.033 446.856 125.848C440.871 134.792 437.714 137.786 431.202 140.778C428.702 141.929 422.52 144.132 421.664 144.165C421.435 144.165 421.763 143.573 422.421 142.85ZM337.837 143.311C332.148 141.568 326.491 138.706 323.663 136.108C319.815 132.556 313.929 124.105 310.443 117.001C309.127 114.37 308.141 112.167 308.239 112.101C308.305 112.035 309.325 112.66 310.475 113.483C313.304 115.455 319.486 118.481 323.663 119.862L327.017 120.98L328.004 123.282C331.03 130.221 334.713 136.371 338.791 141.403C340.04 142.916 340.961 144.165 340.83 144.165C340.698 144.165 339.35 143.771 337.837 143.311ZM374.867 126.538L372.401 126.308L372.006 121.506C371.612 116.607 370.987 106.51 370.987 105.03V104.208H381.182H391.376V105.195C391.376 106.642 390.785 116.014 390.357 121.539L389.962 126.374L388.12 126.505C384.635 126.703 377.334 126.736 374.867 126.538ZM391.508 124.696C391.869 121.572 392.33 114.831 392.56 109.437L392.79 104.142L398.414 103.748C403.544 103.386 410.056 102.728 413.706 102.202L415.154 101.972L414.923 103.912C414.167 110.161 412.456 119.829 411.437 123.48C411.141 124.533 410.944 124.696 409.825 124.894C407.523 125.256 396.112 126.242 393.054 126.341L391.311 126.407L391.508 124.696ZM364.574 126.077C359.246 125.683 351.551 124.828 351.32 124.597C350.531 123.841 346.848 102.761 347.407 102.202C347.473 102.136 349.906 102.334 352.768 102.695C355.629 103.057 360.595 103.517 363.784 103.748L369.573 104.142L369.803 109.437C370.033 114.831 370.493 121.572 370.855 124.696L371.052 126.407H370.132C369.605 126.407 367.106 126.242 364.574 126.077ZM412.885 123.709C413.575 121.277 415.416 111.344 415.877 107.595C416.172 105.195 416.469 102.893 416.568 102.53C416.666 101.906 417.126 101.741 419.889 101.248C424.756 100.393 431.597 98.8801 435.379 97.7956C437.221 97.2362 438.897 96.8088 439.062 96.8088C439.523 96.8088 439.457 97.7956 438.733 102.235C437.615 108.714 435.082 118.185 434.062 119.599C433.57 120.29 425.677 122.328 418.672 123.579C412.819 124.63 412.621 124.63 412.885 123.709ZM343.263 123.447C335.93 122.132 328.826 120.29 328.3 119.566C327.774 118.876 326.491 114.798 325.274 110.029C324.156 105.689 322.742 97.2692 323.071 96.9407C323.17 96.8088 324.88 97.1703 326.82 97.7296C330.799 98.8801 337.607 100.393 342.474 101.248C345.237 101.741 345.697 101.906 345.796 102.53C345.894 102.893 346.19 105.228 346.486 107.661C346.947 111.377 348.624 120.323 349.446 123.546C349.742 124.663 350.005 124.663 343.263 123.447ZM436.201 118.612C436.3 118.283 436.891 116.245 437.516 114.041C438.667 110.128 439.95 104.109 440.772 98.8153L441.199 96.0528L444.652 94.6716C450.67 92.3036 455.637 89.5411 458.629 86.8775L459.78 85.8907V86.9094C459.78 90.9223 458.136 100.228 456.492 105.425C455.604 108.286 455.34 108.714 453.86 110.062C450.507 113.088 447.053 115.093 440.871 117.56C436.496 119.336 435.937 119.468 436.201 118.612ZM321.098 117.396C314.784 114.831 308.996 111.213 307.154 108.648C305.707 106.674 303.24 95.5594 302.714 88.751L302.484 85.7918L303.668 86.8445C306.726 89.5411 311.659 92.2706 317.711 94.6716L321.164 96.0528L321.591 98.8153C322.413 104.109 323.696 110.128 324.847 114.041C325.472 116.245 326.064 118.283 326.162 118.612C326.425 119.468 325.833 119.336 321.098 117.396ZM370.855 100.492C370.756 99.2757 370.658 93.2903 370.658 87.206V76.0902H381.182H391.706V87.206C391.706 93.2903 391.607 99.2757 391.508 100.492L391.278 102.728L386.311 102.794C383.582 102.86 379.044 102.86 376.216 102.794L371.085 102.695L370.855 100.492ZM393.185 89.6718C393.316 82.4701 393.448 76.4187 393.514 76.2221C393.58 75.9913 395.158 75.7946 397.526 75.6627C399.663 75.5309 404.071 75.1364 407.327 74.7419C410.582 74.3474 413.837 74.0189 414.561 73.9859L415.877 73.9529V82.6678C415.877 94.3089 415.515 100.36 414.758 100.558C413.903 100.821 402.459 102.038 397.954 102.367C395.684 102.499 393.645 102.662 393.415 102.695C393.054 102.728 393.021 100.393 393.185 89.6718ZM359.312 101.873C353.294 101.347 347.407 100.624 347.177 100.393C346.848 100.065 346.289 85.4633 346.388 80.0361L346.486 73.9529L347.802 73.9859C348.525 74.0189 351.781 74.3474 355.037 74.7419C358.292 75.1364 362.765 75.5309 364.968 75.6627L369.013 75.8605V80.8592C369.013 83.5887 369.112 89.607 369.244 94.2441L369.441 102.629L367.336 102.499C366.185 102.433 362.568 102.136 359.312 101.873ZM417.06 96.1506C417.225 93.8815 417.357 87.8632 417.39 82.7656V73.4596L418.113 73.2947C418.507 73.1959 420.382 72.8343 422.29 72.4728C426.664 71.585 432.452 70.1378 436.333 68.9209L439.358 67.9673L439.523 68.8223C440.345 72.7684 440.508 86.2852 439.818 93.0925L439.62 95.099L434.82 96.4473C432.189 97.1703 429.262 97.9593 428.374 98.1571C426.334 98.6175 416.896 100.36 416.798 100.294C416.765 100.261 416.863 98.3867 417.06 96.1506ZM334.647 98.2889C333.364 97.9923 330.175 97.1703 327.544 96.4473L322.709 95.099L322.512 92.9277C321.887 85.6929 322.019 73.3936 322.841 68.9867L323.038 67.9673L326.031 68.9209C330.043 70.1706 335.765 71.6179 340.238 72.4728C342.211 72.8673 344.118 73.2618 344.414 73.3277C344.941 73.4925 344.973 74.3145 344.973 82.8975C344.973 88.0939 345.072 93.1585 345.138 94.1452C345.237 95.1649 345.401 96.9736 345.5 98.1571L345.664 100.327L341.323 99.5713C338.922 99.1438 335.897 98.5516 334.647 98.2889ZM441.495 84.4106C441.528 78.8197 441.396 72.7354 441.265 70.8279L440.969 67.3424L444.094 65.9941C448.007 64.3169 452.183 61.8832 454.19 60.0745C455.078 59.2852 455.834 58.6604 455.966 58.6604C456.261 58.6604 457.478 62.9685 458.301 67.0464C459.385 72.4398 459.846 76.9451 459.715 80.8592L459.616 84.115L457.248 86.1204C454.223 88.6203 450.243 90.8894 445.343 92.8947C443.238 93.7837 441.528 94.4738 441.495 94.5067C441.495 94.5067 441.495 89.9685 441.495 84.4106ZM315.376 92.2047C311.528 90.5608 307.746 88.3236 305.016 86.0215L302.747 84.115L302.649 81.1877C302.517 77.4385 303.043 72.1113 304.063 67.0464C304.885 62.9685 306.102 58.6604 306.398 58.6604C306.529 58.6604 307.286 59.2852 308.173 60.0745C310.18 61.8832 314.356 64.3169 318.27 65.9941L321.361 67.3424L321.098 70.9597C320.966 72.9662 320.835 79.0834 320.868 84.5425L320.901 94.4408L319.552 93.9474C318.796 93.6518 316.921 92.8629 315.376 92.2047ZM372.138 74.5441L370.559 74.3474L370.789 66.9149C371.02 58.8906 371.546 48.4656 371.809 46.3279L371.973 45.0125H381.182H390.39L390.554 46.3279C390.818 48.4656 391.343 58.8906 391.574 66.9477L391.803 74.4134L390.686 74.5441C388.778 74.7749 373.782 74.7749 372.138 74.5441ZM393.218 73.7222C393.12 73.2947 393.021 70.8938 393.021 68.3618C393.021 64.1853 392.79 58.9563 392.166 48.5642L391.935 44.9138L393.711 44.7165C403.314 43.7628 406.406 43.4011 408.774 43.0064C410.286 42.7104 411.568 42.5459 411.601 42.6118C411.898 42.8748 413.772 52.7737 414.364 57.016C415.154 62.804 415.91 71.7168 415.614 72.0454C415.284 72.341 410.713 72.9662 404.333 73.5903C393.382 74.643 393.481 74.643 393.218 73.7222ZM357.996 73.5903C351.485 72.9662 347.407 72.4069 346.947 72.1113C346.125 71.6179 347.604 57.8711 349.479 48.4985C350.104 45.3414 350.663 42.6775 350.729 42.6118C350.794 42.5789 352.077 42.7104 353.59 43.0064C355.958 43.4011 359.049 43.7628 368.652 44.7165L370.428 44.9138L370.197 48.5642C369.638 57.9368 369.342 64.4484 369.342 68.5263C369.342 74.9397 369.573 74.5441 365.758 74.2815C364.015 74.1497 360.529 73.8541 357.996 73.5903ZM417.225 71.0916C417.159 70.6639 416.929 68.1316 416.732 65.4021C416.205 58.3315 414.726 48.8602 413.246 43.1709C413.048 42.3157 413.081 42.2829 415.614 41.7238C419.297 40.9345 424.986 39.323 427.946 38.2378L430.511 37.317L431.465 39.1915C432.846 41.987 434.622 46.624 435.937 50.9649C437.188 55.1086 439.062 63.7578 439.062 65.4678C439.062 66.5203 439.029 66.5203 436.003 67.5068C432.189 68.7237 428.57 69.6774 423.111 70.8279C417.718 72.0124 417.423 72.0124 417.225 71.0916ZM340.172 71.0256C335.14 69.9733 330.207 68.7237 326.36 67.5068C323.334 66.5203 323.301 66.5203 323.301 65.4678C323.301 63.7578 325.176 55.1086 326.425 50.9649C327.741 46.624 329.517 41.987 330.898 39.1915L331.852 37.317L334.417 38.2378C337.377 39.323 343.066 40.9345 346.749 41.7568C349.117 42.25 349.314 42.3487 349.15 43.0064C347.9 47.5118 346.125 58.7919 345.631 65.5336C345.204 71.3212 345.105 71.8146 344.546 71.8146C344.316 71.8146 342.343 71.4531 340.172 71.0256ZM440.048 61.9162C438.667 54.2207 435.97 45.3742 433.208 39.4875L431.892 36.6922L434.359 35.4425C435.707 34.719 437.681 33.4693 438.766 32.6142L440.673 31.0686L442.713 33.6008C447.119 39.06 451.888 47.2488 454.387 53.7603L455.538 56.7858L454.617 57.7396C453.466 58.9563 450.342 61.1927 447.842 62.6068C445.771 63.7578 440.969 65.9282 440.805 65.7639C440.739 65.731 440.41 63.988 440.048 61.9162ZM317.415 64.0537C313.929 62.4094 309.522 59.5812 307.91 57.904L306.825 56.7858L307.976 53.7603C310.475 47.2488 315.244 39.06 319.651 33.6008L321.69 31.0686L323.63 32.6142C324.682 33.4693 326.656 34.719 328.037 35.4425L330.503 36.6922L329.681 38.3694C326.557 44.4863 323.531 54.6482 321.854 64.6457C321.591 66.0599 321.887 66.0927 317.415 64.0537ZM372.138 41.8225C372.598 37.4485 373.651 28.0759 373.881 26.596L374.111 24.9517H381.182H388.252L388.483 26.596C388.712 28.0759 389.765 37.4485 390.225 41.8225L390.39 43.5326H381.182H371.973L372.138 41.8225ZM391.409 39.0271C391.179 36.6922 390.719 32.5485 390.357 29.786C390.028 27.0235 389.732 24.6886 389.732 24.6228C389.732 24.5242 390.422 24.4584 391.278 24.4584C392.593 24.4584 396.277 23.9651 403.249 22.9128L404.399 22.7483L405.748 25.6423C407.984 30.5095 411.503 40.6386 411.075 41.0332C410.614 41.4936 397.724 43.105 393.975 43.1709L391.803 43.2037L391.409 39.0271ZM362.502 42.7104C357.47 42.1842 351.551 41.2963 351.288 41.0332C350.86 40.6386 354.379 30.5095 356.615 25.6423L357.964 22.7483L359.115 22.9128C366.087 23.9651 369.77 24.4584 371.052 24.4584C371.94 24.4584 372.631 24.5242 372.631 24.6228C372.631 24.6886 372.335 27.0235 372.006 29.786C371.644 32.5485 371.184 36.6922 370.954 39.0271L370.559 43.2037H368.948C368.06 43.2037 365.166 42.9735 362.502 42.7104ZM412.621 40.507C410.22 32.68 408.741 28.635 405.978 22.6496C405.912 22.4524 407.063 21.959 408.576 21.5644C410.089 21.1368 412.555 20.2818 414.101 19.6899L416.863 18.5717L417.981 19.6241C421.04 22.5181 426.235 29.4571 428.867 34.0941L429.919 35.9686L428.834 36.429C426.762 37.2842 420.185 39.2573 416.699 40.0466C412.522 41.0332 412.753 41.0003 412.621 40.507ZM344.645 39.7835C341.191 38.9613 334.22 36.8237 333.069 36.2318C332.509 35.9686 332.575 35.8042 333.529 34.0613C336.226 29.3256 341.323 22.5181 344.382 19.6241L345.5 18.5717L348.262 19.6899C349.808 20.2818 352.274 21.1368 353.787 21.5644C355.3 21.959 356.451 22.4524 356.385 22.6496C353.623 28.635 352.208 32.4827 349.742 40.507C349.676 40.7373 349.314 40.8359 348.887 40.7701C348.459 40.6714 346.552 40.2439 344.645 39.7835ZM430.15 33.4365C427.585 28.8323 422.29 21.7946 419.362 19.065C418.804 18.506 418.344 18.0126 418.344 17.8811C418.344 17.6837 421.501 15.2501 421.796 15.2501C422.158 15.2501 427.782 19.1636 430.347 21.2026C433.635 23.8006 439.391 29.3584 439.391 29.9175C439.391 30.1477 438.798 30.8055 438.042 31.3646C436.727 32.417 431.892 35.311 431.465 35.311C431.333 35.311 430.742 34.4559 430.15 33.4365ZM328.168 33.8639C325.143 32.1539 322.972 30.4766 322.972 29.8847C322.972 28.6678 334.022 19.1966 338.889 16.2696L340.731 15.1844L342.375 16.4341C343.263 17.1247 344.02 17.7495 344.02 17.8154C344.02 17.8811 342.967 19.0979 341.652 20.4792C338.692 23.6362 335.469 27.9772 333.003 32.1209C331.95 33.8639 330.997 35.311 330.865 35.311C330.766 35.311 329.55 34.6532 328.168 33.8639ZM375.624 23.2745C374.374 23.0114 374.374 22.9456 375.459 17.5852C376.446 12.685 378.189 7.25871 379.373 5.41706C380.03 4.33184 380.392 4.06879 381.182 4.06879C381.971 4.06879 382.332 4.33184 382.991 5.41706C384.174 7.25871 385.917 12.685 386.904 17.5852C387.956 22.7154 387.956 23.0443 387.003 23.2415C385.818 23.4717 376.742 23.5047 375.624 23.2745ZM388.646 18.8019C387.562 13.3099 386.377 9.13333 385.095 6.4037C384.569 5.25267 384.174 4.26602 384.24 4.20031C384.273 4.16746 385.423 4.46338 386.739 4.92379C392.429 6.83126 397.691 11.6326 402.196 18.9664C402.919 20.1503 403.413 21.2026 403.281 21.2684C402.69 21.6302 393.153 22.9785 390.521 23.11L389.534 23.143L388.646 18.8019ZM368.849 22.8141C365.527 22.4524 359.444 21.4986 359.082 21.2684C358.95 21.2026 359.444 20.1503 360.167 18.9664C364.672 11.6326 369.934 6.83126 375.624 4.92379C376.939 4.46338 378.09 4.16746 378.123 4.20031C378.189 4.26602 377.794 5.25267 377.268 6.4037C375.985 9.13333 374.801 13.3099 373.716 18.8019C373.026 22.1563 372.73 23.143 372.335 23.143C372.039 23.143 370.46 22.9785 368.849 22.8141ZM403.807 18.7362C400.947 13.8032 396.178 8.47557 392.429 6.04197C391.475 5.45003 390.719 4.92379 390.719 4.89094C390.719 4.72644 394.665 5.74594 397.099 6.53524C402.426 8.27821 409.398 12.1917 413.674 15.8422C414.627 16.6314 415.317 17.4207 415.154 17.5852C414.528 18.1771 406.8 20.7751 405.518 20.8079C405.221 20.8409 404.465 19.9201 403.807 18.7362ZM352.472 19.6241C351.057 19.1966 349.216 18.5388 348.394 18.1771C346.618 17.4207 346.651 17.355 350.268 14.5925C353.359 12.2576 357.273 9.88966 360.331 8.47557C363.028 7.25871 368.224 5.51573 370.164 5.18685L371.48 4.98961L369.178 6.60106C365.363 9.33057 360.759 14.6582 358.227 19.2952C357.405 20.8409 357.339 20.8738 356.221 20.6764C355.563 20.5449 353.886 20.0845 352.472 19.6241ZM415.022 15.0857C412.358 12.8165 408.741 10.4159 405.058 8.44271C401.472 6.53524 401.899 6.50238 406.964 8.24536C411.338 9.75813 418.377 12.981 419.954 14.1649C420.316 14.428 417.685 16.5657 416.962 16.5657C416.863 16.5657 415.976 15.9079 415.022 15.0857ZM343.494 15.4475C342.803 14.8227 342.277 14.2636 342.375 14.1978C344.118 12.718 357.569 7.0285 359.246 7.0285C359.476 7.0285 358.523 7.65341 357.174 8.37689C353.951 10.1199 349.939 12.8165 347.473 14.8884C346.388 15.8092 345.335 16.5657 345.138 16.5657C344.941 16.5657 344.217 16.0724 343.494 15.4475Z" fill="black" fill-opacity="0.1"/>
<path d="M413.27 120.323C413.489 120.323 413.709 120.323 413.819 120.323C414.039 120.433 414.259 120.543 414.478 120.653C415.028 125.378 412.72 133.18 409.314 135.268C408.874 135.048 408.325 134.828 407.885 134.608C407.775 133.729 407.995 126.916 408.325 126.147C409.534 123.84 412.281 123.73 413.27 120.323ZM444.586 81.8651C444.916 81.975 445.246 82.0849 445.575 82.1948C446.125 83.6233 446.345 85.1616 445.685 86.3704C445.356 86.3704 445.026 86.3704 444.696 86.4802C444.696 86.3704 444.696 86.2605 444.696 86.0407C444.147 85.0518 444.257 82.8541 444.586 81.8651ZM456.234 77.9093C456.564 78.1291 456.784 78.239 457.113 78.4587C457.113 78.8983 457.003 79.4477 457.003 79.8872C456.893 79.8872 456.893 79.8872 456.784 79.8872C456.564 79.8872 456.344 79.8872 456.234 79.8872C456.234 79.7773 456.234 79.6674 456.234 79.4477C456.124 79.118 456.014 78.7884 455.905 78.4587C456.014 78.3488 456.124 78.1291 456.234 77.9093ZM457.223 61.6459C457.003 62.8547 457.443 63.6239 457.663 64.8326C457.773 64.8326 457.773 64.8326 457.882 64.8326C457.663 63.7337 457.443 62.7448 457.223 61.6459ZM375.689 63.7337C375.36 64.2832 374.92 64.7227 374.59 65.2721C374.7 65.4919 374.81 65.7116 374.81 65.8215C374.92 65.8215 375.03 65.9314 375.25 65.9314C375.47 65.8215 375.579 65.8215 375.799 65.7116C376.019 65.2721 376.239 64.7227 376.458 64.2832C376.458 64.1733 376.458 64.0635 376.458 63.8437C376.239 63.8437 376.019 63.7337 375.689 63.7337ZM348.438 62.6349C348.438 62.8547 348.438 63.1843 348.548 63.4041C348.768 63.4041 349.097 63.4041 349.317 63.2943C349.317 63.0745 349.317 62.7448 349.207 62.525C348.988 62.525 348.768 62.525 348.438 62.6349ZM381.623 55.0529C381.843 55.0529 382.172 55.0529 382.392 54.943C382.392 55.1628 382.392 55.3827 382.392 55.4924C382.392 55.6023 382.282 55.8221 382.282 55.932C382.172 55.932 382.172 55.932 382.063 55.932C381.953 55.932 381.843 55.932 381.623 55.932C381.623 55.7122 381.623 55.3826 381.623 55.0529ZM356.46 55.7122C357.888 55.4924 358.438 55.4924 359.097 56.2616C359.097 56.4814 358.987 56.7012 358.987 56.9209C358.877 57.0308 358.767 57.0309 358.657 57.1407C357.449 57.1407 357.009 56.811 356.35 56.1517C356.35 56.0419 356.46 55.8221 356.46 55.7122ZM351.625 52.7453C351.845 52.7453 352.174 52.7453 352.394 52.6355C352.504 52.8552 352.614 53.075 352.614 53.1849C352.394 53.7343 352.174 54.2837 351.954 54.8331C351.844 54.8331 351.735 54.8331 351.515 54.8331C351.515 54.8331 351.515 54.8331 351.405 54.7233C351.515 54.064 351.515 53.4046 351.625 52.7453ZM351.625 50.7674C352.064 50.9872 351.735 50.7674 352.064 51.0971C351.954 50.9873 351.845 50.8773 351.625 50.7674ZM383.931 37.8011C382.942 38.4604 381.953 39.0099 380.854 39.6692C380.854 39.779 380.854 39.7791 380.854 39.8889C381.074 40.4384 381.293 40.8779 381.623 41.4273C381.513 41.5372 381.403 41.5372 381.293 41.6471C380.854 41.757 380.414 41.8668 379.865 41.9767C379.315 40.768 378.107 39.4494 376.678 39.9988C374.92 40.8779 373.492 44.1744 373.162 46.2622C373.931 46.8116 374.261 47.0314 373.931 47.8006C373.711 48.2402 373.492 48.35 373.162 48.6796C373.162 48.7895 373.162 48.8994 373.162 49.1192C373.382 49.2291 373.492 49.2291 373.492 49.3389C376.239 48.7895 377.887 46.482 380.414 45.6029C383.711 44.5041 388.216 47.4709 390.414 43.9546C390.414 43.7349 390.414 43.5151 390.414 43.4052C388.436 42.5261 386.348 41.6472 384.37 40.6581C384.26 39.8889 384.7 39.3395 384.7 37.8011C384.48 37.8011 384.26 37.8011 383.931 37.8011ZM398.985 33.6255C397.227 35.1639 395.688 35.9331 394.15 37.5814C394.26 39.1197 394.479 39.3395 395.139 40.1087C397.007 41.3174 398.765 42.4163 400.633 43.625C400.633 43.8447 400.523 44.1744 400.523 44.3942C399.754 44.7238 399.754 44.5041 399.424 45.2732C400.084 46.0424 400.633 46.9215 401.182 47.6907C403.71 47.8006 405.358 48.4599 407.556 47.1413C407.556 46.9215 407.556 46.7017 407.556 46.5919C406.457 45.493 405.688 44.2843 404.479 43.2953C404.479 43.0756 404.479 42.8558 404.479 42.7459C404.809 42.4163 405.248 42.1964 405.578 41.8668C405.248 41.5372 405.358 41.5372 404.918 41.3174C402.831 40.768 400.084 39.9988 399.424 37.8011C399.864 37.8011 400.193 37.6913 400.633 37.6913C401.182 37.8011 401.732 37.911 402.281 37.911C402.721 37.3616 403.27 36.8122 403.71 36.1529C403.71 36.043 403.71 36.043 403.71 35.9331C402.281 34.6145 401.512 33.6255 398.985 33.6255ZM339.757 37.1418C340.087 37.1418 340.417 37.1418 340.746 37.0319C340.746 37.2517 340.746 37.5814 340.856 37.8011C339.538 39.1197 339.647 40.5481 337.34 41.3174C337.34 41.2075 337.34 41.2075 337.34 41.0977C337.999 39.779 339.208 38.5703 339.757 37.1418ZM341.515 41.6471C341.406 39.5593 342.285 39.1197 343.164 37.911C342.724 36.5924 341.955 36.1529 342.504 34.6145C342.834 34.175 343.164 33.6255 343.603 33.186C343.713 33.186 343.823 33.186 344.043 33.186C344.153 33.2959 344.372 33.4058 344.482 33.5157C344.263 35.8232 345.911 39.1197 345.801 39.3395C345.581 40.1087 345.361 40.4383 344.702 40.8779C343.603 40.9878 342.614 41.3174 341.515 41.6471ZM340.417 26.4831C340.746 26.4831 341.076 26.4831 341.406 26.3732C341.406 26.593 341.296 26.9226 341.296 27.1424C340.197 27.6918 338.988 28.2412 337.889 28.7907C337.779 28.6808 337.779 28.5709 337.669 28.461C337.669 28.3511 337.779 28.2412 337.779 28.0215C338.658 27.5819 339.538 27.0325 340.417 26.4831ZM373.492 22.9668C373.272 23.6261 373.272 23.4063 373.382 24.1755C373.492 24.2854 373.711 24.3953 373.821 24.5052C374.261 24.3953 374.7 24.2854 375.14 24.1755C375.14 23.9558 375.14 23.6261 375.03 23.4063C374.92 23.2965 374.7 23.1866 374.59 23.0767C374.371 22.9668 373.931 22.9668 373.492 22.9668ZM401.952 11.9784C401.952 12.3081 402.061 12.6377 402.061 12.9674C402.281 13.0773 402.501 13.1872 402.721 13.297C402.831 13.1872 402.94 12.9674 403.05 12.8575C402.611 12.418 402.611 12.1982 401.952 11.9784ZM365.14 11.6488C365.8 11.9784 365.47 11.6488 365.8 12.418C365.36 12.7476 364.921 13.0773 364.481 13.297C362.833 12.7476 364.261 12.1982 365.14 11.6488ZM388.546 8.90168C388.985 9.01156 389.535 9.12145 389.974 9.23133C389.974 9.34121 389.864 9.56098 389.864 9.67086C388.985 10.1104 388.656 10.4401 388.216 11.2092C388.436 11.7587 388.656 12.1982 388.985 12.7476C388.875 12.7476 388.875 12.7476 388.765 12.7476C388.106 12.6377 387.447 12.418 386.788 12.3081C386.568 10.2203 387.557 10.0005 388.546 8.90168ZM401.732 5.93481C401.182 6.0447 401.072 7.47319 400.853 8.24237C400.523 9.4511 400.084 9.67086 398.985 10.2203C397.996 10.0005 397.117 9.89063 396.128 9.67086C395.908 9.89063 395.798 10.1104 395.578 10.3302C395.908 11.3191 396.238 11.429 396.677 11.9784C392.721 13.7366 388.436 13.9563 384.81 16.3738C384.26 16.0441 383.711 15.7145 383.161 15.2749C382.832 15.8244 382.832 16.0441 383.052 16.7034C381.623 18.022 379.425 18.6813 378.107 20.1098C376.788 19.9999 376.349 19.5604 375.579 18.9011C375.579 18.6813 375.579 18.3517 375.47 18.1319C377.008 17.9122 378.656 17.6924 380.195 17.5825C380.195 17.2529 380.085 16.9232 380.085 16.5936C366.679 13.297 360.086 22.4174 352.064 27.6918C352.064 28.7907 351.954 29.7796 351.954 30.8785C353.822 30.5488 353.932 29.6697 355.581 29.1203C355.69 29.1203 355.69 29.1203 355.8 29.1203C356.24 30.1093 356.679 31.0982 357.009 31.9773C357.119 32.1971 357.229 32.4168 357.229 32.5267C360.196 31.5378 359.756 28.5709 362.174 27.4721C361.844 26.2633 361.624 26.4831 361.185 25.604C361.954 23.8459 365.36 20.5494 367.558 20.1098C367.668 20.1098 367.668 20.1098 367.778 20.1098C367.888 20.3296 368.107 20.4395 368.217 20.6593C367.558 22.0877 366.02 22.5273 365.25 23.9558C365.25 24.5052 365.36 25.0546 365.36 25.4941C367.338 26.1534 369.096 24.8348 371.294 24.3953C371.404 24.6151 371.624 24.725 371.733 24.9447C370.854 26.0436 369.096 25.9337 367.668 26.7029C367.228 27.2523 367.448 27.8017 367.668 28.9005C366.899 29.0104 366.239 29.0104 365.47 29.1203C364.591 29.7796 363.822 32.1971 363.163 33.0761C359.646 33.2959 358.108 34.6145 354.372 35.054C353.493 33.8453 353.932 33.5157 354.482 32.1971C354.372 32.0872 354.372 31.9773 354.262 31.8674C354.042 31.8674 353.822 31.8674 353.713 31.8674C352.943 33.0761 352.943 33.8453 353.053 35.4936C349.537 37.8011 344.372 44.0645 340.197 44.5041C340.087 44.7238 339.977 44.9435 339.867 45.1634C340.746 45.8226 341.296 46.1523 342.065 47.1413C341.845 48.35 341.625 49.5587 341.406 50.7674C339.647 51.9762 336.681 51.7564 334.812 52.7453C334.373 56.0419 333.604 57.5803 333.933 60.9866C335.362 60.9866 335.472 61.6459 336.241 61.7558C340.197 62.525 341.186 56.9209 342.285 55.0529C343.383 53.1849 345.032 52.1959 346.021 49.9982C347.01 49.8885 347.999 49.7785 348.988 49.7785C350.196 49.3389 350.636 48.0203 352.174 47.4709C353.603 48.6796 359.317 52.4157 359.646 53.8442C359.756 53.9541 359.866 53.9541 360.086 54.0639C360.525 53.1849 360.635 53.1849 360.086 52.3058C360.415 51.6465 360.415 51.7564 361.185 51.4267C361.295 51.3169 361.295 51.0971 361.404 50.9872C358.877 49.8884 356.02 49.0093 355.031 46.1523C355.141 45.9325 355.251 45.7128 355.361 45.493C355.69 45.3831 356.02 45.1634 356.35 45.0535C358.767 46.0425 360.855 47.8006 363.492 48.8994C364.151 51.9762 365.8 52.4157 366.789 55.1628C366.899 55.1628 367.118 55.2727 367.228 55.3826C367.448 55.3826 367.778 55.3826 367.997 55.2727C368.327 54.064 368.437 53.8442 368.986 52.9651C368.217 52.086 367.778 51.8663 367.558 50.3279C368.877 49.5587 369.316 48.8994 371.404 48.7895C373.052 51.6465 373.382 53.9541 377.118 54.5035C377.447 54.0639 377.887 53.6244 378.217 53.1849C379.315 53.4047 380.414 53.5145 381.403 53.7343C382.612 53.4047 382.722 52.5256 384.7 52.3058C385.579 54.6134 385.469 57.4704 384.48 59.668C383.271 62.0855 381.953 60.5471 379.755 61.0965C378.546 61.4262 378.436 62.6349 376.678 62.525C373.711 62.4151 369.316 60.8769 367.008 61.5361C366.459 61.9757 366.02 62.4151 365.47 62.8547C365.47 63.7337 365.47 63.7338 365.8 64.3931C365.47 64.8327 365.14 65.382 364.701 65.9314C363.712 65.8215 360.855 65.492 359.866 64.9426C359.317 64.5029 358.877 63.9535 358.328 63.514C355.91 62.9646 355.031 63.5141 353.053 62.7449C353.163 61.0966 353.273 60.1076 353.273 58.6791C352.833 58.3494 352.394 58.1297 351.954 57.8C349.867 59.2285 347.229 58.8988 344.922 59.7779C341.515 61.0965 340.746 63.514 336.021 63.514C335.032 64.7227 333.164 67.0302 332.615 68.3489C332.395 69.9971 332.175 71.536 332.065 73.1843C331.186 74.1733 330.197 75.1622 329.318 76.261C328.549 79.2279 327.78 82.0849 327.011 85.0518C327.45 86.7 328 88.3483 328.439 89.8866C328.549 91.9744 328.659 94.1721 328.769 96.2599C330.637 101.863 336.351 107.247 341.076 109.665C341.955 109.225 342.834 108.676 343.713 108.236C344.702 108.236 345.691 108.346 346.68 108.346C350.636 107.357 351.405 102.412 355.8 107.797C356.899 107.577 357.888 107.357 358.987 107.137C362.723 109.335 359.976 112.412 362.283 115.269C364.481 118.126 368.217 119.664 370.305 122.741C371.074 123.84 372.393 125.818 372.613 126.697C373.052 128.235 372.173 130.433 372.832 132.301C373.821 134.608 386.128 144.827 388.765 145.926C398.985 144.168 394.479 139.333 399.314 136.037C399.534 134.169 398.765 133.4 398.325 131.751C399.644 129.773 403.27 127.795 403.82 125.488C405.138 119.225 398.545 116.477 401.292 109.884C404.699 101.973 413.27 97.4686 412.5 85.9308C412.391 85.8209 412.171 85.7111 412.061 85.6012C409.314 86.9198 406.567 88.2384 403.82 89.4471C402.171 88.1285 402.721 87.689 401.512 86.2605C399.534 85.0518 397.446 83.843 395.359 82.5244C394.919 81.5355 394.37 80.4366 393.93 79.4477C393.161 78.7884 392.392 78.239 391.622 77.6895C391.073 76.3709 390.634 74.9424 390.084 73.6238C387.447 70.7669 384.7 67.3599 382.282 64.0634C382.282 63.9535 382.282 63.9535 382.282 63.8437C383.161 64.0635 383.491 64.6128 384.04 65.2721C384.48 65.0523 384.92 64.8326 385.359 64.5029C387.996 67.0302 390.524 69.5577 393.161 72.0855C393.271 72.8546 393.381 73.514 393.49 74.2831C394.699 76.261 397.996 77.7994 399.534 79.7773C400.303 81.8651 401.072 83.9529 401.842 85.9308C403.27 86.9198 406.567 83.6233 407.446 83.0738C412.83 79.5576 418.874 74.393 419.753 67.6897C419.863 65.492 415.577 65.382 414.588 63.0744C414.259 63.0744 413.929 62.9646 413.599 62.9646C413.16 64.0634 412.83 65.0523 411.841 65.7116C411.072 65.9314 410.413 66.1512 409.643 66.2611C409.534 66.2611 409.534 66.2611 409.424 66.2611C408.984 65.6018 408.764 65.382 408.654 64.1733C407.775 63.9535 407.885 64.393 407.116 64.2832C405.578 62.7448 404.039 61.2064 402.501 59.668C402.501 59.4483 402.501 59.1186 402.391 58.8988C403.05 58.5692 403.71 58.2395 404.259 57.9099C407.446 60.2174 409.534 62.8547 414.039 60.657C418.434 63.9535 420.412 62.0855 426.016 60.8768C427.445 61.7558 430.082 63.4041 430.411 65.492C431.291 66.0414 431.291 66.4808 432.719 66.4808C433.049 66.0413 433.488 65.6018 433.818 65.1622C434.587 67.6896 435.466 70.217 436.235 72.7448C437.554 75.9314 439.861 79.0081 440.741 82.964C440.96 83.1826 441.18 83.2936 441.4 83.5134C441.62 83.5134 441.839 83.5134 441.949 83.5134C442.938 81.4256 444.037 78.7884 443.488 75.382C443.268 74.2831 443.048 73.2942 442.828 72.1953C443.268 69.8873 445.575 66.4808 446.345 64.0634C446.345 63.2942 446.345 62.6349 446.345 61.8657C447.114 61.3163 447.993 60.657 448.762 60.1076C449.312 62.1954 450.52 63.0744 451.399 64.8326C451.619 65.9314 451.839 66.9204 452.059 68.0192C452.168 68.239 452.388 68.3489 452.498 68.5686C452.718 68.3489 453.048 68.1291 453.267 67.9093C453.377 68.0192 453.597 68.0192 453.707 68.1291C454.146 69.9971 454.586 71.8657 455.025 73.8436C455.135 73.9535 455.355 73.9535 455.465 74.0634C455.795 73.4041 455.685 73.1843 456.564 72.7448C456.784 74.393 457.223 75.8215 458.652 75.6017C458.871 80.5465 458.981 86.7 457.773 90.8756C457.773 90.9855 457.773 91.0954 457.773 91.3151C457.663 91.425 457.553 91.425 457.443 91.5349C457.223 90.2163 457.003 88.8977 456.674 87.5791C457.003 87.5791 457.333 87.4692 457.663 87.4692C457.882 85.6012 457.773 82.964 457.333 80.8762C456.893 80.8762 456.564 80.7663 456.124 80.7663C456.234 82.3047 456.234 83.843 456.344 85.3814C456.234 85.3814 456.234 85.3814 456.124 85.3814C455.795 84.832 455.465 84.3924 455.245 83.843C455.025 83.843 454.806 83.7331 454.586 83.7331C453.377 85.8209 456.014 89.6669 455.685 92.414C455.575 93.8425 455.575 95.271 455.465 96.5896C455.685 97.0291 455.905 97.4686 456.124 97.9082L456.454 99.4465L457.882 98.4576C462.388 82.3047 459.75 59.4483 452.388 45.3831C443.048 26.8128 425.686 10.6598 401.732 5.93481Z" fill="#8E8E8E"/>
<path d="M11.6199 63.6556C11.6199 61.4224 11.4803 59.6427 11.2011 58.3167C10.9918 56.9907 10.4684 55.9439 9.63091 55.1762C8.79344 54.4085 7.60703 53.8851 6.07166 53.6059C4.5363 53.3268 2.51242 53.1174 0 52.9778V50.5701H35.4878V52.9778C32.9754 53.0476 30.9515 53.257 29.4162 53.6059C27.8808 53.8851 26.6943 54.4085 25.8569 55.1762C25.0194 55.9439 24.4611 57.0256 24.182 58.4214C23.9028 59.7474 23.7633 61.4921 23.7633 63.6556V116.835C23.7633 118.998 23.9028 120.778 24.182 122.174C24.5309 123.5 25.1241 124.547 25.9616 125.314C26.799 126.082 27.9855 126.64 29.5208 126.989C31.0562 127.268 33.0451 127.443 35.4878 127.513V129.711H0V127.513C2.51242 127.443 4.5363 127.268 6.07166 126.989C7.60703 126.64 8.75854 126.082 9.52621 125.314C10.3637 124.547 10.922 123.5 11.2011 122.174C11.4803 120.848 11.6199 119.068 11.6199 116.835V63.6556ZM61.6588 55.5949C58.3089 55.5949 55.5522 55.7694 53.3888 56.1184C51.295 56.4673 49.5503 57.2001 48.1545 58.3167C46.8285 59.4333 45.7468 61.0036 44.9094 63.0274C44.1417 64.9816 43.4089 67.5987 42.711 70.8787H39.7798L40.5127 50.5701H107.929L108.662 70.8787H105.731C105.032 67.5987 104.265 64.9816 103.428 63.0274C102.66 61.0036 101.613 59.4333 100.287 58.3167C98.9609 57.2001 97.2162 56.4673 95.0529 56.1184C92.8896 55.7694 90.0978 55.5949 86.6782 55.5949H80.2924V116.835C80.2924 118.998 80.4321 120.743 80.7112 122.069C80.9904 123.395 81.5138 124.442 82.2815 125.21C83.1189 125.977 84.2704 126.536 85.7361 126.885C87.2714 127.164 89.2604 127.373 91.703 127.513V129.711H56.948V127.513C59.3906 127.373 61.3447 127.164 62.8103 126.885C64.2758 126.536 65.3924 125.942 66.1602 125.105C66.9976 124.198 67.521 122.976 67.7304 121.441C68.0096 119.906 68.1491 117.882 68.1491 115.369V55.5949H61.6588ZM195.34 129.711H164.877V127.513C165.923 127.513 166.796 127.513 167.494 127.513C168.192 127.443 168.75 127.373 169.169 127.303C169.658 127.164 170.076 127.059 170.426 126.989C170.774 126.85 171.123 126.675 171.472 126.466C172.03 126.117 172.449 125.698 172.729 125.21C173.077 124.651 173.252 124.093 173.252 123.535C173.252 121.581 172.484 118.859 170.949 115.369L165.923 103.959H134.728L129.18 117.882C128.901 118.649 128.656 119.452 128.447 120.29C128.308 121.057 128.238 121.825 128.238 122.593C128.238 124.198 128.866 125.419 130.122 126.256C131.379 127.094 133.472 127.513 136.403 127.513V129.711H112.64V127.513C114.105 127.443 115.362 127.199 116.408 126.78C117.455 126.361 118.502 125.489 119.549 124.163C120.596 122.767 121.712 120.813 122.899 118.3C124.155 115.718 125.725 112.229 127.609 107.832L152.419 49.2092H154.722L184.557 117.044C185.535 119.278 186.372 121.057 187.07 122.383C187.838 123.709 188.606 124.756 189.373 125.524C190.141 126.222 190.978 126.71 191.885 126.989C192.862 127.268 194.014 127.443 195.34 127.513V129.711ZM164.353 99.1434L150.535 66.168L136.717 99.1434H164.353ZM267.677 108.984L261.814 129.711H197.643V127.513C199.807 127.373 201.551 127.129 202.877 126.78C204.273 126.431 205.32 125.873 206.018 125.105C206.786 124.337 207.309 123.29 207.588 121.964C207.867 120.638 208.006 118.929 208.006 116.835V63.6556C208.006 61.5619 207.867 59.852 207.588 58.5261C207.379 57.2001 206.89 56.1533 206.122 55.3856C205.355 54.6179 204.273 54.0596 202.877 53.7106C201.551 53.3617 199.807 53.1174 197.643 52.9778V50.5701H231.247V52.9778C228.873 53.1174 226.954 53.3617 225.488 53.7106C224.024 53.9898 222.907 54.5481 222.139 55.3856C221.372 56.1533 220.848 57.2001 220.569 58.5261C220.289 59.852 220.15 61.5619 220.15 63.6556V120.185C220.15 121.232 220.254 122.104 220.464 122.802C220.743 123.43 221.266 123.919 222.034 124.268C222.802 124.616 223.849 124.861 225.175 125C226.5 125.07 228.28 125.105 230.514 125.105H238.469C243.564 125.105 247.786 124.512 251.136 123.325C254.556 122.139 257.348 120.324 259.511 117.882C260.349 116.905 261.152 115.683 261.919 114.218C262.757 112.752 263.663 111.008 264.641 108.984H267.677Z" fill="black"/>
<path d="M542.521 128.372H540.771L511.227 63.8272V111.078C511.227 114.098 511.364 116.568 511.639 118.49C511.982 120.343 512.565 121.818 513.389 122.916C514.212 124.015 515.344 124.804 516.786 125.284C518.227 125.765 520.08 126.073 522.345 126.211V128.372H494.756V126.211C497.158 126.005 499.079 125.696 500.521 125.284C502.031 124.804 503.163 124.015 503.918 122.916C504.741 121.818 505.29 120.343 505.565 118.49C505.839 116.568 505.977 114.098 505.977 111.078V63.4153C505.977 61.2879 505.839 59.5722 505.565 58.2682C505.359 56.9643 504.844 55.9348 504.021 55.1799C503.266 54.425 502.168 53.9103 500.727 53.6358C499.285 53.2926 497.364 53.0524 494.962 52.9152V50.5475H518.227L545.301 109.946L571.448 50.5475H594.714V52.9152C592.517 53.0524 590.768 53.2926 589.464 53.6358C588.16 53.9789 587.13 54.528 586.375 55.2829C585.621 56.0378 585.105 57.0672 584.831 58.3712C584.625 59.6751 584.522 61.3565 584.522 63.4153V115.71C584.522 117.769 584.659 119.451 584.934 120.755C585.208 122.059 585.689 123.088 586.375 123.843C587.13 124.598 588.16 125.147 589.464 125.49C590.836 125.833 592.586 126.073 594.714 126.211V128.372H561.772V126.211C564.105 126.073 565.958 125.833 567.331 125.49C568.772 125.147 569.87 124.564 570.625 123.74C571.38 122.848 571.86 121.681 572.066 120.24C572.341 118.73 572.478 116.74 572.478 114.269V61.0477L542.521 128.372ZM662.759 128.372H599.346V126.211C601.474 126.073 603.189 125.833 604.493 125.49C605.866 125.147 606.895 124.598 607.581 123.843C608.336 123.088 608.851 122.059 609.125 120.755C609.4 119.451 609.538 117.769 609.538 115.71V63.4153C609.538 61.3565 609.4 59.6751 609.125 58.3712C608.92 57.0672 608.439 56.0378 607.684 55.2829C606.93 54.528 605.866 53.9789 604.493 53.6358C603.189 53.2926 601.474 53.0524 599.346 52.9152V50.5475H661.729L661.936 67.4302H659.156C658.607 64.7536 657.989 62.6261 657.303 61.0477C656.617 59.4006 655.622 58.1309 654.318 57.2388C653.082 56.3466 651.401 55.7633 649.273 55.4888C647.214 55.2142 644.538 55.077 641.244 55.077H625.391C623.812 55.077 622.748 55.3172 622.199 55.7976C621.719 56.278 621.479 57.376 621.479 59.0917V85.1364H639.493C641.896 85.1364 643.852 84.9991 645.361 84.7246C646.872 84.4501 648.072 83.9354 648.964 83.1804C649.926 82.3569 650.646 81.2245 651.126 79.7833C651.607 78.3421 652.053 76.4205 652.465 74.0185H655.244V101.298H652.465C652.053 98.8278 651.607 96.8718 651.126 95.4307C650.646 93.9208 649.959 92.7884 649.068 92.0335C648.176 91.21 646.974 90.661 645.465 90.3864C643.954 90.1119 641.964 89.9747 639.493 89.9747H621.479V119.005C621.479 120.171 621.548 121.029 621.685 121.578C621.822 122.127 622.062 122.539 622.406 122.814C622.954 123.157 624.258 123.466 626.317 123.74C628.445 123.946 630.95 124.049 633.832 124.049H637.126C641.313 124.049 644.812 123.843 647.627 123.431C650.508 123.019 652.945 122.23 654.936 121.063C656.994 119.897 658.779 118.318 660.288 116.328C661.798 114.338 663.273 111.73 664.715 108.504H668.112L662.759 128.372ZM739.555 129.711L687.568 65.0624V111.078C687.568 114.098 687.706 116.568 687.98 118.49C688.323 120.343 688.906 121.818 689.73 122.916C690.554 124.015 691.686 124.804 693.127 125.284C694.569 125.765 696.421 126.073 698.686 126.211V128.372H671.098V126.211C673.499 126.005 675.421 125.696 676.862 125.284C678.372 124.804 679.504 124.015 680.26 122.916C681.083 121.818 681.632 120.343 681.906 118.49C682.181 116.568 682.318 114.098 682.318 111.078V59.4006C681.152 58.028 680.156 56.93 679.333 56.1064C678.509 55.2142 677.686 54.5623 676.862 54.1505C676.038 53.6701 675.181 53.3613 674.288 53.224C673.397 53.0181 672.333 52.9152 671.098 52.9152V50.5475H691.172L736.363 107.475V67.8419C736.363 60.7046 735.231 56.3123 732.966 54.6652C732.074 54.1162 731.079 53.7387 729.981 53.5328C728.952 53.2583 727.339 53.0524 725.142 52.9152V50.5475H752.628V52.9152C750.432 53.0524 748.785 53.2926 747.687 53.6358C746.657 53.9789 745.765 54.425 745.011 54.974C742.677 56.4839 741.51 60.7732 741.51 67.8419V129.711H739.555ZM837.659 128.372H807.703V126.211C808.732 126.211 809.59 126.211 810.276 126.211C810.963 126.142 811.511 126.073 811.923 126.005C812.404 125.868 812.815 125.765 813.159 125.696C813.502 125.559 813.845 125.387 814.189 125.181C814.737 124.838 815.149 124.426 815.424 123.946C815.767 123.397 815.938 122.848 815.938 122.299C815.938 120.377 815.184 117.701 813.673 114.269L808.732 103.048H778.055L772.599 116.74C772.325 117.495 772.085 118.284 771.879 119.108C771.741 119.862 771.672 120.617 771.672 121.372C771.672 122.951 772.29 124.152 773.526 124.975C774.761 125.799 776.82 126.211 779.702 126.211V128.372H756.335V126.211C757.776 126.142 759.011 125.902 760.04 125.49C761.07 125.078 762.099 124.22 763.128 122.916C764.158 121.544 765.256 119.622 766.423 117.152C767.658 114.612 769.202 111.181 771.055 106.857L795.452 49.2092H797.718L827.056 115.916C828.017 118.112 828.84 119.862 829.527 121.166C830.281 122.47 831.037 123.5 831.792 124.255C832.546 124.941 833.37 125.421 834.263 125.696C835.223 125.97 836.355 126.142 837.659 126.211V128.372ZM807.189 98.3131L793.599 65.886L780.011 98.3131H807.189ZM915.896 128.372H896.955L868.954 92.1365L862.469 92.4453V115.71C862.469 117.769 862.572 119.451 862.777 120.755C863.051 122.059 863.567 123.122 864.322 123.946C865.076 124.701 866.14 125.25 867.512 125.593C868.886 125.868 870.704 126.073 872.969 126.211V128.372H840.438V126.211C842.635 126.005 844.385 125.73 845.689 125.387C847.061 125.044 848.091 124.461 848.777 123.637C849.463 122.814 849.909 121.681 850.116 120.24C850.321 118.73 850.424 116.74 850.424 114.269V63.4153C850.424 61.3565 850.321 59.7094 850.116 58.4741C849.909 57.1702 849.463 56.1407 848.777 55.3858C848.091 54.6309 847.061 54.0819 845.689 53.7387C844.385 53.3956 842.635 53.1211 840.438 52.9152V50.5475H872.866C878.631 50.5475 883.778 51.3367 888.307 52.9152C892.905 54.425 896.302 56.4839 898.499 59.0917C899.94 60.6702 901.004 62.5232 901.69 64.6507C902.376 66.7095 902.72 68.94 902.72 71.342C902.72 76.695 901.038 80.9157 897.675 84.004C894.381 87.0923 888.993 89.3914 881.513 90.9012L905.705 120.755C907.352 122.676 908.896 124.015 910.337 124.769C911.847 125.524 913.7 126.005 915.896 126.211V128.372ZM862.469 88.1217C865.213 88.0531 867.582 87.9501 869.572 87.8129C871.631 87.6756 873.415 87.4698 874.925 87.1952C876.503 86.8521 877.945 86.4403 879.248 85.9599C880.552 85.4795 881.891 84.8619 883.263 84.107C885.391 82.9402 887.038 81.2245 888.204 78.9598C889.371 76.6264 889.955 73.9842 889.955 71.0331C889.955 65.4743 888.204 61.4251 884.704 58.8859C881.273 56.278 875.783 54.974 868.233 54.974C865.9 54.974 864.355 55.2829 863.601 55.9005C862.846 56.4496 862.469 57.5476 862.469 59.1947V88.1217ZM1000 128.372H970.044V126.211C971.073 126.211 971.931 126.211 972.618 126.211C973.304 126.142 973.853 126.073 974.265 126.005C974.745 125.868 975.157 125.765 975.5 125.696C975.843 125.559 976.187 125.387 976.529 125.181C977.078 124.838 977.49 124.426 977.765 123.946C978.108 123.397 978.28 122.848 978.28 122.299C978.28 120.377 977.524 117.701 976.015 114.269L971.073 103.048H940.396L934.941 116.74C934.665 117.495 934.426 118.284 934.22 119.108C934.083 119.862 934.014 120.617 934.014 121.372C934.014 122.951 934.632 124.152 935.867 124.975C937.102 125.799 939.161 126.211 942.044 126.211V128.372H918.675V126.211C920.117 126.142 921.352 125.902 922.381 125.49C923.411 125.078 924.44 124.22 925.47 122.916C926.5 121.544 927.597 119.622 928.764 117.152C929.999 114.612 931.543 111.181 933.396 106.857L957.794 49.2092H960.058L989.397 115.916C990.358 118.112 991.182 119.862 991.868 121.166C992.623 122.47 993.378 123.5 994.132 124.255C994.888 124.941 995.711 125.421 996.603 125.696C997.564 125.97 998.696 126.142 1000 126.211V128.372ZM969.529 98.3131L955.941 65.886L942.353 98.3131H969.529Z" fill="black"/>
<path d="M4.06808 212.298C2.67977 212.298 1.6466 212.153 0.96859 211.864C0.322865 211.559 0 211.096 0 210.474V184.715C0 184.078 0.322865 183.615 0.96859 183.325C1.6466 183.035 2.67977 182.891 4.06808 182.891C5.48866 182.891 6.52185 183.035 7.16756 183.325C7.81327 183.615 8.13615 184.078 8.13615 184.715V210.474C8.13615 211.096 7.81327 211.559 7.16756 211.864C6.52185 212.153 5.48866 212.298 4.06808 212.298ZM32.3501 212.298C29.6381 212.298 28.282 211.69 28.282 210.474V184.672C28.282 183.455 29.6381 182.847 32.3501 182.847C34.1259 182.847 35.6111 183.238 36.8056 184.02L59.6641 199.44L57.9207 199.571L80.9731 184.02C82.071 183.238 83.7176 182.847 85.9129 182.847C88.1087 182.847 89.2061 183.455 89.2061 184.672V210.474C89.2061 211.69 87.8501 212.298 85.1381 212.298C82.426 212.298 81.07 211.69 81.07 210.474V188.32L83.5883 188.711L63.2479 202.133C62.0537 202.915 60.4071 203.306 58.3081 203.306C56.8552 203.306 55.5317 202.915 54.3369 202.133L33.9967 188.711L36.4182 189.015V210.474C36.4182 211.69 35.0622 212.298 32.3501 212.298ZM113.413 212.298C110.701 212.298 109.345 211.69 109.345 210.474V184.672C109.345 183.455 110.701 182.847 113.413 182.847H136.078C141.986 182.847 146.506 183.557 149.638 184.976C152.802 186.38 154.384 188.407 154.384 191.057V192.36C154.384 195.01 152.802 197.044 149.638 198.463C146.506 199.867 141.986 200.57 136.078 200.57H117.481V210.474C117.481 211.69 116.125 212.298 113.413 212.298ZM117.481 196.921H136.078C139.758 196.921 142.373 196.573 143.923 195.878C145.473 195.183 146.248 194.011 146.248 192.36V191.057C146.248 189.421 145.473 188.255 143.923 187.56C142.373 186.851 139.758 186.496 136.078 186.496H117.481V196.921ZM188.119 212.298C180.725 212.298 175.252 211.509 171.701 209.931C168.182 208.338 166.422 205.884 166.422 202.568V192.534C166.422 189.189 168.198 186.735 171.749 185.171C175.301 183.593 180.757 182.818 188.119 182.847H199.742C207.167 182.847 212.64 183.636 216.159 185.214C219.678 186.793 221.438 189.247 221.438 192.577V202.568C221.438 205.884 219.678 208.338 216.159 209.931C212.64 211.509 207.167 212.298 199.742 212.298H188.119ZM188.119 208.649H199.742C203.196 208.649 205.908 208.468 207.878 208.106C209.847 207.73 211.235 207.1 212.042 206.217C212.882 205.333 213.302 204.117 213.302 202.568V192.577C213.302 191.042 212.882 189.833 212.042 188.95C211.235 188.067 209.847 187.437 207.878 187.061C205.908 186.684 203.196 186.496 199.742 186.496H188.119C184.696 186.481 182 186.655 180.031 187.017C178.061 187.379 176.657 188.002 175.817 188.885C174.978 189.768 174.558 190.984 174.558 192.534V202.568C174.558 204.117 174.962 205.333 175.769 206.217C176.608 207.1 178.013 207.73 179.982 208.106C181.951 208.468 184.664 208.649 188.119 208.649ZM281.445 212.385C280.38 212.689 279.363 212.783 278.394 212.667C277.426 212.551 276.603 212.254 275.925 211.777L260.911 200.57H247.351V210.474C247.351 211.69 245.995 212.298 243.283 212.298C240.571 212.298 239.215 211.69 239.215 210.474V184.672C239.215 183.455 240.571 182.847 243.283 182.847H265.948C271.856 182.847 276.377 183.557 279.508 184.976C282.673 186.38 284.254 188.407 284.254 191.057V192.36C284.254 194.662 283.06 196.501 280.671 197.877C278.282 199.238 274.827 200.085 270.307 200.418L282.995 209.909C284.222 210.922 283.706 211.748 281.445 212.385ZM247.351 196.921H265.948C269.629 196.921 272.244 196.573 273.794 195.878C275.343 195.183 276.118 194.011 276.118 192.36V191.057C276.118 189.421 275.343 188.255 273.794 187.56C272.244 186.851 269.629 186.496 265.948 186.496H247.351V196.921ZM317.523 212.298C316.167 212.298 315.15 212.146 314.471 211.842C313.793 211.538 313.454 211.082 313.454 210.474V186.539H294.664C293.308 186.539 292.291 186.387 291.613 186.083C290.935 185.779 290.596 185.323 290.596 184.715C290.596 184.107 290.935 183.651 291.613 183.347C292.291 183.043 293.308 182.891 294.664 182.891H340.381C341.737 182.891 342.754 183.043 343.432 183.347C344.11 183.651 344.449 184.107 344.449 184.715C344.449 185.323 344.11 185.779 343.432 186.083C342.754 186.387 341.737 186.539 340.381 186.539H321.591V210.474C321.591 211.053 321.236 211.501 320.525 211.82C319.847 212.139 318.846 212.298 317.523 212.298ZM391.882 212.298C389.17 212.298 387.814 211.69 387.814 210.474V184.672C387.814 183.455 389.17 182.847 391.882 182.847H426.655C429.367 182.847 430.723 183.455 430.723 184.672C430.723 185.888 429.367 186.496 426.655 186.496H395.95V195.618H415.225C417.937 195.618 419.293 196.226 419.293 197.442C419.293 198.658 417.937 199.267 415.225 199.267H395.95V208.649H426.655C429.367 208.649 430.723 209.257 430.723 210.474C430.723 211.69 429.367 212.298 426.655 212.298H391.882ZM444.432 211.907C442.269 211.241 441.946 210.387 443.463 209.344L461.189 197.616L442.495 185.801C441.042 184.845 441.397 183.991 443.56 183.238C445.788 182.558 447.661 182.717 449.178 183.716L466.516 194.619L483.951 183.716C485.632 182.746 487.501 182.615 489.569 183.325C491.763 184.049 492.087 184.889 490.537 185.844L471.456 197.746L489.763 209.301C491.278 210.3 490.925 211.169 488.697 211.907C486.469 212.587 484.595 212.428 483.079 211.429L466.225 200.787L450.147 211.473C448.661 212.414 446.757 212.559 444.432 211.907ZM510.873 212.298C508.161 212.298 506.805 211.69 506.805 210.474V184.672C506.805 183.455 508.161 182.847 510.873 182.847H533.538C539.446 182.847 543.97 183.557 547.098 184.976C550.265 186.38 551.844 188.407 551.844 191.057V192.36C551.844 195.01 550.265 197.044 547.098 198.463C543.97 199.867 539.446 200.57 533.538 200.57H514.941V210.474C514.941 211.69 513.585 212.298 510.873 212.298ZM514.941 196.921H533.538C537.219 196.921 539.834 196.573 541.383 195.878C542.933 195.183 543.708 194.011 543.708 192.36V191.057C543.708 189.421 542.933 188.255 541.383 187.56C539.834 186.851 537.219 186.496 533.538 186.496H514.941V196.921ZM585.58 212.298C578.185 212.298 572.712 211.509 569.163 209.931C565.642 208.338 563.884 205.884 563.884 202.568V192.534C563.884 189.189 565.661 186.735 569.211 185.171C572.761 183.593 578.219 182.818 585.58 182.847H597.203C604.628 182.847 610.1 183.636 613.621 185.214C617.142 186.793 618.9 189.247 618.9 192.577V202.568C618.9 205.884 617.142 208.338 613.621 209.931C610.1 211.509 604.628 212.298 597.203 212.298H585.58ZM585.58 208.649H597.203C600.656 208.649 603.368 208.468 605.339 208.106C607.31 207.73 608.696 207.1 609.504 206.217C610.342 205.333 610.763 204.117 610.763 202.568V192.577C610.763 191.042 610.342 189.833 609.504 188.95C608.696 188.067 607.31 187.437 605.339 187.061C603.368 186.684 600.656 186.496 597.203 186.496H585.58C582.156 186.481 579.464 186.655 577.492 187.017C575.521 187.379 574.117 188.002 573.279 188.885C572.441 189.768 572.02 190.984 572.02 192.534V202.568C572.02 204.117 572.422 205.333 573.231 206.217C574.068 207.1 575.473 207.73 577.444 208.106C579.415 208.468 582.127 208.649 585.58 208.649ZM678.909 212.385C677.843 212.689 676.826 212.783 675.858 212.667C674.889 212.551 674.066 212.254 673.388 211.777L658.375 200.57H644.814V210.474C644.814 211.69 643.458 212.298 640.746 212.298C638.034 212.298 636.678 211.69 636.678 210.474V184.672C636.678 183.455 638.034 182.847 640.746 182.847H663.411C669.32 182.847 673.838 183.557 676.971 184.976C680.134 186.38 681.718 188.407 681.718 191.057V192.36C681.718 194.662 680.521 196.501 678.134 197.877C675.746 199.238 672.288 200.085 667.77 200.418L680.458 209.909C681.684 210.922 681.17 211.748 678.909 212.385ZM644.814 196.921H663.411C667.092 196.921 669.707 196.573 671.257 195.878C672.807 195.183 673.581 194.011 673.581 192.36V191.057C673.581 189.421 672.807 188.255 671.257 187.56C669.707 186.851 667.092 186.496 663.411 186.496H644.814V196.921ZM714.984 212.298C713.628 212.298 712.611 212.146 711.933 211.842C711.255 211.538 710.916 211.082 710.916 210.474V186.539H692.125C690.769 186.539 689.752 186.387 689.074 186.083C688.396 185.779 688.057 185.323 688.057 184.715C688.057 184.107 688.396 183.651 689.074 183.347C689.752 183.043 690.769 182.891 692.125 182.891H737.842C739.198 182.891 740.216 183.043 740.893 183.347C741.572 183.651 741.911 184.107 741.911 184.715C741.911 185.323 741.572 185.779 740.893 186.083C740.216 186.387 739.198 186.539 737.842 186.539H719.052V210.474C719.052 211.053 718.698 211.501 717.986 211.82C717.308 212.139 716.311 212.298 714.984 212.298Z" fill="#8E8E8E"/>
<path d="M996.203 179.032H765.778C763.684 179.032 761.986 180.73 761.986 182.825C761.986 184.919 763.684 186.617 765.778 186.617H996.203C998.298 186.617 999.995 184.919 999.995 182.825C999.995 180.73 998.298 179.032 996.203 179.032Z" fill="url(#paint1_linear_112_134)"/>
<defs>
<filter id="filter0_d_112_134" x="297.136" y="0.588867" width="168.21" height="168.209" filterUnits="userSpaceOnUse" color-interpolation-filters="sRGB">
<feFlood flood-opacity="0" result="BackgroundImageFix"/>
<feColorMatrix in="SourceAlpha" type="matrix" values="0 0 0 0 0 0 0 0 0 0 0 0 0 0 0 0 0 0 127 0" result="hardAlpha"/>
<feOffset dy="2"/>
<feGaussianBlur stdDeviation="2"/>
<feComposite in2="hardAlpha" operator="out"/>
<feColorMatrix type="matrix" values="0 0 0 0 0 0 0 0 0 0 0 0 0 0 0 0 0 0 0.1 0"/>
<feBlend mode="normal" in2="BackgroundImageFix" result="effect1_dropShadow_112_134"/>
<feBlend mode="normal" in="SourceGraphic" in2="effect1_dropShadow_112_134" result="shape"/>
</filter>
<radialGradient id="paint0_radial_112_134" cx="0" cy="0" r="1" gradientUnits="userSpaceOnUse" gradientTransform="translate(381.241 82.6937) rotate(90) scale(80.1048 80.1052)">
<stop offset="0.652428" stop-color="white" stop-opacity="0"/>
<stop offset="1" stop-color="#D7D7D7"/>
</radialGradient>
<linearGradient id="paint1_linear_112_134" x1="761.986" y1="182.825" x2="999.995" y2="182.825" gradientUnits="userSpaceOnUse">
<stop offset="0.333333" stop-color="#009246"/>
<stop offset="0.333334" stop-color="white"/>
<stop offset="0.666666" stop-color="white"/>
<stop offset="0.666667" stop-color="#FF0000"/>
</linearGradient>
</defs>
</svg>
