<svg width="1000" height="373" viewBox="0 0 1000 373" fill="none" xmlns="http://www.w3.org/2000/svg">
<g filter="url(#filter0_d_112_156)">
<path fill-rule="evenodd" clip-rule="evenodd" d="M404.558 309.97C488.378 309.97 556.56 241.579 556.56 157.969C556.56 74.149 488.169 5.9668 404.558 5.9668C320.738 5.9668 252.556 74.149 252.556 157.969C252.556 241.579 320.946 309.97 404.558 309.97Z" fill="white"/>
</g>
<path fill-rule="evenodd" clip-rule="evenodd" d="M404.558 309.97C488.378 309.97 556.56 241.579 556.56 157.969C556.56 74.149 488.169 5.9668 404.558 5.9668C320.738 5.9668 252.556 74.149 252.556 157.969C252.556 241.579 320.946 309.97 404.558 309.97Z" fill="url(#paint0_radial_112_156)"/>
<path d="M415.178 309.497C445.382 307.436 475.335 295.768 499.299 276.611C551.592 234.861 570.563 163.409 545.788 101.818C531.499 66.1859 505.414 38.1044 470.904 21.1931C449.188 10.5846 429.156 5.9668 404.446 5.9668C379.733 5.9668 359.702 10.5846 337.986 21.1931C291.183 44.1576 260.169 87.6526 253.304 139.821C252.306 147.498 252.306 168.403 253.304 176.016C260.73 232.49 297.236 279.232 350.154 299.886C363.321 305.003 379.484 308.498 395.085 309.559C404.944 310.245 404.632 310.245 415.178 309.497ZM402.136 305.689C401.45 304.878 400.264 303.068 399.515 301.634C398.205 299.013 395.085 288.965 395.085 287.343C395.085 286.657 396.894 286.469 404.446 286.469C411.996 286.469 413.806 286.657 413.806 287.343C413.806 288.965 410.685 299.013 409.375 301.634C407.69 304.941 405.755 307.063 404.446 307.063C403.883 307.063 402.822 306.438 402.136 305.689ZM410.186 306.002C412.309 301.821 414.242 296.953 415.553 292.336L417.113 286.594L422.167 286.221C424.976 286.033 430.155 285.658 433.775 285.47L440.326 285.034L437.52 288.341C430.841 296.329 423.103 302.32 416.239 304.878C412.184 306.375 409.748 306.813 410.186 306.002ZM393.275 305.128C386.348 302.758 377.425 295.768 370.373 287.155L368.626 285.034L375.116 285.47C378.735 285.658 383.914 286.033 386.723 286.221L391.777 286.594L393.337 292.336C394.648 296.953 396.582 301.821 398.704 306.002C399.078 306.75 397.331 306.5 393.275 305.128ZM424.04 304.38C428.095 301.821 435.084 295.581 438.393 291.586C444.071 284.534 444.757 283.973 446.817 283.973C448.314 283.973 455.428 282.849 468.721 280.541L470.904 280.166L467.785 283.037C463.915 286.657 453.12 293.958 447.378 296.828C441.575 299.761 437.643 301.258 430.653 303.381C424.165 305.253 422.105 305.627 424.04 304.38ZM378.485 303.381C371.309 301.321 367.44 299.824 361.512 296.828C355.771 293.958 344.975 286.657 341.106 283.037L337.986 280.166L340.17 280.541C353.462 282.849 360.576 283.973 362.073 283.973C364.133 283.973 364.757 284.534 370.623 291.711C373.992 295.768 380.669 301.759 384.85 304.38C386.785 305.564 385.038 305.316 378.485 303.381ZM348.407 296.204C340.232 292.897 336.738 291.15 328.5 286.281C322.51 282.726 311.652 274.986 307.408 271.181C305.349 269.309 305.286 269.309 312.712 272.365C315.645 273.552 321.199 275.487 325.131 276.671C331.745 278.669 332.557 279.106 336.363 282.539C344.288 289.653 351.215 294.457 359.952 298.888C362.822 300.322 365.131 301.634 365.131 301.759C365.131 302.195 354.897 298.825 348.407 296.204ZM450.437 298.389C457.987 294.394 464.04 290.151 471.279 283.848C477.019 278.794 477.332 278.606 484.009 276.611C487.753 275.487 493.246 273.552 496.177 272.365C503.604 269.309 503.542 269.309 501.482 271.181C492.933 278.856 477.768 288.466 466.225 293.708C459.546 296.705 446.754 301.446 445.32 301.446C444.945 301.446 447.253 300.074 450.437 298.389ZM394.211 283.412C393.275 281.976 388.22 249.215 388.22 244.784C388.22 244.223 392.214 244.035 404.446 244.035C418.112 244.035 420.67 244.16 420.67 244.909C420.67 249.34 415.616 281.976 414.68 283.412C414.492 283.723 409.874 283.973 404.446 283.973C399.016 283.973 394.398 283.723 394.211 283.412ZM418.547 279.355C419.922 272.866 421.356 263.068 422.48 253.085L423.541 243.723L431.279 243.287C435.585 243.099 443.635 242.413 449.25 241.85C454.868 241.227 459.609 240.977 459.797 241.164C460.42 241.79 455.303 256.579 451.621 264.628C449.813 268.623 447.005 274.113 445.382 276.921L442.324 281.976L436.333 282.413C433.026 282.601 429.905 282.912 429.407 282.974C428.906 283.099 426.037 283.224 423.103 283.287L417.674 283.35L418.547 279.355ZM370.685 282.351L366.504 281.913L363.509 276.921C361.886 274.113 359.016 268.56 357.268 264.628C353.649 256.702 348.469 241.79 349.093 241.164C349.281 240.916 353.774 241.227 359.016 241.79C364.258 242.351 371.808 242.911 375.74 243.162C386.348 243.66 385.474 243.162 385.974 249.152C386.473 255.518 389.094 273.427 390.342 279.232L391.216 283.537L383.041 283.162C378.485 282.912 372.931 282.538 370.685 282.351ZM446.256 281.102C446.256 280.854 447.253 279.044 448.439 277.046C452.745 269.995 459.546 253.771 462.167 244.223C463.104 240.916 463.479 240.291 464.913 240.042C465.787 239.855 470.03 239.106 474.273 238.418C482.699 236.984 486.942 236.11 496.427 233.677C499.797 232.803 502.731 232.24 502.918 232.428C503.977 233.552 493.932 252.459 487.441 261.508C483.26 267.374 476.771 275.111 475.21 276.048C474.213 276.611 463.479 278.856 454.68 280.228C446.504 281.54 446.256 281.602 446.256 281.102ZM350.778 279.605C346.473 278.919 340.856 277.857 338.298 277.234C333.992 276.173 333.306 275.799 330.497 272.803C325.692 267.749 318.765 258.139 314.647 250.899C310.341 243.412 305.474 232.991 305.973 232.49C306.16 232.303 309.093 232.803 312.463 233.677C321.948 236.11 326.191 236.984 334.616 238.418C338.859 239.106 343.103 239.855 343.976 240.042C345.412 240.291 345.786 240.916 346.722 244.223C349.343 253.771 356.145 269.995 360.451 277.046C361.637 279.044 362.635 280.916 362.635 281.102C362.635 281.352 361.699 281.415 360.576 281.227C359.515 281.039 355.084 280.291 350.778 279.605ZM482.699 272.117C489.876 264.129 497.489 252.023 503.354 239.106L507.224 230.743L514.025 228.372C522.324 225.438 534.618 219.448 539.174 216.016C541.046 214.581 542.731 213.583 542.856 213.77C543.542 214.394 533.869 232.615 529.065 239.855C517.708 256.827 511.717 262.507 499.361 268.185C494.618 270.37 482.887 274.551 481.263 274.613C480.827 274.613 481.45 273.489 482.699 272.117ZM322.198 272.991C311.402 269.684 300.669 264.254 295.302 259.323C288.001 252.584 276.83 236.548 270.216 223.068C267.72 218.076 265.847 213.895 266.035 213.77C266.16 213.645 268.094 214.83 270.278 216.391C275.645 220.134 287.377 225.876 295.302 228.497L301.667 230.618L303.539 234.986C309.28 248.153 316.269 259.824 324.007 269.371C326.379 272.242 328.126 274.613 327.876 274.613C327.627 274.613 325.068 273.865 322.198 272.991ZM392.464 241.164L387.784 240.728L387.035 231.617C386.286 222.319 385.1 203.161 385.1 200.353V198.793H404.446H423.789V200.666C423.789 203.412 422.668 221.195 421.856 231.679L421.106 240.854L417.611 241.102C410.997 241.477 397.144 241.54 392.464 241.164ZM424.04 237.67C424.726 231.742 425.599 218.95 426.037 208.714L426.473 198.668L437.144 197.92C446.88 197.234 459.236 195.985 466.162 194.986L468.908 194.55L468.471 198.23C467.036 210.088 463.79 228.435 461.857 235.361C461.294 237.359 460.921 237.67 458.798 238.045C454.43 238.731 432.776 240.603 426.973 240.791L423.666 240.916L424.04 237.67ZM372.931 240.291C362.822 239.542 348.22 237.92 347.783 237.482C346.285 236.047 339.296 196.047 340.357 194.986C340.482 194.861 345.1 195.236 350.529 195.922C355.958 196.608 365.381 197.482 371.434 197.92L382.417 198.668L382.854 208.714C383.29 218.95 384.164 231.742 384.85 237.67L385.225 240.916H383.478C382.479 240.916 377.737 240.603 372.931 240.291ZM464.603 235.797C465.912 231.181 469.407 212.334 470.28 205.219C470.841 200.666 471.404 196.297 471.592 195.609C471.778 194.425 472.651 194.112 477.893 193.176C487.13 191.554 500.11 188.683 507.287 186.625C510.781 185.563 513.963 184.752 514.276 184.752C515.149 184.752 515.024 186.625 513.65 195.048C511.53 207.342 506.724 225.313 504.789 227.997C503.854 229.308 488.877 233.176 475.585 235.549C464.478 237.544 464.102 237.544 464.603 235.797ZM332.494 235.299C318.578 232.803 305.099 229.308 304.101 227.934C303.102 226.625 300.669 218.887 298.36 209.838C296.238 201.602 293.554 185.626 294.179 185.002C294.366 184.752 297.611 185.438 301.293 186.5C308.843 188.683 321.761 191.554 330.996 193.176C336.238 194.112 337.112 194.425 337.299 195.609C337.487 196.297 338.048 200.728 338.61 205.345C339.483 212.396 342.666 229.371 344.226 235.486C344.788 237.607 345.287 237.607 332.494 235.299ZM508.846 226.124C509.034 225.501 510.156 221.633 511.342 217.451C513.525 210.026 515.96 198.606 517.52 188.56L518.331 183.318L524.883 180.697C536.303 176.203 545.727 170.962 551.405 165.907L553.588 164.035V165.968C553.588 173.582 550.469 191.241 547.349 201.101C545.665 206.531 545.164 207.342 542.356 209.9C535.992 215.643 529.438 219.448 517.708 224.129C509.407 227.499 508.346 227.749 508.846 226.124ZM290.434 223.816C278.453 218.95 267.47 212.086 263.975 207.217C261.23 203.472 256.549 182.382 255.551 169.462L255.114 163.847L257.361 165.845C263.164 170.962 272.525 176.141 284.007 180.697L290.559 183.318L291.371 188.56C292.931 198.606 295.364 210.026 297.548 217.451C298.734 221.633 299.857 225.501 300.044 226.124C300.544 227.749 299.42 227.499 290.434 223.816ZM384.85 191.741C384.663 189.433 384.476 178.076 384.476 166.531V145.438H404.446H424.415V166.531C424.415 178.076 424.227 189.433 424.04 191.741L423.604 195.985L414.179 196.11C409 196.235 400.389 196.235 395.022 196.11L385.287 195.922L384.85 191.741ZM427.221 171.21C427.472 157.544 427.722 146.061 427.847 145.688C427.972 145.25 430.966 144.877 435.46 144.627C439.515 144.377 447.878 143.628 454.056 142.88C460.235 142.131 466.411 141.508 467.785 141.445L470.28 141.383V157.919C470.28 180.009 469.594 191.491 468.158 191.867C466.536 192.365 444.82 194.675 436.271 195.299C431.965 195.549 428.095 195.86 427.659 195.922C426.973 195.985 426.911 191.554 427.221 171.21ZM362.947 194.362C351.527 193.364 340.357 191.992 339.92 191.554C339.296 190.93 338.235 163.224 338.423 152.926L338.61 141.383L341.106 141.445C342.479 141.508 348.657 142.131 354.835 142.88C361.012 143.628 369.499 144.377 373.68 144.627L381.356 145.002V154.487C381.356 159.667 381.543 171.087 381.793 179.886L382.167 195.797L378.173 195.549C375.989 195.424 369.125 194.861 362.947 194.362ZM472.526 183.503C472.839 179.198 473.089 167.778 473.152 158.105V140.446L474.524 140.134C475.272 139.946 478.829 139.26 482.449 138.574C490.75 136.889 501.732 134.143 509.096 131.834L514.837 130.024L515.149 131.647C516.709 139.135 517.02 164.783 515.71 177.701L515.335 181.508L506.225 184.066C501.234 185.438 495.679 186.935 493.994 187.311C490.124 188.184 472.215 191.491 472.028 191.366C471.965 191.304 472.153 187.746 472.526 183.503ZM316.144 187.561C313.711 186.998 307.658 185.438 302.665 184.066L293.492 181.508L293.118 177.388C291.932 163.66 292.182 140.321 293.742 131.959L294.116 130.024L299.795 131.834C307.408 134.205 318.266 136.952 326.753 138.574C330.497 139.322 334.117 140.071 334.678 140.196C335.677 140.509 335.739 142.069 335.739 158.355C335.739 168.215 335.926 177.826 336.051 179.698C336.238 181.633 336.55 185.065 336.738 187.311L337.05 191.429L328.812 189.994C324.257 189.183 318.516 188.059 316.144 187.561ZM518.892 161.226C518.955 150.617 518.704 139.072 518.456 135.453L517.893 128.839L523.823 126.28C531.248 123.098 539.174 118.48 542.981 115.048C544.666 113.55 546.1 112.364 546.351 112.364C546.911 112.364 549.22 120.539 550.781 128.277C552.839 138.511 553.713 147.06 553.465 154.487L553.277 160.665L548.784 164.471C543.044 169.214 535.491 173.52 526.194 177.325C522.199 179.012 518.955 180.321 518.892 180.384C518.892 180.384 518.892 171.773 518.892 161.226ZM279.576 176.016C272.275 172.896 265.099 168.651 259.919 164.283L255.613 160.665L255.426 155.111C255.177 147.996 256.175 137.888 258.109 128.277C259.67 120.539 261.979 112.364 262.54 112.364C262.79 112.364 264.225 113.55 265.91 115.048C269.717 118.48 277.642 123.098 285.068 126.28L290.934 128.839L290.434 135.703C290.185 139.51 289.935 151.118 289.998 161.476L290.06 180.259L287.501 179.323C286.066 178.762 282.509 177.265 279.576 176.016ZM387.284 142.504L384.289 142.131L384.726 128.028C385.163 112.801 386.161 93.0194 386.66 88.9631L386.972 86.4671H404.446H421.919L422.23 88.9631C422.73 93.0194 423.727 112.801 424.165 128.09L424.6 142.256L422.48 142.504C418.86 142.942 390.404 142.942 387.284 142.504ZM427.284 140.945C427.098 140.134 426.911 135.578 426.911 130.773C426.911 122.848 426.473 112.926 425.289 93.2065L424.851 86.2798L428.22 85.9053C446.442 84.0957 452.309 83.4093 456.802 82.6603C459.672 82.0988 462.105 81.7867 462.167 81.9116C462.73 82.4107 466.288 101.194 467.409 109.244C468.908 120.227 470.343 137.139 469.782 137.763C469.157 138.324 460.483 139.51 448.377 140.694C427.597 142.692 427.784 142.692 427.284 140.945ZM360.451 140.694C348.095 139.51 340.357 138.449 339.483 137.888C337.923 136.952 340.731 110.867 344.288 93.0818C345.474 87.0911 346.535 82.0363 346.66 81.9116C346.785 81.8492 349.218 82.0988 352.089 82.6603C356.582 83.4093 362.448 84.0957 380.669 85.9053L384.039 86.2798L383.603 93.2065C382.542 110.991 381.98 123.347 381.98 131.085C381.98 143.255 382.417 142.504 375.178 142.006C371.871 141.756 365.256 141.195 360.451 140.694ZM472.839 135.953C472.714 135.141 472.278 130.336 471.903 125.157C470.904 111.74 468.097 93.7682 465.289 82.9725C464.913 81.3499 464.976 81.2875 469.782 80.2266C476.771 78.7289 487.566 75.6711 493.183 73.6119L498.05 71.8646L499.859 75.4216C502.48 80.726 505.85 89.5248 508.346 97.762C510.719 105.625 514.276 122.037 514.276 125.282C514.276 127.279 514.213 127.279 508.471 129.151C501.234 131.46 494.367 133.269 484.009 135.453C473.775 137.7 473.214 137.7 472.839 135.953ZM326.628 135.828C317.081 133.831 307.72 131.46 300.419 129.151C294.678 127.279 294.615 127.279 294.615 125.282C294.615 122.037 298.172 105.625 300.544 97.762C303.04 89.5248 306.41 80.726 309.031 75.4216L310.84 71.8646L315.708 73.6119C321.324 75.6711 332.12 78.7289 339.109 80.2892C343.602 81.2252 343.976 81.4124 343.664 82.6603C341.293 91.2096 337.923 112.614 336.987 125.407C336.176 136.389 335.989 137.325 334.928 137.325C334.491 137.325 330.747 136.639 326.628 135.828ZM516.146 118.542C513.525 103.94 508.408 87.1535 503.166 75.9833L500.671 70.679L505.352 68.3077C507.91 66.9348 511.655 64.5635 513.713 62.9409L517.332 60.008L521.202 64.8131C529.564 75.172 538.613 90.7104 543.354 103.066L545.539 108.807L543.792 110.617C541.607 112.926 535.679 117.17 530.936 119.853C527.005 122.037 517.893 126.155 517.583 125.843C517.458 125.781 516.834 122.474 516.146 118.542ZM283.445 122.598C276.83 119.478 268.468 114.112 265.411 110.929L263.351 108.807L265.536 103.066C270.278 90.7104 279.327 75.172 287.689 64.8131L291.558 60.008L295.239 62.9409C297.236 64.5635 300.98 66.9348 303.601 68.3077L308.282 70.679L306.722 73.8615C300.793 85.4685 295.052 104.751 291.87 123.722C291.371 126.405 291.932 126.468 283.445 122.598ZM387.284 80.4139C388.158 72.1142 390.155 54.3293 390.591 51.5211L391.028 48.401H404.446H417.861L418.299 51.5211C418.735 54.3293 420.733 72.1142 421.606 80.4139L421.919 83.6589H404.446H386.972L387.284 80.4139ZM423.852 75.1096C423.416 70.679 422.542 62.8162 421.856 57.5743C421.231 52.3324 420.67 47.9018 420.67 47.7769C420.67 47.5899 421.98 47.465 423.604 47.465C426.1 47.465 433.089 46.529 446.319 44.5321L448.502 44.2199L451.06 49.7114C455.303 58.9471 461.982 78.1674 461.169 78.9161C460.295 79.7898 435.835 82.8476 428.721 82.9725L424.6 83.0348L423.852 75.1096ZM369 82.0988C359.452 81.1003 348.22 79.4155 347.721 78.9161C346.909 78.1674 353.586 58.9471 357.83 49.7114L360.388 44.2199L362.573 44.5321C375.802 46.529 382.791 47.465 385.225 47.465C386.91 47.465 388.22 47.5899 388.22 47.7769C388.22 47.9018 387.659 52.3324 387.035 57.5743C386.348 62.8162 385.475 70.679 385.038 75.1096L384.289 83.0348H381.231C379.546 83.0348 374.055 82.598 369 82.0988ZM464.102 77.9178C459.546 63.0658 456.74 55.3902 451.498 44.0327C451.373 43.6584 453.556 42.7222 456.427 41.9735C459.298 41.1622 463.977 39.5398 466.911 38.4165L472.153 36.2948L474.273 38.2916C480.078 43.7831 489.937 56.9502 494.93 65.7491L496.926 69.306L494.868 70.1796C490.935 71.8023 478.456 75.5464 471.84 77.0442C463.915 78.9161 464.353 78.8538 464.102 77.9178ZM335.115 76.5448C328.563 74.9847 315.333 70.9286 313.149 69.8054C312.088 69.306 312.213 68.9941 314.023 65.6867C319.14 56.7006 328.812 43.7831 334.616 38.2916L336.738 36.2948L341.979 38.4165C344.912 39.5398 349.593 41.1622 352.463 41.9735C355.334 42.7222 357.518 43.6584 357.393 44.0327C352.151 55.3902 349.468 62.6913 344.788 77.9178C344.663 78.3546 343.976 78.5419 343.165 78.417C342.354 78.2297 338.734 77.4184 335.115 76.5448ZM497.364 64.5011C492.497 55.7646 482.449 42.4103 476.894 37.2307C475.835 36.1701 474.961 35.2339 474.961 34.9843C474.961 34.6098 480.952 29.992 481.513 29.992C482.199 29.992 492.87 37.418 497.739 41.2871C503.977 46.2168 514.899 56.763 514.899 57.8239C514.899 58.2607 513.775 59.5088 512.341 60.5697C509.845 62.5666 500.671 68.0581 499.859 68.0581C499.609 68.0581 498.487 66.4355 497.364 64.5011ZM303.851 65.3122C298.11 62.0674 293.991 58.8847 293.991 57.7615C293.991 55.4525 314.959 37.4805 324.195 31.9265L327.689 29.8673L330.809 32.2386C332.494 33.5491 333.929 34.7347 333.929 34.8596C333.929 34.9843 331.932 37.2933 329.436 39.9142C323.82 45.9049 317.704 54.142 313.024 62.0049C311.027 65.3122 309.218 68.0581 308.968 68.0581C308.781 68.0581 306.472 66.8099 303.851 65.3122ZM393.899 45.2185C391.528 44.7193 391.528 44.5944 393.587 34.4228C395.459 25.1245 398.766 14.828 401.013 11.3334C402.261 9.27415 402.947 8.77499 404.446 8.77499C405.943 8.77499 406.629 9.27415 407.878 11.3334C410.124 14.828 413.431 25.1245 415.303 34.4228C417.301 44.1576 417.301 44.7817 415.491 45.1559C413.243 45.5928 396.021 45.6553 393.899 45.2185ZM418.61 36.7316C416.552 26.3103 414.304 18.3851 411.871 13.2056C410.872 11.0215 410.124 9.14926 410.249 9.02457C410.311 8.96223 412.494 9.52374 414.99 10.3974C425.787 14.0169 435.772 23.1277 444.321 37.0437C445.693 39.2902 446.629 41.2871 446.379 41.4117C445.257 42.0984 427.161 44.6568 422.167 44.9064L420.295 44.9689L418.61 36.7316ZM381.044 44.3448C374.741 43.6584 363.197 41.8486 362.51 41.4117C362.26 41.2871 363.197 39.2902 364.569 37.0437C373.119 23.1277 383.103 14.0169 393.899 10.3974C396.395 9.52374 398.579 8.96223 398.642 9.02457C398.766 9.14926 398.018 11.0215 397.019 13.2056C394.585 18.3851 392.339 26.3103 390.28 36.7316C388.969 43.0967 388.408 44.9689 387.659 44.9689C387.097 44.9689 384.102 44.6568 381.044 44.3448ZM447.378 36.6069C441.95 27.2463 432.901 17.137 425.787 12.5192C423.977 11.3959 422.542 10.3974 422.542 10.335C422.542 10.0229 430.03 11.9574 434.648 13.4552C444.757 16.7625 457.987 24.1885 466.1 31.1154C467.91 32.6129 469.219 34.1106 468.908 34.4228C467.722 35.546 453.058 40.4758 450.624 40.5381C450.061 40.6007 448.627 38.8534 447.378 36.6069ZM349.967 38.2916C347.284 37.4805 343.789 36.2324 342.229 35.546C338.859 34.1106 338.922 33.9859 345.786 28.744C351.652 24.3134 359.078 19.8203 364.881 17.137C369.999 14.828 379.858 11.5206 383.54 10.8966L386.036 10.5223L381.668 13.5801C374.429 18.7594 365.693 28.8687 360.888 37.6676C359.328 40.6007 359.203 40.663 357.081 40.2885C355.833 40.0389 352.65 39.1653 349.967 38.2916ZM468.658 29.68C463.604 25.3741 456.74 20.8188 449.751 17.0747C442.947 13.4552 443.758 13.3928 453.368 16.7002C461.669 19.5707 475.024 25.6863 478.018 27.9327C478.704 28.4319 473.712 32.4882 472.34 32.4882C472.153 32.4882 470.468 31.2401 468.658 29.68ZM332.931 30.3664C331.621 29.1809 330.622 28.12 330.809 27.9951C334.117 25.1871 359.639 14.3912 362.822 14.3912C363.259 14.3912 361.449 15.5769 358.891 16.9498C352.775 20.2571 345.162 25.3741 340.482 29.3055C338.423 31.0528 336.426 32.4882 336.051 32.4882C335.677 32.4882 334.304 31.5522 332.931 30.3664Z" fill="black" fill-opacity="0.1"/>
<path d="M465.333 229.372C465.75 229.372 466.167 229.372 466.376 229.372C466.793 229.58 467.21 229.789 467.627 229.997C468.669 238.963 464.291 253.767 457.827 257.729C456.993 257.312 455.95 256.895 455.116 256.478C454.908 254.81 455.325 241.882 455.95 240.423C458.244 236.044 463.457 235.836 465.333 229.372ZM524.758 156.396C525.384 156.604 526.009 156.813 526.635 157.021C527.677 159.732 528.094 162.651 526.843 164.945C526.218 164.945 525.592 164.945 524.967 165.153C524.967 164.945 524.967 164.736 524.967 164.319C523.924 162.443 524.133 158.273 524.758 156.396ZM546.86 148.89C547.486 149.307 547.903 149.515 548.528 149.932C548.528 150.766 548.32 151.809 548.32 152.643C548.111 152.643 548.111 152.643 547.903 152.643C547.486 152.643 547.069 152.643 546.86 152.643C546.86 152.434 546.86 152.226 546.86 151.809C546.652 151.183 546.443 150.558 546.235 149.932C546.443 149.724 546.652 149.307 546.86 148.89ZM548.737 118.029C548.32 120.323 549.154 121.783 549.571 124.076C549.779 124.076 549.779 124.076 549.988 124.076C549.571 121.991 549.154 120.114 548.737 118.029ZM394.023 121.991C393.398 123.034 392.564 123.868 391.938 124.91C392.147 125.327 392.355 125.744 392.355 125.953C392.564 125.953 392.772 126.161 393.189 126.161C393.606 125.953 393.815 125.953 394.232 125.744C394.649 124.91 395.066 123.868 395.483 123.034C395.483 122.825 395.483 122.617 395.483 122.2C395.066 122.2 394.649 121.991 394.023 121.991ZM342.313 119.906C342.313 120.323 342.313 120.949 342.522 121.366C342.939 121.366 343.564 121.366 343.981 121.157C343.981 120.74 343.981 120.114 343.773 119.697C343.356 119.697 342.939 119.697 342.313 119.906ZM405.283 105.519C405.7 105.519 406.325 105.519 406.742 105.31C406.742 105.727 406.742 106.145 406.742 106.353C406.742 106.561 406.534 106.978 406.534 107.187C406.325 107.187 406.325 107.187 406.117 107.187C405.908 107.187 405.7 107.187 405.283 107.187C405.283 106.77 405.283 106.144 405.283 105.519ZM357.535 106.77C360.245 106.353 361.288 106.353 362.539 107.812C362.539 108.229 362.33 108.647 362.33 109.064C362.122 109.272 361.913 109.272 361.705 109.481C359.411 109.481 358.577 108.855 357.326 107.604C357.326 107.395 357.535 106.978 357.535 106.77ZM348.36 101.14C348.777 101.14 349.403 101.14 349.82 100.932C350.028 101.349 350.237 101.766 350.237 101.974C349.82 103.017 349.403 104.059 348.986 105.102C348.777 105.102 348.569 105.102 348.152 105.102C348.152 105.102 348.152 105.102 347.943 104.893C348.152 103.642 348.152 102.391 348.36 101.14ZM348.36 97.3871C349.194 97.8041 348.569 97.3871 349.194 98.0126C348.986 97.8043 348.777 97.5956 348.36 97.3871ZM409.662 72.7831C407.785 74.0341 405.908 75.0767 403.823 76.3277C403.823 76.5362 403.823 76.5362 403.823 76.7448C404.24 77.7873 404.657 78.6213 405.283 79.6639C405.074 79.8724 404.866 79.8724 404.657 80.0809C403.823 80.2894 402.989 80.4979 401.947 80.7064C400.904 78.4128 398.611 75.9107 395.9 76.9533C392.564 78.6213 389.853 84.8766 389.228 88.8382C390.687 89.8808 391.313 90.2978 390.687 91.7573C390.27 92.5916 389.853 92.7999 389.228 93.4254C389.228 93.6339 389.228 93.8424 389.228 94.2594C389.645 94.4679 389.853 94.468 389.853 94.6765C395.066 93.6339 398.194 89.2552 402.989 87.5872C409.245 85.5021 417.793 91.1318 421.964 84.4595C421.964 84.0425 421.964 83.6255 421.964 83.417C418.21 81.7489 414.249 80.0811 410.496 78.2043C410.287 76.7447 411.121 75.7022 411.121 72.7831C410.704 72.7831 410.287 72.7831 409.662 72.7831ZM438.227 64.8598C434.891 67.7789 431.972 69.2384 429.053 72.3661C429.261 75.2852 429.678 75.7022 430.929 77.1618C434.474 79.4554 437.81 81.5404 441.355 83.834C441.355 84.251 441.146 84.8766 441.146 85.2936C439.687 85.9191 439.687 85.5021 439.061 86.9616C440.312 88.4212 441.355 90.0893 442.397 91.5488C447.193 91.7573 450.321 93.0084 454.491 90.5063C454.491 90.0893 454.491 89.6723 454.491 89.4638C452.406 87.3787 450.946 85.0851 448.653 83.2085C448.653 82.7915 448.653 82.3745 448.653 82.166C449.278 81.5404 450.112 81.1232 450.738 80.4979C450.112 79.8724 450.321 79.8724 449.487 79.4553C445.525 78.4128 440.312 76.9533 439.061 72.7831C439.895 72.7831 440.521 72.5746 441.355 72.5746C442.397 72.7831 443.44 72.9916 444.482 72.9916C445.317 71.9491 446.359 70.9065 447.193 69.6555C447.193 69.447 447.193 69.4469 447.193 69.2384C444.482 66.7363 443.023 64.8598 438.227 64.8598ZM325.841 71.532C326.467 71.532 327.092 71.532 327.718 71.3235C327.718 71.7405 327.718 72.3661 327.926 72.7831C325.424 75.2852 325.633 77.9956 321.254 79.4553C321.254 79.2468 321.254 79.2468 321.254 79.0383C322.505 76.5362 324.799 74.2426 325.841 71.532ZM329.177 80.0809C328.969 76.1192 330.637 75.2852 332.305 72.9916C331.471 70.4895 330.011 69.6555 331.054 66.7363C331.679 65.9023 332.305 64.8598 333.139 64.0257C333.348 64.0257 333.556 64.0257 333.973 64.0257C334.182 64.2342 334.599 64.4428 334.807 64.6513C334.39 69.0299 337.518 75.2852 337.309 75.7022C336.892 77.1618 336.475 77.7873 335.224 78.6213C333.139 78.8298 331.262 79.4554 329.177 80.0809ZM327.092 51.3067C327.718 51.3067 328.343 51.3067 328.969 51.0982C328.969 51.5152 328.76 52.1408 328.76 52.5578C326.675 53.6003 324.382 54.6429 322.297 55.6854C322.088 55.4769 322.088 55.2684 321.88 55.0599C321.88 54.8514 322.088 54.6429 322.088 54.2258C323.756 53.3918 325.424 52.3493 327.092 51.3067ZM389.853 44.6345C389.436 45.8855 389.436 45.4685 389.645 46.9281C389.853 47.1366 390.27 47.3451 390.479 47.5536C391.313 47.3451 392.147 47.1366 392.981 46.9281C392.981 46.511 392.981 45.8855 392.772 45.4685C392.564 45.26 392.147 45.0515 391.938 44.843C391.521 44.6345 390.687 44.6345 389.853 44.6345ZM443.857 23.7836C443.857 24.4092 444.065 25.0347 444.065 25.6602C444.482 25.8687 444.9 26.0772 445.317 26.2857C445.525 26.0772 445.734 25.6602 445.942 25.4517C445.108 24.6177 445.108 24.2006 443.857 23.7836ZM374.007 23.1581C375.258 23.7836 374.632 23.1581 375.258 24.6177C374.424 25.2432 373.59 25.8687 372.756 26.2857C369.628 25.2432 372.339 24.2007 374.007 23.1581ZM418.419 17.9454C419.253 18.1539 420.296 18.3624 421.13 18.5709C421.13 18.7794 420.921 19.1964 420.921 19.405C419.253 20.239 418.627 20.8645 417.793 22.3241C418.21 23.3666 418.627 24.2007 419.253 25.2432C419.044 25.2432 419.044 25.2432 418.836 25.2432C417.585 25.0347 416.334 24.6177 415.083 24.4092C414.666 20.4475 416.542 20.0305 418.419 17.9454ZM443.44 12.3157C442.397 12.5242 442.189 15.2348 441.772 16.6943C441.146 18.9879 440.312 19.405 438.227 20.4475C436.351 20.0305 434.683 19.822 432.806 19.405C432.389 19.822 432.18 20.239 431.763 20.656C432.389 22.5326 433.015 22.7411 433.849 23.7836C426.342 27.1198 418.21 27.5368 411.33 32.124C410.287 31.4984 409.245 30.8729 408.202 30.0389C407.577 31.0814 407.577 31.4984 407.994 32.7495C405.283 35.2516 401.113 36.5026 398.611 39.2132C396.109 39.0047 395.275 38.1707 393.815 36.9197C393.815 36.5026 393.815 35.8771 393.606 35.4601C396.526 35.0431 399.653 34.6261 402.572 34.4176C402.572 33.792 402.364 33.1665 402.364 32.541C376.926 26.2857 364.415 43.5919 349.194 53.6003C349.194 55.6854 348.986 57.562 348.986 59.6471C352.53 59.0215 352.739 57.3535 355.866 56.3109C356.075 56.3109 356.075 56.3109 356.283 56.3109C357.118 58.1875 357.952 60.0641 358.577 61.7321C358.786 62.1492 358.994 62.5662 358.994 62.7747C364.624 60.8981 363.79 55.2684 368.377 53.1833C367.751 50.8897 367.334 51.3067 366.5 49.6387C367.96 46.3025 374.424 40.0473 378.594 39.2132C378.802 39.2132 378.802 39.2132 379.011 39.2132C379.219 39.6303 379.636 39.8388 379.845 40.2558C378.594 42.9664 375.675 43.8004 374.215 46.511C374.215 47.5536 374.424 48.5961 374.424 49.4302C378.177 50.6812 381.513 48.1791 385.683 47.3451C385.892 47.7621 386.309 47.9706 386.517 48.3876C384.849 50.4727 381.513 50.2642 378.802 51.7237C377.968 52.7663 378.385 53.8088 378.802 55.8939C377.343 56.1024 376.092 56.1024 374.632 56.3109C372.964 57.562 371.505 62.1492 370.254 63.8172C363.581 64.2342 360.662 66.7363 353.573 67.5704C351.905 65.2768 352.739 64.6513 353.781 62.1492C353.573 61.9407 353.573 61.7321 353.364 61.5236C352.947 61.5236 352.53 61.5236 352.322 61.5236C350.862 63.8172 350.862 65.2768 351.071 68.4044C344.398 72.7831 334.599 84.6681 326.675 85.5021C326.467 85.9191 326.258 86.3359 326.05 86.7531C327.718 88.004 328.76 88.6297 330.22 90.5063C329.803 92.7999 329.386 95.0935 328.969 97.3871C325.633 99.6806 320.003 99.2636 316.458 101.14C315.624 107.395 314.165 110.315 314.79 116.778C317.501 116.778 317.709 118.029 319.169 118.238C326.675 119.697 328.552 109.064 330.637 105.519C332.722 101.974 335.85 100.098 337.726 95.9275C339.603 95.7192 341.479 95.5105 343.356 95.5105C345.65 94.6765 346.484 92.1744 349.403 91.1318C352.113 93.4254 362.956 100.515 363.581 103.225C363.79 103.434 363.998 103.434 364.415 103.642C365.249 101.974 365.458 101.974 364.415 100.306C365.041 99.0551 365.041 99.2636 366.5 98.6381C366.709 98.4296 366.709 98.0126 366.917 97.8041C362.122 95.719 356.7 94.0509 354.824 88.6297C355.032 88.2127 355.241 87.7957 355.449 87.3787C356.075 87.1702 356.7 86.7531 357.326 86.5446C361.913 88.4214 365.875 91.7573 370.879 93.8424C372.13 99.6807 375.258 100.515 377.134 105.727C377.343 105.727 377.76 105.936 377.968 106.144C378.385 106.144 379.011 106.144 379.428 105.936C380.053 103.642 380.262 103.225 381.304 101.557C379.845 99.8892 379.011 99.4722 378.594 96.553C381.096 95.0935 381.93 93.8424 385.892 93.6339C389.019 99.0551 389.645 103.434 396.734 104.476C397.36 103.642 398.194 102.808 398.819 101.974C400.904 102.391 402.989 102.6 404.866 103.017C407.16 102.391 407.368 100.723 411.121 100.306C412.789 104.685 412.581 110.106 410.704 114.276C408.411 118.863 405.908 115.944 401.738 116.987C399.445 117.612 399.236 119.906 395.9 119.697C390.27 119.489 381.93 116.57 377.551 117.821C376.509 118.655 375.675 119.489 374.632 120.323C374.632 121.991 374.632 121.991 375.258 123.242C374.632 124.076 374.007 125.119 373.173 126.161C371.296 125.953 365.875 125.327 363.998 124.285C362.956 123.451 362.122 122.408 361.079 121.574C356.492 120.531 354.824 121.574 351.071 120.115C351.279 116.987 351.488 115.11 351.488 112.4C350.654 111.774 349.82 111.357 348.986 110.732C345.024 113.442 340.02 112.817 335.641 114.485C329.177 116.987 327.718 121.574 318.752 121.574C316.875 123.868 313.331 128.246 312.288 130.748C311.871 133.876 311.454 136.796 311.246 139.924C309.578 141.8 307.701 143.677 306.033 145.762C304.573 151.392 303.114 156.813 301.654 162.443C302.488 165.57 303.531 168.698 304.365 171.617C304.573 175.579 304.782 179.749 304.99 183.711C308.535 194.342 319.378 204.559 328.343 209.146C330.011 208.312 331.679 207.27 333.348 206.436C335.224 206.436 337.101 206.644 338.977 206.644C346.484 204.768 347.943 195.385 356.283 205.602C358.369 205.185 360.245 204.768 362.33 204.351C369.419 208.521 364.207 214.359 368.585 219.78C372.756 225.202 379.845 228.121 383.807 233.959C385.266 236.044 387.768 239.797 388.185 241.465C389.019 244.384 387.351 248.555 388.602 252.099C390.479 256.478 413.832 275.869 418.836 277.954C438.227 274.618 429.678 265.444 438.853 259.188C439.27 255.644 437.81 254.184 436.976 251.057C439.478 247.304 446.359 243.55 447.402 239.172C449.904 227.287 437.393 222.074 442.606 209.564C449.07 194.551 465.333 186.004 463.874 164.111C463.665 163.902 463.248 163.694 463.04 163.485C457.827 165.987 452.614 168.489 447.402 170.783C444.274 168.281 445.317 167.447 443.023 164.736C439.27 162.443 435.308 160.149 431.346 157.647C430.512 155.77 429.47 153.685 428.636 151.809C427.176 150.558 425.717 149.515 424.257 148.473C423.215 145.971 422.381 143.26 421.338 140.758C416.334 135.337 411.121 128.872 406.534 122.617C406.534 122.408 406.534 122.408 406.534 122.2C408.202 122.617 408.828 123.659 409.87 124.91C410.704 124.493 411.538 124.076 412.372 123.451C417.376 128.246 422.172 133.042 427.176 137.839C427.385 139.298 427.593 140.549 427.802 142.009C430.095 145.762 436.351 148.681 439.27 152.434C440.729 156.396 442.189 160.358 443.648 164.111C446.359 165.987 452.614 159.732 454.282 158.69C464.499 152.017 475.967 142.217 477.635 129.498C477.844 125.327 469.712 125.119 467.835 120.74C467.21 120.74 466.584 120.531 465.959 120.531C465.125 122.617 464.499 124.493 462.623 125.744C461.163 126.161 459.912 126.578 458.453 126.787C458.244 126.787 458.244 126.787 458.036 126.787C457.201 125.536 456.784 125.119 456.576 122.825C454.908 122.408 455.116 123.242 453.657 123.034C450.738 120.114 447.819 117.195 444.899 114.276C444.899 113.859 444.899 113.234 444.691 112.817C445.942 112.191 447.193 111.566 448.236 110.94C454.282 115.319 458.244 120.323 466.793 116.153C475.133 122.408 478.886 118.863 489.52 116.57C492.231 118.238 497.235 121.366 497.861 125.327C499.529 126.37 499.529 127.204 502.239 127.204C502.865 126.37 503.699 125.536 504.324 124.702C505.784 129.497 507.452 134.293 508.912 139.09C511.414 145.137 515.792 150.975 517.46 158.481C517.877 158.896 518.294 159.107 518.711 159.524C519.128 159.524 519.545 159.524 519.754 159.524C521.631 155.562 523.716 150.558 522.673 144.094C522.256 142.009 521.839 140.132 521.422 138.047C522.256 133.668 526.635 127.204 528.094 122.617C528.094 121.157 528.094 119.906 528.094 118.446C529.554 117.404 531.222 116.153 532.682 115.11C533.724 119.072 536.018 120.74 537.686 124.076C538.103 126.161 538.52 128.038 538.937 130.123C539.145 130.54 539.562 130.748 539.771 131.165C540.188 130.748 540.813 130.331 541.23 129.914C541.439 130.123 541.856 130.123 542.064 130.331C542.898 133.876 543.732 137.422 544.566 141.175C544.775 141.383 545.192 141.383 545.4 141.592C546.026 140.341 545.818 139.924 547.486 139.09C547.903 142.217 548.737 144.928 551.447 144.511C551.864 153.894 552.073 165.57 549.779 173.494C549.779 173.702 549.779 173.911 549.779 174.328C549.571 174.536 549.362 174.536 549.154 174.745C548.737 172.243 548.32 169.74 547.694 167.238C548.32 167.238 548.945 167.03 549.571 167.03C549.988 163.485 549.779 158.481 548.945 154.519C548.111 154.519 547.486 154.311 546.652 154.311C546.86 157.23 546.86 160.149 547.069 163.068C546.86 163.068 546.86 163.068 546.652 163.068C546.026 162.026 545.4 161.192 544.983 160.149C544.566 160.149 544.149 159.941 543.732 159.941C541.439 163.902 546.443 171.2 545.818 176.413C545.609 179.123 545.609 181.834 545.4 184.336C545.818 185.17 546.235 186.004 546.652 186.838L547.277 189.757L549.988 187.881C558.537 157.23 553.532 113.859 539.562 87.1702C521.839 51.9323 488.895 21.2815 443.44 12.3157Z" fill="#8E8E8E"/>
<path d="M9.31244 137.912C9.31244 136.122 9.20061 134.696 8.97687 133.633C8.80913 132.571 8.38965 131.732 7.71844 131.117C7.04728 130.501 6.09646 130.082 4.86598 129.858C3.6355 129.634 2.01351 129.467 0 129.355V127.425H28.4408V129.355C26.4273 129.411 24.8053 129.578 23.5748 129.858C22.3443 130.082 21.3935 130.501 20.7224 131.117C20.0511 131.732 19.6037 132.599 19.38 133.717C19.1563 134.78 19.0444 136.178 19.0444 137.912V180.531C19.0444 182.265 19.1563 183.691 19.38 184.81C19.6597 185.873 20.1351 186.712 20.8063 187.327C21.4774 187.942 22.4282 188.39 23.6587 188.669C24.8892 188.893 26.4832 189.033 28.4408 189.089V190.851H0V189.089C2.01351 189.033 3.6355 188.893 4.86598 188.669C6.09646 188.39 7.01931 187.942 7.63453 187.327C8.30574 186.712 8.75314 185.873 8.97687 184.81C9.20061 183.747 9.31244 182.321 9.31244 180.531V137.912ZM49.4148 131.452C46.7302 131.452 44.5209 131.592 42.7871 131.872C41.1091 132.151 39.7108 132.739 38.5922 133.633C37.5295 134.528 36.6626 135.787 35.9915 137.409C35.3762 138.975 34.7889 141.072 34.2296 143.701H31.8805L32.4678 127.425H86.4972L87.0845 143.701H84.7353C84.1754 141.072 83.5607 138.975 82.8898 137.409C82.2743 135.787 81.4352 134.528 80.3725 133.633C79.3097 132.739 77.9114 132.151 76.1777 131.872C74.4439 131.592 72.2066 131.452 69.466 131.452H64.3483V180.531C64.3483 182.265 64.4602 183.664 64.6839 184.726C64.9077 185.789 65.3272 186.628 65.9424 187.243C66.6135 187.858 67.5364 188.306 68.711 188.585C69.9414 188.809 71.5355 188.977 73.493 189.089V190.851H45.6395V189.089C47.5971 188.977 49.1631 188.809 50.3377 188.585C51.5122 188.306 52.4071 187.83 53.0224 187.159C53.6935 186.432 54.113 185.453 54.2808 184.223C54.5045 182.992 54.6164 181.37 54.6164 179.357V131.452H49.4148ZM156.55 190.851H132.137V189.089C132.975 189.089 133.674 189.089 134.234 189.089C134.793 189.033 135.241 188.977 135.576 188.921C135.968 188.809 136.303 188.725 136.583 188.669C136.862 188.557 137.142 188.418 137.422 188.25C137.869 187.97 138.205 187.635 138.429 187.243C138.708 186.796 138.848 186.348 138.848 185.901C138.848 184.335 138.233 182.153 137.002 179.357L132.975 170.212H107.975L103.528 181.37C103.304 181.986 103.108 182.629 102.941 183.3C102.829 183.915 102.773 184.53 102.773 185.146C102.773 186.432 103.276 187.411 104.283 188.082C105.29 188.753 106.967 189.089 109.317 189.089V190.851H90.2721V189.089C91.4467 189.033 92.4539 188.837 93.2922 188.501C94.1313 188.166 94.9704 187.467 95.8095 186.404C96.6486 185.286 97.5433 183.719 98.4942 181.706C99.5007 179.637 100.759 176.84 102.269 173.316L122.153 126.334H123.998L147.909 180.699C148.692 182.489 149.363 183.915 149.922 184.978C150.538 186.041 151.153 186.88 151.768 187.495C152.383 188.054 153.054 188.446 153.782 188.669C154.564 188.893 155.488 189.033 156.55 189.089V190.851ZM131.717 166.353L120.643 139.926L109.568 166.353H131.717ZM214.523 174.239L209.824 190.851H158.396V189.089C160.13 188.977 161.528 188.781 162.591 188.501C163.709 188.222 164.548 187.774 165.108 187.159C165.723 186.544 166.142 185.705 166.366 184.642C166.589 183.58 166.701 182.209 166.701 180.531V137.912C166.701 136.234 166.589 134.864 166.366 133.801C166.198 132.739 165.807 131.9 165.191 131.284C164.576 130.669 163.709 130.222 162.591 129.942C161.528 129.662 160.13 129.467 158.396 129.355V127.425H185.327V129.355C183.425 129.467 181.887 129.662 180.712 129.942C179.538 130.166 178.643 130.613 178.027 131.284C177.413 131.9 176.993 132.739 176.769 133.801C176.545 134.864 176.434 136.234 176.434 137.912V183.216C176.434 184.055 176.517 184.754 176.685 185.313C176.909 185.817 177.328 186.208 177.944 186.488C178.559 186.768 179.398 186.963 180.461 187.075C181.523 187.131 182.949 187.159 184.739 187.159H191.115C195.198 187.159 198.582 186.684 201.267 185.733C204.008 184.782 206.245 183.328 207.979 181.37C208.65 180.587 209.293 179.609 209.908 178.434C210.58 177.259 211.306 175.861 212.09 174.239H214.523Z" fill="black"/>
<path d="M633.119 189.778H631.717L608.039 138.05V175.918C608.039 178.338 608.149 180.318 608.369 181.858C608.644 183.343 609.112 184.525 609.772 185.405C610.432 186.285 611.339 186.918 612.494 187.303C613.649 187.688 615.134 187.936 616.949 188.046V189.778H594.839V188.046C596.764 187.88 598.304 187.633 599.459 187.303C600.669 186.918 601.576 186.285 602.182 185.405C602.841 184.525 603.282 183.343 603.502 181.858C603.722 180.318 603.832 178.338 603.832 175.918V137.72C603.832 136.015 603.722 134.64 603.502 133.595C603.337 132.55 602.924 131.725 602.264 131.12C601.659 130.515 600.779 130.102 599.624 129.882C598.469 129.607 596.929 129.415 595.004 129.305V127.407H613.649L635.347 175.01L656.302 127.407H674.948V129.305C673.187 129.415 671.785 129.607 670.74 129.882C669.695 130.157 668.87 130.597 668.265 131.202C667.66 131.807 667.248 132.632 667.028 133.677C666.863 134.722 666.78 136.07 666.78 137.72V179.63C666.78 181.28 666.89 182.628 667.11 183.673C667.33 184.718 667.715 185.543 668.265 186.148C668.87 186.753 669.695 187.193 670.74 187.468C671.84 187.743 673.243 187.936 674.948 188.046V189.778H648.547V188.046C650.417 187.936 651.902 187.743 653.002 187.468C654.157 187.193 655.037 186.726 655.642 186.065C656.247 185.35 656.632 184.415 656.797 183.26C657.017 182.05 657.127 180.455 657.127 178.475V135.822L633.119 189.778ZM729.481 189.778H678.661V188.046C680.365 187.936 681.74 187.743 682.786 187.468C683.885 187.193 684.71 186.753 685.26 186.148C685.865 185.543 686.278 184.718 686.498 183.673C686.718 182.628 686.828 181.28 686.828 179.63V137.72C686.828 136.07 686.718 134.722 686.498 133.677C686.333 132.632 685.948 131.807 685.343 131.202C684.738 130.597 683.885 130.157 682.786 129.882C681.74 129.607 680.365 129.415 678.661 129.305V127.407H728.656L728.821 140.937H726.594C726.154 138.792 725.658 137.087 725.109 135.822C724.559 134.502 723.761 133.485 722.716 132.77C721.726 132.055 720.378 131.587 718.673 131.367C717.023 131.147 714.878 131.037 712.238 131.037H699.533C698.268 131.037 697.415 131.23 696.976 131.615C696.59 132 696.398 132.88 696.398 134.255V155.127H710.836C712.761 155.127 714.328 155.017 715.538 154.797C716.749 154.577 717.711 154.165 718.426 153.56C719.196 152.9 719.774 151.992 720.158 150.837C720.544 149.682 720.901 148.142 721.231 146.217H723.458V168.08H721.231C720.901 166.1 720.544 164.533 720.158 163.378C719.774 162.168 719.223 161.26 718.509 160.655C717.794 159.995 716.831 159.555 715.621 159.335C714.411 159.115 712.816 159.005 710.836 159.005H696.398V182.27C696.398 183.205 696.453 183.893 696.563 184.333C696.673 184.773 696.866 185.103 697.141 185.323C697.581 185.598 698.626 185.846 700.275 186.065C701.981 186.23 703.988 186.313 706.298 186.313H708.938C712.294 186.313 715.098 186.148 717.354 185.818C719.663 185.488 721.616 184.855 723.211 183.92C724.861 182.985 726.291 181.72 727.501 180.125C728.711 178.53 729.893 176.44 731.048 173.855H733.772L729.481 189.778ZM791.027 190.851L749.364 139.04V175.918C749.364 178.338 749.474 180.318 749.694 181.858C749.969 183.343 750.436 184.525 751.097 185.405C751.757 186.285 752.664 186.918 753.819 187.303C754.974 187.688 756.459 187.936 758.274 188.046V189.778H736.164V188.046C738.089 187.88 739.629 187.633 740.783 187.303C741.994 186.918 742.901 186.285 743.507 185.405C744.166 184.525 744.606 183.343 744.826 181.858C745.046 180.318 745.156 178.338 745.156 175.918V134.502C744.222 133.402 743.424 132.522 742.764 131.862C742.104 131.147 741.444 130.625 740.783 130.295C740.124 129.91 739.436 129.662 738.721 129.552C738.007 129.387 737.154 129.305 736.164 129.305V127.407H752.252L788.47 173.03V141.267C788.47 135.547 787.562 132.027 785.747 130.707C785.032 130.267 784.235 129.965 783.355 129.8C782.53 129.58 781.237 129.415 779.477 129.305V127.407H801.505V129.305C799.745 129.415 798.425 129.607 797.545 129.882C796.72 130.157 796.004 130.515 795.4 130.955C793.53 132.165 792.595 135.602 792.595 141.267V190.851H791.027ZM869.651 189.778H845.643V188.046C846.468 188.046 847.156 188.046 847.706 188.046C848.256 187.991 848.695 187.936 849.025 187.88C849.411 187.771 849.74 187.688 850.016 187.633C850.29 187.523 850.566 187.385 850.841 187.221C851.281 186.946 851.611 186.616 851.831 186.23C852.106 185.79 852.243 185.35 852.243 184.91C852.243 183.37 851.638 181.225 850.428 178.475L846.468 169.483H821.883L817.51 180.455C817.29 181.06 817.098 181.693 816.933 182.353C816.823 182.958 816.767 183.563 816.767 184.168C816.767 185.433 817.262 186.396 818.253 187.055C819.243 187.716 820.893 188.046 823.202 188.046V189.778H804.475V188.046C805.63 187.991 806.62 187.798 807.445 187.468C808.27 187.138 809.095 186.451 809.92 185.405C810.745 184.305 811.625 182.765 812.56 180.785C813.55 178.75 814.788 176 816.273 172.535L835.825 126.334H837.641L861.154 179.795C861.923 181.555 862.583 182.958 863.134 184.003C863.738 185.048 864.343 185.873 864.949 186.478C865.553 187.028 866.214 187.413 866.929 187.633C867.699 187.853 868.606 187.991 869.651 188.046V189.778ZM845.231 165.688L834.34 139.7L823.45 165.688H845.231ZM932.352 189.778H917.172L894.731 160.738L889.534 160.985V179.63C889.534 181.28 889.616 182.628 889.781 183.673C890.001 184.718 890.414 185.571 891.019 186.23C891.624 186.835 892.476 187.276 893.576 187.551C894.677 187.771 896.134 187.936 897.949 188.046V189.778H871.878V188.046C873.639 187.88 875.041 187.66 876.086 187.385C877.186 187.11 878.011 186.643 878.561 185.983C879.111 185.323 879.469 184.415 879.634 183.26C879.798 182.05 879.881 180.455 879.881 178.475V137.72C879.881 136.07 879.798 134.75 879.634 133.76C879.469 132.715 879.111 131.89 878.561 131.285C878.011 130.68 877.186 130.24 876.086 129.965C875.041 129.69 873.639 129.47 871.878 129.305V127.407H897.867C902.487 127.407 906.612 128.039 910.242 129.305C913.927 130.515 916.649 132.165 918.409 134.255C919.564 135.52 920.417 137.005 920.967 138.71C921.517 140.36 921.792 142.147 921.792 144.072C921.792 148.362 920.444 151.745 917.75 154.22C915.109 156.695 910.791 158.538 904.797 159.748L924.185 183.673C925.504 185.213 926.742 186.285 927.897 186.891C929.107 187.496 930.592 187.88 932.352 188.046V189.778ZM889.534 157.52C891.734 157.465 893.632 157.382 895.226 157.273C896.877 157.162 898.306 156.998 899.517 156.777C900.782 156.502 901.937 156.172 902.981 155.787C904.026 155.402 905.099 154.907 906.199 154.302C907.905 153.367 909.224 151.992 910.159 150.177C911.094 148.307 911.562 146.19 911.562 143.825C911.562 139.37 910.159 136.125 907.354 134.09C904.604 132 900.204 130.955 894.154 130.955C892.284 130.955 891.046 131.202 890.442 131.697C889.836 132.137 889.534 133.017 889.534 134.337V157.52ZM999.755 189.778H975.747V188.046C976.573 188.046 977.26 188.046 977.811 188.046C978.361 187.991 978.8 187.936 979.13 187.88C979.516 187.771 979.846 187.688 980.12 187.633C980.395 187.523 980.671 187.385 980.945 187.221C981.385 186.946 981.715 186.616 981.936 186.23C982.21 185.79 982.348 185.35 982.348 184.91C982.348 183.37 981.743 181.225 980.533 178.475L976.573 169.483H951.987L947.615 180.455C947.394 181.06 947.202 181.693 947.038 182.353C946.928 182.958 946.872 183.563 946.872 184.168C946.872 185.433 947.368 186.396 948.357 187.055C949.347 187.716 950.997 188.046 953.307 188.046V189.778H934.58V188.046C935.735 187.991 936.724 187.798 937.549 187.468C938.375 187.138 939.2 186.451 940.025 185.405C940.85 184.305 941.73 182.765 942.665 180.785C943.655 178.75 944.892 176 946.377 172.535L965.93 126.334H967.745L991.258 179.795C992.028 181.555 992.688 182.958 993.238 184.003C993.843 185.048 994.448 185.873 995.053 186.478C995.658 187.028 996.318 187.413 997.033 187.633C997.803 187.853 998.71 187.991 999.755 188.046V189.778ZM975.335 165.688L964.445 139.7L953.555 165.688H975.335Z" fill="black"/>
<path d="M3.85596 372.39C2.54004 372.39 1.56075 372.252 0.918085 371.977C0.30603 371.689 0 371.249 0 370.657V346.194C0 345.589 0.30603 345.149 0.918085 344.874C1.56075 344.599 2.54004 344.462 3.85596 344.462C5.20247 344.462 6.18179 344.599 6.79383 344.874C7.40587 345.149 7.71192 345.589 7.71192 346.194V370.657C7.71192 371.249 7.40587 371.689 6.79383 371.977C6.18179 372.252 5.20247 372.39 3.85596 372.39ZM30.6633 372.39C28.0927 372.39 26.8074 371.812 26.8074 370.657V346.153C26.8074 344.998 28.0927 344.42 30.6633 344.42C32.3465 344.42 33.7542 344.792 34.8865 345.534L56.5531 360.179L54.9006 360.303L76.751 345.534C77.7917 344.792 79.3524 344.42 81.4333 344.42C83.5146 344.42 84.5547 344.998 84.5547 346.153V370.657C84.5547 371.812 83.2694 372.39 80.6988 372.39C78.1282 372.39 76.8428 371.812 76.8428 370.657V349.618L79.2299 349.99L59.9501 362.737C58.8181 363.479 57.2573 363.851 55.2678 363.851C53.8907 363.851 52.6361 363.479 51.5037 362.737L32.2241 349.99L34.5193 350.278V370.657C34.5193 371.812 33.234 372.39 30.6633 372.39ZM107.499 372.39C104.928 372.39 103.643 371.812 103.643 370.657V346.153C103.643 344.998 104.928 344.42 107.499 344.42H128.982C134.583 344.42 138.867 345.094 141.835 346.442C144.835 347.776 146.334 349.701 146.334 352.217V353.455C146.334 355.971 144.835 357.903 141.835 359.251C138.867 360.585 134.583 361.252 128.982 361.252H111.355V370.657C111.355 371.812 110.07 372.39 107.499 372.39ZM111.355 357.786H128.982C132.471 357.786 134.95 357.456 136.419 356.796C137.888 356.136 138.622 355.022 138.622 353.455V352.217C138.622 350.663 137.888 349.556 136.419 348.896C134.95 348.223 132.471 347.886 128.982 347.886H111.355V357.786ZM178.31 372.39C171.301 372.39 166.114 371.641 162.748 370.142C159.412 368.629 157.745 366.298 157.745 363.149V353.62C157.745 350.443 159.427 348.113 162.794 346.627C166.16 345.129 171.332 344.393 178.31 344.42H189.327C196.365 344.42 201.552 345.17 204.888 346.669C208.224 348.168 209.892 350.498 209.892 353.661V363.149C209.892 366.298 208.224 368.629 204.888 370.142C201.552 371.641 196.365 372.39 189.327 372.39H178.31ZM178.31 368.925H189.327C192.601 368.925 195.172 368.753 197.039 368.409C198.905 368.052 200.221 367.453 200.986 366.614C201.782 365.776 202.18 364.621 202.18 363.149V353.661C202.18 352.203 201.782 351.055 200.986 350.216C200.221 349.378 198.905 348.779 197.039 348.422C195.172 348.064 192.601 347.886 189.327 347.886H178.31C175.066 347.872 172.51 348.037 170.644 348.381C168.777 348.724 167.445 349.316 166.65 350.155C165.854 350.993 165.456 352.148 165.456 353.62V363.149C165.456 364.621 165.839 365.776 166.604 366.614C167.4 367.453 168.731 368.052 170.598 368.409C172.464 368.753 175.035 368.925 178.31 368.925ZM266.77 372.472C265.76 372.761 264.797 372.85 263.878 372.741C262.96 372.631 262.18 372.349 261.537 371.895L247.307 361.252H234.454V370.657C234.454 371.812 233.168 372.39 230.598 372.39C228.027 372.39 226.742 371.812 226.742 370.657V346.153C226.742 344.998 228.027 344.42 230.598 344.42H252.081C257.681 344.42 261.966 345.094 264.934 346.442C267.934 347.776 269.433 349.701 269.433 352.217V353.455C269.433 355.641 268.301 357.388 266.036 358.694C263.771 359.987 260.497 360.791 256.212 361.107L268.239 370.121C269.403 371.084 268.913 371.867 266.77 372.472ZM234.454 357.786H252.081C255.57 357.786 258.049 357.456 259.518 356.796C260.986 356.136 261.721 355.022 261.721 353.455V352.217C261.721 350.663 260.986 349.556 259.518 348.896C258.049 348.223 255.57 347.886 252.081 347.886H234.454V357.786ZM300.966 372.39C299.681 372.39 298.717 372.245 298.074 371.957C297.432 371.668 297.11 371.235 297.11 370.657V347.927H279.299C278.014 347.927 277.05 347.783 276.408 347.494C275.765 347.205 275.444 346.772 275.444 346.194C275.444 345.617 275.765 345.184 276.408 344.895C277.05 344.606 278.014 344.462 279.299 344.462H322.633C323.918 344.462 324.882 344.606 325.525 344.895C326.168 345.184 326.489 345.617 326.489 346.194C326.489 346.772 326.168 347.205 325.525 347.494C324.882 347.783 323.918 347.927 322.633 347.927H304.822V370.657C304.822 371.207 304.486 371.634 303.812 371.936C303.17 372.239 302.221 372.39 300.966 372.39ZM371.449 372.39C368.878 372.39 367.593 371.812 367.593 370.657V346.153C367.593 344.998 368.878 344.42 371.449 344.42H404.408C406.979 344.42 408.264 344.998 408.264 346.153C408.264 347.308 406.979 347.886 404.408 347.886H375.305V356.549H393.575C396.145 356.549 397.43 357.126 397.43 358.281C397.43 359.436 396.145 360.014 393.575 360.014H375.305V368.925H404.408C406.979 368.925 408.264 369.502 408.264 370.657C408.264 371.812 406.979 372.39 404.408 372.39H371.449ZM421.258 372.019C419.208 371.386 418.902 370.575 420.34 369.585L437.141 358.446L419.422 347.226C418.045 346.318 418.382 345.507 420.432 344.792C422.544 344.145 424.319 344.297 425.757 345.245L442.191 355.6L458.717 345.245C460.31 344.324 462.082 344.2 464.042 344.874C466.121 345.562 466.429 346.359 464.96 347.267L446.873 358.57L464.225 369.543C465.662 370.492 465.327 371.317 463.215 372.019C461.104 372.665 459.327 372.514 457.89 371.565L441.915 361.458L426.675 371.606C425.267 372.5 423.462 372.637 421.258 372.019ZM484.235 372.39C481.664 372.39 480.379 371.812 480.379 370.657V346.153C480.379 344.998 481.664 344.42 484.235 344.42H505.718C511.318 344.42 515.606 345.094 518.571 346.442C521.573 347.776 523.07 349.701 523.07 352.217V353.455C523.07 355.971 521.573 357.903 518.571 359.251C515.606 360.585 511.318 361.252 505.718 361.252H488.091V370.657C488.091 371.812 486.806 372.39 484.235 372.39ZM488.091 357.786H505.718C509.207 357.786 511.686 357.456 513.155 356.796C514.624 356.136 515.358 355.022 515.358 353.455V352.217C515.358 350.663 514.624 349.556 513.155 348.896C511.686 348.223 509.207 347.886 505.718 347.886H488.091V357.786ZM555.047 372.39C548.037 372.39 542.85 371.641 539.485 370.142C536.148 368.629 534.482 366.298 534.482 363.149V353.62C534.482 350.443 536.166 348.113 539.531 346.627C542.896 345.129 548.069 344.393 555.047 344.42H566.064C573.101 344.42 578.288 345.17 581.625 346.669C584.963 348.168 586.629 350.498 586.629 353.661V363.149C586.629 366.298 584.963 368.629 581.625 370.142C578.288 371.641 573.101 372.39 566.064 372.39H555.047ZM555.047 368.925H566.064C569.337 368.925 571.908 368.753 573.776 368.409C575.644 368.052 576.957 367.453 577.724 366.614C578.518 365.776 578.917 364.621 578.917 363.149V353.661C578.917 352.203 578.518 351.055 577.724 350.216C576.957 349.378 575.644 348.779 573.776 348.422C571.908 348.064 569.337 347.886 566.064 347.886H555.047C551.801 347.872 549.249 348.037 547.381 348.381C545.513 348.724 544.181 349.316 543.387 350.155C542.593 350.993 542.194 352.148 542.194 353.62V363.149C542.194 364.621 542.575 365.776 543.341 366.614C544.135 367.453 545.467 368.052 547.335 368.409C549.203 368.753 551.774 368.925 555.047 368.925ZM643.509 372.472C642.499 372.761 641.535 372.85 640.617 372.741C639.699 372.631 638.919 372.349 638.276 371.895L624.046 361.252H611.192V370.657C611.192 371.812 609.907 372.39 607.336 372.39C604.766 372.39 603.48 371.812 603.48 370.657V346.153C603.48 344.998 604.766 344.42 607.336 344.42H628.82C634.42 344.42 638.703 345.094 641.673 346.442C644.67 347.776 646.171 349.701 646.171 352.217V353.455C646.171 355.641 645.038 357.388 642.775 358.694C640.511 359.987 637.234 360.791 632.951 361.107L644.978 370.121C646.139 371.084 645.653 371.867 643.509 372.472ZM611.192 357.786H628.82C632.308 357.786 634.787 357.456 636.256 356.796C637.725 356.136 638.46 355.022 638.46 353.455V352.217C638.46 350.663 637.725 349.556 636.256 348.896C634.787 348.223 632.308 347.886 628.82 347.886H611.192V357.786ZM677.703 372.39C676.418 372.39 675.454 372.245 674.811 371.957C674.168 371.668 673.847 371.235 673.847 370.657V347.927H656.036C654.751 347.927 653.787 347.783 653.144 347.494C652.502 347.205 652.18 346.772 652.18 346.194C652.18 345.617 652.502 345.184 653.144 344.895C653.787 344.606 654.751 344.462 656.036 344.462H699.37C700.655 344.462 701.619 344.606 702.262 344.895C702.905 345.184 703.226 345.617 703.226 346.194C703.226 346.772 702.905 347.205 702.262 347.494C701.619 347.783 700.655 347.927 699.37 347.927H681.559V370.657C681.559 371.207 681.224 371.634 680.549 371.936C679.906 372.239 678.961 372.39 677.703 372.39Z" fill="#8E8E8E"/>
<path d="M996.774 340.528H730.968C729.186 340.528 727.742 341.972 727.742 343.754C727.742 345.535 729.186 346.98 730.968 346.98H996.774C998.556 346.98 1000 345.535 1000 343.754C1000 341.972 998.556 340.528 996.774 340.528Z" fill="url(#paint1_linear_112_156)"/>
<defs>
<filter id="filter0_d_112_156" x="242.556" y="0.966797" width="324.005" height="324.003" filterUnits="userSpaceOnUse" color-interpolation-filters="sRGB">
<feFlood flood-opacity="0" result="BackgroundImageFix"/>
<feColorMatrix in="SourceAlpha" type="matrix" values="0 0 0 0 0 0 0 0 0 0 0 0 0 0 0 0 0 0 127 0" result="hardAlpha"/>
<feOffset dy="5"/>
<feGaussianBlur stdDeviation="5"/>
<feComposite in2="hardAlpha" operator="out"/>
<feColorMatrix type="matrix" values="0 0 0 0 0 0 0 0 0 0 0 0 0 0 0 0 0 0 0.1 0"/>
<feBlend mode="normal" in2="BackgroundImageFix" result="effect1_dropShadow_112_156"/>
<feBlend mode="normal" in="SourceGraphic" in2="effect1_dropShadow_112_156" result="shape"/>
</filter>
<radialGradient id="paint0_radial_112_156" cx="0" cy="0" r="1" gradientUnits="userSpaceOnUse" gradientTransform="translate(404.558 157.968) rotate(90) scale(152.001 152.002)">
<stop offset="0.652428" stop-color="white" stop-opacity="0"/>
<stop offset="1" stop-color="#D7D7D7"/>
</radialGradient>
<linearGradient id="paint1_linear_112_156" x1="727.742" y1="343.754" x2="1000" y2="343.754" gradientUnits="userSpaceOnUse">
<stop offset="0.333333" stop-color="#009246"/>
<stop offset="0.333334" stop-color="white"/>
<stop offset="0.666666" stop-color="white"/>
<stop offset="0.666667" stop-color="#FF0000"/>
</linearGradient>
</defs>
</svg>
