<svg width="1000" height="298" viewBox="0 0 1000 298" fill="none" xmlns="http://www.w3.org/2000/svg">
<g filter="url(#filter0_d_112_145)">
<path fill-rule="evenodd" clip-rule="evenodd" d="M391.532 240.317C456.493 240.317 509.334 187.315 509.334 122.517C509.334 57.5563 456.331 4.71509 391.532 4.71509C326.572 4.71509 273.73 57.5563 273.73 122.517C273.73 187.315 326.733 240.317 391.532 240.317Z" fill="white"/>
</g>
<path fill-rule="evenodd" clip-rule="evenodd" d="M391.532 240.317C456.493 240.317 509.334 187.315 509.334 122.517C509.334 57.5563 456.331 4.71509 391.532 4.71509C326.572 4.71509 273.73 57.5563 273.73 122.517C273.73 187.315 326.733 240.317 391.532 240.317Z" fill="url(#paint0_radial_112_145)"/>
<path d="M399.763 239.951C423.171 238.354 446.384 229.311 464.956 214.464C505.484 182.108 520.186 126.733 500.985 79C489.911 51.3849 469.696 29.6217 442.95 16.5155C426.12 8.29391 410.596 4.71509 391.446 4.71509C372.293 4.71509 356.769 8.29391 339.939 16.5155C303.667 34.313 279.631 68.0216 274.311 108.452C273.537 114.402 273.537 130.603 274.311 136.503C280.066 180.271 308.358 216.495 349.369 232.503C359.574 236.468 372.1 239.177 384.19 239.999C391.832 240.531 391.589 240.531 399.763 239.951ZM389.655 237C389.123 236.371 388.205 234.969 387.624 233.857C386.609 231.826 384.19 224.038 384.19 222.781C384.19 222.25 385.593 222.104 391.446 222.104C397.297 222.104 398.699 222.25 398.699 222.781C398.699 224.038 396.28 231.826 395.266 233.857C393.96 236.42 392.46 238.065 391.446 238.065C391.009 238.065 390.187 237.58 389.655 237ZM395.894 237.242C397.539 234.002 399.037 230.229 400.054 226.651L401.262 222.201L405.179 221.912C407.356 221.766 411.37 221.476 414.175 221.33L419.253 220.992L417.078 223.555C411.902 229.746 405.905 234.389 400.585 236.371C397.442 237.532 395.555 237.871 395.894 237.242ZM382.788 236.565C377.42 234.728 370.504 229.311 365.039 222.636L363.685 220.992L368.714 221.33C371.519 221.476 375.534 221.766 377.71 221.912L381.627 222.201L382.836 226.651C383.852 230.229 385.351 234.002 386.995 237.242C387.286 237.822 385.931 237.629 382.788 236.565ZM406.63 235.985C409.773 234.002 415.19 229.166 417.755 226.07C422.155 220.605 422.686 220.17 424.283 220.17C425.443 220.17 430.957 219.299 441.258 217.51L442.95 217.219L440.533 219.444C437.534 222.25 429.168 227.909 424.718 230.132C420.221 232.406 417.173 233.566 411.756 235.211C406.727 236.662 405.131 236.951 406.63 235.985ZM371.326 235.211C365.764 233.615 362.766 232.454 358.171 230.132C353.722 227.909 345.355 222.25 342.357 219.444L339.939 217.219L341.631 217.51C351.933 219.299 357.446 220.17 358.607 220.17C360.203 220.17 360.686 220.605 365.232 226.167C367.844 229.311 373.019 233.954 376.259 235.985C377.758 236.903 376.404 236.711 371.326 235.211ZM348.015 229.649C341.68 227.086 338.971 225.732 332.588 221.959C327.945 219.204 319.53 213.205 316.241 210.256C314.645 208.805 314.597 208.805 320.352 211.174C322.625 212.093 326.929 213.593 329.976 214.511C335.102 216.059 335.731 216.398 338.681 219.058C344.823 224.572 350.192 228.295 356.962 231.729C359.187 232.84 360.976 233.857 360.976 233.954C360.976 234.292 353.045 231.68 348.015 229.649ZM427.088 231.343C432.94 228.246 437.631 224.958 443.241 220.073C447.69 216.156 447.932 216.01 453.107 214.464C456.009 213.593 460.265 212.093 462.537 211.174C468.293 208.805 468.245 208.805 466.648 210.256C460.023 216.204 448.27 223.652 439.324 227.715C434.148 230.037 424.235 233.711 423.123 233.711C422.832 233.711 424.621 232.648 427.088 231.343ZM383.513 219.735C382.788 218.622 378.871 193.232 378.871 189.798C378.871 189.364 381.966 189.218 391.446 189.218C402.036 189.218 404.019 189.315 404.019 189.895C404.019 193.329 400.102 218.622 399.377 219.735C399.231 219.976 395.652 220.17 391.446 220.17C387.237 220.17 383.658 219.976 383.513 219.735ZM402.374 216.591C403.439 211.562 404.551 203.969 405.422 196.231L406.244 188.976L412.241 188.638C415.578 188.493 421.817 187.961 426.169 187.525C430.522 187.042 434.197 186.848 434.342 186.993C434.825 187.478 430.86 198.94 428.006 205.177C426.605 208.273 424.428 212.528 423.171 214.705L420.801 218.622L416.158 218.961C413.595 219.107 411.176 219.347 410.79 219.396C410.402 219.493 408.179 219.59 405.905 219.638L401.697 219.687L402.374 216.591ZM365.281 218.913L362.04 218.573L359.719 214.705C358.462 212.528 356.237 208.225 354.883 205.177C352.078 199.035 348.064 187.478 348.547 186.993C348.692 186.801 352.174 187.042 356.237 187.478C360.299 187.913 366.151 188.347 369.198 188.541C377.42 188.927 376.743 188.541 377.129 193.184C377.516 198.117 379.548 211.997 380.515 216.495L381.192 219.832L374.856 219.541C371.326 219.347 367.022 219.058 365.281 218.913ZM423.848 217.945C423.848 217.752 424.621 216.35 425.54 214.802C428.877 209.337 434.148 196.763 436.18 189.364C436.905 186.801 437.196 186.316 438.308 186.124C438.985 185.978 442.273 185.398 445.562 184.865C452.092 183.753 455.38 183.076 462.731 181.19C465.342 180.513 467.616 180.077 467.761 180.222C468.582 181.093 460.797 195.747 455.766 202.76C452.526 207.305 447.498 213.302 446.287 214.028C445.515 214.464 437.196 216.204 430.377 217.268C424.041 218.284 423.848 218.333 423.848 217.945ZM349.853 216.785C346.516 216.253 342.163 215.43 340.18 214.947C336.844 214.125 336.312 213.835 334.135 211.513C330.411 207.596 325.043 200.148 321.851 194.538C318.514 188.735 314.742 180.659 315.129 180.271C315.274 180.125 317.547 180.513 320.159 181.19C327.51 183.076 330.798 183.753 337.327 184.865C340.616 185.398 343.904 185.978 344.581 186.124C345.694 186.316 345.984 186.801 346.71 189.364C348.741 196.763 354.012 209.337 357.349 214.802C358.268 216.35 359.042 217.801 359.042 217.945C359.042 218.139 358.316 218.187 357.446 218.042C356.624 217.896 353.19 217.316 349.853 216.785ZM452.092 210.982C457.654 204.791 463.554 195.409 468.099 185.398L471.098 178.917L476.37 177.079C482.801 174.806 492.329 170.163 495.859 167.503C497.311 166.391 498.616 165.617 498.713 165.763C499.245 166.246 491.748 180.368 488.025 185.978C479.223 199.132 474.581 203.534 465.005 207.934C461.328 209.628 452.237 212.867 450.978 212.916C450.641 212.916 451.124 212.045 452.092 210.982ZM327.703 211.659C319.336 209.096 311.018 204.888 306.859 201.066C301.2 195.844 292.543 183.415 287.417 172.968C285.483 169.1 284.032 165.86 284.177 165.763C284.274 165.666 285.773 166.584 287.465 167.794C291.625 170.695 300.717 175.145 306.859 177.176L311.792 178.82L313.243 182.205C317.692 192.41 323.109 201.454 329.105 208.854C330.943 211.079 332.297 212.916 332.104 212.916C331.911 212.916 329.928 212.336 327.703 211.659ZM382.159 186.993L378.532 186.655L377.952 179.594C377.371 172.388 376.452 157.541 376.452 155.364V154.156H391.446H406.437V155.607C406.437 157.735 405.567 171.517 404.939 179.642L404.357 186.752L401.649 186.945C396.523 187.235 385.786 187.284 382.159 186.993ZM406.63 184.285C407.162 179.691 407.839 169.777 408.179 161.844L408.516 154.059L416.787 153.478C424.331 152.947 433.908 151.979 439.276 151.205L441.404 150.867L441.065 153.719C439.953 162.909 437.437 177.128 435.939 182.496C435.502 184.044 435.213 184.285 433.568 184.576C430.183 185.107 413.401 186.558 408.904 186.704L406.341 186.801L406.63 184.285ZM367.022 186.316C359.187 185.736 347.87 184.479 347.532 184.139C346.371 183.028 340.954 152.027 341.777 151.205C341.873 151.108 345.452 151.399 349.66 151.93C353.867 152.462 361.17 153.139 365.861 153.478L374.373 154.059L374.711 161.844C375.05 169.777 375.727 179.691 376.259 184.285L376.549 186.801H375.195C374.421 186.801 370.746 186.558 367.022 186.316ZM438.067 182.834C439.082 179.256 441.79 164.649 442.467 159.136C442.902 155.607 443.338 152.221 443.484 151.688C443.627 150.77 444.305 150.528 448.367 149.802C455.526 148.545 465.585 146.32 471.147 144.725C473.855 143.902 476.321 143.274 476.563 143.274C477.241 143.274 477.144 144.725 476.079 151.253C474.435 160.781 470.711 174.709 469.211 176.788C468.487 177.805 456.88 180.802 446.578 182.641C437.97 184.188 437.679 184.188 438.067 182.834ZM335.683 182.447C324.898 180.513 314.452 177.805 313.678 176.74C312.904 175.725 311.018 169.728 309.228 162.715C307.584 156.332 305.505 143.951 305.988 143.468C306.133 143.274 308.648 143.805 311.502 144.628C317.353 146.32 327.364 148.545 334.522 149.802C338.585 150.528 339.262 150.77 339.407 151.688C339.552 152.221 339.987 155.655 340.422 159.233C341.099 164.698 343.566 177.853 344.775 182.593C345.21 184.236 345.597 184.236 335.683 182.447ZM472.356 175.337C472.501 174.854 473.37 171.857 474.29 168.615C475.982 162.861 477.869 154.01 479.078 146.225L479.706 142.162L484.784 140.131C493.634 136.648 500.938 132.586 505.339 128.669L507.03 127.218V128.716C507.03 134.617 504.613 148.303 502.196 155.944C500.89 160.152 500.502 160.781 498.325 162.764C493.394 167.214 488.315 170.163 479.223 173.791C472.79 176.402 471.968 176.596 472.356 175.337ZM303.086 173.548C293.801 169.777 285.289 164.457 282.581 160.684C280.453 157.782 276.826 141.437 276.052 131.424L275.713 127.072L277.454 128.62C281.952 132.586 289.206 136.6 298.105 140.131L303.183 142.162L303.812 146.225C305.021 154.01 306.907 162.861 308.6 168.615C309.519 171.857 310.389 174.854 310.534 175.337C310.921 176.596 310.051 176.402 303.086 173.548ZM376.259 148.69C376.114 146.902 375.969 138.1 375.969 129.152V112.805H391.446H406.921V129.152C406.921 138.1 406.776 146.902 406.63 148.69L406.293 151.979L398.989 152.076C394.975 152.173 388.301 152.173 384.142 152.076L376.597 151.93L376.259 148.69ZM409.096 132.778C409.29 122.187 409.484 113.288 409.581 112.999C409.678 112.66 411.999 112.371 415.481 112.177C418.624 111.983 425.106 111.403 429.894 110.823C434.682 110.242 439.468 109.759 440.533 109.711L442.467 109.662V122.478C442.467 139.598 441.936 148.497 440.822 148.787C439.565 149.174 422.735 150.964 416.11 151.447C412.773 151.641 409.773 151.882 409.436 151.93C408.904 151.979 408.856 148.545 409.096 132.778ZM359.284 150.722C350.433 149.948 341.777 148.884 341.438 148.545C340.954 148.062 340.132 126.589 340.277 118.608L340.422 109.662L342.357 109.711C343.421 109.759 348.209 110.242 352.997 110.823C357.785 111.403 364.362 111.983 367.602 112.177L373.551 112.468V119.818C373.551 123.832 373.696 132.683 373.889 139.502L374.179 151.833L371.084 151.641C369.391 151.544 364.072 151.108 359.284 150.722ZM444.208 142.306C444.45 138.969 444.644 130.118 444.692 122.622V108.937L445.756 108.694C446.336 108.549 449.093 108.017 451.898 107.486C458.331 106.18 466.842 104.052 472.549 102.262L476.998 100.86L477.241 102.117C478.449 107.92 478.69 127.798 477.675 137.809L477.384 140.759L470.324 142.742C466.456 143.805 462.151 144.966 460.845 145.257C457.846 145.934 443.967 148.497 443.821 148.4C443.773 148.351 443.918 145.594 444.208 142.306ZM323.012 145.451C321.126 145.014 316.435 143.805 312.566 142.742L305.456 140.759L305.166 137.566C304.247 126.927 304.441 108.84 305.65 102.359L305.94 100.86L310.341 102.262C316.241 104.1 324.656 106.228 331.234 107.486C334.135 108.066 336.94 108.646 337.376 108.743C338.149 108.985 338.198 110.194 338.198 122.816C338.198 130.458 338.343 137.906 338.439 139.357C338.585 140.856 338.826 143.516 338.971 145.257L339.213 148.448L332.829 147.336C329.299 146.708 324.85 145.837 323.012 145.451ZM480.141 125.041C480.19 116.819 479.996 107.872 479.803 105.067L479.367 99.9409L483.963 97.958C489.717 95.4916 495.859 91.9126 498.81 89.2528C500.116 88.0921 501.228 87.1732 501.422 87.1732C501.856 87.1732 503.645 93.5087 504.855 99.5056C506.45 107.437 507.127 114.062 506.935 119.818L506.79 124.606L503.307 127.556C498.859 131.232 493.006 134.569 485.8 137.518C482.704 138.825 480.19 139.84 480.141 139.888C480.141 139.888 480.141 133.215 480.141 125.041ZM294.671 136.503C289.013 134.086 283.451 130.796 279.437 127.41L276.1 124.606L275.955 120.302C275.762 114.788 276.535 106.954 278.035 99.5056C279.244 93.5087 281.033 87.1732 281.468 87.1732C281.662 87.1732 282.774 88.0921 284.08 89.2528C287.03 91.9126 293.172 95.4916 298.927 97.958L303.473 99.9409L303.086 105.26C302.893 108.211 302.7 117.207 302.748 125.235L302.796 139.791L300.813 139.066C299.701 138.631 296.944 137.471 294.671 136.503ZM378.145 110.532L375.824 110.242L376.162 99.3122C376.501 87.5118 377.275 72.1809 377.662 69.0372L377.903 67.1028H391.446H404.987L405.228 69.0372C405.616 72.1809 406.388 87.5118 406.727 99.3605L407.065 110.339L405.422 110.532C402.617 110.871 380.563 110.871 378.145 110.532ZM409.145 109.323C409.001 108.694 408.856 105.163 408.856 101.44C408.856 95.298 408.516 87.6084 407.598 72.3258L407.259 66.9577L409.87 66.6675C423.992 65.265 428.539 64.733 432.022 64.1526C434.245 63.7174 436.131 63.4755 436.18 63.5723C436.616 63.9591 439.373 78.5163 440.242 84.755C441.404 93.2668 442.516 106.374 442.081 106.857C441.596 107.292 434.874 108.211 425.492 109.129C409.387 110.677 409.533 110.677 409.145 109.323ZM357.349 109.129C347.773 108.211 341.777 107.389 341.099 106.954C339.89 106.228 342.067 86.0125 344.823 72.2292C345.742 67.5864 346.564 63.6689 346.661 63.5723C346.758 63.524 348.644 63.7174 350.869 64.1526C354.351 64.733 358.897 65.265 373.019 66.6675L375.63 66.9577L375.292 72.3258C374.47 86.1091 374.034 95.6851 374.034 101.682C374.034 111.113 374.373 110.532 368.763 110.145C366.2 109.952 361.073 109.517 357.349 109.129ZM444.45 105.454C444.353 104.825 444.015 101.102 443.724 97.0875C442.95 86.6896 440.775 72.7612 438.599 64.3945C438.308 63.137 438.356 63.0886 442.081 62.2664C447.498 61.1057 455.863 58.7359 460.217 57.14L463.988 55.7859L465.391 58.5425C467.422 62.6535 470.033 69.4726 471.968 75.8563C473.807 81.95 476.563 94.6694 476.563 97.1842C476.563 98.7319 476.515 98.7319 472.065 100.183C466.456 101.972 461.135 103.375 453.107 105.067C445.175 106.809 444.741 106.809 444.45 105.454ZM331.137 105.357C323.737 103.81 316.483 101.972 310.825 100.183C306.375 98.7319 306.327 98.7319 306.327 97.1842C306.327 94.6694 309.084 81.95 310.921 75.8563C312.856 69.4726 315.467 62.6535 317.499 58.5425L318.901 55.7859L322.673 57.14C327.026 58.7359 335.393 61.1057 340.809 62.3149C344.291 63.0403 344.581 63.1854 344.34 64.1526C342.502 70.7782 339.89 87.3667 339.165 97.2809C338.536 105.792 338.391 106.518 337.569 106.518C337.23 106.518 334.329 105.986 331.137 105.357ZM478.013 91.9611C475.982 80.6442 472.016 67.6348 467.954 58.9778L466.019 54.8671L469.647 53.0293C471.63 51.9653 474.532 50.1275 476.127 48.87L478.932 46.597L481.932 50.3209C488.412 58.3491 495.425 70.3914 499.099 79.9671L500.793 84.4165L499.439 85.8191C497.745 87.6084 493.151 90.8972 489.475 92.9767C486.429 94.6694 479.367 97.8612 479.126 97.6195C479.029 97.5712 478.546 95.008 478.013 91.9611ZM297.67 95.1046C292.543 92.6865 286.063 88.5274 283.693 86.0608L282.097 84.4165L283.79 79.9671C287.465 70.3914 294.478 58.3491 300.959 50.3209L303.957 46.597L306.81 48.87C308.358 50.1275 311.26 51.9653 313.291 53.0293L316.918 54.8671L315.709 57.3335C311.115 66.3289 306.665 81.273 304.199 95.9751C303.812 98.0548 304.247 98.1031 297.67 95.1046ZM378.145 62.4116C378.822 55.9793 380.37 42.196 380.708 40.0196L381.047 37.6016H391.446H401.842L402.182 40.0196C402.52 42.196 404.068 55.9793 404.745 62.4116L404.987 64.9265H391.446H377.903L378.145 62.4116ZM406.485 58.3008C406.147 54.8671 405.47 48.7734 404.939 44.7109C404.454 40.6484 404.019 37.2147 404.019 37.1179C404.019 36.973 405.034 36.8762 406.293 36.8762C408.227 36.8762 413.644 36.1508 423.897 34.6032L425.589 34.3613L427.571 38.6172C430.86 45.7748 436.036 60.6705 435.406 61.2508C434.728 61.9279 415.772 64.2977 410.258 64.3945L407.065 64.4428L406.485 58.3008ZM363.975 63.7174C356.575 62.9435 347.87 61.6378 347.483 61.2508C346.854 60.6705 352.029 45.7748 355.318 38.6172L357.301 34.3613L358.994 34.6032C369.246 36.1508 374.663 36.8762 376.549 36.8762C377.855 36.8762 378.871 36.973 378.871 37.1179C378.871 37.2147 378.435 40.6484 377.952 44.7109C377.42 48.7734 376.743 54.8671 376.404 58.3008L375.824 64.4428H373.454C372.148 64.4428 367.892 64.1043 363.975 63.7174ZM437.679 60.4771C434.148 48.9668 431.973 43.0182 427.911 34.2162C427.814 33.9261 429.506 33.2005 431.731 32.6203C433.956 31.9915 437.582 30.7341 439.856 29.8636L443.918 28.2193L445.562 29.7668C450.06 34.0227 457.701 44.2272 461.571 51.0463L463.117 53.803L461.522 54.48C458.475 55.7376 448.803 58.6393 443.676 59.8C437.534 61.2508 437.873 61.2025 437.679 60.4771ZM337.714 59.413C332.636 58.204 322.383 55.0605 320.69 54.19C319.868 53.803 319.965 53.5612 321.368 50.998C325.333 44.0338 332.829 34.0227 337.327 29.7668L338.971 28.2193L343.034 29.8636C345.307 30.7341 348.934 31.9915 351.159 32.6203C353.384 33.2005 355.076 33.9261 354.979 34.2162C350.917 43.0182 348.837 48.6766 345.21 60.4771C345.113 60.8157 344.581 60.9608 343.953 60.864C343.324 60.7189 340.519 60.0901 337.714 59.413ZM463.457 50.0792C459.685 43.3084 451.898 32.9588 447.593 28.9446C446.772 28.1226 446.095 27.3971 446.095 27.2036C446.095 26.9134 450.738 23.3346 451.172 23.3346C451.704 23.3346 459.974 29.0898 463.747 32.0883C468.582 35.9089 477.047 44.0821 477.047 44.9043C477.047 45.2428 476.176 46.2102 475.064 47.0323C473.13 48.5799 466.019 52.8358 465.391 52.8358C465.197 52.8358 464.328 51.5783 463.457 50.0792ZM313.484 50.7078C309.035 48.1931 305.843 45.7265 305.843 44.856C305.843 43.0665 322.093 29.1382 329.251 24.8339L331.959 23.238L334.377 25.0758C335.683 26.0914 336.795 27.0102 336.795 27.107C336.795 27.2036 335.247 28.9931 333.313 31.0244C328.96 35.6671 324.221 42.0509 320.594 48.1446C319.046 50.7078 317.644 52.8358 317.45 52.8358C317.305 52.8358 315.516 51.8685 313.484 50.7078ZM383.272 35.1352C381.434 34.7483 381.434 34.6515 383.03 26.7685C384.481 19.5623 387.044 11.5825 388.785 8.87419C389.752 7.27829 390.284 6.89144 391.446 6.89144C392.606 6.89144 393.137 7.27829 394.105 8.87419C395.846 11.5825 398.409 19.5623 399.86 26.7685C401.408 34.313 401.408 34.7966 400.005 35.0867C398.263 35.4252 384.916 35.4737 383.272 35.1352ZM402.423 28.5578C400.828 20.4813 399.086 14.3393 397.2 10.3251C396.426 8.63245 395.846 7.1815 395.943 7.08486C395.991 7.03655 397.683 7.47172 399.617 8.1488C407.985 10.9539 415.723 18.0148 422.349 28.7997C423.412 30.5407 424.138 32.0883 423.944 32.1849C423.074 32.7171 409.05 34.6998 405.179 34.8932L403.728 34.9417L402.423 28.5578ZM373.309 34.4581C368.424 33.9261 359.477 32.5235 358.945 32.1849C358.752 32.0883 359.477 30.5407 360.541 28.7997C367.167 18.0148 374.905 10.9539 383.272 8.1488C385.206 7.47172 386.899 7.03655 386.947 7.08486C387.044 7.1815 386.463 8.63245 385.69 10.3251C383.804 14.3393 382.062 20.4813 380.466 28.5578C379.451 33.4908 379.016 34.9417 378.435 34.9417C378 34.9417 375.679 34.6998 373.309 34.4581ZM424.718 28.4612C420.511 21.2067 413.498 13.372 407.985 9.79318C406.582 8.92267 405.47 8.1488 405.47 8.10048C405.47 7.85858 411.273 9.35784 414.852 10.5186C422.686 13.0818 432.94 18.8369 439.227 24.2053C440.63 25.3658 441.645 26.5266 441.404 26.7685C440.484 27.639 429.12 31.4595 427.234 31.5078C426.797 31.5563 425.686 30.2022 424.718 28.4612ZM349.224 29.7668C347.145 29.1382 344.436 28.1709 343.227 27.639C340.616 26.5266 340.664 26.4299 345.984 22.3675C350.53 18.9337 356.285 15.4516 360.783 13.372C364.749 11.5825 372.39 9.0193 375.243 8.53565L377.178 8.24559L373.792 10.6154C368.182 14.6294 361.412 22.4641 357.688 29.2832C356.479 31.5563 356.382 31.6046 354.738 31.3144C353.77 31.121 351.304 30.4439 349.224 29.7668ZM441.21 23.0928C437.293 19.7558 431.973 16.2254 426.557 13.3237C421.284 10.5186 421.912 10.4703 429.36 13.0335C435.793 15.2581 446.143 19.9977 448.464 21.7387C448.996 22.1255 445.127 25.2692 444.064 25.2692C443.918 25.2692 442.613 24.3019 441.21 23.0928ZM336.021 23.6248C335.006 22.706 334.232 21.8838 334.377 21.787C336.94 19.6108 356.72 11.244 359.187 11.244C359.526 11.244 358.123 12.163 356.14 13.2269C351.401 15.7901 345.5 19.7558 341.873 22.8026C340.277 24.1568 338.73 25.2692 338.439 25.2692C338.149 25.2692 337.085 24.5438 336.021 23.6248Z" fill="black" fill-opacity="0.1"/>
<path d="M438.633 177.854C438.957 177.854 439.28 177.854 439.441 177.854C439.765 178.016 440.088 178.177 440.411 178.339C441.219 185.287 437.826 196.76 432.816 199.831C432.17 199.508 431.362 199.184 430.715 198.861C430.554 197.568 430.877 187.55 431.362 186.418C433.139 183.025 437.179 182.863 438.633 177.854ZM484.688 121.298C485.173 121.459 485.657 121.621 486.142 121.783C486.95 123.883 487.273 126.146 486.304 127.923C485.819 127.923 485.334 127.923 484.849 128.085C484.849 127.923 484.849 127.761 484.849 127.438C484.041 125.984 484.203 122.752 484.688 121.298ZM501.817 115.48C502.301 115.804 502.625 115.965 503.109 116.288C503.109 116.935 502.948 117.743 502.948 118.389C502.786 118.389 502.786 118.389 502.625 118.389C502.301 118.389 501.978 118.389 501.817 118.389C501.817 118.227 501.817 118.066 501.817 117.743C501.655 117.258 501.494 116.773 501.332 116.288C501.494 116.127 501.655 115.804 501.817 115.48ZM503.271 91.5636C502.948 93.3412 503.594 94.4723 503.917 96.2499C504.079 96.2499 504.079 96.2499 504.241 96.2499C503.917 94.6339 503.594 93.1796 503.271 91.5636ZM383.368 94.6339C382.884 95.4419 382.237 96.0883 381.752 96.8962C381.914 97.2194 382.076 97.5426 382.076 97.7042C382.237 97.7042 382.399 97.8658 382.722 97.8658C383.045 97.7042 383.207 97.7042 383.53 97.5426C383.853 96.8962 384.176 96.0883 384.499 95.4419C384.499 95.2803 384.499 95.1189 384.499 94.7957C384.176 94.7957 383.853 94.6339 383.368 94.6339ZM343.293 93.018C343.293 93.3412 343.293 93.8259 343.455 94.1491C343.778 94.1491 344.263 94.1491 344.586 93.9877C344.586 93.6645 344.586 93.1796 344.424 92.8564C344.101 92.8564 343.778 92.8564 343.293 93.018ZM392.094 81.868C392.418 81.868 392.902 81.868 393.226 81.7064C393.226 82.0296 393.226 82.3529 393.226 82.5144C393.226 82.676 393.064 82.9992 393.064 83.1607C392.902 83.1607 392.902 83.1607 392.741 83.1607C392.579 83.1607 392.418 83.1607 392.094 83.1607C392.094 82.8376 392.094 82.3528 392.094 81.868ZM355.089 82.8375C357.19 82.5144 357.998 82.5144 358.968 83.6455C358.968 83.9687 358.806 84.2919 358.806 84.6151C358.644 84.7767 358.483 84.7768 358.321 84.9383C356.544 84.9383 355.897 84.4535 354.928 83.4839C354.928 83.3223 355.089 82.9991 355.089 82.8375ZM347.979 78.4745C348.302 78.4745 348.787 78.4745 349.11 78.3129C349.272 78.6361 349.434 78.9593 349.434 79.1209C349.11 79.9289 348.787 80.7368 348.464 81.5448C348.302 81.5448 348.141 81.5448 347.818 81.5448C347.818 81.5448 347.818 81.5448 347.656 81.3832C347.818 80.4137 347.818 79.4441 347.979 78.4745ZM347.979 75.5658C348.626 75.889 348.141 75.5658 348.626 76.0506C348.464 75.8892 348.302 75.7274 347.979 75.5658ZM395.488 56.4977C394.034 57.4673 392.579 58.2753 390.963 59.2448C390.963 59.4064 390.963 59.4064 390.963 59.568C391.286 60.376 391.61 61.0224 392.094 61.8303C391.933 61.9919 391.771 61.9919 391.61 62.1535C390.963 62.3151 390.317 62.4767 389.509 62.6383C388.701 60.8608 386.923 58.9217 384.823 59.7296C382.237 61.0224 380.136 65.8702 379.652 68.9405C380.783 69.7484 381.268 70.0716 380.783 71.2028C380.46 71.8493 380.136 72.0108 379.652 72.4955C379.652 72.6571 379.652 72.8187 379.652 73.1419C379.975 73.3035 380.136 73.3035 380.136 73.4651C384.176 72.6571 386.6 69.2637 390.317 67.9709C395.165 66.355 401.79 70.718 405.022 65.547C405.022 65.2238 405.022 64.9006 405.022 64.739C402.113 63.4463 399.043 62.1537 396.134 60.6992C395.973 59.568 396.619 58.7601 396.619 56.4977C396.296 56.4977 395.973 56.4977 395.488 56.4977ZM417.626 50.3572C415.041 52.6195 412.778 53.7506 410.516 56.1745C410.678 58.4369 411.001 58.7601 411.97 59.8912C414.718 61.6687 417.303 63.2847 420.05 65.0622C420.05 65.3854 419.889 65.8702 419.889 66.1934C418.757 66.6782 418.757 66.355 418.273 67.4861C419.242 68.6173 420.05 69.91 420.858 71.0412C424.575 71.2028 426.999 72.1724 430.231 70.2332C430.231 69.91 430.231 69.5869 430.231 69.4253C428.615 67.8093 427.483 66.0318 425.706 64.5774C425.706 64.2543 425.706 63.9311 425.706 63.7695C426.191 63.2847 426.837 62.9613 427.322 62.4767C426.837 61.9919 426.999 61.9919 426.352 61.6687C423.282 60.8608 419.242 59.7296 418.273 56.4977C418.919 56.4977 419.404 56.3362 420.05 56.3362C420.858 56.4977 421.666 56.6593 422.474 56.6593C423.12 55.8514 423.928 55.0434 424.575 54.0738C424.575 53.9122 424.575 53.9122 424.575 53.7506C422.474 51.8115 421.343 50.3572 417.626 50.3572ZM330.527 55.5282C331.012 55.5282 331.497 55.5282 331.981 55.3666C331.981 55.6898 331.981 56.1746 332.143 56.4977C330.204 58.4369 330.366 60.5374 326.972 61.6687C326.972 61.5072 326.972 61.5072 326.972 61.3456C327.942 59.4064 329.719 57.6289 330.527 55.5282ZM333.113 62.1535C332.951 59.0832 334.244 58.4369 335.537 56.6593C334.89 54.7202 333.759 54.0738 334.567 51.8115C335.052 51.1651 335.537 50.3572 336.183 49.7108C336.345 49.7108 336.506 49.7108 336.829 49.7108C336.991 49.8724 337.314 50.034 337.476 50.1956C337.152 53.5891 339.576 58.4369 339.415 58.7601C339.092 59.8912 338.768 60.376 337.799 61.0224C336.183 61.184 334.729 61.6688 333.113 62.1535ZM331.497 39.8536C331.981 39.8536 332.466 39.8536 332.951 39.692C332.951 40.0152 332.789 40.4999 332.789 40.8231C331.174 41.6311 329.396 42.4391 327.78 43.247C327.618 43.0854 327.618 42.9239 327.457 42.7623C327.457 42.6007 327.618 42.4391 327.618 42.1159C328.911 41.4695 330.204 40.6615 331.497 39.8536ZM380.136 34.6826C379.813 35.6521 379.813 35.3289 379.975 36.4601C380.136 36.6217 380.46 36.7833 380.621 36.9449C381.268 36.7833 381.914 36.6217 382.56 36.4601C382.56 36.1369 382.56 35.6521 382.399 35.3289C382.237 35.1673 381.914 35.0057 381.752 34.8442C381.429 34.6826 380.783 34.6826 380.136 34.6826ZM421.989 18.5232C421.989 19.0079 422.151 19.4927 422.151 19.9775C422.474 20.1391 422.797 20.3007 423.12 20.4623C423.282 20.3007 423.444 19.9775 423.605 19.8159C422.959 19.1695 422.959 18.8464 421.989 18.5232ZM367.855 18.0384C368.825 18.5232 368.34 18.0384 368.825 19.1695C368.179 19.6543 367.532 20.1391 366.886 20.4623C364.462 19.6543 366.563 18.8464 367.855 18.0384ZM402.275 13.9985C402.921 14.1601 403.729 14.3217 404.376 14.4833C404.376 14.6449 404.214 14.9681 404.214 15.1297C402.921 15.7761 402.436 16.2608 401.79 17.392C402.113 18.2 402.436 18.8464 402.921 19.6543C402.76 19.6543 402.76 19.6543 402.598 19.6543C401.628 19.4927 400.659 19.1695 399.689 19.0079C399.366 15.9377 400.82 15.6145 402.275 13.9985ZM421.666 9.6355C420.858 9.79709 420.697 11.8978 420.373 13.029C419.889 14.8065 419.242 15.1297 417.626 15.9377C416.172 15.6145 414.879 15.4529 413.425 15.1297C413.102 15.4529 412.94 15.7761 412.617 16.0993C413.102 17.5536 413.586 17.7152 414.233 18.5232C408.415 21.1087 402.113 21.4319 396.781 24.9869C395.973 24.5021 395.165 24.0174 394.357 23.371C393.872 24.179 393.872 24.5021 394.195 25.4717C392.094 27.4108 388.863 28.3804 386.923 30.4811C384.984 30.3195 384.338 29.6731 383.207 28.7036C383.207 28.3804 383.207 27.8956 383.045 27.5724C385.307 27.2492 387.731 26.926 389.994 26.7645C389.994 26.2797 389.832 25.7949 389.832 25.3101C370.118 20.4623 360.422 33.8746 348.626 41.6311C348.626 43.247 348.464 44.7014 348.464 46.3173C351.211 45.8325 351.373 44.5398 353.797 43.7318C353.958 43.7318 353.958 43.7318 354.12 43.7318C354.766 45.1862 355.413 46.6405 355.897 47.9333C356.059 48.2564 356.221 48.5796 356.221 48.7412C360.584 47.2869 359.937 42.9239 363.492 41.3079C363.008 39.5304 362.684 39.8536 362.038 38.5608C363.169 35.9753 368.179 31.1275 371.41 30.4811C371.572 30.4811 371.572 30.4811 371.734 30.4811C371.895 30.8043 372.218 30.9659 372.38 31.2891C371.41 33.3898 369.148 34.0362 368.017 36.1369C368.017 36.9449 368.179 37.7528 368.179 38.3992C371.087 39.3688 373.673 37.4297 376.905 36.7833C377.066 37.1065 377.389 37.2681 377.551 37.5912C376.258 39.2072 373.673 39.0456 371.572 40.1768C370.926 40.9847 371.249 41.7927 371.572 43.4086C370.441 43.5702 369.471 43.5702 368.34 43.7318C367.047 44.7014 365.916 48.2564 364.947 49.5492C359.776 49.8724 357.513 51.8115 352.019 52.4579C350.726 50.6804 351.373 50.1956 352.181 48.2565C352.019 48.0949 352.019 47.9333 351.858 47.7717C351.534 47.7717 351.211 47.7717 351.05 47.7717C349.918 49.5492 349.918 50.6804 350.08 53.1043C344.909 56.4977 337.314 65.7086 331.174 66.355C331.012 66.6782 330.85 67.0012 330.689 67.3245C331.981 68.2939 332.789 68.7789 333.921 70.2332C333.597 72.0108 333.274 73.7883 332.951 75.5658C330.366 77.3434 326.002 77.0202 323.255 78.4745C322.609 83.3223 321.478 85.5848 321.963 90.5941C324.063 90.5941 324.225 91.5636 325.356 91.7252C331.174 92.8564 332.628 84.6151 334.244 81.868C335.86 79.1209 338.284 77.6665 339.738 74.4347C341.192 74.2732 342.647 74.1115 344.101 74.1115C345.879 73.4651 346.525 71.526 348.787 70.718C350.888 72.4955 359.291 77.9897 359.776 80.0905C359.937 80.2521 360.099 80.252 360.422 80.4136C361.068 79.1209 361.23 79.1209 360.422 77.8281C360.907 76.8586 360.907 77.0202 362.038 76.5354C362.2 76.3738 362.2 76.0506 362.361 75.889C358.644 74.2731 354.443 72.9803 352.989 68.7789C353.15 68.4557 353.312 68.1325 353.473 67.8093C353.958 67.6477 354.443 67.3245 354.928 67.1629C358.483 68.6175 361.553 71.2028 365.431 72.8187C366.401 77.3434 368.825 77.9897 370.279 82.0296C370.441 82.0296 370.764 82.1912 370.926 82.3528C371.249 82.3528 371.734 82.3528 372.057 82.1912C372.542 80.4137 372.703 80.0905 373.511 78.7977C372.38 77.505 371.734 77.1818 371.41 74.9195C373.35 73.7883 373.996 72.8187 377.066 72.6571C379.49 76.8586 379.975 80.2521 385.469 81.06C385.954 80.4136 386.6 79.7673 387.085 79.1209C388.701 79.4441 390.317 79.6057 391.771 79.9289C393.549 79.4441 393.71 78.1513 396.619 77.8281C397.912 81.2216 397.75 85.4231 396.296 88.6549C394.518 92.21 392.579 89.9477 389.347 90.7557C387.57 91.2404 387.408 93.018 384.823 92.8564C380.46 92.6948 373.996 90.4326 370.602 91.402C369.794 92.0486 369.148 92.6948 368.34 93.3412C368.34 94.6339 368.34 94.6341 368.825 95.6036C368.34 96.25 367.855 97.0578 367.209 97.8658C365.755 97.7042 361.553 97.2196 360.099 96.4116C359.291 95.7651 358.644 94.9571 357.836 94.3107C354.281 93.5028 352.989 94.3109 350.08 93.1797C350.242 90.7558 350.403 89.3013 350.403 87.2006C349.757 86.7158 349.11 86.3926 348.464 85.9078C345.394 88.0086 341.516 87.5238 338.122 88.8165C333.113 90.7557 331.981 94.3107 325.033 94.3107C323.579 96.0883 320.831 99.4817 320.024 101.421C319.7 103.845 319.377 106.108 319.216 108.532C317.923 109.986 316.468 111.44 315.176 113.056C314.045 117.419 312.913 121.621 311.782 125.984C312.429 128.408 313.237 130.832 313.883 133.094C314.045 136.164 314.206 139.396 314.368 142.467C317.115 150.706 325.518 158.624 332.466 162.179C333.759 161.533 335.052 160.725 336.344 160.079C337.799 160.079 339.253 160.24 340.708 160.24C346.525 158.786 347.656 151.514 354.12 159.432C355.736 159.109 357.19 158.786 358.806 158.463C364.3 161.695 360.26 166.219 363.654 170.421C366.886 174.622 372.38 176.884 375.45 181.409C376.581 183.025 378.521 185.934 378.844 187.226C379.49 189.489 378.197 192.721 379.167 195.468C380.621 198.861 398.72 213.889 402.598 215.505C417.626 212.92 411.001 205.81 418.111 200.962C418.434 198.215 417.303 197.084 416.657 194.66C418.596 191.751 423.928 188.842 424.736 185.449C426.676 176.238 416.98 172.198 421.02 162.503C426.029 150.868 438.633 144.244 437.502 127.277C437.341 127.115 437.018 126.954 436.856 126.792C432.816 128.731 428.776 130.67 424.736 132.448C422.312 130.509 423.12 129.862 421.343 127.761C418.434 125.984 415.364 124.206 412.294 122.267C411.647 120.813 410.839 119.197 410.193 117.743C409.062 116.773 407.931 115.965 406.799 115.157C405.992 113.218 405.345 111.117 404.537 109.178C400.659 104.977 396.619 99.9665 393.064 95.1187C393.064 94.9571 393.064 94.9571 393.064 94.7957C394.357 95.1189 394.842 95.9267 395.649 96.8962C396.296 96.573 396.942 96.2498 397.589 95.7651C401.467 99.4817 405.184 103.199 409.062 106.916C409.223 108.047 409.385 109.017 409.547 110.148C411.324 113.056 416.172 115.319 418.434 118.227C419.565 121.298 420.697 124.368 421.828 127.277C423.928 128.731 428.776 123.883 430.069 123.075C437.987 117.904 446.875 110.309 448.167 100.451C448.329 97.2196 442.027 97.0578 440.573 93.6644C440.088 93.6644 439.603 93.5028 439.118 93.5028C438.472 95.1187 437.987 96.573 436.533 97.5426C435.402 97.8658 434.432 98.189 433.301 98.3506C433.139 98.3506 433.139 98.3506 432.978 98.3506C432.331 97.381 432.008 97.0578 431.847 95.2803C430.554 94.9571 430.715 95.6035 429.584 95.4419C427.322 93.1796 425.06 90.9173 422.797 88.6549C422.797 88.3318 422.797 87.847 422.636 87.5238C423.605 87.039 424.575 86.5542 425.383 86.0694C430.069 89.4629 433.139 93.3412 439.765 90.1093C446.228 94.9571 449.137 92.21 457.378 90.4325C459.479 91.7252 463.357 94.1491 463.842 97.2196C465.135 98.0275 465.135 98.6738 467.236 98.6738C467.72 98.0274 468.367 97.381 468.852 96.7346C469.983 100.451 471.275 104.168 472.407 107.885C474.346 112.572 477.739 117.096 479.032 122.914C479.355 123.235 479.678 123.398 480.002 123.722C480.325 123.722 480.648 123.722 480.809 123.722C482.264 120.651 483.88 116.773 483.072 111.764C482.749 110.148 482.425 108.693 482.102 107.077C482.749 103.683 486.142 98.6738 487.273 95.1187C487.273 93.9875 487.273 93.018 487.273 91.8868C488.404 91.0788 489.697 90.1093 490.828 89.3013C491.636 92.3716 493.414 93.6644 494.707 96.2499C495.03 97.8658 495.353 99.3201 495.676 100.936C495.838 101.259 496.161 101.421 496.322 101.744C496.646 101.421 497.13 101.098 497.454 100.774C497.615 100.936 497.938 100.936 498.1 101.098C498.746 103.845 499.393 106.593 500.039 109.501C500.201 109.663 500.524 109.663 500.686 109.825C501.17 108.855 501.009 108.532 502.301 107.885C502.625 110.309 503.271 112.41 505.372 112.087C505.695 119.359 505.857 128.408 504.079 134.548C504.079 134.71 504.079 134.872 504.079 135.195C503.917 135.356 503.756 135.356 503.594 135.518C503.271 133.579 502.948 131.64 502.463 129.701C502.948 129.701 503.433 129.539 503.917 129.539C504.241 126.792 504.079 122.914 503.433 119.843C502.786 119.843 502.301 119.682 501.655 119.682C501.817 121.944 501.817 124.206 501.978 126.469C501.817 126.469 501.817 126.469 501.655 126.469C501.17 125.661 500.686 125.014 500.362 124.206C500.039 124.206 499.716 124.045 499.393 124.045C497.615 127.115 501.494 132.771 501.009 136.811C500.847 138.911 500.847 141.012 500.686 142.951C501.009 143.598 501.332 144.244 501.655 144.89L502.14 147.153L504.241 145.698C510.866 121.944 506.988 88.3318 496.161 67.6477C482.425 40.3384 456.894 16.584 421.666 9.6355Z" fill="#8E8E8E"/>
<path d="M10.6134 99.3973C10.6134 97.3575 10.486 95.732 10.231 94.5208C10.0398 93.3097 9.56174 92.3535 8.79676 91.6523C8.03182 90.9511 6.94817 90.473 5.54578 90.2181C4.1434 89.9631 2.29481 89.7719 0 89.6444V87.4452H32.4142V89.6444C30.1193 89.7081 28.2707 89.8993 26.8684 90.2181C25.466 90.473 24.3823 90.9511 23.6174 91.6523C22.8524 92.3535 22.3425 93.3415 22.0875 94.6165C21.8325 95.8276 21.7051 97.4212 21.7051 99.3973V147.971C21.7051 149.947 21.8325 151.572 22.0875 152.847C22.4062 154.058 22.948 155.014 23.713 155.716C24.4779 156.417 25.5616 156.927 26.9639 157.246C28.3664 157.501 30.183 157.66 32.4142 157.724V159.732H0V157.724C2.29481 157.66 4.1434 157.501 5.54578 157.246C6.94817 156.927 7.99995 156.417 8.70112 155.716C9.4661 155.014 9.976 154.058 10.231 152.847C10.486 151.636 10.6134 150.011 10.6134 147.971V99.3973ZM56.3184 92.0348C53.2586 92.0348 50.7407 92.1941 48.7647 92.5129C46.8523 92.8316 45.2587 93.5009 43.9838 94.5208C42.7726 95.5407 41.7846 96.975 41.0197 98.8235C40.3185 100.608 39.6492 102.999 39.0117 105.995H36.3344L37.0038 87.4452H98.5814L99.2507 105.995H96.5734C95.9352 102.999 95.2347 100.608 94.4699 98.8235C93.7685 96.975 92.8122 95.5407 91.601 94.5208C90.3897 93.5009 88.7961 92.8316 86.8202 92.5129C84.8442 92.1941 82.2943 92.0348 79.1708 92.0348H73.3381V147.971C73.3381 149.947 73.4657 151.54 73.7207 152.752C73.9757 153.963 74.4538 154.919 75.1549 155.62C75.9198 156.321 76.9716 156.831 78.3103 157.15C79.7126 157.405 81.5294 157.596 83.7604 157.724V159.732H52.0156V157.724C54.2467 157.596 56.0315 157.405 57.3702 157.15C58.7088 156.831 59.7287 156.289 60.4299 155.524C61.1948 154.696 61.6729 153.58 61.8642 152.178C62.1192 150.775 62.2466 148.927 62.2466 146.632V92.0348H56.3184ZM178.421 159.732H150.597V157.724C151.552 157.724 152.349 157.724 152.987 157.724C153.625 157.66 154.134 157.596 154.517 157.532C154.963 157.405 155.346 157.309 155.665 157.246C155.983 157.118 156.302 156.959 156.62 156.767C157.13 156.449 157.513 156.066 157.768 155.62C158.086 155.11 158.246 154.6 158.246 154.09C158.246 152.305 157.545 149.819 156.143 146.632L151.552 136.21H123.059L117.992 148.927C117.737 149.628 117.513 150.361 117.322 151.126C117.195 151.827 117.131 152.528 117.131 153.23C117.131 154.696 117.705 155.811 118.852 156.576C120 157.341 121.911 157.724 124.589 157.724V159.732H102.884V157.724C104.222 157.66 105.37 157.437 106.326 157.054C107.282 156.672 108.238 155.875 109.195 154.664C110.151 153.389 111.171 151.604 112.254 149.309C113.402 146.951 114.836 143.764 116.557 139.748L139.218 86.2021H141.322L168.572 148.162C169.465 150.202 170.23 151.827 170.867 153.038C171.569 154.25 172.27 155.206 172.971 155.907C173.672 156.544 174.437 156.991 175.266 157.246C176.158 157.501 177.21 157.66 178.421 157.724V159.732ZM150.118 131.811L137.497 101.692L124.876 131.811H150.118ZM244.493 140.799L239.138 159.732H180.525V157.724C182.501 157.596 184.095 157.373 185.306 157.054C186.58 156.736 187.537 156.226 188.174 155.524C188.875 154.823 189.353 153.867 189.608 152.656C189.863 151.445 189.99 149.883 189.99 147.971V99.3973C189.99 97.4849 189.863 95.9232 189.608 94.7121C189.417 93.5009 188.971 92.5447 188.269 91.8435C187.569 91.1424 186.58 90.6324 185.306 90.3137C184.095 89.995 182.501 89.7719 180.525 89.6444V87.4452H211.218V89.6444C209.05 89.7719 207.297 89.995 205.958 90.3137C204.621 90.5687 203.6 91.0786 202.899 91.8435C202.198 92.5447 201.72 93.5009 201.465 94.7121C201.21 95.9232 201.082 97.4849 201.082 99.3973V151.03C201.082 151.987 201.178 152.783 201.369 153.421C201.624 153.995 202.102 154.441 202.803 154.759C203.505 155.078 204.461 155.301 205.672 155.429C206.883 155.493 208.508 155.524 210.549 155.524H217.815C222.468 155.524 226.325 154.983 229.385 153.899C232.509 152.815 235.059 151.158 237.035 148.927C237.799 148.034 238.533 146.919 239.233 145.58C239.999 144.242 240.827 142.648 241.72 140.799H244.493Z" fill="black"/>
<path d="M581.864 158.509H580.266L553.28 99.5541V142.713C553.28 145.471 553.405 147.727 553.656 149.483C553.969 151.175 554.502 152.523 555.254 153.526C556.007 154.529 557.041 155.25 558.357 155.688C559.674 156.127 561.366 156.409 563.435 156.535V158.509H538.235V156.535C540.429 156.347 542.184 156.064 543.501 155.688C544.88 155.25 545.914 154.529 546.604 153.526C547.356 152.523 547.857 151.175 548.108 149.483C548.359 147.727 548.484 145.471 548.484 142.713V99.1779C548.484 97.2347 548.359 95.6676 548.108 94.4766C547.92 93.2855 547.45 92.3453 546.698 91.6557C546.008 90.9662 545.005 90.4961 543.689 90.2453C542.373 89.9319 540.617 89.7125 538.423 89.5871V87.4245H559.674L584.403 141.678L608.286 87.4245H629.536V89.5871C627.53 89.7125 625.932 89.9319 624.741 90.2453C623.55 90.5588 622.609 91.0602 621.919 91.7498C621.231 92.4393 620.76 93.3796 620.509 94.5706C620.321 95.7616 620.227 97.2974 620.227 99.1779V146.944C620.227 148.824 620.353 150.36 620.603 151.551C620.854 152.742 621.293 153.682 621.919 154.372C622.609 155.062 623.55 155.563 624.741 155.876C625.994 156.19 627.593 156.409 629.536 156.535V158.509H599.447V156.535C601.578 156.409 603.271 156.19 604.525 155.876C605.841 155.563 606.844 155.03 607.533 154.278C608.223 153.463 608.662 152.397 608.85 151.081C609.101 149.702 609.226 147.884 609.226 145.627V97.0153L581.864 158.509ZM691.688 158.509H633.767V156.535C635.71 156.409 637.278 156.19 638.469 155.876C639.722 155.563 640.662 155.062 641.289 154.372C641.979 153.682 642.449 152.742 642.699 151.551C642.95 150.36 643.076 148.824 643.076 146.944V99.1779C643.076 97.2974 642.95 95.7616 642.699 94.5706C642.512 93.3796 642.073 92.4393 641.383 91.7498C640.694 91.0602 639.722 90.5588 638.469 90.2453C637.278 89.9319 635.71 89.7125 633.767 89.5871V87.4245H690.748L690.936 102.845H688.397C687.896 100.4 687.331 98.457 686.704 97.0153C686.078 95.5109 685.169 94.3512 683.978 93.5363C682.849 92.7214 681.313 92.1886 679.37 91.9378C677.489 91.6871 675.045 91.5617 672.036 91.5617H657.556C656.114 91.5617 655.142 91.7811 654.641 92.2199C654.202 92.6587 653.983 93.6617 653.983 95.2288V119.018H670.437C672.632 119.018 674.418 118.892 675.797 118.642C677.176 118.391 678.273 117.921 679.088 117.231C679.966 116.479 680.624 115.445 681.063 114.128C681.502 112.812 681.909 111.057 682.285 108.863H684.824V133.78H682.285C681.909 131.523 681.502 129.737 681.063 128.42C680.624 127.041 679.997 126.007 679.183 125.318C678.368 124.565 677.27 124.064 675.892 123.813C674.512 123.562 672.694 123.437 670.437 123.437H653.983V149.953C653.983 151.018 654.046 151.802 654.171 152.303C654.297 152.805 654.516 153.181 654.829 153.432C655.331 153.745 656.522 154.027 658.402 154.278C660.346 154.466 662.633 154.56 665.266 154.56H668.275C672.099 154.56 675.296 154.372 677.866 153.996C680.498 153.62 682.724 152.899 684.542 151.833C686.422 150.768 688.052 149.326 689.431 147.508C690.811 145.69 692.158 143.308 693.474 140.362H696.578L691.688 158.509ZM761.833 159.732L714.349 100.682V142.713C714.349 145.471 714.474 147.727 714.725 149.483C715.038 151.175 715.571 152.523 716.323 153.526C717.075 154.529 718.11 155.25 719.426 155.688C720.743 156.127 722.435 156.409 724.503 156.535V158.509H699.304V156.535C701.498 156.347 703.254 156.064 704.569 155.688C705.949 155.25 706.983 154.529 707.673 153.526C708.425 152.523 708.926 151.175 709.177 149.483C709.427 147.727 709.553 145.471 709.553 142.713V95.5109C708.488 94.2571 707.578 93.2542 706.826 92.502C706.074 91.6871 705.322 91.0916 704.569 90.7155C703.817 90.2767 703.034 89.9946 702.219 89.8692C701.404 89.6812 700.432 89.5871 699.304 89.5871V87.4245H717.64L758.917 139.422V103.221C758.917 96.7019 757.883 92.69 755.815 91.1856C755 90.6841 754.091 90.3393 753.088 90.1513C752.148 89.9006 750.674 89.7125 748.668 89.5871V87.4245H773.773V89.5871C771.768 89.7125 770.263 89.9319 769.261 90.2453C768.32 90.5588 767.505 90.9662 766.816 91.4677C764.685 92.8467 763.619 96.7646 763.619 103.221V159.732H761.833ZM851.441 158.509H824.078V156.535C825.019 156.535 825.802 156.535 826.429 156.535C827.056 156.472 827.557 156.409 827.933 156.347C828.372 156.221 828.748 156.127 829.062 156.064C829.375 155.939 829.689 155.782 830.002 155.594C830.504 155.281 830.88 154.905 831.13 154.466C831.444 153.964 831.6 153.463 831.6 152.962C831.6 151.206 830.911 148.762 829.532 145.627L825.019 135.378H796.999L792.015 147.884C791.764 148.574 791.545 149.294 791.357 150.047C791.232 150.736 791.168 151.426 791.168 152.115C791.168 153.557 791.733 154.654 792.862 155.406C793.99 156.159 795.871 156.535 798.503 156.535V158.509H777.159V156.535C778.476 156.472 779.604 156.252 780.544 155.876C781.484 155.5 782.424 154.717 783.364 153.526C784.305 152.272 785.308 150.517 786.373 148.26C787.502 145.941 788.912 142.807 790.605 138.857L812.889 86.2021H814.958L841.756 147.132C842.633 149.138 843.385 150.736 844.013 151.927C844.702 153.118 845.391 154.059 846.081 154.748C846.77 155.375 847.523 155.814 848.338 156.064C849.215 156.315 850.249 156.472 851.441 156.535V158.509ZM823.609 131.053L811.196 101.435L798.785 131.053H823.609ZM922.902 158.509H905.6L880.024 125.412L874.101 125.694V146.944C874.101 148.824 874.195 150.36 874.383 151.551C874.633 152.742 875.104 153.714 875.794 154.466C876.483 155.155 877.455 155.657 878.708 155.97C879.962 156.221 881.623 156.409 883.692 156.535V158.509H853.979V156.535C855.985 156.347 857.584 156.096 858.775 155.782C860.028 155.469 860.969 154.936 861.595 154.184C862.222 153.432 862.629 152.397 862.818 151.081C863.005 149.702 863.1 147.884 863.1 145.627V99.1779C863.1 97.2974 863.005 95.7929 862.818 94.6646C862.629 93.4736 862.222 92.5333 861.595 91.8438C860.969 91.1543 860.028 90.6528 858.775 90.3393C857.584 90.0259 855.985 89.7752 853.979 89.5871V87.4245H883.598C888.863 87.4245 893.565 88.1454 897.702 89.5871C901.902 90.9662 905.004 92.8467 907.011 95.2288C908.327 96.6705 909.299 98.363 909.926 100.306C910.552 102.187 910.866 104.224 910.866 106.418C910.866 111.307 909.33 115.163 906.259 117.983C903.25 120.804 898.328 122.904 891.496 124.283L913.593 151.551C915.097 153.306 916.507 154.529 917.823 155.218C919.203 155.908 920.895 156.347 922.902 156.535V158.509ZM874.101 121.744C876.608 121.682 878.771 121.588 880.589 121.462C882.47 121.337 884.099 121.149 885.479 120.898C886.92 120.585 888.237 120.209 889.427 119.77C890.618 119.331 891.841 118.767 893.094 118.077C895.038 117.012 896.542 115.445 897.608 113.376C898.674 111.245 899.207 108.831 899.207 106.136C899.207 101.059 897.608 97.36 894.411 95.0408C891.276 92.6587 886.262 91.4677 879.366 91.4677C877.236 91.4677 875.824 91.7498 875.136 92.3139C874.446 92.8154 874.101 93.8184 874.101 95.3228V121.744ZM999.721 158.509H972.359V156.535C973.3 156.535 974.083 156.535 974.711 156.535C975.337 156.472 975.839 156.409 976.215 156.347C976.654 156.221 977.03 156.127 977.343 156.064C977.656 155.939 977.97 155.782 978.283 155.594C978.784 155.281 979.16 154.905 979.412 154.466C979.725 153.964 979.882 153.463 979.882 152.962C979.882 151.206 979.192 148.762 977.813 145.627L973.3 135.378H945.279L940.297 147.884C940.045 148.574 939.826 149.294 939.638 150.047C939.513 150.736 939.45 151.426 939.45 152.115C939.45 153.557 940.014 154.654 941.142 155.406C942.27 156.159 944.151 156.535 946.784 156.535V158.509H925.44V156.535C926.756 156.472 927.884 156.252 928.825 155.876C929.765 155.5 930.706 154.717 931.646 153.526C932.586 152.272 933.589 150.517 934.655 148.26C935.783 145.941 937.193 142.807 938.885 138.857L961.17 86.2021H963.239L990.036 147.132C990.915 149.138 991.667 150.736 992.293 151.927C992.983 153.118 993.673 154.059 994.362 154.748C995.051 155.375 995.803 155.814 996.618 156.064C997.496 156.315 998.53 156.472 999.721 156.535V158.509ZM971.889 131.053L959.478 101.435L947.066 131.053H971.889Z" fill="black"/>
<path d="M3.99954 297.495C2.63462 297.495 1.61886 297.331 0.952272 297.003C0.317426 296.659 0 296.135 0 295.43V266.283C0 265.562 0.317426 265.037 0.952272 264.71C1.61886 264.382 2.63462 264.218 3.99954 264.218C5.39619 264.218 6.41198 264.382 7.04681 264.71C7.68164 265.037 7.99909 265.562 7.99909 266.283V295.43C7.99909 296.135 7.68164 296.659 7.04681 297.003C6.41198 297.331 5.39619 297.495 3.99954 297.495ZM31.8051 297.495C29.1388 297.495 27.8056 296.807 27.8056 295.43V266.233C27.8056 264.857 29.1388 264.169 31.8051 264.169C33.551 264.169 35.0111 264.611 36.1856 265.496L58.659 282.945L56.9449 283.093L79.609 265.496C80.6884 264.611 82.3072 264.169 84.4656 264.169C86.6244 264.169 87.7033 264.857 87.7033 266.233V295.43C87.7033 296.807 86.3701 297.495 83.7038 297.495C81.0374 297.495 79.7042 296.807 79.7042 295.43V270.362L82.1801 270.805L62.1824 285.993C61.0083 286.878 59.3894 287.32 57.3258 287.32C55.8974 287.32 54.5961 286.878 53.4215 285.993L33.424 270.805L35.8047 271.149V295.43C35.8047 296.807 34.4715 297.495 31.8051 297.495ZM111.502 297.495C108.836 297.495 107.502 296.807 107.502 295.43V266.233C107.502 264.857 108.836 264.169 111.502 264.169H133.785C139.594 264.169 144.038 264.972 147.117 266.577C150.228 268.167 151.783 270.461 151.783 273.459V274.934C151.783 277.932 150.228 280.234 147.117 281.84C144.038 283.429 139.594 284.223 133.785 284.223H115.502V295.43C115.502 296.807 114.168 297.495 111.502 297.495ZM115.502 280.095H133.785C137.404 280.095 139.975 279.701 141.499 278.915C143.022 278.128 143.784 276.801 143.784 274.934V273.459C143.784 271.607 143.022 270.289 141.499 269.502C139.975 268.699 137.404 268.298 133.785 268.298H115.502V280.095ZM184.949 297.495C177.68 297.495 172.3 296.602 168.808 294.816C165.348 293.014 163.618 290.237 163.618 286.485V275.13C163.618 271.345 165.364 268.568 168.856 266.799C172.347 265.013 177.712 264.136 184.949 264.169H196.377C203.677 264.169 209.057 265.062 212.518 266.848C215.977 268.634 217.707 271.411 217.707 275.179V286.485C217.707 290.237 215.977 293.014 212.518 294.816C209.057 296.602 203.677 297.495 196.377 297.495H184.949ZM184.949 293.366H196.377C199.773 293.366 202.439 293.161 204.376 292.752C206.312 292.326 207.677 291.613 208.47 290.613C209.296 289.614 209.708 288.238 209.708 286.485V275.179C209.708 273.443 209.296 272.074 208.47 271.075C207.677 270.076 206.312 269.363 204.376 268.937C202.439 268.511 199.773 268.298 196.377 268.298H184.949C181.584 268.281 178.934 268.478 176.998 268.888C175.061 269.297 173.681 270.002 172.855 271.001C172.03 272.001 171.618 273.377 171.618 275.13V286.485C171.618 288.238 172.014 289.614 172.808 290.613C173.633 291.613 175.014 292.326 176.95 292.752C178.886 293.161 181.553 293.366 184.949 293.366ZM276.704 297.593C275.657 297.937 274.657 298.044 273.704 297.913C272.752 297.782 271.943 297.446 271.276 296.905L256.516 284.223H243.184V295.43C243.184 296.807 241.851 297.495 239.185 297.495C236.518 297.495 235.185 296.807 235.185 295.43V266.233C235.185 264.857 236.518 264.169 239.185 264.169H261.468C267.277 264.169 271.721 264.972 274.8 266.577C277.911 268.167 279.466 270.461 279.466 273.459V274.934C279.466 277.539 278.291 279.619 275.942 281.176C273.593 282.716 270.197 283.675 265.753 284.051L278.228 294.791C279.434 295.938 278.926 296.872 276.704 297.593ZM243.184 280.095H261.468C265.086 280.095 267.657 279.701 269.181 278.915C270.705 278.128 271.467 276.801 271.467 274.934V273.459C271.467 271.607 270.705 270.289 269.181 269.502C267.657 268.699 265.086 268.298 261.468 268.298H243.184V280.095ZM312.173 297.495C310.84 297.495 309.84 297.323 309.174 296.979C308.507 296.635 308.174 296.119 308.174 295.43V268.347H289.7C288.367 268.347 287.367 268.175 286.7 267.831C286.033 267.487 285.7 266.971 285.7 266.283C285.7 265.594 286.033 265.078 286.7 264.734C287.367 264.39 288.367 264.218 289.7 264.218H334.647C335.98 264.218 336.98 264.39 337.647 264.734C338.313 265.078 338.646 265.594 338.646 266.283C338.646 266.971 338.313 267.487 337.647 267.831C336.98 268.175 335.98 268.347 334.647 268.347H316.173V295.43C316.173 296.086 315.824 296.594 315.125 296.954C314.459 297.315 313.475 297.495 312.173 297.495ZM385.28 297.495C382.614 297.495 381.281 296.807 381.281 295.43V266.233C381.281 264.857 382.614 264.169 385.28 264.169H419.467C422.133 264.169 423.466 264.857 423.466 266.233C423.466 267.61 422.133 268.298 419.467 268.298H389.28V278.62H408.23C410.896 278.62 412.229 279.308 412.229 280.684C412.229 282.061 410.896 282.749 408.23 282.749H389.28V293.366H419.467C422.133 293.366 423.466 294.054 423.466 295.43C423.466 296.807 422.133 297.495 419.467 297.495H385.28ZM436.945 297.052C434.818 296.299 434.501 295.332 435.992 294.152L453.419 280.881L435.04 267.511C433.612 266.43 433.961 265.463 436.088 264.611C438.278 263.841 440.119 264.021 441.611 265.152L458.657 277.489L475.798 265.152C477.45 264.054 479.288 263.907 481.321 264.71C483.478 265.529 483.797 266.479 482.273 267.561L463.513 281.029L481.512 294.103C483.002 295.234 482.654 296.217 480.464 297.052C478.274 297.822 476.431 297.642 474.94 296.512L458.371 284.469L442.563 296.561C441.103 297.626 439.23 297.79 436.945 297.052ZM502.266 297.495C499.6 297.495 498.267 296.807 498.267 295.43V266.233C498.267 264.857 499.6 264.169 502.266 264.169H524.549C530.358 264.169 534.805 264.972 537.881 266.577C540.995 268.167 542.547 270.461 542.547 273.459V274.934C542.547 277.932 540.995 280.234 537.881 281.84C534.805 283.429 530.358 284.223 524.549 284.223H506.266V295.43C506.266 296.807 504.933 297.495 502.266 297.495ZM506.266 280.095H524.549C528.168 280.095 530.739 279.701 532.263 278.915C533.787 278.128 534.548 276.801 534.548 274.934V273.459C534.548 271.607 533.787 270.289 532.263 269.502C530.739 268.699 528.168 268.298 524.549 268.298H506.266V280.095ZM575.715 297.495C568.444 297.495 563.064 296.602 559.574 294.816C556.113 293.014 554.384 290.237 554.384 286.485V275.13C554.384 271.345 556.132 268.568 559.622 266.799C563.112 265.013 568.478 264.136 575.715 264.169H587.142C594.441 264.169 599.822 265.062 603.283 266.848C606.745 268.634 608.473 271.411 608.473 275.179V286.485C608.473 290.237 606.745 293.014 603.283 294.816C599.822 296.602 594.441 297.495 587.142 297.495H575.715ZM575.715 293.366H587.142C590.537 293.366 593.203 293.161 595.141 292.752C597.079 292.326 598.441 291.613 599.236 290.613C600.06 289.614 600.474 288.238 600.474 286.485V275.179C600.474 273.443 600.06 272.074 599.236 271.075C598.441 270.076 597.079 269.363 595.141 268.937C593.203 268.511 590.537 268.298 587.142 268.298H575.715C572.349 268.281 569.701 268.478 567.764 268.888C565.826 269.297 564.445 270.002 563.621 271.001C562.797 272.001 562.383 273.377 562.383 275.13V286.485C562.383 288.238 562.778 289.614 563.574 290.613C564.397 291.613 565.778 292.326 567.716 292.752C569.654 293.161 572.32 293.366 575.715 293.366ZM667.471 297.593C666.424 297.937 665.424 298.044 664.472 297.913C663.519 297.782 662.71 297.446 662.043 296.905L647.283 284.223H633.951V295.43C633.951 296.807 632.618 297.495 629.952 297.495C627.285 297.495 625.952 296.807 625.952 295.43V266.233C625.952 264.857 627.285 264.169 629.952 264.169H652.235C658.044 264.169 662.486 264.972 665.567 266.577C668.676 268.167 670.233 270.461 670.233 273.459V274.934C670.233 277.539 669.057 279.619 666.709 281.176C664.362 282.716 660.962 283.675 656.52 284.051L668.995 294.791C670.199 295.938 669.695 296.872 667.471 297.593ZM633.951 280.095H652.235C655.854 280.095 658.425 279.701 659.948 278.915C661.472 278.128 662.234 276.801 662.234 274.934V273.459C662.234 271.607 661.472 270.289 659.948 269.502C658.425 268.699 655.854 268.298 652.235 268.298H633.951V280.095ZM702.939 297.495C701.605 297.495 700.606 297.323 699.939 296.979C699.272 296.635 698.939 296.119 698.939 295.43V268.347H680.465C679.132 268.347 678.132 268.175 677.465 267.831C676.799 267.487 676.465 266.971 676.465 266.283C676.465 265.594 676.799 265.078 677.465 264.734C678.132 264.39 679.132 264.218 680.465 264.218H725.412C726.745 264.218 727.745 264.39 728.412 264.734C729.078 265.078 729.412 265.594 729.412 266.283C729.412 266.971 729.078 267.487 728.412 267.831C727.745 268.175 726.745 268.347 725.412 268.347H706.938V295.43C706.938 296.086 706.591 296.594 705.891 296.954C705.224 297.315 704.243 297.495 702.939 297.495Z" fill="#8E8E8E"/>
<path d="M995.588 259.731H757.353C754.917 259.731 752.941 261.707 752.941 264.143C752.941 266.58 754.917 268.555 757.353 268.555H995.588C998.025 268.555 1000 266.58 1000 264.143C1000 261.707 998.025 259.731 995.588 259.731Z" fill="url(#paint1_linear_112_145)"/>
<defs>
<filter id="filter0_d_112_145" x="265.73" y="0.715088" width="251.604" height="251.602" filterUnits="userSpaceOnUse" color-interpolation-filters="sRGB">
<feFlood flood-opacity="0" result="BackgroundImageFix"/>
<feColorMatrix in="SourceAlpha" type="matrix" values="0 0 0 0 0 0 0 0 0 0 0 0 0 0 0 0 0 0 127 0" result="hardAlpha"/>
<feOffset dy="4"/>
<feGaussianBlur stdDeviation="4"/>
<feComposite in2="hardAlpha" operator="out"/>
<feColorMatrix type="matrix" values="0 0 0 0 0 0 0 0 0 0 0 0 0 0 0 0 0 0 0.1 0"/>
<feBlend mode="normal" in2="BackgroundImageFix" result="effect1_dropShadow_112_145"/>
<feBlend mode="normal" in="SourceGraphic" in2="effect1_dropShadow_112_145" result="shape"/>
</filter>
<radialGradient id="paint0_radial_112_145" cx="0" cy="0" r="1" gradientUnits="userSpaceOnUse" gradientTransform="translate(391.532 122.516) rotate(90) scale(117.801 117.802)">
<stop offset="0.652428" stop-color="white" stop-opacity="0"/>
<stop offset="1" stop-color="#D7D7D7"/>
</radialGradient>
<linearGradient id="paint1_linear_112_145" x1="752.941" y1="264.143" x2="1000" y2="264.143" gradientUnits="userSpaceOnUse">
<stop offset="0.333333" stop-color="#009246"/>
<stop offset="0.333334" stop-color="white"/>
<stop offset="0.666666" stop-color="white"/>
<stop offset="0.666667" stop-color="#FF0000"/>
</linearGradient>
</defs>
</svg>
